<?xml version="1.0" encoding="utf-8"?>
<svg xmlns="http://www.w3.org/2000/svg" xmlns:xlink="http://www.w3.org/1999/xlink" width="600" height="400" viewBox="0 0 2400 1600">
<defs>
  <clipPath id="clip460">
    <rect x="0" y="0" width="2400" height="1600"/>
  </clipPath>
</defs>
<path clip-path="url(#clip460)" d="M0 1600 L2400 1600 L2400 0 L0 0  Z" fill="#ffffff" fill-rule="evenodd" fill-opacity="1"/>
<defs>
  <clipPath id="clip461">
    <rect x="480" y="0" width="1681" height="1600"/>
  </clipPath>
</defs>
<path clip-path="url(#clip460)" d="M186.274 1410.9 L2352.76 1410.9 L2352.76 47.2441 L186.274 47.2441  Z" fill="#ffffff" fill-rule="evenodd" fill-opacity="1"/>
<defs>
  <clipPath id="clip462">
    <rect x="186" y="47" width="2167" height="1365"/>
  </clipPath>
</defs>
<polyline clip-path="url(#clip462)" style="stroke:#000000; stroke-linecap:round; stroke-linejoin:round; stroke-width:2; stroke-opacity:0.1; fill:none" points="950.915,1410.9 950.915,47.2441 "/>
<polyline clip-path="url(#clip462)" style="stroke:#000000; stroke-linecap:round; stroke-linejoin:round; stroke-width:2; stroke-opacity:0.1; fill:none" points="2225.32,1410.9 2225.32,47.2441 "/>
<polyline clip-path="url(#clip460)" style="stroke:#000000; stroke-linecap:round; stroke-linejoin:round; stroke-width:4; stroke-opacity:1; fill:none" points="186.274,1410.9 2352.76,1410.9 "/>
<polyline clip-path="url(#clip460)" style="stroke:#000000; stroke-linecap:round; stroke-linejoin:round; stroke-width:4; stroke-opacity:1; fill:none" points="950.915,1410.9 950.915,1392 "/>
<polyline clip-path="url(#clip460)" style="stroke:#000000; stroke-linecap:round; stroke-linejoin:round; stroke-width:4; stroke-opacity:1; fill:none" points="2225.32,1410.9 2225.32,1392 "/>
<path clip-path="url(#clip460)" d="M915.897 1485.02 L923.536 1485.02 L923.536 1458.66 L915.226 1460.32 L915.226 1456.06 L923.49 1454.4 L928.166 1454.4 L928.166 1485.02 L935.805 1485.02 L935.805 1488.96 L915.897 1488.96 L915.897 1485.02 Z" fill="#000000" fill-rule="nonzero" fill-opacity="1" /><path clip-path="url(#clip460)" d="M955.249 1457.48 Q951.638 1457.48 949.809 1461.04 Q948.004 1464.58 948.004 1471.71 Q948.004 1478.82 949.809 1482.38 Q951.638 1485.92 955.249 1485.92 Q958.883 1485.92 960.689 1482.38 Q962.518 1478.82 962.518 1471.71 Q962.518 1464.58 960.689 1461.04 Q958.883 1457.48 955.249 1457.48 M955.249 1453.77 Q961.059 1453.77 964.115 1458.38 Q967.194 1462.96 967.194 1471.71 Q967.194 1480.44 964.115 1485.04 Q961.059 1489.63 955.249 1489.63 Q949.439 1489.63 946.36 1485.04 Q943.305 1480.44 943.305 1471.71 Q943.305 1462.96 946.36 1458.38 Q949.439 1453.77 955.249 1453.77 Z" fill="#000000" fill-rule="nonzero" fill-opacity="1" /><path clip-path="url(#clip460)" d="M976.898 1435.97 Q973.964 1435.97 972.479 1438.86 Q971.011 1441.74 971.011 1447.53 Q971.011 1453.31 972.479 1456.2 Q973.964 1459.08 976.898 1459.08 Q979.851 1459.08 981.318 1456.2 Q982.804 1453.31 982.804 1447.53 Q982.804 1441.74 981.318 1438.86 Q979.851 1435.97 976.898 1435.97 M976.898 1432.96 Q981.619 1432.96 984.102 1436.7 Q986.603 1440.43 986.603 1447.53 Q986.603 1454.62 984.102 1458.37 Q981.619 1462.09 976.898 1462.09 Q972.178 1462.09 969.676 1458.37 Q967.194 1454.62 967.194 1447.53 Q967.194 1440.43 969.676 1436.7 Q972.178 1432.96 976.898 1432.96 Z" fill="#000000" fill-rule="nonzero" fill-opacity="1" /><path clip-path="url(#clip460)" d="M2178.89 1485.02 L2186.53 1485.02 L2186.53 1458.66 L2178.22 1460.32 L2178.22 1456.06 L2186.48 1454.4 L2191.16 1454.4 L2191.16 1485.02 L2198.8 1485.02 L2198.8 1488.96 L2178.89 1488.96 L2178.89 1485.02 Z" fill="#000000" fill-rule="nonzero" fill-opacity="1" /><path clip-path="url(#clip460)" d="M2218.24 1457.48 Q2214.63 1457.48 2212.8 1461.04 Q2211 1464.58 2211 1471.71 Q2211 1478.82 2212.8 1482.38 Q2214.63 1485.92 2218.24 1485.92 Q2221.88 1485.92 2223.68 1482.38 Q2225.51 1478.82 2225.51 1471.71 Q2225.51 1464.58 2223.68 1461.04 Q2221.88 1457.48 2218.24 1457.48 M2218.24 1453.77 Q2224.05 1453.77 2227.11 1458.38 Q2230.19 1462.96 2230.19 1471.71 Q2230.19 1480.44 2227.11 1485.04 Q2224.05 1489.63 2218.24 1489.63 Q2212.43 1489.63 2209.35 1485.04 Q2206.3 1480.44 2206.3 1471.71 Q2206.3 1462.96 2209.35 1458.38 Q2212.43 1453.77 2218.24 1453.77 Z" fill="#000000" fill-rule="nonzero" fill-opacity="1" /><path clip-path="url(#clip460)" d="M2230.73 1458.35 L2236.94 1458.35 L2236.94 1436.93 L2230.19 1438.28 L2230.19 1434.82 L2236.9 1433.47 L2240.7 1433.47 L2240.7 1458.35 L2246.91 1458.35 L2246.91 1461.55 L2230.73 1461.55 L2230.73 1458.35 Z" fill="#000000" fill-rule="nonzero" fill-opacity="1" /><path clip-path="url(#clip460)" d="M2262.71 1435.97 Q2259.77 1435.97 2258.29 1438.86 Q2256.82 1441.74 2256.82 1447.53 Q2256.82 1453.31 2258.29 1456.2 Q2259.77 1459.08 2262.71 1459.08 Q2265.66 1459.08 2267.13 1456.2 Q2268.61 1453.31 2268.61 1447.53 Q2268.61 1441.74 2267.13 1438.86 Q2265.66 1435.97 2262.71 1435.97 M2262.71 1432.96 Q2267.43 1432.96 2269.91 1436.7 Q2272.41 1440.43 2272.41 1447.53 Q2272.41 1454.62 2269.91 1458.37 Q2267.43 1462.09 2262.71 1462.09 Q2257.99 1462.09 2255.48 1458.37 Q2253 1454.62 2253 1447.53 Q2253 1440.43 2255.48 1436.7 Q2257.99 1432.96 2262.71 1432.96 Z" fill="#000000" fill-rule="nonzero" fill-opacity="1" /><path clip-path="url(#clip460)" d="M1268.58 1528.42 L1268.58 1538.54 L1280.64 1538.54 L1280.64 1543.09 L1268.58 1543.09 L1268.58 1562.44 Q1268.58 1566.8 1269.75 1568.04 Q1270.96 1569.28 1274.62 1569.28 L1280.64 1569.28 L1280.64 1574.19 L1274.62 1574.19 Q1267.84 1574.19 1265.27 1571.67 Q1262.69 1569.12 1262.69 1562.44 L1262.69 1543.09 L1258.39 1543.09 L1258.39 1538.54 L1262.69 1538.54 L1262.69 1528.42 L1268.58 1528.42 Z" fill="#000000" fill-rule="nonzero" fill-opacity="1" /><polyline clip-path="url(#clip462)" style="stroke:#000000; stroke-linecap:round; stroke-linejoin:round; stroke-width:2; stroke-opacity:0.1; fill:none" points="186.274,1372.3 2352.76,1372.3 "/>
<polyline clip-path="url(#clip462)" style="stroke:#000000; stroke-linecap:round; stroke-linejoin:round; stroke-width:2; stroke-opacity:0.1; fill:none" points="186.274,1050.69 2352.76,1050.69 "/>
<polyline clip-path="url(#clip462)" style="stroke:#000000; stroke-linecap:round; stroke-linejoin:round; stroke-width:2; stroke-opacity:0.1; fill:none" points="186.274,729.07 2352.76,729.07 "/>
<polyline clip-path="url(#clip462)" style="stroke:#000000; stroke-linecap:round; stroke-linejoin:round; stroke-width:2; stroke-opacity:0.1; fill:none" points="186.274,407.454 2352.76,407.454 "/>
<polyline clip-path="url(#clip462)" style="stroke:#000000; stroke-linecap:round; stroke-linejoin:round; stroke-width:2; stroke-opacity:0.1; fill:none" points="186.274,85.838 2352.76,85.838 "/>
<polyline clip-path="url(#clip460)" style="stroke:#000000; stroke-linecap:round; stroke-linejoin:round; stroke-width:4; stroke-opacity:1; fill:none" points="186.274,1410.9 186.274,47.2441 "/>
<polyline clip-path="url(#clip460)" style="stroke:#000000; stroke-linecap:round; stroke-linejoin:round; stroke-width:4; stroke-opacity:1; fill:none" points="186.274,1372.3 205.172,1372.3 "/>
<polyline clip-path="url(#clip460)" style="stroke:#000000; stroke-linecap:round; stroke-linejoin:round; stroke-width:4; stroke-opacity:1; fill:none" points="186.274,1050.69 205.172,1050.69 "/>
<polyline clip-path="url(#clip460)" style="stroke:#000000; stroke-linecap:round; stroke-linejoin:round; stroke-width:4; stroke-opacity:1; fill:none" points="186.274,729.07 205.172,729.07 "/>
<polyline clip-path="url(#clip460)" style="stroke:#000000; stroke-linecap:round; stroke-linejoin:round; stroke-width:4; stroke-opacity:1; fill:none" points="186.274,407.454 205.172,407.454 "/>
<polyline clip-path="url(#clip460)" style="stroke:#000000; stroke-linecap:round; stroke-linejoin:round; stroke-width:4; stroke-opacity:1; fill:none" points="186.274,85.838 205.172,85.838 "/>
<path clip-path="url(#clip460)" d="M62.9365 1358.1 Q59.3254 1358.1 57.4967 1361.67 Q55.6912 1365.21 55.6912 1372.34 Q55.6912 1379.44 57.4967 1383.01 Q59.3254 1386.55 62.9365 1386.55 Q66.5707 1386.55 68.3763 1383.01 Q70.205 1379.44 70.205 1372.34 Q70.205 1365.21 68.3763 1361.67 Q66.5707 1358.1 62.9365 1358.1 M62.9365 1354.4 Q68.7467 1354.4 71.8022 1359 Q74.8809 1363.59 74.8809 1372.34 Q74.8809 1381.06 71.8022 1385.67 Q68.7467 1390.25 62.9365 1390.25 Q57.1264 1390.25 54.0477 1385.67 Q50.9921 1381.06 50.9921 1372.34 Q50.9921 1363.59 54.0477 1359 Q57.1264 1354.4 62.9365 1354.4 Z" fill="#000000" fill-rule="nonzero" fill-opacity="1" /><path clip-path="url(#clip460)" d="M83.0984 1383.7 L87.9827 1383.7 L87.9827 1389.58 L83.0984 1389.58 L83.0984 1383.7 Z" fill="#000000" fill-rule="nonzero" fill-opacity="1" /><path clip-path="url(#clip460)" d="M108.168 1358.1 Q104.557 1358.1 102.728 1361.67 Q100.922 1365.21 100.922 1372.34 Q100.922 1379.44 102.728 1383.01 Q104.557 1386.55 108.168 1386.55 Q111.802 1386.55 113.608 1383.01 Q115.436 1379.44 115.436 1372.34 Q115.436 1365.21 113.608 1361.67 Q111.802 1358.1 108.168 1358.1 M108.168 1354.4 Q113.978 1354.4 117.033 1359 Q120.112 1363.59 120.112 1372.34 Q120.112 1381.06 117.033 1385.67 Q113.978 1390.25 108.168 1390.25 Q102.358 1390.25 99.2789 1385.67 Q96.2234 1381.06 96.2234 1372.34 Q96.2234 1363.59 99.2789 1359 Q102.358 1354.4 108.168 1354.4 Z" fill="#000000" fill-rule="nonzero" fill-opacity="1" /><path clip-path="url(#clip460)" d="M138.33 1358.1 Q134.719 1358.1 132.89 1361.67 Q131.084 1365.21 131.084 1372.34 Q131.084 1379.44 132.89 1383.01 Q134.719 1386.55 138.33 1386.55 Q141.964 1386.55 143.769 1383.01 Q145.598 1379.44 145.598 1372.34 Q145.598 1365.21 143.769 1361.67 Q141.964 1358.1 138.33 1358.1 M138.33 1354.4 Q144.14 1354.4 147.195 1359 Q150.274 1363.59 150.274 1372.34 Q150.274 1381.06 147.195 1385.67 Q144.14 1390.25 138.33 1390.25 Q132.519 1390.25 129.441 1385.67 Q126.385 1381.06 126.385 1372.34 Q126.385 1363.59 129.441 1359 Q132.519 1354.4 138.33 1354.4 Z" fill="#000000" fill-rule="nonzero" fill-opacity="1" /><path clip-path="url(#clip460)" d="M63.9319 1036.49 Q60.3208 1036.49 58.4921 1040.05 Q56.6865 1043.59 56.6865 1050.72 Q56.6865 1057.83 58.4921 1061.39 Q60.3208 1064.93 63.9319 1064.93 Q67.5661 1064.93 69.3717 1061.39 Q71.2004 1057.83 71.2004 1050.72 Q71.2004 1043.59 69.3717 1040.05 Q67.5661 1036.49 63.9319 1036.49 M63.9319 1032.78 Q69.742 1032.78 72.7976 1037.39 Q75.8763 1041.97 75.8763 1050.72 Q75.8763 1059.45 72.7976 1064.05 Q69.742 1068.64 63.9319 1068.64 Q58.1217 1068.64 55.043 1064.05 Q51.9875 1059.45 51.9875 1050.72 Q51.9875 1041.97 55.043 1037.39 Q58.1217 1032.78 63.9319 1032.78 Z" fill="#000000" fill-rule="nonzero" fill-opacity="1" /><path clip-path="url(#clip460)" d="M84.0938 1062.09 L88.978 1062.09 L88.978 1067.97 L84.0938 1067.97 L84.0938 1062.09 Z" fill="#000000" fill-rule="nonzero" fill-opacity="1" /><path clip-path="url(#clip460)" d="M103.191 1064.03 L119.51 1064.03 L119.51 1067.97 L97.566 1067.97 L97.566 1064.03 Q100.228 1061.28 104.811 1056.65 Q109.418 1051.99 110.598 1050.65 Q112.844 1048.13 113.723 1046.39 Q114.626 1044.63 114.626 1042.94 Q114.626 1040.19 112.682 1038.45 Q110.76 1036.72 107.658 1036.72 Q105.459 1036.72 103.006 1037.48 Q100.575 1038.24 97.7974 1039.8 L97.7974 1035.07 Q100.621 1033.94 103.075 1033.36 Q105.529 1032.78 107.566 1032.78 Q112.936 1032.78 116.131 1035.47 Q119.325 1038.15 119.325 1042.64 Q119.325 1044.77 118.515 1046.69 Q117.728 1048.59 115.621 1051.18 Q115.043 1051.86 111.941 1055.07 Q108.839 1058.27 103.191 1064.03 Z" fill="#000000" fill-rule="nonzero" fill-opacity="1" /><path clip-path="url(#clip460)" d="M129.371 1033.41 L147.728 1033.41 L147.728 1037.34 L133.654 1037.34 L133.654 1045.81 Q134.672 1045.47 135.691 1045.3 Q136.709 1045.12 137.728 1045.12 Q143.515 1045.12 146.894 1048.29 Q150.274 1051.46 150.274 1056.88 Q150.274 1062.46 146.802 1065.56 Q143.33 1068.64 137.01 1068.64 Q134.834 1068.64 132.566 1068.27 Q130.32 1067.9 127.913 1067.16 L127.913 1062.46 Q129.996 1063.59 132.219 1064.15 Q134.441 1064.7 136.918 1064.7 Q140.922 1064.7 143.26 1062.6 Q145.598 1060.49 145.598 1056.88 Q145.598 1053.27 143.26 1051.16 Q140.922 1049.05 136.918 1049.05 Q135.043 1049.05 133.168 1049.47 Q131.316 1049.89 129.371 1050.77 L129.371 1033.41 Z" fill="#000000" fill-rule="nonzero" fill-opacity="1" /><path clip-path="url(#clip460)" d="M62.9365 714.869 Q59.3254 714.869 57.4967 718.434 Q55.6912 721.975 55.6912 729.105 Q55.6912 736.212 57.4967 739.776 Q59.3254 743.318 62.9365 743.318 Q66.5707 743.318 68.3763 739.776 Q70.205 736.212 70.205 729.105 Q70.205 721.975 68.3763 718.434 Q66.5707 714.869 62.9365 714.869 M62.9365 711.165 Q68.7467 711.165 71.8022 715.772 Q74.8809 720.355 74.8809 729.105 Q74.8809 737.832 71.8022 742.438 Q68.7467 747.022 62.9365 747.022 Q57.1264 747.022 54.0477 742.438 Q50.9921 737.832 50.9921 729.105 Q50.9921 720.355 54.0477 715.772 Q57.1264 711.165 62.9365 711.165 Z" fill="#000000" fill-rule="nonzero" fill-opacity="1" /><path clip-path="url(#clip460)" d="M83.0984 740.471 L87.9827 740.471 L87.9827 746.35 L83.0984 746.35 L83.0984 740.471 Z" fill="#000000" fill-rule="nonzero" fill-opacity="1" /><path clip-path="url(#clip460)" d="M98.2141 711.79 L116.57 711.79 L116.57 715.726 L102.496 715.726 L102.496 724.198 Q103.515 723.85 104.534 723.688 Q105.552 723.503 106.571 723.503 Q112.358 723.503 115.737 726.675 Q119.117 729.846 119.117 735.262 Q119.117 740.841 115.645 743.943 Q112.172 747.022 105.853 747.022 Q103.677 747.022 101.409 746.651 Q99.1632 746.281 96.7558 745.54 L96.7558 740.841 Q98.8391 741.975 101.061 742.531 Q103.284 743.086 105.76 743.086 Q109.765 743.086 112.103 740.98 Q114.441 738.874 114.441 735.262 Q114.441 731.651 112.103 729.545 Q109.765 727.438 105.76 727.438 Q103.885 727.438 102.01 727.855 Q100.159 728.272 98.2141 729.151 L98.2141 711.79 Z" fill="#000000" fill-rule="nonzero" fill-opacity="1" /><path clip-path="url(#clip460)" d="M138.33 714.869 Q134.719 714.869 132.89 718.434 Q131.084 721.975 131.084 729.105 Q131.084 736.212 132.89 739.776 Q134.719 743.318 138.33 743.318 Q141.964 743.318 143.769 739.776 Q145.598 736.212 145.598 729.105 Q145.598 721.975 143.769 718.434 Q141.964 714.869 138.33 714.869 M138.33 711.165 Q144.14 711.165 147.195 715.772 Q150.274 720.355 150.274 729.105 Q150.274 737.832 147.195 742.438 Q144.14 747.022 138.33 747.022 Q132.519 747.022 129.441 742.438 Q126.385 737.832 126.385 729.105 Q126.385 720.355 129.441 715.772 Q132.519 711.165 138.33 711.165 Z" fill="#000000" fill-rule="nonzero" fill-opacity="1" /><path clip-path="url(#clip460)" d="M63.9319 393.253 Q60.3208 393.253 58.4921 396.818 Q56.6865 400.359 56.6865 407.489 Q56.6865 414.595 58.4921 418.16 Q60.3208 421.702 63.9319 421.702 Q67.5661 421.702 69.3717 418.16 Q71.2004 414.595 71.2004 407.489 Q71.2004 400.359 69.3717 396.818 Q67.5661 393.253 63.9319 393.253 M63.9319 389.549 Q69.742 389.549 72.7976 394.156 Q75.8763 398.739 75.8763 407.489 Q75.8763 416.216 72.7976 420.822 Q69.742 425.405 63.9319 425.405 Q58.1217 425.405 55.043 420.822 Q51.9875 416.216 51.9875 407.489 Q51.9875 398.739 55.043 394.156 Q58.1217 389.549 63.9319 389.549 Z" fill="#000000" fill-rule="nonzero" fill-opacity="1" /><path clip-path="url(#clip460)" d="M84.0938 418.855 L88.978 418.855 L88.978 424.734 L84.0938 424.734 L84.0938 418.855 Z" fill="#000000" fill-rule="nonzero" fill-opacity="1" /><path clip-path="url(#clip460)" d="M97.9826 390.174 L120.205 390.174 L120.205 392.165 L107.658 424.734 L102.774 424.734 L114.58 394.109 L97.9826 394.109 L97.9826 390.174 Z" fill="#000000" fill-rule="nonzero" fill-opacity="1" /><path clip-path="url(#clip460)" d="M129.371 390.174 L147.728 390.174 L147.728 394.109 L133.654 394.109 L133.654 402.582 Q134.672 402.234 135.691 402.072 Q136.709 401.887 137.728 401.887 Q143.515 401.887 146.894 405.058 Q150.274 408.23 150.274 413.646 Q150.274 419.225 146.802 422.327 Q143.33 425.405 137.01 425.405 Q134.834 425.405 132.566 425.035 Q130.32 424.665 127.913 423.924 L127.913 419.225 Q129.996 420.359 132.219 420.915 Q134.441 421.47 136.918 421.47 Q140.922 421.47 143.26 419.364 Q145.598 417.257 145.598 413.646 Q145.598 410.035 143.26 407.929 Q140.922 405.822 136.918 405.822 Q135.043 405.822 133.168 406.239 Q131.316 406.656 129.371 407.535 L129.371 390.174 Z" fill="#000000" fill-rule="nonzero" fill-opacity="1" /><path clip-path="url(#clip460)" d="M53.7467 99.1828 L61.3856 99.1828 L61.3856 72.8172 L53.0754 74.4839 L53.0754 70.2247 L61.3393 68.558 L66.0152 68.558 L66.0152 99.1828 L73.654 99.1828 L73.654 103.118 L53.7467 103.118 L53.7467 99.1828 Z" fill="#000000" fill-rule="nonzero" fill-opacity="1" /><path clip-path="url(#clip460)" d="M83.0984 97.2384 L87.9827 97.2384 L87.9827 103.118 L83.0984 103.118 L83.0984 97.2384 Z" fill="#000000" fill-rule="nonzero" fill-opacity="1" /><path clip-path="url(#clip460)" d="M108.168 71.6367 Q104.557 71.6367 102.728 75.2015 Q100.922 78.7431 100.922 85.8727 Q100.922 92.9792 102.728 96.544 Q104.557 100.086 108.168 100.086 Q111.802 100.086 113.608 96.544 Q115.436 92.9792 115.436 85.8727 Q115.436 78.7431 113.608 75.2015 Q111.802 71.6367 108.168 71.6367 M108.168 67.933 Q113.978 67.933 117.033 72.5395 Q120.112 77.1228 120.112 85.8727 Q120.112 94.5995 117.033 99.206 Q113.978 103.789 108.168 103.789 Q102.358 103.789 99.2789 99.206 Q96.2234 94.5995 96.2234 85.8727 Q96.2234 77.1228 99.2789 72.5395 Q102.358 67.933 108.168 67.933 Z" fill="#000000" fill-rule="nonzero" fill-opacity="1" /><path clip-path="url(#clip460)" d="M138.33 71.6367 Q134.719 71.6367 132.89 75.2015 Q131.084 78.7431 131.084 85.8727 Q131.084 92.9792 132.89 96.544 Q134.719 100.086 138.33 100.086 Q141.964 100.086 143.769 96.544 Q145.598 92.9792 145.598 85.8727 Q145.598 78.7431 143.769 75.2015 Q141.964 71.6367 138.33 71.6367 M138.33 67.933 Q144.14 67.933 147.195 72.5395 Q150.274 77.1228 150.274 85.8727 Q150.274 94.5995 147.195 99.206 Q144.14 103.789 138.33 103.789 Q132.519 103.789 129.441 99.206 Q126.385 94.5995 126.385 85.8727 Q126.385 77.1228 129.441 72.5395 Q132.519 67.933 138.33 67.933 Z" fill="#000000" fill-rule="nonzero" fill-opacity="1" /><polyline clip-path="url(#clip462)" style="stroke:#009af9; stroke-linecap:round; stroke-linejoin:round; stroke-width:4; stroke-opacity:1; fill:none" points="186.274,85.8381 188.443,85.8381 190.611,85.8381 192.78,85.8381 194.949,85.8381 197.117,85.8381 199.286,85.8381 201.455,85.8381 203.623,85.8381 205.792,85.8381 207.961,85.8381 210.129,85.8381 212.298,85.8381 214.466,85.8381 216.635,85.8381 218.804,85.8381 220.972,85.8381 223.141,85.8381 225.31,85.8381 227.478,85.8381 229.647,85.8381 231.816,85.8381 233.984,85.8381 236.153,85.8381 238.322,85.8381 240.49,85.8381 242.659,85.8381 244.828,85.8382 246.996,85.8382 249.165,85.8382 251.334,85.8382 253.502,85.8382 255.671,85.8382 257.839,85.8382 260.008,85.8382 262.177,85.8382 264.345,85.8382 266.514,85.8382 268.683,85.8382 270.851,85.8382 273.02,85.8383 275.189,85.8383 277.357,85.8383 279.526,85.8383 281.695,85.8383 283.863,85.8383 286.032,85.8383 288.201,85.8383 290.369,85.8383 292.538,85.8384 294.707,85.8384 296.875,85.8384 299.044,85.8384 301.212,85.8384 303.381,85.8384 305.55,85.8384 307.718,85.8385 309.887,85.8385 312.056,85.8385 314.224,85.8385 316.393,85.8385 318.562,85.8386 320.73,85.8386 322.899,85.8386 325.068,85.8386 327.236,85.8387 329.405,85.8387 331.574,85.8387 333.742,85.8387 335.911,85.8388 338.08,85.8388 340.248,85.8388 342.417,85.8389 344.585,85.8389 346.754,85.8389 348.923,85.839 351.091,85.839 353.26,85.8391 355.429,85.8391 357.597,85.8391 359.766,85.8392 361.935,85.8392 364.103,85.8393 366.272,85.8393 368.441,85.8394 370.609,85.8394 372.778,85.8395 374.947,85.8396 377.115,85.8396 379.284,85.8397 381.453,85.8398 383.621,85.8398 385.79,85.8399 387.959,85.84 390.127,85.8401 392.296,85.8401 394.464,85.8402 396.633,85.8403 398.802,85.8404 400.97,85.8405 403.139,85.8406 405.308,85.8407 407.476,85.8408 409.645,85.8409 411.814,85.841 413.982,85.8412 416.151,85.8413 418.32,85.8414 420.488,85.8415 422.657,85.8417 424.826,85.8418 426.994,85.842 429.163,85.8421 431.332,85.8423 433.5,85.8425 435.669,85.8427 437.837,85.8429 440.006,85.843 442.175,85.8432 444.343,85.8435 446.512,85.8437 448.681,85.8439 450.849,85.8441 453.018,85.8444 455.187,85.8446 457.355,85.8449 459.524,85.8452 461.693,85.8455 463.861,85.8458 466.03,85.8461 468.199,85.8464 470.367,85.8467 472.536,85.8471 474.705,85.8474 476.873,85.8478 479.042,85.8482 481.21,85.8486 483.379,85.849 485.548,85.8495 487.716,85.8499 489.885,85.8504 492.054,85.8509 494.222,85.8514 496.391,85.852 498.56,85.8525 500.728,85.8531 502.897,85.8537 505.066,85.8543 507.234,85.855 509.403,85.8557 511.572,85.8564 513.74,85.8571 515.909,85.8579 518.078,85.8587 520.246,85.8595 522.415,85.8603 524.583,85.8612 526.752,85.8622 528.921,85.8631 531.089,85.8641 533.258,85.8652 535.427,85.8663 537.595,85.8674 539.764,85.8686 541.933,85.8698 544.101,85.8711 546.27,85.8724 548.439,85.8738 550.607,85.8752 552.776,85.8767 554.945,85.8782 557.113,85.8798 559.282,85.8815 561.451,85.8832 563.619,85.885 565.788,85.8869 567.956,85.8889 570.125,85.8909 572.294,85.893 574.462,85.8952 576.631,85.8975 578.8,85.8999 580.968,85.9024 583.137,85.9049 585.306,85.9076 587.474,85.9104 589.643,85.9133 591.812,85.9163 593.98,85.9194 596.149,85.9227 598.318,85.926 600.486,85.9296 602.655,85.9332 604.824,85.937 606.992,85.941 609.161,85.9451 611.33,85.9494 613.498,85.9538 615.667,85.9584 617.835,85.9632 620.004,85.9682 622.173,85.9734 624.341,85.9789 626.51,85.9845 628.679,85.9903 630.847,85.9964 633.016,86.0027 635.185,86.0093 637.353,86.0162 639.522,86.0233 641.691,86.0307 643.859,86.0384 646.028,86.0464 648.197,86.0547 650.365,86.0633 652.534,86.0723 654.703,86.0817 656.871,86.0914 659.04,86.1015 661.208,86.1121 663.377,86.123 665.546,86.1344 667.714,86.1462 669.883,86.1585 672.052,86.1713 674.22,86.1846 676.389,86.1984 678.558,86.2128 680.726,86.2278 682.895,86.2433 685.064,86.2595 687.232,86.2763 689.401,86.2938 691.57,86.312 693.738,86.3308 695.907,86.3505 698.076,86.3709 700.244,86.3922 702.413,86.4143 704.581,86.4373 706.75,86.4612 708.919,86.486 711.087,86.5119 713.256,86.5387 715.425,86.5666 717.593,86.5956 719.762,86.6257 721.931,86.6571 724.099,86.6897 726.268,86.7237 728.437,86.759 730.605,86.7956 732.774,86.8338 734.943,86.8734 737.111,86.9145 739.28,86.9573 741.449,87.0018 743.617,87.0481 745.786,87.0962 747.954,87.1462 750.123,87.1983 752.292,87.2524 754.46,87.3087 756.629,87.3671 758.798,87.4277 760.966,87.4907 763.135,87.5562 765.304,87.6243 767.472,87.6952 769.641,87.7688 771.81,87.8455 773.978,87.9252 776.147,88.008 778.316,88.0942 780.484,88.1832 782.653,88.2757 784.822,88.3719 786.99,88.472 789.159,88.5761 791.328,88.6843 793.496,88.7968 795.665,88.9139 797.833,89.0356 800.002,89.1622 802.171,89.293 804.339,89.4284 806.508,89.5692 808.677,89.7157 810.845,89.868 813.014,90.0264 815.183,90.1911 817.351,90.3624 819.52,90.5405 821.689,90.7258 823.857,90.9177 826.026,91.1148 828.195,91.3199 830.363,91.5331 832.532,91.7548 834.701,91.9854 836.869,92.2252 839.038,92.4746 841.206,92.734 843.375,93.0037 845.544,93.2842 847.712,93.5698 849.881,93.866 852.05,94.174 854.218,94.4944 856.387,94.8275 858.556,95.174 860.724,95.5343 862.893,95.909 865.062,96.2987 867.23,96.704 869.399,97.1175 871.568,97.5408 873.736,97.9809 875.905,98.4387 878.074,98.9148 880.242,99.4099 882.411,99.9248 884.579,100.46 886.748,101.017 888.917,101.596 891.085,102.193 893.254,102.788 895.423,103.408 897.591,104.052 899.76,104.722 901.929,105.418 904.097,106.143 906.266,106.896 908.435,107.68 910.603,108.495 912.772,109.342 914.941,110.172 917.109,111.026 919.278,111.914 921.447,112.837 923.615,113.797 925.784,114.795 927.952,115.834 930.121,116.914 932.29,118.037 934.458,119.205 936.627,120.362 938.796,121.507 940.964,122.697 943.133,123.936 945.302,125.223 947.47,126.562 949.639,127.955 951.808,129.403 953.976,130.91 956.145,132.476 958.314,134.074 960.482,135.559 962.651,137.104 964.82,138.71 966.988,140.381 969.157,142.118 971.326,143.925 973.494,145.804 975.663,147.758 977.831,149.79 980,151.903 982.169,153.825 984.337,155.754 986.506,157.76 988.675,159.847 990.843,162.017 993.012,164.274 995.181,166.621 997.349,169.062 999.518,171.6 1001.69,174.24 1003.86,176.747 1006.02,179.064 1008.19,181.473 1010.36,183.979 1012.53,186.585 1014.7,189.295 1016.87,192.113 1019.04,195.044 1021.2,198.092 1023.37,201.262 1025.54,204.48 1027.71,207.16 1029.88,209.948 1032.05,212.846 1034.22,215.861 1036.39,218.996 1038.55,222.256 1040.72,225.647 1042.89,229.173 1045.06,232.839 1047.23,236.653 1049.4,239.884 1051.57,243.007 1053.73,246.255 1055.9,249.632 1058.07,253.145 1060.24,256.797 1062.41,260.596 1064.58,264.546 1066.75,268.655 1068.91,272.927 1071.08,276.887 1073.25,280.3 1075.42,283.848 1077.59,287.539 1079.76,291.377 1081.93,295.368 1084.1,299.519 1086.26,303.835 1088.43,308.325 1090.6,312.993 1092.77,317.763 1094.94,321.424 1097.11,325.232 1099.28,329.192 1101.44,333.311 1103.61,337.594 1105.78,342.048 1107.95,346.68 1110.12,351.498 1112.29,356.507 1114.46,361.717 1116.63,366.03 1118.79,370.065 1120.96,374.262 1123.13,378.626 1125.3,383.165 1127.47,387.885 1129.64,392.794 1131.81,397.899 1133.97,403.208 1136.14,408.729 1138.31,413.852 1140.48,418.091 1142.65,422.499 1144.82,427.083 1146.99,431.85 1149.15,436.808 1151.32,441.964 1153.49,447.327 1155.66,452.903 1157.83,458.702 1160,464.699 1162.17,469.12 1164.34,473.718 1166.5,478.5 1168.67,483.472 1170.84,488.644 1173.01,494.022 1175.18,499.615 1177.35,505.431 1179.52,511.48 1181.68,517.771 1183.85,522.989 1186.02,527.754 1188.19,532.709 1190.36,537.862 1192.53,543.221 1194.7,548.794 1196.87,554.59 1199.03,560.617 1201.2,566.885 1203.37,573.404 1205.54,579.507 1207.71,584.41 1209.88,589.508 1212.05,594.81 1214.21,600.324 1216.38,606.058 1218.55,612.022 1220.72,618.224 1222.89,624.673 1225.06,631.381 1227.23,638.356 1229.39,643.413 1231.56,648.615 1233.73,654.025 1235.9,659.651 1238.07,665.502 1240.24,671.587 1242.41,677.915 1244.58,684.496 1246.74,691.34 1248.91,698.457 1251.08,704.375 1253.25,709.63 1255.42,715.095 1257.59,720.779 1259.76,726.689 1261.92,732.836 1264.09,739.228 1266.26,745.876 1268.43,752.789 1270.6,759.979 1272.77,766.766 1274.94,772.011 1277.11,777.465 1279.27,783.138 1281.44,789.037 1283.61,795.171 1285.78,801.551 1287.95,808.186 1290.12,815.086 1292.29,822.262 1294.45,829.724 1296.62,835.059 1298.79,840.426 1300.96,846.007 1303.13,851.81 1305.3,857.846 1307.47,864.123 1309.63,870.651 1311.8,877.44 1313.97,884.5 1316.14,891.842 1318.31,897.923 1320.48,903.116 1322.65,908.516 1324.82,914.132 1326.98,919.973 1329.15,926.047 1331.32,932.363 1333.49,938.932 1335.66,945.763 1337.83,952.868 1340,959.623 1342.16,964.553 1344.33,969.679 1346.5,975.01 1348.67,980.555 1350.84,986.32 1353.01,992.317 1355.18,998.553 1357.35,1005.04 1359.51,1011.78 1361.68,1018.8 1363.85,1023.68 1366.02,1028.44 1368.19,1033.39 1370.36,1038.54 1372.53,1043.9 1374.69,1049.47 1376.86,1055.26 1379.03,1061.29 1381.2,1067.55 1383.37,1074.07 1385.54,1079.42 1387.71,1083.74 1389.88,1088.23 1392.04,1092.91 1394.21,1097.76 1396.38,1102.82 1398.55,1108.07 1400.72,1113.54 1402.89,1119.22 1405.06,1125.13 1407.22,1130.8 1409.39,1134.62 1411.56,1138.59 1413.73,1142.72 1415.9,1147.02 1418.07,1151.48 1420.24,1156.13 1422.4,1160.96 1424.57,1165.98 1426.74,1171.21 1428.91,1176.64 1431.08,1180.29 1433.25,1183.71 1435.42,1187.26 1437.59,1190.95 1439.75,1194.8 1441.92,1198.79 1444.09,1202.95 1446.26,1207.27 1448.43,1211.76 1450.6,1216.43 1452.77,1220.23 1454.93,1223.09 1457.1,1226.06 1459.27,1229.15 1461.44,1232.36 1463.61,1235.7 1465.78,1239.17 1467.95,1242.78 1470.12,1246.54 1472.28,1250.44 1474.45,1254.23 1476.62,1256.55 1478.79,1258.96 1480.96,1261.47 1483.13,1264.08 1485.3,1266.79 1487.46,1269.61 1489.63,1272.54 1491.8,1275.59 1493.97,1278.77 1496.14,1282.07 1498.31,1284.21 1500.48,1286.12 1502.64,1288.1 1504.81,1290.16 1506.98,1292.3 1509.15,1294.53 1511.32,1296.84 1513.49,1299.25 1515.66,1301.76 1517.83,1304.36 1519.99,1306.48 1522.16,1307.94 1524.33,1309.46 1526.5,1311.04 1528.67,1312.69 1530.84,1314.4 1533.01,1316.18 1535.17,1318.03 1537.34,1319.96 1539.51,1321.96 1541.68,1323.94 1543.85,1325.03 1546.02,1326.17 1548.19,1327.36 1550.36,1328.6 1552.52,1329.88 1554.69,1331.21 1556.86,1332.6 1559.03,1334.05 1561.2,1335.55 1563.37,1337.11 1565.54,1338.11 1567.7,1338.95 1569.87,1339.81 1572.04,1340.72 1574.21,1341.66 1576.38,1342.64 1578.55,1343.66 1580.72,1344.71 1582.88,1345.81 1585.05,1346.96 1587.22,1347.9 1589.39,1348.5 1591.56,1349.12 1593.73,1349.77 1595.9,1350.45 1598.07,1351.15 1600.23,1351.88 1602.4,1352.64 1604.57,1353.43 1606.74,1354.25 1608.91,1355.08 1611.08,1355.51 1613.25,1355.95 1615.41,1356.41 1617.58,1356.88 1619.75,1357.38 1621.92,1357.9 1624.09,1358.43 1626.26,1358.99 1628.43,1359.57 1630.6,1360.18 1632.76,1360.57 1634.93,1360.87 1637.1,1361.19 1639.27,1361.52 1641.44,1361.87 1643.61,1362.23 1645.78,1362.6 1647.94,1362.99 1650.11,1363.4 1652.28,1363.82 1654.45,1364.17 1656.62,1364.38 1658.79,1364.6 1660.96,1364.83 1663.13,1365.06 1665.29,1365.31 1667.46,1365.57 1669.63,1365.84 1671.8,1366.11 1673.97,1366.4 1676.14,1366.7 1678.31,1366.84 1680.47,1366.99 1682.64,1367.15 1684.81,1367.31 1686.98,1367.48 1689.15,1367.65 1691.32,1367.84 1693.49,1368.03 1695.65,1368.22 1697.82,1368.43 1699.99,1368.56 1702.16,1368.66 1704.33,1368.77 1706.5,1368.88 1708.67,1368.99 1710.84,1369.11 1713,1369.23 1715.17,1369.36 1717.34,1369.49 1719.51,1369.63 1721.68,1369.75 1723.85,1369.82 1726.02,1369.89 1728.18,1369.96 1730.35,1370.04 1732.52,1370.12 1734.69,1370.2 1736.86,1370.29 1739.03,1370.38 1741.2,1370.47 1743.37,1370.57 1745.53,1370.61 1747.7,1370.66 1749.87,1370.71 1752.04,1370.76 1754.21,1370.81 1756.38,1370.87 1758.55,1370.93 1760.71,1370.99 1762.88,1371.05 1765.05,1371.11 1767.22,1371.16 1769.39,1371.19 1771.56,1371.22 1773.73,1371.25 1775.89,1371.29 1778.06,1371.33 1780.23,1371.36 1782.4,1371.4 1784.57,1371.45 1786.74,1371.49 1788.91,1371.53 1791.08,1371.55 1793.24,1371.57 1795.41,1371.59 1797.58,1371.62 1799.75,1371.64 1801.92,1371.67 1804.09,1371.69 1806.26,1371.72 1808.42,1371.75 1810.59,1371.78 1812.76,1371.79 1814.93,1371.81 1817.1,1371.82 1819.27,1371.84 1821.44,1371.85 1823.61,1371.87 1825.77,1371.89 1827.94,1371.91 1830.11,1371.92 1832.28,1371.94 1834.45,1371.96 1836.62,1371.97 1838.79,1371.98 1840.95,1371.99 1843.12,1372 1845.29,1372.01 1847.46,1372.02 1849.63,1372.03 1851.8,1372.05 1853.97,1372.06 1856.13,1372.07 1858.3,1372.08 1860.47,1372.08 1862.64,1372.09 1864.81,1372.1 1866.98,1372.1 1869.15,1372.11 1871.32,1372.12 1873.48,1372.13 1875.65,1372.14 1877.82,1372.15 1879.99,1372.15 1882.16,1372.15 1884.33,1372.16 1886.5,1372.16 1888.66,1372.17 1890.83,1372.17 1893,1372.18 1895.17,1372.18 1897.34,1372.19 1899.51,1372.2 1901.68,1372.2 1903.85,1372.2 1906.01,1372.21 1908.18,1372.21 1910.35,1372.21 1912.52,1372.22 1914.69,1372.22 1916.86,1372.22 1919.03,1372.23 1921.19,1372.23 1923.36,1372.23 1925.53,1372.24 1927.7,1372.24 1929.87,1372.24 1932.04,1372.24 1934.21,1372.24 1936.37,1372.25 1938.54,1372.25 1940.71,1372.25 1942.88,1372.25 1945.05,1372.26 1947.22,1372.26 1949.39,1372.26 1951.56,1372.26 1953.72,1372.26 1955.89,1372.26 1958.06,1372.26 1960.23,1372.27 1962.4,1372.27 1964.57,1372.27 1966.74,1372.27 1968.9,1372.27 1971.07,1372.27 1973.24,1372.27 1975.41,1372.27 1977.58,1372.28 1979.75,1372.28 1981.92,1372.28 1984.09,1372.28 1986.25,1372.28 1988.42,1372.28 1990.59,1372.28 1992.76,1372.28 1994.93,1372.28 1997.1,1372.28 1999.27,1372.28 2001.43,1372.29 2003.6,1372.29 2005.77,1372.29 2007.94,1372.29 2010.11,1372.29 2012.28,1372.29 2014.45,1372.29 2016.62,1372.29 2018.78,1372.29 2020.95,1372.29 2023.12,1372.29 2025.29,1372.29 2027.46,1372.29 2029.63,1372.29 2031.8,1372.29 2033.96,1372.29 2036.13,1372.29 2038.3,1372.29 2040.47,1372.29 2042.64,1372.29 2044.81,1372.29 2046.98,1372.29 2049.14,1372.3 2051.31,1372.3 2053.48,1372.3 2055.65,1372.3 2057.82,1372.3 2059.99,1372.3 2062.16,1372.3 2064.33,1372.3 2066.49,1372.3 2068.66,1372.3 2070.83,1372.3 2073,1372.3 2075.17,1372.3 2077.34,1372.3 2079.51,1372.3 2081.67,1372.3 2083.84,1372.3 2086.01,1372.3 2088.18,1372.3 2090.35,1372.3 2092.52,1372.3 2094.69,1372.3 2096.86,1372.3 2099.02,1372.3 2101.19,1372.3 2103.36,1372.3 2105.53,1372.3 2107.7,1372.3 2109.87,1372.3 2112.04,1372.3 2114.2,1372.3 2116.37,1372.3 2118.54,1372.3 2120.71,1372.3 2122.88,1372.3 2125.05,1372.3 2127.22,1372.3 2129.38,1372.3 2131.55,1372.3 2133.72,1372.3 2135.89,1372.3 2138.06,1372.3 2140.23,1372.3 2142.4,1372.3 2144.57,1372.3 2146.73,1372.3 2148.9,1372.3 2151.07,1372.3 2153.24,1372.3 2155.41,1372.3 2157.58,1372.3 2159.75,1372.3 2161.91,1372.3 2164.08,1372.3 2166.25,1372.3 2168.42,1372.3 2170.59,1372.3 2172.76,1372.3 2174.93,1372.3 2177.1,1372.3 2179.26,1372.3 2181.43,1372.3 2183.6,1372.3 2185.77,1372.3 2187.94,1372.3 2190.11,1372.3 2192.28,1372.3 2194.44,1372.3 2196.61,1372.3 2198.78,1372.3 2200.95,1372.3 2203.12,1372.3 2205.29,1372.3 2207.46,1372.3 2209.62,1372.3 2211.79,1372.3 2213.96,1372.3 2216.13,1372.3 2218.3,1372.3 2220.47,1372.3 2222.64,1372.3 2224.81,1372.3 2226.97,1372.3 2229.14,1372.3 2231.31,1372.3 2233.48,1372.3 2235.65,1372.3 2237.82,1372.3 2239.99,1372.3 2242.15,1372.3 2244.32,1372.3 2246.49,1372.3 2248.66,1372.3 2250.83,1372.3 2253,1372.3 2255.17,1372.3 2257.34,1372.3 2259.5,1372.3 2261.67,1372.3 2263.84,1372.3 2266.01,1372.3 2268.18,1372.3 2270.35,1372.3 2272.52,1372.3 2274.68,1372.3 2276.85,1372.3 2279.02,1372.3 2281.19,1372.3 2283.36,1372.3 2285.53,1372.3 2287.7,1372.3 2289.87,1372.3 2292.03,1372.3 2294.2,1372.3 2296.37,1372.3 2298.54,1372.3 2300.71,1372.3 2302.88,1372.3 2305.05,1372.3 2307.21,1372.3 2309.38,1372.3 2311.55,1372.3 2313.72,1372.3 2315.89,1372.3 2318.06,1372.3 2320.23,1372.3 2322.39,1372.3 2324.56,1372.3 2326.73,1372.3 2328.9,1372.3 2331.07,1372.3 2333.24,1372.3 2335.41,1372.3 2337.58,1372.3 2339.74,1372.3 2341.91,1372.3 2344.08,1372.3 2346.25,1372.3 2348.42,1372.3 2350.59,1372.3 2352.76,1372.3 "/>
<polyline clip-path="url(#clip462)" style="stroke:#e26f46; stroke-linecap:round; stroke-linejoin:round; stroke-width:4; stroke-opacity:1; fill:none" points="186.274,1371.79 188.443,1371.77 190.611,1371.75 192.78,1371.72 194.949,1371.7 197.117,1371.68 199.286,1371.65 201.455,1371.63 203.623,1371.6 205.792,1371.57 207.961,1371.54 210.129,1371.51 212.298,1371.48 214.466,1371.45 216.635,1371.41 218.804,1371.38 220.972,1371.34 223.141,1371.3 225.31,1371.26 227.478,1371.22 229.647,1371.18 231.816,1371.13 233.984,1371.08 236.153,1371.04 238.322,1370.98 240.49,1370.93 242.659,1370.88 244.828,1370.82 246.996,1370.76 249.165,1370.7 251.334,1370.64 253.502,1370.57 255.671,1370.5 257.839,1370.43 260.008,1370.35 262.177,1370.27 264.345,1370.19 266.514,1370.11 268.683,1370.02 270.851,1369.93 273.02,1369.84 275.189,1369.74 277.357,1369.63 279.526,1369.53 281.695,1369.42 283.863,1369.3 286.032,1369.18 288.201,1369.06 290.369,1368.93 292.538,1368.79 294.707,1368.65 296.875,1368.51 299.044,1368.36 301.212,1368.2 303.381,1368.03 305.55,1367.86 307.718,1367.69 309.887,1367.5 312.056,1367.31 314.224,1367.11 316.393,1366.9 318.562,1366.69 320.73,1366.46 322.899,1366.23 325.068,1365.99 327.236,1365.73 329.405,1365.47 331.574,1365.2 333.742,1364.91 335.911,1364.62 338.08,1364.31 340.248,1363.99 342.417,1363.66 344.585,1363.32 346.754,1362.96 348.923,1362.58 351.091,1362.19 353.26,1361.79 355.429,1361.37 357.597,1360.93 359.766,1360.48 361.935,1360.01 364.103,1359.52 366.272,1359.01 368.441,1358.48 370.609,1357.92 372.778,1357.35 374.947,1356.75 377.115,1356.13 379.284,1355.49 381.453,1354.82 383.621,1354.12 385.79,1353.39 387.959,1352.64 390.127,1351.85 392.296,1351.03 394.464,1350.19 396.633,1349.3 398.802,1348.38 400.97,1347.43 403.139,1346.44 405.308,1345.41 407.476,1344.34 409.645,1343.23 411.814,1342.07 413.982,1340.86 416.151,1339.61 418.32,1338.31 420.488,1336.96 422.657,1335.55 424.826,1334.08 426.994,1332.56 429.163,1330.98 431.332,1329.34 433.5,1327.64 435.669,1325.87 437.837,1324.04 440.006,1322.13 442.175,1320.14 444.343,1318.08 446.512,1315.93 448.681,1313.69 450.849,1311.37 453.018,1308.95 455.187,1306.44 457.355,1303.85 459.524,1301.19 461.693,1298.42 463.861,1295.54 466.03,1292.55 468.199,1289.43 470.367,1286.2 472.536,1282.83 474.705,1279.33 476.873,1275.69 479.042,1271.9 481.21,1267.96 483.379,1264.02 485.548,1259.97 487.716,1255.75 489.885,1251.36 492.054,1246.79 494.222,1242.05 496.391,1237.11 498.56,1231.98 500.728,1226.64 502.897,1221.09 505.066,1215.32 507.234,1209.71 509.403,1204.11 511.572,1198.28 513.74,1192.22 515.909,1185.92 518.078,1179.36 520.246,1172.54 522.415,1165.45 524.583,1158.08 526.752,1150.41 528.921,1142.44 531.089,1135.47 533.258,1128.61 535.427,1121.48 537.595,1114.07 539.764,1106.35 541.933,1098.33 544.101,1089.99 546.27,1081.32 548.439,1072.29 550.607,1062.91 552.776,1053.47 554.945,1047.06 557.113,1040.39 559.282,1033.45 561.451,1026.24 563.619,1018.74 565.788,1010.94 567.956,1002.83 570.125,994.395 572.294,985.622 574.462,976.498 576.631,969.858 578.8,965.716 580.968,961.409 583.137,956.93 585.306,952.272 587.474,947.428 589.643,942.39 591.812,937.151 593.98,931.702 596.149,926.036 598.318,920.213 600.486,918.923 602.655,917.581 604.824,916.186 606.992,914.734 609.161,913.225 611.33,911.656 613.498,910.023 615.667,908.326 617.835,906.561 620.004,904.725 622.173,903.854 624.341,903.754 626.51,903.651 628.679,903.544 630.847,903.433 633.016,903.317 635.185,903.196 637.353,903.071 639.522,902.94 641.691,902.804 643.859,902.689 646.028,902.714 648.197,902.74 650.365,902.767 652.534,902.795 654.703,902.824 656.871,902.854 659.04,902.885 661.208,902.918 663.377,902.952 665.546,902.988 667.714,903.01 669.883,903.029 672.052,903.049 674.22,903.069 676.389,903.09 678.558,903.112 680.726,903.135 682.895,903.159 685.064,903.184 687.232,903.21 689.401,903.239 691.57,903.271 693.738,903.306 695.907,903.341 698.076,903.378 700.244,903.416 702.413,903.456 704.581,903.498 706.75,903.541 708.919,903.586 711.087,903.632 713.256,903.679 715.425,903.727 717.593,903.777 719.762,903.829 721.931,903.883 724.099,903.939 726.268,903.997 728.437,904.058 730.605,904.121 732.774,904.187 734.943,904.255 737.111,904.327 739.28,904.401 741.449,904.479 743.617,904.559 745.786,904.643 747.954,904.73 750.123,904.821 752.292,904.915 754.46,905.013 756.629,905.114 758.798,905.219 760.966,905.328 763.135,905.441 765.304,905.558 767.472,905.681 769.641,905.808 771.81,905.94 773.978,906.078 776.147,906.221 778.316,906.37 780.484,906.523 782.653,906.683 784.822,906.849 786.99,907.022 789.159,907.201 791.328,907.388 793.496,907.582 795.665,907.784 797.833,907.994 800.002,908.213 802.171,908.438 804.339,908.67 806.508,908.912 808.677,909.164 810.845,909.426 813.014,909.698 815.183,909.981 817.351,910.275 819.52,910.581 821.689,910.9 823.857,911.229 826.026,911.567 828.195,911.917 830.363,912.282 832.532,912.662 834.701,913.056 836.869,913.467 839.038,913.893 841.206,914.337 843.375,914.799 845.544,915.279 847.712,915.764 849.881,916.267 852.05,916.791 854.218,917.335 856.387,917.901 858.556,918.49 860.724,919.102 862.893,919.739 865.062,920.401 867.23,921.089 869.399,921.788 871.568,922.5 873.736,923.24 875.905,924.01 878.074,924.81 880.242,925.643 882.411,926.509 884.579,927.409 886.748,928.346 888.917,929.32 891.085,930.32 893.254,931.306 895.423,932.332 897.591,933.398 899.76,934.507 901.929,935.661 904.097,936.86 906.266,938.108 908.435,939.405 910.603,940.754 912.772,942.157 914.941,943.505 917.109,944.885 919.278,946.321 921.447,947.814 923.615,949.366 925.784,950.981 927.952,952.66 930.121,954.406 932.29,956.222 934.458,958.111 936.627,959.951 938.796,961.738 940.964,963.597 943.133,965.53 945.302,967.54 947.47,969.63 949.639,971.804 951.808,974.065 953.976,976.416 956.145,978.861 958.314,981.338 960.482,983.538 962.651,985.827 964.82,988.207 966.988,990.682 969.157,993.256 971.326,995.932 973.494,998.716 975.663,1001.61 977.831,1004.62 980,1007.75 982.169,1010.44 984.337,1013.09 986.506,1015.85 988.675,1018.72 990.843,1021.71 993.012,1024.81 995.181,1028.04 997.349,1031.39 999.518,1034.88 1001.69,1038.51 1003.86,1041.82 1006.02,1044.7 1008.19,1047.69 1010.36,1050.8 1012.53,1054.04 1014.7,1057.41 1016.87,1060.9 1019.04,1064.54 1021.2,1068.33 1023.37,1072.27 1025.54,1076.22 1027.71,1079.14 1029.88,1082.18 1032.05,1085.34 1034.22,1088.62 1036.39,1092.04 1038.55,1095.59 1040.72,1099.28 1042.89,1103.13 1045.06,1107.12 1047.23,1111.28 1049.4,1114.43 1051.57,1117.34 1053.73,1120.36 1055.9,1123.5 1058.07,1126.77 1060.24,1130.17 1062.41,1133.7 1064.58,1137.38 1066.75,1141.2 1068.91,1145.17 1071.08,1148.65 1073.25,1151.3 1075.42,1154.05 1077.59,1156.92 1079.76,1159.9 1081.93,1163 1084.1,1166.22 1086.26,1169.57 1088.43,1173.06 1090.6,1176.68 1092.77,1180.36 1094.94,1182.69 1097.11,1185.12 1099.28,1187.64 1101.44,1190.27 1103.61,1193 1105.78,1195.84 1107.95,1198.79 1110.12,1201.86 1112.29,1205.06 1114.46,1208.38 1116.63,1210.8 1118.79,1212.89 1120.96,1215.06 1123.13,1217.32 1125.3,1219.67 1127.47,1222.12 1129.64,1224.66 1131.81,1227.31 1133.97,1230.06 1136.14,1232.92 1138.31,1235.42 1140.48,1237.2 1142.65,1239.04 1144.82,1240.96 1146.99,1242.96 1149.15,1245.04 1151.32,1247.2 1153.49,1249.44 1155.66,1251.78 1157.83,1254.21 1160,1256.72 1162.17,1258.21 1164.34,1259.77 1166.5,1261.39 1168.67,1263.08 1170.84,1264.83 1173.01,1266.65 1175.18,1268.54 1177.35,1270.51 1179.52,1272.56 1181.68,1274.69 1183.85,1276.26 1186.02,1277.57 1188.19,1278.93 1190.36,1280.35 1192.53,1281.82 1194.7,1283.36 1196.87,1284.95 1199.03,1286.6 1201.2,1288.33 1203.37,1290.12 1205.54,1291.72 1207.71,1292.82 1209.88,1293.96 1212.05,1295.15 1214.21,1296.38 1216.38,1297.67 1218.55,1299.01 1220.72,1300.4 1222.89,1301.84 1225.06,1303.35 1227.23,1304.91 1229.39,1305.85 1231.56,1306.81 1233.73,1307.81 1235.9,1308.84 1238.07,1309.92 1240.24,1311.05 1242.41,1312.21 1244.58,1313.43 1246.74,1314.69 1248.91,1316 1251.08,1316.99 1253.25,1317.8 1255.42,1318.63 1257.59,1319.5 1259.76,1320.41 1261.92,1321.35 1264.09,1322.33 1266.26,1323.34 1268.43,1324.4 1270.6,1325.5 1272.77,1326.5 1274.94,1327.18 1277.11,1327.88 1279.27,1328.61 1281.44,1329.36 1283.61,1330.15 1285.78,1330.97 1287.95,1331.82 1290.12,1332.71 1292.29,1333.63 1294.45,1334.59 1296.62,1335.18 1298.79,1335.77 1300.96,1336.37 1303.13,1337.01 1305.3,1337.66 1307.47,1338.35 1309.63,1339.06 1311.8,1339.8 1313.97,1340.57 1316.14,1341.37 1318.31,1341.99 1320.48,1342.47 1322.65,1342.98 1324.82,1343.51 1326.98,1344.05 1329.15,1344.62 1331.32,1345.21 1333.49,1345.83 1335.66,1346.47 1337.83,1347.14 1340,1347.76 1342.16,1348.16 1344.33,1348.58 1346.5,1349.01 1348.67,1349.46 1350.84,1349.93 1353.01,1350.42 1355.18,1350.93 1357.35,1351.46 1359.51,1352.01 1361.68,1352.59 1363.85,1352.95 1366.02,1353.29 1368.19,1353.65 1370.36,1354.02 1372.53,1354.41 1374.69,1354.81 1376.86,1355.23 1379.03,1355.66 1381.2,1356.11 1383.37,1356.58 1385.54,1356.95 1387.71,1357.23 1389.88,1357.52 1392.04,1357.82 1394.21,1358.14 1396.38,1358.46 1398.55,1358.8 1400.72,1359.16 1402.89,1359.53 1405.06,1359.91 1407.22,1360.27 1409.39,1360.49 1411.56,1360.73 1413.73,1360.97 1415.9,1361.22 1418.07,1361.49 1420.24,1361.76 1422.4,1362.04 1424.57,1362.34 1426.74,1362.65 1428.91,1362.97 1431.08,1363.17 1433.25,1363.35 1435.42,1363.55 1437.59,1363.75 1439.75,1363.95 1441.92,1364.17 1444.09,1364.4 1446.26,1364.63 1448.43,1364.87 1450.6,1365.13 1452.77,1365.33 1454.93,1365.47 1457.1,1365.62 1459.27,1365.78 1461.44,1365.94 1463.61,1366.11 1465.78,1366.29 1467.95,1366.47 1470.12,1366.66 1472.28,1366.86 1474.45,1367.05 1476.62,1367.16 1478.79,1367.28 1480.96,1367.4 1483.13,1367.52 1485.3,1367.65 1487.46,1367.79 1489.63,1367.93 1491.8,1368.08 1493.97,1368.23 1496.14,1368.39 1498.31,1368.49 1500.48,1368.57 1502.64,1368.66 1504.81,1368.76 1506.98,1368.86 1509.15,1368.96 1511.32,1369.07 1513.49,1369.18 1515.66,1369.29 1517.83,1369.41 1519.99,1369.51 1522.16,1369.57 1524.33,1369.64 1526.5,1369.71 1528.67,1369.78 1530.84,1369.86 1533.01,1369.94 1535.17,1370.02 1537.34,1370.1 1539.51,1370.19 1541.68,1370.28 1543.85,1370.33 1546.02,1370.38 1548.19,1370.43 1550.36,1370.48 1552.52,1370.54 1554.69,1370.59 1556.86,1370.65 1559.03,1370.72 1561.2,1370.78 1563.37,1370.85 1565.54,1370.89 1567.7,1370.93 1569.87,1370.96 1572.04,1371 1574.21,1371.04 1576.38,1371.08 1578.55,1371.12 1580.72,1371.17 1582.88,1371.22 1585.05,1371.26 1587.22,1371.3 1589.39,1371.33 1591.56,1371.35 1593.73,1371.38 1595.9,1371.41 1598.07,1371.44 1600.23,1371.47 1602.4,1371.5 1604.57,1371.53 1606.74,1371.57 1608.91,1371.6 1611.08,1371.62 1613.25,1371.64 1615.41,1371.66 1617.58,1371.68 1619.75,1371.7 1621.92,1371.72 1624.09,1371.74 1626.26,1371.76 1628.43,1371.79 1630.6,1371.81 1632.76,1371.83 1634.93,1371.84 1637.1,1371.85 1639.27,1371.87 1641.44,1371.88 1643.61,1371.9 1645.78,1371.91 1647.94,1371.93 1650.11,1371.94 1652.28,1371.96 1654.45,1371.97 1656.62,1371.98 1658.79,1371.99 1660.96,1372 1663.13,1372.01 1665.29,1372.02 1667.46,1372.03 1669.63,1372.04 1671.8,1372.05 1673.97,1372.07 1676.14,1372.08 1678.31,1372.08 1680.47,1372.09 1682.64,1372.1 1684.81,1372.1 1686.98,1372.11 1689.15,1372.12 1691.32,1372.12 1693.49,1372.13 1695.65,1372.14 1697.82,1372.15 1699.99,1372.15 1702.16,1372.16 1704.33,1372.16 1706.5,1372.17 1708.67,1372.17 1710.84,1372.17 1713,1372.18 1715.17,1372.18 1717.34,1372.19 1719.51,1372.2 1721.68,1372.2 1723.85,1372.2 1726.02,1372.21 1728.18,1372.21 1730.35,1372.21 1732.52,1372.22 1734.69,1372.22 1736.86,1372.22 1739.03,1372.23 1741.2,1372.23 1743.37,1372.23 1745.53,1372.23 1747.7,1372.24 1749.87,1372.24 1752.04,1372.24 1754.21,1372.24 1756.38,1372.25 1758.55,1372.25 1760.71,1372.25 1762.88,1372.25 1765.05,1372.26 1767.22,1372.26 1769.39,1372.26 1771.56,1372.26 1773.73,1372.26 1775.89,1372.26 1778.06,1372.26 1780.23,1372.27 1782.4,1372.27 1784.57,1372.27 1786.74,1372.27 1788.91,1372.27 1791.08,1372.27 1793.24,1372.27 1795.41,1372.27 1797.58,1372.28 1799.75,1372.28 1801.92,1372.28 1804.09,1372.28 1806.26,1372.28 1808.42,1372.28 1810.59,1372.28 1812.76,1372.28 1814.93,1372.28 1817.1,1372.28 1819.27,1372.28 1821.44,1372.28 1823.61,1372.29 1825.77,1372.29 1827.94,1372.29 1830.11,1372.29 1832.28,1372.29 1834.45,1372.29 1836.62,1372.29 1838.79,1372.29 1840.95,1372.29 1843.12,1372.29 1845.29,1372.29 1847.46,1372.29 1849.63,1372.29 1851.8,1372.29 1853.97,1372.29 1856.13,1372.29 1858.3,1372.29 1860.47,1372.29 1862.64,1372.29 1864.81,1372.29 1866.98,1372.29 1869.15,1372.3 1871.32,1372.3 1873.48,1372.3 1875.65,1372.3 1877.82,1372.3 1879.99,1372.3 1882.16,1372.3 1884.33,1372.3 1886.5,1372.3 1888.66,1372.3 1890.83,1372.3 1893,1372.3 1895.17,1372.3 1897.34,1372.3 1899.51,1372.3 1901.68,1372.3 1903.85,1372.3 1906.01,1372.3 1908.18,1372.3 1910.35,1372.3 1912.52,1372.3 1914.69,1372.3 1916.86,1372.3 1919.03,1372.3 1921.19,1372.3 1923.36,1372.3 1925.53,1372.3 1927.7,1372.3 1929.87,1372.3 1932.04,1372.3 1934.21,1372.3 1936.37,1372.3 1938.54,1372.3 1940.71,1372.3 1942.88,1372.3 1945.05,1372.3 1947.22,1372.3 1949.39,1372.3 1951.56,1372.3 1953.72,1372.3 1955.89,1372.3 1958.06,1372.3 1960.23,1372.3 1962.4,1372.3 1964.57,1372.3 1966.74,1372.3 1968.9,1372.3 1971.07,1372.3 1973.24,1372.3 1975.41,1372.3 1977.58,1372.3 1979.75,1372.3 1981.92,1372.3 1984.09,1372.3 1986.25,1372.3 1988.42,1372.3 1990.59,1372.3 1992.76,1372.3 1994.93,1372.3 1997.1,1372.3 1999.27,1372.3 2001.43,1372.3 2003.6,1372.3 2005.77,1372.3 2007.94,1372.3 2010.11,1372.3 2012.28,1372.3 2014.45,1372.3 2016.62,1372.3 2018.78,1372.3 2020.95,1372.3 2023.12,1372.3 2025.29,1372.3 2027.46,1372.3 2029.63,1372.3 2031.8,1372.3 2033.96,1372.3 2036.13,1372.3 2038.3,1372.3 2040.47,1372.3 2042.64,1372.3 2044.81,1372.3 2046.98,1372.3 2049.14,1372.3 2051.31,1372.3 2053.48,1372.3 2055.65,1372.3 2057.82,1372.3 2059.99,1372.3 2062.16,1372.3 2064.33,1372.3 2066.49,1372.3 2068.66,1372.3 2070.83,1372.3 2073,1372.3 2075.17,1372.3 2077.34,1372.3 2079.51,1372.3 2081.67,1372.3 2083.84,1372.3 2086.01,1372.3 2088.18,1372.3 2090.35,1372.3 2092.52,1372.3 2094.69,1372.3 2096.86,1372.3 2099.02,1372.3 2101.19,1372.3 2103.36,1372.3 2105.53,1372.3 2107.7,1372.3 2109.87,1372.3 2112.04,1372.3 2114.2,1372.3 2116.37,1372.3 2118.54,1372.3 2120.71,1372.3 2122.88,1372.3 2125.05,1372.3 2127.22,1372.3 2129.38,1372.3 2131.55,1372.3 2133.72,1372.3 2135.89,1372.3 2138.06,1372.3 2140.23,1372.3 2142.4,1372.3 2144.57,1372.3 2146.73,1372.3 2148.9,1372.3 2151.07,1372.3 2153.24,1372.3 2155.41,1372.3 2157.58,1372.3 2159.75,1372.3 2161.91,1372.3 2164.08,1372.3 2166.25,1372.3 2168.42,1372.3 2170.59,1372.3 2172.76,1372.3 2174.93,1372.3 2177.1,1372.3 2179.26,1372.3 2181.43,1372.3 2183.6,1372.3 2185.77,1372.3 2187.94,1372.3 2190.11,1372.3 2192.28,1372.3 2194.44,1372.3 2196.61,1372.3 2198.78,1372.3 2200.95,1372.3 2203.12,1372.3 2205.29,1372.3 2207.46,1372.3 2209.62,1372.3 2211.79,1372.3 2213.96,1372.3 2216.13,1372.3 2218.3,1372.3 2220.47,1372.3 2222.64,1372.3 2224.81,1372.3 2226.97,1372.3 2229.14,1372.3 2231.31,1372.3 2233.48,1372.3 2235.65,1372.3 2237.82,1372.3 2239.99,1372.3 2242.15,1372.3 2244.32,1372.3 2246.49,1372.3 2248.66,1372.3 2250.83,1372.3 2253,1372.3 2255.17,1372.3 2257.34,1372.3 2259.5,1372.3 2261.67,1372.3 2263.84,1372.3 2266.01,1372.3 2268.18,1372.3 2270.35,1372.3 2272.52,1372.3 2274.68,1372.3 2276.85,1372.3 2279.02,1372.3 2281.19,1372.3 2283.36,1372.3 2285.53,1372.3 2287.7,1372.3 2289.87,1372.3 2292.03,1372.3 2294.2,1372.3 2296.37,1372.3 2298.54,1372.3 2300.71,1372.3 2302.88,1372.3 2305.05,1372.3 2307.21,1372.3 2309.38,1372.3 2311.55,1372.3 2313.72,1372.3 2315.89,1372.3 2318.06,1372.3 2320.23,1372.3 2322.39,1372.3 2324.56,1372.3 2326.73,1372.3 2328.9,1372.3 2331.07,1372.3 2333.24,1372.3 2335.41,1372.3 2337.58,1372.3 2339.74,1372.3 2341.91,1372.3 2344.08,1372.3 2346.25,1372.3 2348.42,1372.3 2350.59,1372.3 2352.76,1372.3 "/>
<polyline clip-path="url(#clip462)" style="stroke:#3da44d; stroke-linecap:round; stroke-linejoin:round; stroke-width:4; stroke-opacity:1; fill:none" points="186.274,1372.3 188.443,1372.3 190.611,1372.3 192.78,1372.3 194.949,1372.3 197.117,1372.3 199.286,1372.3 201.455,1372.3 203.623,1372.3 205.792,1372.3 207.961,1372.3 210.129,1372.3 212.298,1372.3 214.466,1372.3 216.635,1372.3 218.804,1372.3 220.972,1372.3 223.141,1372.3 225.31,1372.3 227.478,1372.3 229.647,1372.3 231.816,1372.3 233.984,1372.3 236.153,1372.3 238.322,1372.3 240.49,1372.3 242.659,1372.3 244.828,1372.3 246.996,1372.3 249.165,1372.3 251.334,1372.3 253.502,1372.3 255.671,1372.3 257.839,1372.3 260.008,1372.3 262.177,1372.3 264.345,1372.3 266.514,1372.3 268.683,1372.3 270.851,1372.3 273.02,1372.3 275.189,1372.3 277.357,1372.3 279.526,1372.3 281.695,1372.3 283.863,1372.3 286.032,1372.3 288.201,1372.3 290.369,1372.3 292.538,1372.3 294.707,1372.3 296.875,1372.3 299.044,1372.3 301.212,1372.3 303.381,1372.3 305.55,1372.3 307.718,1372.3 309.887,1372.3 312.056,1372.3 314.224,1372.3 316.393,1372.3 318.562,1372.3 320.73,1372.3 322.899,1372.3 325.068,1372.3 327.236,1372.3 329.405,1372.3 331.574,1372.3 333.742,1372.3 335.911,1372.3 338.08,1372.3 340.248,1372.3 342.417,1372.3 344.585,1372.3 346.754,1372.3 348.923,1372.3 351.091,1372.3 353.26,1372.3 355.429,1372.3 357.597,1372.3 359.766,1372.3 361.935,1372.3 364.103,1372.3 366.272,1372.3 368.441,1372.3 370.609,1372.3 372.778,1372.3 374.947,1372.3 377.115,1372.3 379.284,1372.3 381.453,1372.3 383.621,1372.3 385.79,1372.3 387.959,1372.3 390.127,1372.3 392.296,1372.3 394.464,1372.3 396.633,1372.3 398.802,1372.3 400.97,1372.3 403.139,1372.3 405.308,1372.3 407.476,1372.3 409.645,1372.3 411.814,1372.3 413.982,1372.3 416.151,1372.3 418.32,1372.3 420.488,1372.3 422.657,1372.3 424.826,1372.3 426.994,1372.3 429.163,1372.3 431.332,1372.3 433.5,1372.3 435.669,1372.3 437.837,1372.3 440.006,1372.3 442.175,1372.3 444.343,1372.3 446.512,1372.3 448.681,1372.3 450.849,1372.3 453.018,1372.3 455.187,1372.3 457.355,1372.3 459.524,1372.3 461.693,1372.3 463.861,1372.3 466.03,1372.3 468.199,1372.3 470.367,1372.3 472.536,1372.3 474.705,1372.3 476.873,1372.3 479.042,1372.3 481.21,1372.3 483.379,1372.3 485.548,1372.3 487.716,1372.3 489.885,1372.3 492.054,1372.3 494.222,1372.3 496.391,1372.3 498.56,1372.3 500.728,1372.3 502.897,1372.3 505.066,1372.3 507.234,1372.3 509.403,1372.3 511.572,1372.3 513.74,1372.3 515.909,1372.3 518.078,1372.3 520.246,1372.3 522.415,1372.3 524.583,1372.3 526.752,1372.3 528.921,1372.3 531.089,1372.3 533.258,1372.3 535.427,1372.3 537.595,1372.3 539.764,1372.3 541.933,1372.3 544.101,1372.3 546.27,1372.3 548.439,1372.3 550.607,1372.3 552.776,1372.3 554.945,1372.3 557.113,1372.29 559.282,1372.29 561.451,1372.29 563.619,1372.29 565.788,1372.29 567.956,1372.29 570.125,1372.29 572.294,1372.29 574.462,1372.29 576.631,1372.28 578.8,1372.28 580.968,1372.28 583.137,1372.28 585.306,1372.28 587.474,1372.27 589.643,1372.27 591.812,1372.27 593.98,1372.27 596.149,1372.26 598.318,1372.26 600.486,1372.26 602.655,1372.25 604.824,1372.25 606.992,1372.25 609.161,1372.24 611.33,1372.24 613.498,1372.23 615.667,1372.23 617.835,1372.22 620.004,1372.22 622.173,1372.21 624.341,1372.21 626.51,1372.2 628.679,1372.2 630.847,1372.19 633.016,1372.18 635.185,1372.18 637.353,1372.17 639.522,1372.16 641.691,1372.16 643.859,1372.15 646.028,1372.14 648.197,1372.13 650.365,1372.12 652.534,1372.12 654.703,1372.11 656.871,1372.1 659.04,1372.09 661.208,1372.08 663.377,1372.06 665.546,1372.05 667.714,1372.04 669.883,1372.03 672.052,1372.02 674.22,1372 676.389,1371.99 678.558,1371.97 680.726,1371.96 682.895,1371.94 685.064,1371.93 687.232,1371.91 689.401,1371.89 691.57,1371.88 693.738,1371.86 695.907,1371.84 698.076,1371.82 700.244,1371.8 702.413,1371.77 704.581,1371.75 706.75,1371.73 708.919,1371.7 711.087,1371.68 713.256,1371.65 715.425,1371.62 717.593,1371.59 719.762,1371.56 721.931,1371.53 724.099,1371.5 726.268,1371.46 728.437,1371.43 730.605,1371.39 732.774,1371.35 734.943,1371.31 737.111,1371.27 739.28,1371.23 741.449,1371.19 743.617,1371.14 745.786,1371.09 747.954,1371.04 750.123,1370.99 752.292,1370.94 754.46,1370.88 756.629,1370.82 758.798,1370.76 760.966,1370.7 763.135,1370.63 765.304,1370.56 767.472,1370.49 769.641,1370.42 771.81,1370.34 773.978,1370.26 776.147,1370.18 778.316,1370.09 780.484,1370 782.653,1369.91 784.822,1369.82 786.99,1369.72 789.159,1369.61 791.328,1369.5 793.496,1369.39 795.665,1369.27 797.833,1369.15 800.002,1369.02 802.171,1368.89 804.339,1368.76 806.508,1368.62 808.677,1368.47 810.845,1368.32 813.014,1368.16 815.183,1368 817.351,1367.82 819.52,1367.65 821.689,1367.46 823.857,1367.27 826.026,1367.07 828.195,1366.87 830.363,1366.65 832.532,1366.43 834.701,1366.2 836.869,1365.96 839.038,1365.71 841.206,1365.45 843.375,1365.18 845.544,1364.9 847.712,1364.62 849.881,1364.32 852.05,1364.01 854.218,1363.69 856.387,1363.36 858.556,1363.01 860.724,1362.65 862.893,1362.28 865.062,1361.89 867.23,1361.48 869.399,1361.07 871.568,1360.64 873.736,1360.2 875.905,1359.75 878.074,1359.27 880.242,1358.78 882.411,1358.26 884.579,1357.72 886.748,1357.17 888.917,1356.59 891.085,1355.99 893.254,1355.4 895.423,1354.78 897.591,1354.13 899.76,1353.46 901.929,1352.77 904.097,1352.04 906.266,1351.29 908.435,1350.5 910.603,1349.69 912.772,1348.84 914.941,1348.01 917.109,1347.16 919.278,1346.27 921.447,1345.35 923.615,1344.39 925.784,1343.39 927.952,1342.35 930.121,1341.27 932.29,1340.15 934.458,1338.98 936.627,1337.82 938.796,1336.68 940.964,1335.48 943.133,1334.25 945.302,1332.96 947.47,1331.62 949.639,1330.23 951.808,1328.78 953.976,1327.27 956.145,1325.7 958.314,1324.11 960.482,1322.62 962.651,1321.08 964.82,1319.47 966.988,1317.8 969.157,1316.06 971.326,1314.25 973.494,1312.37 975.663,1310.42 977.831,1308.39 980,1306.27 982.169,1304.35 984.337,1302.42 986.506,1300.42 988.675,1298.33 990.843,1296.16 993.012,1293.9 995.181,1291.55 997.349,1289.11 999.518,1286.57 1001.69,1283.93 1003.86,1281.43 1006.02,1279.11 1008.19,1276.7 1010.36,1274.19 1012.53,1271.59 1014.7,1268.88 1016.87,1266.06 1019.04,1263.13 1021.2,1260.08 1023.37,1256.91 1025.54,1253.69 1027.71,1251.01 1029.88,1248.22 1032.05,1245.32 1034.22,1242.31 1036.39,1239.17 1038.55,1235.91 1040.72,1232.52 1042.89,1229 1045.06,1225.33 1047.23,1221.51 1049.4,1218.28 1051.57,1215.16 1053.73,1211.91 1055.9,1208.53 1058.07,1205.02 1060.24,1201.37 1062.41,1197.57 1064.58,1193.62 1066.75,1189.51 1068.91,1185.24 1071.08,1181.28 1073.25,1177.86 1075.42,1174.31 1077.59,1170.62 1079.76,1166.79 1081.93,1162.79 1084.1,1158.64 1086.26,1154.33 1088.43,1149.84 1090.6,1145.17 1092.77,1140.4 1094.94,1136.74 1097.11,1132.93 1099.28,1128.97 1101.44,1124.85 1103.61,1120.56 1105.78,1116.11 1107.95,1111.48 1110.12,1106.66 1112.29,1101.65 1114.46,1096.44 1116.63,1092.13 1118.79,1088.09 1120.96,1083.89 1123.13,1079.53 1125.3,1074.99 1127.47,1070.27 1129.64,1065.36 1131.81,1060.26 1133.97,1054.95 1136.14,1049.43 1138.31,1044.3 1140.48,1040.06 1142.65,1035.66 1144.82,1031.07 1146.99,1026.3 1149.15,1021.35 1151.32,1016.19 1153.49,1010.83 1155.66,1005.25 1157.83,999.45 1160,993.454 1162.17,989.032 1164.34,984.434 1166.5,979.652 1168.67,974.679 1170.84,969.508 1173.01,964.129 1175.18,958.536 1177.35,952.719 1179.52,946.67 1181.68,940.379 1183.85,935.161 1186.02,930.397 1188.19,925.441 1190.36,920.288 1192.53,914.929 1194.7,909.356 1196.87,903.56 1199.03,897.532 1201.2,891.264 1203.37,884.745 1205.54,878.642 1207.71,873.739 1209.88,868.641 1212.05,863.338 1214.21,857.824 1216.38,852.09 1218.55,846.126 1220.72,839.924 1222.89,833.475 1225.06,826.767 1227.23,819.792 1229.39,814.735 1231.56,809.532 1233.73,804.122 1235.9,798.496 1238.07,792.645 1240.24,786.56 1242.41,780.231 1244.58,773.65 1246.74,766.806 1248.91,759.689 1251.08,753.771 1253.25,748.516 1255.42,743.051 1257.59,737.367 1259.76,731.457 1261.92,725.31 1264.09,718.918 1266.26,712.27 1268.43,705.356 1270.6,698.167 1272.77,691.379 1274.94,686.134 1277.11,680.68 1279.27,675.007 1281.44,669.108 1283.61,662.974 1285.78,656.594 1287.95,649.959 1290.12,643.059 1292.29,635.883 1294.45,628.421 1296.62,623.085 1298.79,617.719 1300.96,612.138 1303.13,606.334 1305.3,600.298 1307.47,594.021 1309.63,587.493 1311.8,580.704 1313.97,573.644 1316.14,566.302 1318.31,560.22 1320.48,555.028 1322.65,549.627 1324.82,544.011 1326.98,538.171 1329.15,532.097 1331.32,525.78 1333.49,519.211 1335.66,512.38 1337.83,505.275 1340,498.52 1342.16,493.591 1344.33,488.464 1346.5,483.133 1348.67,477.588 1350.84,471.823 1353.01,465.826 1355.18,459.59 1357.35,453.105 1359.51,446.361 1361.68,439.347 1363.85,434.467 1366.02,429.705 1368.19,424.751 1370.36,419.6 1372.53,414.244 1374.69,408.673 1376.86,402.879 1379.03,396.854 1381.2,390.588 1383.37,384.072 1385.54,378.723 1387.71,374.403 1389.88,369.91 1392.04,365.237 1394.21,360.377 1396.38,355.324 1398.55,350.068 1400.72,344.603 1402.89,338.919 1405.06,333.008 1407.22,327.342 1409.39,323.523 1411.56,319.551 1413.73,315.421 1415.9,311.125 1418.07,306.658 1420.24,302.013 1422.4,297.181 1424.57,292.157 1426.74,286.932 1428.91,281.498 1431.08,277.849 1433.25,274.434 1435.42,270.882 1437.59,267.187 1439.75,263.346 1441.92,259.351 1444.09,255.196 1446.26,250.875 1448.43,246.381 1450.6,241.708 1452.77,237.907 1454.93,235.052 1457.1,232.082 1459.27,228.995 1461.44,225.784 1463.61,222.444 1465.78,218.971 1467.95,215.359 1470.12,211.603 1472.28,207.697 1474.45,203.91 1476.62,201.592 1478.79,199.18 1480.96,196.672 1483.13,194.064 1485.3,191.352 1487.46,188.531 1489.63,185.598 1491.8,182.547 1493.97,179.374 1496.14,176.075 1498.31,173.929 1500.48,172.025 1502.64,170.044 1504.81,167.985 1506.98,165.843 1509.15,163.616 1511.32,161.3 1513.49,158.891 1515.66,156.386 1517.83,153.78 1519.99,151.666 1522.16,150.202 1524.33,148.68 1526.5,147.097 1528.67,145.451 1530.84,143.739 1533.01,141.958 1535.17,140.107 1537.34,138.181 1539.51,136.179 1541.68,134.205 1543.85,133.108 1546.02,131.966 1548.19,130.78 1550.36,129.546 1552.52,128.262 1554.69,126.927 1556.86,125.539 1559.03,124.096 1561.2,122.594 1563.37,121.033 1565.54,120.032 1567.7,119.196 1569.87,118.326 1572.04,117.421 1574.21,116.481 1576.38,115.502 1578.55,114.485 1580.72,113.427 1582.88,112.327 1585.05,111.183 1587.22,110.245 1589.39,109.644 1591.56,109.019 1593.73,108.37 1595.9,107.694 1598.07,106.991 1600.23,106.26 1602.4,105.5 1604.57,104.709 1606.74,103.887 1608.91,103.059 1611.08,102.635 1613.25,102.194 1615.41,101.735 1617.58,101.257 1619.75,100.761 1621.92,100.245 1624.09,99.708 1626.26,99.1497 1628.43,98.5691 1630.6,97.9653 1632.76,97.5755 1634.93,97.2683 1637.1,96.9488 1639.27,96.6165 1641.44,96.271 1643.61,95.9117 1645.78,95.538 1647.94,95.1493 1650.11,94.7452 1652.28,94.3249 1654.45,93.974 1656.62,93.7628 1658.79,93.543 1660.96,93.3145 1663.13,93.0769 1665.29,92.8297 1667.46,92.5727 1669.63,92.3054 1671.8,92.0275 1673.97,91.7384 1676.14,91.4404 1678.31,91.2965 1680.47,91.1469 1682.64,90.9912 1684.81,90.8294 1686.98,90.6611 1689.15,90.486 1691.32,90.304 1693.49,90.1147 1695.65,89.9178 1697.82,89.713 1699.99,89.5779 1702.16,89.4768 1704.33,89.3716 1706.5,89.2622 1708.67,89.1485 1710.84,89.0302 1713,88.9072 1715.17,88.7793 1717.34,88.6462 1719.51,88.5079 1721.68,88.3895 1723.85,88.3216 1726.02,88.251 1728.18,88.1775 1730.35,88.1011 1732.52,88.0217 1734.69,87.9391 1736.86,87.8532 1739.03,87.7638 1741.2,87.6709 1743.37,87.5743 1745.53,87.5274 1747.7,87.4802 1749.87,87.4312 1752.04,87.3801 1754.21,87.327 1756.38,87.2718 1758.55,87.2144 1760.71,87.1547 1762.88,87.0926 1765.05,87.0281 1767.22,86.9841 1769.39,86.9527 1771.56,86.9201 1773.73,86.8861 1775.89,86.8507 1778.06,86.814 1780.23,86.7758 1782.4,86.736 1784.57,86.6947 1786.74,86.6517 1788.91,86.6139 1791.08,86.5931 1793.24,86.5714 1795.41,86.5488 1797.58,86.5254 1799.75,86.501 1801.92,86.4756 1804.09,86.4493 1806.26,86.4218 1808.42,86.3933 1810.59,86.3636 1812.76,86.3486 1814.93,86.3343 1817.1,86.3193 1819.27,86.3038 1821.44,86.2876 1823.61,86.2708 1825.77,86.2534 1827.94,86.2352 1830.11,86.2163 1832.28,86.1967 1834.45,86.1828 1836.62,86.1733 1838.79,86.1635 1840.95,86.1532 1843.12,86.1425 1845.29,86.1314 1847.46,86.1199 1849.63,86.1079 1851.8,86.0954 1853.97,86.0824 1856.13,86.0706 1858.3,86.0644 1860.47,86.0579 1862.64,86.0511 1864.81,86.044 1866.98,86.0367 1869.15,86.0291 1871.32,86.0211 1873.48,86.0129 1875.65,86.0043 1877.82,85.9954 1879.99,85.9907 1882.16,85.9864 1884.33,85.9819 1886.5,85.9773 1888.66,85.9724 1890.83,85.9674 1893,85.9622 1895.17,85.9567 1897.34,85.9511 1899.51,85.9452 1901.68,85.9409 1903.85,85.9381 1906.01,85.9351 1908.18,85.9321 1910.35,85.9289 1912.52,85.9256 1914.69,85.9221 1916.86,85.9185 1919.03,85.9148 1921.19,85.9109 1923.36,85.9073 1925.53,85.9055 1927.7,85.9035 1929.87,85.9015 1932.04,85.8994 1934.21,85.8972 1936.37,85.8949 1938.54,85.8926 1940.71,85.8901 1942.88,85.8876 1945.05,85.8849 1947.22,85.8834 1949.39,85.8822 1951.56,85.8808 1953.72,85.8795 1955.89,85.878 1958.06,85.8765 1960.23,85.875 1962.4,85.8734 1964.57,85.8717 1966.74,85.8699 1968.9,85.8686 1971.07,85.8678 1973.24,85.8669 1975.41,85.866 1977.58,85.865 1979.75,85.864 1981.92,85.863 1984.09,85.862 1986.25,85.8609 1988.42,85.8597 1990.59,85.8586 1992.76,85.8581 1994.93,85.8575 1997.1,85.8569 1999.27,85.8563 2001.43,85.8556 2003.6,85.8549 2005.77,85.8542 2007.94,85.8535 2010.11,85.8527 2012.28,85.852 2014.45,85.8515 2016.62,85.8511 2018.78,85.8507 2020.95,85.8503 2023.12,85.8499 2025.29,85.8495 2027.46,85.849 2029.63,85.8485 2031.8,85.848 2033.96,85.8475 2036.13,85.8471 2038.3,85.8468 2040.47,85.8466 2042.64,85.8463 2044.81,85.846 2046.98,85.8457 2049.14,85.8454 2051.31,85.8451 2053.48,85.8448 2055.65,85.8445 2057.82,85.8441 2059.99,85.844 2062.16,85.8438 2064.33,85.8436 2066.49,85.8434 2068.66,85.8432 2070.83,85.843 2073,85.8428 2075.17,85.8426 2077.34,85.8424 2079.51,85.8422 2081.67,85.842 2083.84,85.8419 2086.01,85.8418 2088.18,85.8417 2090.35,85.8415 2092.52,85.8414 2094.69,85.8413 2096.86,85.8411 2099.02,85.841 2101.19,85.8408 2103.36,85.8407 2105.53,85.8406 2107.7,85.8406 2109.87,85.8405 2112.04,85.8404 2114.2,85.8403 2116.37,85.8402 2118.54,85.8401 2120.71,85.84 2122.88,85.8399 2125.05,85.8398 2127.22,85.8398 2129.38,85.8397 2131.55,85.8397 2133.72,85.8396 2135.89,85.8396 2138.06,85.8395 2140.23,85.8394 2142.4,85.8394 2144.57,85.8393 2146.73,85.8392 2148.9,85.8392 2151.07,85.8392 2153.24,85.8391 2155.41,85.8391 2157.58,85.8391 2159.75,85.839 2161.91,85.839 2164.08,85.8389 2166.25,85.8389 2168.42,85.8388 2170.59,85.8388 2172.76,85.8388 2174.93,85.8388 2177.1,85.8387 2179.26,85.8387 2181.43,85.8387 2183.6,85.8387 2185.77,85.8386 2187.94,85.8386 2190.11,85.8386 2192.28,85.8385 2194.44,85.8385 2196.61,85.8385 2198.78,85.8385 2200.95,85.8385 2203.12,85.8385 2205.29,85.8384 2207.46,85.8384 2209.62,85.8384 2211.79,85.8384 2213.96,85.8384 2216.13,85.8384 2218.3,85.8383 2220.47,85.8383 2222.64,85.8383 2224.81,85.8383 2226.97,85.8383 2229.14,85.8383 2231.31,85.8383 2233.48,85.8383 2235.65,85.8383 2237.82,85.8382 2239.99,85.8382 2242.15,85.8382 2244.32,85.8382 2246.49,85.8382 2248.66,85.8382 2250.83,85.8382 2253,85.8382 2255.17,85.8382 2257.34,85.8382 2259.5,85.8382 2261.67,85.8382 2263.84,85.8382 2266.01,85.8382 2268.18,85.8381 2270.35,85.8381 2272.52,85.8381 2274.68,85.8381 2276.85,85.8381 2279.02,85.8381 2281.19,85.8381 2283.36,85.8381 2285.53,85.8381 2287.7,85.8381 2289.87,85.8381 2292.03,85.8381 2294.2,85.8381 2296.37,85.8381 2298.54,85.8381 2300.71,85.8381 2302.88,85.8381 2305.05,85.8381 2307.21,85.8381 2309.38,85.8381 2311.55,85.8381 2313.72,85.8381 2315.89,85.8381 2318.06,85.8381 2320.23,85.8381 2322.39,85.8381 2324.56,85.8381 2326.73,85.8381 2328.9,85.8381 2331.07,85.838 2333.24,85.838 2335.41,85.838 2337.58,85.838 2339.74,85.838 2341.91,85.838 2344.08,85.838 2346.25,85.838 2348.42,85.838 2350.59,85.838 2352.76,85.838 "/>
<path clip-path="url(#clip460)" d="M1943.71 300.059 L2280.54 300.059 L2280.54 92.6992 L1943.71 92.6992  Z" fill="#ffffff" fill-rule="evenodd" fill-opacity="1"/>
<polyline clip-path="url(#clip460)" style="stroke:#000000; stroke-linecap:round; stroke-linejoin:round; stroke-width:4; stroke-opacity:1; fill:none" points="1943.71,300.059 2280.54,300.059 2280.54,92.6992 1943.71,92.6992 1943.71,300.059 "/>
<polyline clip-path="url(#clip460)" style="stroke:#009af9; stroke-linecap:round; stroke-linejoin:round; stroke-width:4; stroke-opacity:1; fill:none" points="1967.78,144.539 2112.21,144.539 "/>
<path clip-path="url(#clip460)" d="M2136.28 151.588 L2136.28 135.893 L2140.54 135.893 L2140.54 151.426 Q2140.54 155.106 2141.98 156.958 Q2143.41 158.787 2146.28 158.787 Q2149.73 158.787 2151.72 156.588 Q2153.74 154.389 2153.74 150.592 L2153.74 135.893 L2158 135.893 L2158 161.819 L2153.74 161.819 L2153.74 157.838 Q2152.19 160.199 2150.13 161.356 Q2148.09 162.49 2145.38 162.49 Q2140.91 162.49 2138.6 159.713 Q2136.28 156.935 2136.28 151.588 M2147 135.268 L2147 135.268 Z" fill="#000000" fill-rule="nonzero" fill-opacity="1" /><path clip-path="url(#clip460)" d="M2165.91 159.273 L2170.63 159.273 L2170.63 145.129 L2165.47 146.079 L2165.47 143.393 L2170.8 142.491 L2173.97 142.491 L2173.97 159.273 L2178.71 159.273 L2178.71 161.819 L2165.91 161.819 L2165.91 159.273 Z" fill="#000000" fill-rule="nonzero" fill-opacity="1" /><polyline clip-path="url(#clip460)" style="stroke:#e26f46; stroke-linecap:round; stroke-linejoin:round; stroke-width:4; stroke-opacity:1; fill:none" points="1967.78,196.379 2112.21,196.379 "/>
<path clip-path="url(#clip460)" d="M2136.95 209.724 L2144.59 209.724 L2144.59 183.358 L2136.28 185.025 L2136.28 180.766 L2144.55 179.099 L2149.22 179.099 L2149.22 209.724 L2156.86 209.724 L2156.86 213.659 L2136.95 213.659 L2136.95 209.724 Z" fill="#000000" fill-rule="nonzero" fill-opacity="1" /><path clip-path="url(#clip460)" d="M2176.31 182.178 Q2172.7 182.178 2170.87 185.743 Q2169.06 189.284 2169.06 196.414 Q2169.06 203.52 2170.87 207.085 Q2172.7 210.627 2176.31 210.627 Q2179.94 210.627 2181.75 207.085 Q2183.57 203.52 2183.57 196.414 Q2183.57 189.284 2181.75 185.743 Q2179.94 182.178 2176.31 182.178 M2176.31 178.474 Q2182.12 178.474 2185.17 183.081 Q2188.25 187.664 2188.25 196.414 Q2188.25 205.141 2185.17 209.747 Q2182.12 214.33 2176.31 214.33 Q2170.5 214.33 2167.42 209.747 Q2164.36 205.141 2164.36 196.414 Q2164.36 187.664 2167.42 183.081 Q2170.5 178.474 2176.31 178.474 Z" fill="#000000" fill-rule="nonzero" fill-opacity="1" /><path clip-path="url(#clip460)" d="M2202.44 181.669 L2195.29 191.368 L2202.44 191.368 L2202.44 181.669 M2201.93 178.868 L2205.77 178.868 L2205.77 191.368 L2208.9 191.368 L2208.9 193.891 L2205.77 193.891 L2205.77 198.196 L2202.44 198.196 L2202.44 193.891 L2192.86 193.891 L2192.86 191.09 L2201.93 178.868 Z" fill="#000000" fill-rule="nonzero" fill-opacity="1" /><path clip-path="url(#clip460)" d="M2214.43 203.428 L2214.43 187.733 L2218.69 187.733 L2218.69 203.266 Q2218.69 206.946 2220.13 208.798 Q2221.56 210.627 2224.43 210.627 Q2227.88 210.627 2229.87 208.428 Q2231.88 206.229 2231.88 202.432 L2231.88 187.733 L2236.14 187.733 L2236.14 213.659 L2231.88 213.659 L2231.88 209.678 Q2230.33 212.039 2228.27 213.196 Q2226.24 214.33 2223.53 214.33 Q2219.06 214.33 2216.75 211.553 Q2214.43 208.775 2214.43 203.428 M2225.15 187.108 L2225.15 187.108 Z" fill="#000000" fill-rule="nonzero" fill-opacity="1" /><path clip-path="url(#clip460)" d="M2246.65 211.02 L2256.47 211.02 L2256.47 213.659 L2242.63 213.659 L2242.63 211.113 Q2243.41 210.395 2244.87 209.099 Q2252.83 202.039 2252.83 199.863 Q2252.83 198.335 2251.63 197.409 Q2250.43 196.46 2248.46 196.46 Q2247.25 196.46 2245.84 196.877 Q2244.43 197.27 2242.76 198.081 L2242.76 195.233 Q2244.55 194.585 2246.07 194.261 Q2247.63 193.937 2248.94 193.937 Q2252.3 193.937 2254.32 195.465 Q2256.33 196.993 2256.33 199.493 Q2256.33 202.71 2248.67 209.284 Q2247.37 210.395 2246.65 211.02 Z" fill="#000000" fill-rule="nonzero" fill-opacity="1" /><polyline clip-path="url(#clip460)" style="stroke:#3da44d; stroke-linecap:round; stroke-linejoin:round; stroke-width:4; stroke-opacity:1; fill:none" points="1967.78,248.219 2112.21,248.219 "/>
<path clip-path="url(#clip460)" d="M2136.28 255.268 L2136.28 239.573 L2140.54 239.573 L2140.54 255.106 Q2140.54 258.786 2141.98 260.638 Q2143.41 262.467 2146.28 262.467 Q2149.73 262.467 2151.72 260.268 Q2153.74 258.069 2153.74 254.272 L2153.74 239.573 L2158 239.573 L2158 265.499 L2153.74 265.499 L2153.74 261.518 Q2152.19 263.879 2150.13 265.036 Q2148.09 266.17 2145.38 266.17 Q2140.91 266.17 2138.6 263.393 Q2136.28 260.615 2136.28 255.268 M2147 238.948 L2147 238.948 Z" fill="#000000" fill-rule="nonzero" fill-opacity="1" /><path clip-path="url(#clip460)" d="M2174.43 255.036 Q2176.56 255.453 2177.72 256.726 Q2178.9 257.976 2178.9 259.874 Q2178.9 262.745 2176.7 264.295 Q2174.5 265.846 2170.4 265.846 Q2169.08 265.846 2167.63 265.592 Q2166.19 265.36 2164.57 264.897 L2164.57 262.096 Q2165.77 262.721 2167.14 263.022 Q2168.53 263.323 2170.08 263.323 Q2172.6 263.323 2173.99 262.42 Q2175.38 261.495 2175.38 259.874 Q2175.38 258.161 2174.08 257.282 Q2172.81 256.402 2170.31 256.402 L2168.32 256.402 L2168.32 253.902 L2170.5 253.902 Q2172.67 253.902 2173.78 253.184 Q2174.92 252.444 2174.92 251.055 Q2174.92 249.712 2173.76 249.018 Q2172.6 248.3 2170.4 248.3 Q2169.48 248.3 2168.3 248.509 Q2167.12 248.717 2165.24 249.249 L2165.24 246.587 Q2166.93 246.194 2168.41 245.985 Q2169.89 245.777 2171.17 245.777 Q2174.5 245.777 2176.45 247.143 Q2178.41 248.509 2178.41 250.8 Q2178.41 252.397 2177.37 253.509 Q2176.33 254.62 2174.43 255.036 Z" fill="#000000" fill-rule="nonzero" fill-opacity="1" /></svg>
