<?xml version="1.0" encoding="utf-8"?>
<svg xmlns="http://www.w3.org/2000/svg" xmlns:xlink="http://www.w3.org/1999/xlink" width="600" height="400" viewBox="0 0 2400 1600">
<defs>
  <clipPath id="clip860">
    <rect x="0" y="0" width="2400" height="1600"/>
  </clipPath>
</defs>
<path clip-path="url(#clip860)" d="M0 1600 L2400 1600 L2400 0 L0 0  Z" fill="#ffffff" fill-rule="evenodd" fill-opacity="1"/>
<defs>
  <clipPath id="clip861">
    <rect x="480" y="0" width="1681" height="1600"/>
  </clipPath>
</defs>
<path clip-path="url(#clip860)" d="M249.542 1423.18 L2352.76 1423.18 L2352.76 47.2441 L249.542 47.2441  Z" fill="#ffffff" fill-rule="evenodd" fill-opacity="1"/>
<defs>
  <clipPath id="clip862">
    <rect x="249" y="47" width="2104" height="1377"/>
  </clipPath>
</defs>
<polyline clip-path="url(#clip862)" style="stroke:#000000; stroke-linecap:round; stroke-linejoin:round; stroke-width:2; stroke-opacity:0.1; fill:none" points="299.046,1423.18 299.046,47.2441 "/>
<polyline clip-path="url(#clip862)" style="stroke:#000000; stroke-linecap:round; stroke-linejoin:round; stroke-width:2; stroke-opacity:0.1; fill:none" points="800.097,1423.18 800.097,47.2441 "/>
<polyline clip-path="url(#clip862)" style="stroke:#000000; stroke-linecap:round; stroke-linejoin:round; stroke-width:2; stroke-opacity:0.1; fill:none" points="1301.15,1423.18 1301.15,47.2441 "/>
<polyline clip-path="url(#clip862)" style="stroke:#000000; stroke-linecap:round; stroke-linejoin:round; stroke-width:2; stroke-opacity:0.1; fill:none" points="1802.2,1423.18 1802.2,47.2441 "/>
<polyline clip-path="url(#clip862)" style="stroke:#000000; stroke-linecap:round; stroke-linejoin:round; stroke-width:2; stroke-opacity:0.1; fill:none" points="2303.25,1423.18 2303.25,47.2441 "/>
<polyline clip-path="url(#clip860)" style="stroke:#000000; stroke-linecap:round; stroke-linejoin:round; stroke-width:4; stroke-opacity:1; fill:none" points="249.542,1423.18 2352.76,1423.18 "/>
<polyline clip-path="url(#clip860)" style="stroke:#000000; stroke-linecap:round; stroke-linejoin:round; stroke-width:4; stroke-opacity:1; fill:none" points="299.046,1423.18 299.046,1404.28 "/>
<polyline clip-path="url(#clip860)" style="stroke:#000000; stroke-linecap:round; stroke-linejoin:round; stroke-width:4; stroke-opacity:1; fill:none" points="800.097,1423.18 800.097,1404.28 "/>
<polyline clip-path="url(#clip860)" style="stroke:#000000; stroke-linecap:round; stroke-linejoin:round; stroke-width:4; stroke-opacity:1; fill:none" points="1301.15,1423.18 1301.15,1404.28 "/>
<polyline clip-path="url(#clip860)" style="stroke:#000000; stroke-linecap:round; stroke-linejoin:round; stroke-width:4; stroke-opacity:1; fill:none" points="1802.2,1423.18 1802.2,1404.28 "/>
<polyline clip-path="url(#clip860)" style="stroke:#000000; stroke-linecap:round; stroke-linejoin:round; stroke-width:4; stroke-opacity:1; fill:none" points="2303.25,1423.18 2303.25,1404.28 "/>
<path clip-path="url(#clip860)" d="M261.349 1454.1 Q257.738 1454.1 255.91 1457.66 Q254.104 1461.2 254.104 1468.33 Q254.104 1475.44 255.91 1479.01 Q257.738 1482.55 261.349 1482.55 Q264.984 1482.55 266.789 1479.01 Q268.618 1475.44 268.618 1468.33 Q268.618 1461.2 266.789 1457.66 Q264.984 1454.1 261.349 1454.1 M261.349 1450.39 Q267.16 1450.39 270.215 1455 Q273.294 1459.58 273.294 1468.33 Q273.294 1477.06 270.215 1481.67 Q267.16 1486.25 261.349 1486.25 Q255.539 1486.25 252.461 1481.67 Q249.405 1477.06 249.405 1468.33 Q249.405 1459.58 252.461 1455 Q255.539 1450.39 261.349 1450.39 Z" fill="#000000" fill-rule="nonzero" fill-opacity="1" /><path clip-path="url(#clip860)" d="M281.511 1479.7 L286.396 1479.7 L286.396 1485.58 L281.511 1485.58 L281.511 1479.7 Z" fill="#000000" fill-rule="nonzero" fill-opacity="1" /><path clip-path="url(#clip860)" d="M306.581 1454.1 Q302.97 1454.1 301.141 1457.66 Q299.335 1461.2 299.335 1468.33 Q299.335 1475.44 301.141 1479.01 Q302.97 1482.55 306.581 1482.55 Q310.215 1482.55 312.02 1479.01 Q313.849 1475.44 313.849 1468.33 Q313.849 1461.2 312.02 1457.66 Q310.215 1454.1 306.581 1454.1 M306.581 1450.39 Q312.391 1450.39 315.446 1455 Q318.525 1459.58 318.525 1468.33 Q318.525 1477.06 315.446 1481.67 Q312.391 1486.25 306.581 1486.25 Q300.77 1486.25 297.692 1481.67 Q294.636 1477.06 294.636 1468.33 Q294.636 1459.58 297.692 1455 Q300.77 1450.39 306.581 1450.39 Z" fill="#000000" fill-rule="nonzero" fill-opacity="1" /><path clip-path="url(#clip860)" d="M336.742 1454.1 Q333.131 1454.1 331.303 1457.66 Q329.497 1461.2 329.497 1468.33 Q329.497 1475.44 331.303 1479.01 Q333.131 1482.55 336.742 1482.55 Q340.377 1482.55 342.182 1479.01 Q344.011 1475.44 344.011 1468.33 Q344.011 1461.2 342.182 1457.66 Q340.377 1454.1 336.742 1454.1 M336.742 1450.39 Q342.553 1450.39 345.608 1455 Q348.687 1459.58 348.687 1468.33 Q348.687 1477.06 345.608 1481.67 Q342.553 1486.25 336.742 1486.25 Q330.932 1486.25 327.854 1481.67 Q324.798 1477.06 324.798 1468.33 Q324.798 1459.58 327.854 1455 Q330.932 1450.39 336.742 1450.39 Z" fill="#000000" fill-rule="nonzero" fill-opacity="1" /><path clip-path="url(#clip860)" d="M762.899 1454.1 Q759.287 1454.1 757.459 1457.66 Q755.653 1461.2 755.653 1468.33 Q755.653 1475.44 757.459 1479.01 Q759.287 1482.55 762.899 1482.55 Q766.533 1482.55 768.338 1479.01 Q770.167 1475.44 770.167 1468.33 Q770.167 1461.2 768.338 1457.66 Q766.533 1454.1 762.899 1454.1 M762.899 1450.39 Q768.709 1450.39 771.764 1455 Q774.843 1459.58 774.843 1468.33 Q774.843 1477.06 771.764 1481.67 Q768.709 1486.25 762.899 1486.25 Q757.088 1486.25 754.01 1481.67 Q750.954 1477.06 750.954 1468.33 Q750.954 1459.58 754.01 1455 Q757.088 1450.39 762.899 1450.39 Z" fill="#000000" fill-rule="nonzero" fill-opacity="1" /><path clip-path="url(#clip860)" d="M783.061 1479.7 L787.945 1479.7 L787.945 1485.58 L783.061 1485.58 L783.061 1479.7 Z" fill="#000000" fill-rule="nonzero" fill-opacity="1" /><path clip-path="url(#clip860)" d="M802.158 1481.64 L818.477 1481.64 L818.477 1485.58 L796.533 1485.58 L796.533 1481.64 Q799.195 1478.89 803.778 1474.26 Q808.384 1469.61 809.565 1468.27 Q811.81 1465.74 812.69 1464.01 Q813.593 1462.25 813.593 1460.56 Q813.593 1457.8 811.648 1456.07 Q809.727 1454.33 806.625 1454.33 Q804.426 1454.33 801.972 1455.09 Q799.542 1455.86 796.764 1457.41 L796.764 1452.69 Q799.588 1451.55 802.042 1450.97 Q804.496 1450.39 806.533 1450.39 Q811.903 1450.39 815.097 1453.08 Q818.292 1455.77 818.292 1460.26 Q818.292 1462.39 817.482 1464.31 Q816.695 1466.2 814.588 1468.8 Q814.009 1469.47 810.908 1472.69 Q807.806 1475.88 802.158 1481.64 Z" fill="#000000" fill-rule="nonzero" fill-opacity="1" /><path clip-path="url(#clip860)" d="M828.338 1451.02 L846.694 1451.02 L846.694 1454.96 L832.62 1454.96 L832.62 1463.43 Q833.639 1463.08 834.657 1462.92 Q835.676 1462.73 836.694 1462.73 Q842.481 1462.73 845.861 1465.9 Q849.241 1469.08 849.241 1474.49 Q849.241 1480.07 845.768 1483.17 Q842.296 1486.25 835.977 1486.25 Q833.801 1486.25 831.532 1485.88 Q829.287 1485.51 826.88 1484.77 L826.88 1480.07 Q828.963 1481.2 831.185 1481.76 Q833.407 1482.32 835.884 1482.32 Q839.889 1482.32 842.227 1480.21 Q844.565 1478.1 844.565 1474.49 Q844.565 1470.88 842.227 1468.77 Q839.889 1466.67 835.884 1466.67 Q834.009 1466.67 832.134 1467.08 Q830.282 1467.5 828.338 1468.38 L828.338 1451.02 Z" fill="#000000" fill-rule="nonzero" fill-opacity="1" /><path clip-path="url(#clip860)" d="M1263.45 1454.1 Q1259.84 1454.1 1258.01 1457.66 Q1256.21 1461.2 1256.21 1468.33 Q1256.21 1475.44 1258.01 1479.01 Q1259.84 1482.55 1263.45 1482.55 Q1267.09 1482.55 1268.89 1479.01 Q1270.72 1475.44 1270.72 1468.33 Q1270.72 1461.2 1268.89 1457.66 Q1267.09 1454.1 1263.45 1454.1 M1263.45 1450.39 Q1269.26 1450.39 1272.32 1455 Q1275.4 1459.58 1275.4 1468.33 Q1275.4 1477.06 1272.32 1481.67 Q1269.26 1486.25 1263.45 1486.25 Q1257.64 1486.25 1254.56 1481.67 Q1251.51 1477.06 1251.51 1468.33 Q1251.51 1459.58 1254.56 1455 Q1257.64 1450.39 1263.45 1450.39 Z" fill="#000000" fill-rule="nonzero" fill-opacity="1" /><path clip-path="url(#clip860)" d="M1283.61 1479.7 L1288.5 1479.7 L1288.5 1485.58 L1283.61 1485.58 L1283.61 1479.7 Z" fill="#000000" fill-rule="nonzero" fill-opacity="1" /><path clip-path="url(#clip860)" d="M1298.73 1451.02 L1317.09 1451.02 L1317.09 1454.96 L1303.01 1454.96 L1303.01 1463.43 Q1304.03 1463.08 1305.05 1462.92 Q1306.07 1462.73 1307.09 1462.73 Q1312.87 1462.73 1316.25 1465.9 Q1319.63 1469.08 1319.63 1474.49 Q1319.63 1480.07 1316.16 1483.17 Q1312.69 1486.25 1306.37 1486.25 Q1304.19 1486.25 1301.92 1485.88 Q1299.68 1485.51 1297.27 1484.77 L1297.27 1480.07 Q1299.35 1481.2 1301.58 1481.76 Q1303.8 1482.32 1306.28 1482.32 Q1310.28 1482.32 1312.62 1480.21 Q1314.96 1478.1 1314.96 1474.49 Q1314.96 1470.88 1312.62 1468.77 Q1310.28 1466.67 1306.28 1466.67 Q1304.4 1466.67 1302.53 1467.08 Q1300.67 1467.5 1298.73 1468.38 L1298.73 1451.02 Z" fill="#000000" fill-rule="nonzero" fill-opacity="1" /><path clip-path="url(#clip860)" d="M1338.85 1454.1 Q1335.23 1454.1 1333.41 1457.66 Q1331.6 1461.2 1331.6 1468.33 Q1331.6 1475.44 1333.41 1479.01 Q1335.23 1482.55 1338.85 1482.55 Q1342.48 1482.55 1344.29 1479.01 Q1346.11 1475.44 1346.11 1468.33 Q1346.11 1461.2 1344.29 1457.66 Q1342.48 1454.1 1338.85 1454.1 M1338.85 1450.39 Q1344.66 1450.39 1347.71 1455 Q1350.79 1459.58 1350.79 1468.33 Q1350.79 1477.06 1347.71 1481.67 Q1344.66 1486.25 1338.85 1486.25 Q1333.04 1486.25 1329.96 1481.67 Q1326.9 1477.06 1326.9 1468.33 Q1326.9 1459.58 1329.96 1455 Q1333.04 1450.39 1338.85 1450.39 Z" fill="#000000" fill-rule="nonzero" fill-opacity="1" /><path clip-path="url(#clip860)" d="M1765 1454.1 Q1761.39 1454.1 1759.56 1457.66 Q1757.76 1461.2 1757.76 1468.33 Q1757.76 1475.44 1759.56 1479.01 Q1761.39 1482.55 1765 1482.55 Q1768.64 1482.55 1770.44 1479.01 Q1772.27 1475.44 1772.27 1468.33 Q1772.27 1461.2 1770.44 1457.66 Q1768.64 1454.1 1765 1454.1 M1765 1450.39 Q1770.81 1450.39 1773.87 1455 Q1776.95 1459.58 1776.95 1468.33 Q1776.95 1477.06 1773.87 1481.67 Q1770.81 1486.25 1765 1486.25 Q1759.19 1486.25 1756.11 1481.67 Q1753.06 1477.06 1753.06 1468.33 Q1753.06 1459.58 1756.11 1455 Q1759.19 1450.39 1765 1450.39 Z" fill="#000000" fill-rule="nonzero" fill-opacity="1" /><path clip-path="url(#clip860)" d="M1785.16 1479.7 L1790.05 1479.7 L1790.05 1485.58 L1785.16 1485.58 L1785.16 1479.7 Z" fill="#000000" fill-rule="nonzero" fill-opacity="1" /><path clip-path="url(#clip860)" d="M1799.05 1451.02 L1821.27 1451.02 L1821.27 1453.01 L1808.73 1485.58 L1803.84 1485.58 L1815.65 1454.96 L1799.05 1454.96 L1799.05 1451.02 Z" fill="#000000" fill-rule="nonzero" fill-opacity="1" /><path clip-path="url(#clip860)" d="M1830.44 1451.02 L1848.8 1451.02 L1848.8 1454.96 L1834.72 1454.96 L1834.72 1463.43 Q1835.74 1463.08 1836.76 1462.92 Q1837.78 1462.73 1838.8 1462.73 Q1844.58 1462.73 1847.96 1465.9 Q1851.34 1469.08 1851.34 1474.49 Q1851.34 1480.07 1847.87 1483.17 Q1844.4 1486.25 1838.08 1486.25 Q1835.9 1486.25 1833.64 1485.88 Q1831.39 1485.51 1828.98 1484.77 L1828.98 1480.07 Q1831.07 1481.2 1833.29 1481.76 Q1835.51 1482.32 1837.99 1482.32 Q1841.99 1482.32 1844.33 1480.21 Q1846.67 1478.1 1846.67 1474.49 Q1846.67 1470.88 1844.33 1468.77 Q1841.99 1466.67 1837.99 1466.67 Q1836.11 1466.67 1834.24 1467.08 Q1832.39 1467.5 1830.44 1468.38 L1830.44 1451.02 Z" fill="#000000" fill-rule="nonzero" fill-opacity="1" /><path clip-path="url(#clip860)" d="M2255.32 1481.64 L2262.96 1481.64 L2262.96 1455.28 L2254.65 1456.95 L2254.65 1452.69 L2262.92 1451.02 L2267.59 1451.02 L2267.59 1481.64 L2275.23 1481.64 L2275.23 1485.58 L2255.32 1485.58 L2255.32 1481.64 Z" fill="#000000" fill-rule="nonzero" fill-opacity="1" /><path clip-path="url(#clip860)" d="M2284.68 1479.7 L2289.56 1479.7 L2289.56 1485.58 L2284.68 1485.58 L2284.68 1479.7 Z" fill="#000000" fill-rule="nonzero" fill-opacity="1" /><path clip-path="url(#clip860)" d="M2309.75 1454.1 Q2306.13 1454.1 2304.31 1457.66 Q2302.5 1461.2 2302.5 1468.33 Q2302.5 1475.44 2304.31 1479.01 Q2306.13 1482.55 2309.75 1482.55 Q2313.38 1482.55 2315.18 1479.01 Q2317.01 1475.44 2317.01 1468.33 Q2317.01 1461.2 2315.18 1457.66 Q2313.38 1454.1 2309.75 1454.1 M2309.75 1450.39 Q2315.56 1450.39 2318.61 1455 Q2321.69 1459.58 2321.69 1468.33 Q2321.69 1477.06 2318.61 1481.67 Q2315.56 1486.25 2309.75 1486.25 Q2303.93 1486.25 2300.86 1481.67 Q2297.8 1477.06 2297.8 1468.33 Q2297.8 1459.58 2300.86 1455 Q2303.93 1450.39 2309.75 1450.39 Z" fill="#000000" fill-rule="nonzero" fill-opacity="1" /><path clip-path="url(#clip860)" d="M2339.91 1454.1 Q2336.3 1454.1 2334.47 1457.66 Q2332.66 1461.2 2332.66 1468.33 Q2332.66 1475.44 2334.47 1479.01 Q2336.3 1482.55 2339.91 1482.55 Q2343.54 1482.55 2345.35 1479.01 Q2347.18 1475.44 2347.18 1468.33 Q2347.18 1461.2 2345.35 1457.66 Q2343.54 1454.1 2339.91 1454.1 M2339.91 1450.39 Q2345.72 1450.39 2348.77 1455 Q2351.85 1459.58 2351.85 1468.33 Q2351.85 1477.06 2348.77 1481.67 Q2345.72 1486.25 2339.91 1486.25 Q2334.1 1486.25 2331.02 1481.67 Q2327.96 1477.06 2327.96 1468.33 Q2327.96 1459.58 2331.02 1455 Q2334.1 1450.39 2339.91 1450.39 Z" fill="#000000" fill-rule="nonzero" fill-opacity="1" /><path clip-path="url(#clip860)" d="M1317.76 1532.4 L1304.87 1549.74 L1318.43 1568.04 L1311.53 1568.04 L1301.15 1554.04 L1290.77 1568.04 L1283.87 1568.04 L1297.71 1549.39 L1285.04 1532.4 L1291.95 1532.4 L1301.4 1545.1 L1310.86 1532.4 L1317.76 1532.4 Z" fill="#000000" fill-rule="nonzero" fill-opacity="1" /><polyline clip-path="url(#clip862)" style="stroke:#000000; stroke-linecap:round; stroke-linejoin:round; stroke-width:2; stroke-opacity:0.1; fill:none" points="249.542,1384.56 2352.76,1384.56 "/>
<polyline clip-path="url(#clip862)" style="stroke:#000000; stroke-linecap:round; stroke-linejoin:round; stroke-width:2; stroke-opacity:0.1; fill:none" points="249.542,1059.89 2352.76,1059.89 "/>
<polyline clip-path="url(#clip862)" style="stroke:#000000; stroke-linecap:round; stroke-linejoin:round; stroke-width:2; stroke-opacity:0.1; fill:none" points="249.542,735.212 2352.76,735.212 "/>
<polyline clip-path="url(#clip862)" style="stroke:#000000; stroke-linecap:round; stroke-linejoin:round; stroke-width:2; stroke-opacity:0.1; fill:none" points="249.542,410.539 2352.76,410.539 "/>
<polyline clip-path="url(#clip862)" style="stroke:#000000; stroke-linecap:round; stroke-linejoin:round; stroke-width:2; stroke-opacity:0.1; fill:none" points="249.542,85.8653 2352.76,85.8653 "/>
<polyline clip-path="url(#clip860)" style="stroke:#000000; stroke-linecap:round; stroke-linejoin:round; stroke-width:4; stroke-opacity:1; fill:none" points="249.542,1423.18 249.542,47.2441 "/>
<polyline clip-path="url(#clip860)" style="stroke:#000000; stroke-linecap:round; stroke-linejoin:round; stroke-width:4; stroke-opacity:1; fill:none" points="249.542,1384.56 268.44,1384.56 "/>
<polyline clip-path="url(#clip860)" style="stroke:#000000; stroke-linecap:round; stroke-linejoin:round; stroke-width:4; stroke-opacity:1; fill:none" points="249.542,1059.89 268.44,1059.89 "/>
<polyline clip-path="url(#clip860)" style="stroke:#000000; stroke-linecap:round; stroke-linejoin:round; stroke-width:4; stroke-opacity:1; fill:none" points="249.542,735.212 268.44,735.212 "/>
<polyline clip-path="url(#clip860)" style="stroke:#000000; stroke-linecap:round; stroke-linejoin:round; stroke-width:4; stroke-opacity:1; fill:none" points="249.542,410.539 268.44,410.539 "/>
<polyline clip-path="url(#clip860)" style="stroke:#000000; stroke-linecap:round; stroke-linejoin:round; stroke-width:4; stroke-opacity:1; fill:none" points="249.542,85.8653 268.44,85.8653 "/>
<path clip-path="url(#clip860)" d="M126.205 1370.36 Q122.593 1370.36 120.765 1373.92 Q118.959 1377.46 118.959 1384.59 Q118.959 1391.7 120.765 1395.26 Q122.593 1398.81 126.205 1398.81 Q129.839 1398.81 131.644 1395.26 Q133.473 1391.7 133.473 1384.59 Q133.473 1377.46 131.644 1373.92 Q129.839 1370.36 126.205 1370.36 M126.205 1366.65 Q132.015 1366.65 135.07 1371.26 Q138.149 1375.84 138.149 1384.59 Q138.149 1393.32 135.07 1397.93 Q132.015 1402.51 126.205 1402.51 Q120.394 1402.51 117.316 1397.93 Q114.26 1393.32 114.26 1384.59 Q114.26 1375.84 117.316 1371.26 Q120.394 1366.65 126.205 1366.65 Z" fill="#000000" fill-rule="nonzero" fill-opacity="1" /><path clip-path="url(#clip860)" d="M146.366 1395.96 L151.251 1395.96 L151.251 1401.84 L146.366 1401.84 L146.366 1395.96 Z" fill="#000000" fill-rule="nonzero" fill-opacity="1" /><path clip-path="url(#clip860)" d="M171.436 1370.36 Q167.825 1370.36 165.996 1373.92 Q164.19 1377.46 164.19 1384.59 Q164.19 1391.7 165.996 1395.26 Q167.825 1398.81 171.436 1398.81 Q175.07 1398.81 176.876 1395.26 Q178.704 1391.7 178.704 1384.59 Q178.704 1377.46 176.876 1373.92 Q175.07 1370.36 171.436 1370.36 M171.436 1366.65 Q177.246 1366.65 180.301 1371.26 Q183.38 1375.84 183.38 1384.59 Q183.38 1393.32 180.301 1397.93 Q177.246 1402.51 171.436 1402.51 Q165.626 1402.51 162.547 1397.93 Q159.491 1393.32 159.491 1384.59 Q159.491 1375.84 162.547 1371.26 Q165.626 1366.65 171.436 1366.65 Z" fill="#000000" fill-rule="nonzero" fill-opacity="1" /><path clip-path="url(#clip860)" d="M201.598 1370.36 Q197.987 1370.36 196.158 1373.92 Q194.352 1377.46 194.352 1384.59 Q194.352 1391.7 196.158 1395.26 Q197.987 1398.81 201.598 1398.81 Q205.232 1398.81 207.037 1395.26 Q208.866 1391.7 208.866 1384.59 Q208.866 1377.46 207.037 1373.92 Q205.232 1370.36 201.598 1370.36 M201.598 1366.65 Q207.408 1366.65 210.463 1371.26 Q213.542 1375.84 213.542 1384.59 Q213.542 1393.32 210.463 1397.93 Q207.408 1402.51 201.598 1402.51 Q195.787 1402.51 192.709 1397.93 Q189.653 1393.32 189.653 1384.59 Q189.653 1375.84 192.709 1371.26 Q195.787 1366.65 201.598 1366.65 Z" fill="#000000" fill-rule="nonzero" fill-opacity="1" /><path clip-path="url(#clip860)" d="M127.2 1045.68 Q123.589 1045.68 121.76 1049.25 Q119.955 1052.79 119.955 1059.92 Q119.955 1067.03 121.76 1070.59 Q123.589 1074.13 127.2 1074.13 Q130.834 1074.13 132.64 1070.59 Q134.468 1067.03 134.468 1059.92 Q134.468 1052.79 132.64 1049.25 Q130.834 1045.68 127.2 1045.68 M127.2 1041.98 Q133.01 1041.98 136.066 1046.59 Q139.144 1051.17 139.144 1059.92 Q139.144 1068.65 136.066 1073.25 Q133.01 1077.84 127.2 1077.84 Q121.39 1077.84 118.311 1073.25 Q115.256 1068.65 115.256 1059.92 Q115.256 1051.17 118.311 1046.59 Q121.39 1041.98 127.2 1041.98 Z" fill="#000000" fill-rule="nonzero" fill-opacity="1" /><path clip-path="url(#clip860)" d="M147.362 1071.29 L152.246 1071.29 L152.246 1077.17 L147.362 1077.17 L147.362 1071.29 Z" fill="#000000" fill-rule="nonzero" fill-opacity="1" /><path clip-path="url(#clip860)" d="M166.459 1073.23 L182.778 1073.23 L182.778 1077.17 L160.834 1077.17 L160.834 1073.23 Q163.496 1070.48 168.079 1065.85 Q172.686 1061.19 173.866 1059.85 Q176.112 1057.33 176.991 1055.59 Q177.894 1053.83 177.894 1052.14 Q177.894 1049.39 175.95 1047.65 Q174.028 1045.92 170.927 1045.92 Q168.727 1045.92 166.274 1046.68 Q163.843 1047.44 161.065 1048.99 L161.065 1044.27 Q163.89 1043.14 166.343 1042.56 Q168.797 1041.98 170.834 1041.98 Q176.204 1041.98 179.399 1044.67 Q182.593 1047.35 182.593 1051.84 Q182.593 1053.97 181.783 1055.89 Q180.996 1057.79 178.889 1060.38 Q178.311 1061.05 175.209 1064.27 Q172.107 1067.47 166.459 1073.23 Z" fill="#000000" fill-rule="nonzero" fill-opacity="1" /><path clip-path="url(#clip860)" d="M192.639 1042.61 L210.996 1042.61 L210.996 1046.54 L196.922 1046.54 L196.922 1055.01 Q197.94 1054.67 198.959 1054.5 Q199.977 1054.32 200.996 1054.32 Q206.783 1054.32 210.162 1057.49 Q213.542 1060.66 213.542 1066.08 Q213.542 1071.66 210.07 1074.76 Q206.598 1077.84 200.278 1077.84 Q198.102 1077.84 195.834 1077.47 Q193.588 1077.1 191.181 1076.36 L191.181 1071.66 Q193.264 1072.79 195.487 1073.35 Q197.709 1073.9 200.186 1073.9 Q204.19 1073.9 206.528 1071.79 Q208.866 1069.69 208.866 1066.08 Q208.866 1062.47 206.528 1060.36 Q204.19 1058.25 200.186 1058.25 Q198.311 1058.25 196.436 1058.67 Q194.584 1059.09 192.639 1059.97 L192.639 1042.61 Z" fill="#000000" fill-rule="nonzero" fill-opacity="1" /><path clip-path="url(#clip860)" d="M126.205 721.011 Q122.593 721.011 120.765 724.575 Q118.959 728.117 118.959 735.247 Q118.959 742.353 120.765 745.918 Q122.593 749.46 126.205 749.46 Q129.839 749.46 131.644 745.918 Q133.473 742.353 133.473 735.247 Q133.473 728.117 131.644 724.575 Q129.839 721.011 126.205 721.011 M126.205 717.307 Q132.015 717.307 135.07 721.913 Q138.149 726.497 138.149 735.247 Q138.149 743.973 135.07 748.58 Q132.015 753.163 126.205 753.163 Q120.394 753.163 117.316 748.58 Q114.26 743.973 114.26 735.247 Q114.26 726.497 117.316 721.913 Q120.394 717.307 126.205 717.307 Z" fill="#000000" fill-rule="nonzero" fill-opacity="1" /><path clip-path="url(#clip860)" d="M146.366 746.612 L151.251 746.612 L151.251 752.492 L146.366 752.492 L146.366 746.612 Z" fill="#000000" fill-rule="nonzero" fill-opacity="1" /><path clip-path="url(#clip860)" d="M161.482 717.932 L179.839 717.932 L179.839 721.867 L165.765 721.867 L165.765 730.339 Q166.783 729.992 167.802 729.83 Q168.82 729.645 169.839 729.645 Q175.626 729.645 179.005 732.816 Q182.385 735.987 182.385 741.404 Q182.385 746.983 178.913 750.085 Q175.44 753.163 169.121 753.163 Q166.945 753.163 164.677 752.793 Q162.431 752.423 160.024 751.682 L160.024 746.983 Q162.107 748.117 164.329 748.673 Q166.552 749.228 169.028 749.228 Q173.033 749.228 175.371 747.122 Q177.709 745.015 177.709 741.404 Q177.709 737.793 175.371 735.687 Q173.033 733.58 169.028 733.58 Q167.153 733.58 165.278 733.997 Q163.427 734.413 161.482 735.293 L161.482 717.932 Z" fill="#000000" fill-rule="nonzero" fill-opacity="1" /><path clip-path="url(#clip860)" d="M201.598 721.011 Q197.987 721.011 196.158 724.575 Q194.352 728.117 194.352 735.247 Q194.352 742.353 196.158 745.918 Q197.987 749.46 201.598 749.46 Q205.232 749.46 207.037 745.918 Q208.866 742.353 208.866 735.247 Q208.866 728.117 207.037 724.575 Q205.232 721.011 201.598 721.011 M201.598 717.307 Q207.408 717.307 210.463 721.913 Q213.542 726.497 213.542 735.247 Q213.542 743.973 210.463 748.58 Q207.408 753.163 201.598 753.163 Q195.787 753.163 192.709 748.58 Q189.653 743.973 189.653 735.247 Q189.653 726.497 192.709 721.913 Q195.787 717.307 201.598 717.307 Z" fill="#000000" fill-rule="nonzero" fill-opacity="1" /><path clip-path="url(#clip860)" d="M127.2 396.337 Q123.589 396.337 121.76 399.902 Q119.955 403.444 119.955 410.573 Q119.955 417.68 121.76 421.245 Q123.589 424.786 127.2 424.786 Q130.834 424.786 132.64 421.245 Q134.468 417.68 134.468 410.573 Q134.468 403.444 132.64 399.902 Q130.834 396.337 127.2 396.337 M127.2 392.634 Q133.01 392.634 136.066 397.24 Q139.144 401.823 139.144 410.573 Q139.144 419.3 136.066 423.907 Q133.01 428.49 127.2 428.49 Q121.39 428.49 118.311 423.907 Q115.256 419.3 115.256 410.573 Q115.256 401.823 118.311 397.24 Q121.39 392.634 127.2 392.634 Z" fill="#000000" fill-rule="nonzero" fill-opacity="1" /><path clip-path="url(#clip860)" d="M147.362 421.939 L152.246 421.939 L152.246 427.819 L147.362 427.819 L147.362 421.939 Z" fill="#000000" fill-rule="nonzero" fill-opacity="1" /><path clip-path="url(#clip860)" d="M161.251 393.259 L183.473 393.259 L183.473 395.249 L170.927 427.819 L166.042 427.819 L177.848 397.194 L161.251 397.194 L161.251 393.259 Z" fill="#000000" fill-rule="nonzero" fill-opacity="1" /><path clip-path="url(#clip860)" d="M192.639 393.259 L210.996 393.259 L210.996 397.194 L196.922 397.194 L196.922 405.666 Q197.94 405.319 198.959 405.157 Q199.977 404.972 200.996 404.972 Q206.783 404.972 210.162 408.143 Q213.542 411.314 213.542 416.731 Q213.542 422.309 210.07 425.411 Q206.598 428.49 200.278 428.49 Q198.102 428.49 195.834 428.12 Q193.588 427.749 191.181 427.008 L191.181 422.309 Q193.264 423.444 195.487 423.999 Q197.709 424.555 200.186 424.555 Q204.19 424.555 206.528 422.448 Q208.866 420.342 208.866 416.731 Q208.866 413.12 206.528 411.013 Q204.19 408.907 200.186 408.907 Q198.311 408.907 196.436 409.323 Q194.584 409.74 192.639 410.62 L192.639 393.259 Z" fill="#000000" fill-rule="nonzero" fill-opacity="1" /><path clip-path="url(#clip860)" d="M117.015 99.2101 L124.654 99.2101 L124.654 72.8445 L116.343 74.5112 L116.343 70.2519 L124.607 68.5853 L129.283 68.5853 L129.283 99.2101 L136.922 99.2101 L136.922 103.145 L117.015 103.145 L117.015 99.2101 Z" fill="#000000" fill-rule="nonzero" fill-opacity="1" /><path clip-path="url(#clip860)" d="M146.366 97.2657 L151.251 97.2657 L151.251 103.145 L146.366 103.145 L146.366 97.2657 Z" fill="#000000" fill-rule="nonzero" fill-opacity="1" /><path clip-path="url(#clip860)" d="M171.436 71.6639 Q167.825 71.6639 165.996 75.2287 Q164.19 78.7704 164.19 85.9 Q164.19 93.0064 165.996 96.5712 Q167.825 100.113 171.436 100.113 Q175.07 100.113 176.876 96.5712 Q178.704 93.0064 178.704 85.9 Q178.704 78.7704 176.876 75.2287 Q175.07 71.6639 171.436 71.6639 M171.436 67.9603 Q177.246 67.9603 180.301 72.5667 Q183.38 77.15 183.38 85.9 Q183.38 94.6268 180.301 99.2332 Q177.246 103.817 171.436 103.817 Q165.626 103.817 162.547 99.2332 Q159.491 94.6268 159.491 85.9 Q159.491 77.15 162.547 72.5667 Q165.626 67.9603 171.436 67.9603 Z" fill="#000000" fill-rule="nonzero" fill-opacity="1" /><path clip-path="url(#clip860)" d="M201.598 71.6639 Q197.987 71.6639 196.158 75.2287 Q194.352 78.7704 194.352 85.9 Q194.352 93.0064 196.158 96.5712 Q197.987 100.113 201.598 100.113 Q205.232 100.113 207.037 96.5712 Q208.866 93.0064 208.866 85.9 Q208.866 78.7704 207.037 75.2287 Q205.232 71.6639 201.598 71.6639 M201.598 67.9603 Q207.408 67.9603 210.463 72.5667 Q213.542 77.15 213.542 85.9 Q213.542 94.6268 210.463 99.2332 Q207.408 103.817 201.598 103.817 Q195.787 103.817 192.709 99.2332 Q189.653 94.6268 189.653 85.9 Q189.653 77.15 192.709 72.5667 Q195.787 67.9603 201.598 67.9603 Z" fill="#000000" fill-rule="nonzero" fill-opacity="1" /><path clip-path="url(#clip860)" d="M49.9359 750.14 L28.3562 750.14 L28.3562 744.283 L49.7131 744.283 Q54.7739 744.283 57.3202 742.31 Q59.8346 740.336 59.8346 736.39 Q59.8346 731.647 56.8109 728.91 Q53.7872 726.141 48.5673 726.141 L28.3562 726.141 L28.3562 720.284 L64.0042 720.284 L64.0042 726.141 L58.5296 726.141 Q61.7762 728.273 63.3676 731.106 Q64.9272 733.907 64.9272 737.631 Q64.9272 743.774 61.1078 746.957 Q57.2883 750.14 49.9359 750.14 M27.4968 735.403 L27.4968 735.403 Z" fill="#000000" fill-rule="nonzero" fill-opacity="1" /><polyline clip-path="url(#clip862)" style="stroke:#009af9; stroke-linecap:round; stroke-linejoin:round; stroke-width:4; stroke-opacity:1; fill:none" points="309.067,86.1857 329.109,88.7471 349.151,93.8598 369.193,101.504 389.235,111.648 409.277,124.254 429.319,139.271 449.361,156.64 469.403,176.292 489.446,198.15 509.488,222.127 529.53,248.13 549.572,276.055 569.614,305.791 589.656,337.223 609.698,370.225 629.74,404.668 649.782,440.415 669.824,477.325 689.866,515.254 709.908,554.05 729.95,593.561 749.992,633.632 770.034,674.103 790.076,714.815 810.118,755.608 830.161,796.321 850.203,836.792 870.245,876.863 890.287,916.374 910.329,955.17 930.371,993.099 950.413,1030.01 970.455,1065.76 990.497,1100.2 1010.54,1133.2 1030.58,1164.63 1050.62,1194.37 1070.67,1222.29 1090.71,1248.3 1110.75,1272.27 1130.79,1294.13 1150.83,1313.78 1170.88,1331.15 1190.92,1346.17 1210.96,1358.78 1231,1368.92 1251.04,1376.56 1271.09,1381.68 1291.13,1384.24 1311.17,1384.24 1331.21,1381.68 1351.25,1376.56 1371.3,1368.92 1391.34,1358.78 1411.38,1346.17 1431.42,1331.15 1451.46,1313.78 1471.51,1294.13 1491.55,1272.27 1511.59,1248.3 1531.63,1222.29 1551.67,1194.37 1571.72,1164.63 1591.76,1133.2 1611.8,1100.2 1631.84,1065.76 1651.89,1030.01 1671.93,993.099 1691.97,955.17 1712.01,916.374 1732.05,876.863 1752.1,836.792 1772.14,796.321 1792.18,755.608 1812.22,714.815 1832.26,674.103 1852.31,633.632 1872.35,593.561 1892.39,554.05 1912.43,515.254 1932.47,477.325 1952.52,440.415 1972.56,404.668 1992.6,370.225 2012.64,337.223 2032.68,305.791 2052.73,276.055 2072.77,248.13 2092.81,222.127 2112.85,198.15 2132.89,176.292 2152.94,156.64 2172.98,139.271 2193.02,124.254 2213.06,111.648 2233.1,101.504 2253.15,93.8598 2273.19,88.7471 2293.23,86.1857 "/>
<polyline clip-path="url(#clip862)" style="stroke:#e26f46; stroke-linecap:round; stroke-linejoin:round; stroke-width:4; stroke-opacity:1; fill:none" points="309.067,297.813 329.109,299.54 349.151,302.985 369.193,308.137 389.235,314.974 409.277,323.469 429.319,333.589 449.361,345.295 469.403,358.539 489.446,373.27 509.488,389.429 529.53,406.953 549.572,425.772 569.614,445.813 589.656,466.995 609.698,489.236 629.74,512.448 649.782,536.54 669.824,561.415 689.866,586.976 709.908,613.122 729.95,639.75 749.992,666.755 770.034,694.029 790.076,721.467 810.118,748.959 830.161,776.396 850.203,803.671 870.245,830.675 890.287,857.303 910.329,883.449 930.371,909.01 950.413,933.886 970.455,957.977 990.497,981.188 1010.54,1003.43 1030.58,1024.61 1050.62,1044.65 1070.67,1063.47 1090.71,1081 1110.75,1097.15 1130.79,1111.88 1150.83,1125.13 1170.88,1136.83 1190.92,1146.95 1210.96,1155.45 1231,1162.29 1251.04,1167.44 1271.09,1170.88 1291.13,1172.61 1311.17,1172.61 1331.21,1170.88 1351.25,1167.44 1371.3,1162.29 1391.34,1155.45 1411.38,1146.95 1431.42,1136.83 1451.46,1125.13 1471.51,1111.88 1491.55,1097.15 1511.59,1081 1531.63,1063.47 1551.67,1044.65 1571.72,1024.61 1591.76,1003.43 1611.8,981.188 1631.84,957.977 1651.89,933.886 1671.93,909.01 1691.97,883.449 1712.01,857.303 1732.05,830.675 1752.1,803.671 1772.14,776.396 1792.18,748.959 1812.22,721.467 1832.26,694.029 1852.31,666.755 1872.35,639.75 1892.39,613.122 1912.43,586.976 1932.47,561.415 1952.52,536.54 1972.56,512.448 1992.6,489.236 2012.64,466.995 2032.68,445.813 2052.73,425.772 2072.77,406.953 2092.81,389.429 2112.85,373.27 2132.89,358.539 2152.94,345.295 2172.98,333.589 2193.02,323.469 2213.06,314.974 2233.1,308.137 2253.15,302.985 2273.19,299.54 2293.23,297.813 "/>
<path clip-path="url(#clip860)" d="M2019.3 1377.32 L2282.65 1377.32 L2282.65 1221.8 L2019.3 1221.8  Z" fill="#ffffff" fill-rule="evenodd" fill-opacity="1"/>
<polyline clip-path="url(#clip860)" style="stroke:#000000; stroke-linecap:round; stroke-linejoin:round; stroke-width:4; stroke-opacity:1; fill:none" points="2019.3,1377.32 2282.65,1377.32 2282.65,1221.8 2019.3,1221.8 2019.3,1377.32 "/>
<polyline clip-path="url(#clip860)" style="stroke:#009af9; stroke-linecap:round; stroke-linejoin:round; stroke-width:4; stroke-opacity:1; fill:none" points="2042.66,1273.64 2182.88,1273.64 "/>
<path clip-path="url(#clip860)" d="M2206.25 1280.68 L2206.25 1264.99 L2210.51 1264.99 L2210.51 1280.52 Q2210.51 1284.2 2211.94 1286.05 Q2213.38 1287.88 2216.25 1287.88 Q2219.7 1287.88 2221.69 1285.68 Q2223.7 1283.48 2223.7 1279.69 L2223.7 1264.99 L2227.96 1264.99 L2227.96 1290.92 L2223.7 1290.92 L2223.7 1286.93 Q2222.15 1289.29 2220.09 1290.45 Q2218.05 1291.59 2215.34 1291.59 Q2210.88 1291.59 2208.56 1288.81 Q2206.25 1286.03 2206.25 1280.68 M2216.97 1264.36 L2216.97 1264.36 Z" fill="#000000" fill-rule="nonzero" fill-opacity="1" /><path clip-path="url(#clip860)" d="M2247.34 1259.43 Q2243.72 1259.43 2241.9 1263 Q2240.09 1266.54 2240.09 1273.67 Q2240.09 1280.78 2241.9 1284.34 Q2243.72 1287.88 2247.34 1287.88 Q2250.97 1287.88 2252.78 1284.34 Q2254.6 1280.78 2254.6 1273.67 Q2254.6 1266.54 2252.78 1263 Q2250.97 1259.43 2247.34 1259.43 M2247.34 1255.73 Q2253.15 1255.73 2256.2 1260.34 Q2259.28 1264.92 2259.28 1273.67 Q2259.28 1282.4 2256.2 1287 Q2253.15 1291.59 2247.34 1291.59 Q2241.53 1291.59 2238.45 1287 Q2235.39 1282.4 2235.39 1273.67 Q2235.39 1264.92 2238.45 1260.34 Q2241.53 1255.73 2247.34 1255.73 Z" fill="#000000" fill-rule="nonzero" fill-opacity="1" /><polyline clip-path="url(#clip860)" style="stroke:#e26f46; stroke-linecap:round; stroke-linejoin:round; stroke-width:4; stroke-opacity:1; fill:none" points="2042.66,1325.48 2182.88,1325.48 "/>
<path clip-path="url(#clip860)" d="M2206.25 1332.52 L2206.25 1316.83 L2210.51 1316.83 L2210.51 1332.36 Q2210.51 1336.04 2211.94 1337.89 Q2213.38 1339.72 2216.25 1339.72 Q2219.7 1339.72 2221.69 1337.52 Q2223.7 1335.32 2223.7 1331.53 L2223.7 1316.83 L2227.96 1316.83 L2227.96 1342.76 L2223.7 1342.76 L2223.7 1338.77 Q2222.15 1341.13 2220.09 1342.29 Q2218.05 1343.43 2215.34 1343.43 Q2210.88 1343.43 2208.56 1340.65 Q2206.25 1337.87 2206.25 1332.52 M2216.97 1316.2 L2216.97 1316.2 Z" fill="#000000" fill-rule="nonzero" fill-opacity="1" /></svg>
