<?xml version="1.0" encoding="utf-8"?>
<svg xmlns="http://www.w3.org/2000/svg" xmlns:xlink="http://www.w3.org/1999/xlink" width="600" height="400" viewBox="0 0 2400 1600">
<defs>
  <clipPath id="clip620">
    <rect x="0" y="0" width="2400" height="1600"/>
  </clipPath>
</defs>
<path clip-path="url(#clip620)" d="M0 1600 L2400 1600 L2400 0 L0 0  Z" fill="#ffffff" fill-rule="evenodd" fill-opacity="1"/>
<defs>
  <clipPath id="clip621">
    <rect x="480" y="0" width="1681" height="1600"/>
  </clipPath>
</defs>
<path clip-path="url(#clip620)" d="M249.542 1423.18 L2352.76 1423.18 L2352.76 47.2441 L249.542 47.2441  Z" fill="#ffffff" fill-rule="evenodd" fill-opacity="1"/>
<defs>
  <clipPath id="clip622">
    <rect x="249" y="47" width="2104" height="1377"/>
  </clipPath>
</defs>
<polyline clip-path="url(#clip622)" style="stroke:#000000; stroke-linecap:round; stroke-linejoin:round; stroke-width:2; stroke-opacity:0.1; fill:none" points="307.081,1423.18 307.081,47.2441 "/>
<polyline clip-path="url(#clip622)" style="stroke:#000000; stroke-linecap:round; stroke-linejoin:round; stroke-width:2; stroke-opacity:0.1; fill:none" points="803.618,1423.18 803.618,47.2441 "/>
<polyline clip-path="url(#clip622)" style="stroke:#000000; stroke-linecap:round; stroke-linejoin:round; stroke-width:2; stroke-opacity:0.1; fill:none" points="1300.16,1423.18 1300.16,47.2441 "/>
<polyline clip-path="url(#clip622)" style="stroke:#000000; stroke-linecap:round; stroke-linejoin:round; stroke-width:2; stroke-opacity:0.1; fill:none" points="1796.69,1423.18 1796.69,47.2441 "/>
<polyline clip-path="url(#clip622)" style="stroke:#000000; stroke-linecap:round; stroke-linejoin:round; stroke-width:2; stroke-opacity:0.1; fill:none" points="2293.23,1423.18 2293.23,47.2441 "/>
<polyline clip-path="url(#clip620)" style="stroke:#000000; stroke-linecap:round; stroke-linejoin:round; stroke-width:4; stroke-opacity:1; fill:none" points="249.542,1423.18 2352.76,1423.18 "/>
<polyline clip-path="url(#clip620)" style="stroke:#000000; stroke-linecap:round; stroke-linejoin:round; stroke-width:4; stroke-opacity:1; fill:none" points="307.081,1423.18 307.081,1404.28 "/>
<polyline clip-path="url(#clip620)" style="stroke:#000000; stroke-linecap:round; stroke-linejoin:round; stroke-width:4; stroke-opacity:1; fill:none" points="803.618,1423.18 803.618,1404.28 "/>
<polyline clip-path="url(#clip620)" style="stroke:#000000; stroke-linecap:round; stroke-linejoin:round; stroke-width:4; stroke-opacity:1; fill:none" points="1300.16,1423.18 1300.16,1404.28 "/>
<polyline clip-path="url(#clip620)" style="stroke:#000000; stroke-linecap:round; stroke-linejoin:round; stroke-width:4; stroke-opacity:1; fill:none" points="1796.69,1423.18 1796.69,1404.28 "/>
<polyline clip-path="url(#clip620)" style="stroke:#000000; stroke-linecap:round; stroke-linejoin:round; stroke-width:4; stroke-opacity:1; fill:none" points="2293.23,1423.18 2293.23,1404.28 "/>
<path clip-path="url(#clip620)" d="M269.384 1454.1 Q265.773 1454.1 263.944 1457.66 Q262.139 1461.2 262.139 1468.33 Q262.139 1475.44 263.944 1479.01 Q265.773 1482.55 269.384 1482.55 Q273.018 1482.55 274.824 1479.01 Q276.653 1475.44 276.653 1468.33 Q276.653 1461.2 274.824 1457.66 Q273.018 1454.1 269.384 1454.1 M269.384 1450.39 Q275.194 1450.39 278.25 1455 Q281.329 1459.58 281.329 1468.33 Q281.329 1477.06 278.25 1481.67 Q275.194 1486.25 269.384 1486.25 Q263.574 1486.25 260.495 1481.67 Q257.44 1477.06 257.44 1468.33 Q257.44 1459.58 260.495 1455 Q263.574 1450.39 269.384 1450.39 Z" fill="#000000" fill-rule="nonzero" fill-opacity="1" /><path clip-path="url(#clip620)" d="M289.546 1479.7 L294.43 1479.7 L294.43 1485.58 L289.546 1485.58 L289.546 1479.7 Z" fill="#000000" fill-rule="nonzero" fill-opacity="1" /><path clip-path="url(#clip620)" d="M314.615 1454.1 Q311.004 1454.1 309.176 1457.66 Q307.37 1461.2 307.37 1468.33 Q307.37 1475.44 309.176 1479.01 Q311.004 1482.55 314.615 1482.55 Q318.25 1482.55 320.055 1479.01 Q321.884 1475.44 321.884 1468.33 Q321.884 1461.2 320.055 1457.66 Q318.25 1454.1 314.615 1454.1 M314.615 1450.39 Q320.426 1450.39 323.481 1455 Q326.56 1459.58 326.56 1468.33 Q326.56 1477.06 323.481 1481.67 Q320.426 1486.25 314.615 1486.25 Q308.805 1486.25 305.727 1481.67 Q302.671 1477.06 302.671 1468.33 Q302.671 1459.58 305.727 1455 Q308.805 1450.39 314.615 1450.39 Z" fill="#000000" fill-rule="nonzero" fill-opacity="1" /><path clip-path="url(#clip620)" d="M344.777 1454.1 Q341.166 1454.1 339.338 1457.66 Q337.532 1461.2 337.532 1468.33 Q337.532 1475.44 339.338 1479.01 Q341.166 1482.55 344.777 1482.55 Q348.412 1482.55 350.217 1479.01 Q352.046 1475.44 352.046 1468.33 Q352.046 1461.2 350.217 1457.66 Q348.412 1454.1 344.777 1454.1 M344.777 1450.39 Q350.588 1450.39 353.643 1455 Q356.722 1459.58 356.722 1468.33 Q356.722 1477.06 353.643 1481.67 Q350.588 1486.25 344.777 1486.25 Q338.967 1486.25 335.889 1481.67 Q332.833 1477.06 332.833 1468.33 Q332.833 1459.58 335.889 1455 Q338.967 1450.39 344.777 1450.39 Z" fill="#000000" fill-rule="nonzero" fill-opacity="1" /><path clip-path="url(#clip620)" d="M766.419 1454.1 Q762.808 1454.1 760.98 1457.66 Q759.174 1461.2 759.174 1468.33 Q759.174 1475.44 760.98 1479.01 Q762.808 1482.55 766.419 1482.55 Q770.054 1482.55 771.859 1479.01 Q773.688 1475.44 773.688 1468.33 Q773.688 1461.2 771.859 1457.66 Q770.054 1454.1 766.419 1454.1 M766.419 1450.39 Q772.23 1450.39 775.285 1455 Q778.364 1459.58 778.364 1468.33 Q778.364 1477.06 775.285 1481.67 Q772.23 1486.25 766.419 1486.25 Q760.609 1486.25 757.531 1481.67 Q754.475 1477.06 754.475 1468.33 Q754.475 1459.58 757.531 1455 Q760.609 1450.39 766.419 1450.39 Z" fill="#000000" fill-rule="nonzero" fill-opacity="1" /><path clip-path="url(#clip620)" d="M786.581 1479.7 L791.466 1479.7 L791.466 1485.58 L786.581 1485.58 L786.581 1479.7 Z" fill="#000000" fill-rule="nonzero" fill-opacity="1" /><path clip-path="url(#clip620)" d="M805.679 1481.64 L821.998 1481.64 L821.998 1485.58 L800.054 1485.58 L800.054 1481.64 Q802.716 1478.89 807.299 1474.26 Q811.905 1469.61 813.086 1468.27 Q815.331 1465.74 816.211 1464.01 Q817.114 1462.25 817.114 1460.56 Q817.114 1457.8 815.169 1456.07 Q813.248 1454.33 810.146 1454.33 Q807.947 1454.33 805.493 1455.09 Q803.063 1455.86 800.285 1457.41 L800.285 1452.69 Q803.109 1451.55 805.563 1450.97 Q808.016 1450.39 810.053 1450.39 Q815.424 1450.39 818.618 1453.08 Q821.813 1455.77 821.813 1460.26 Q821.813 1462.39 821.003 1464.31 Q820.215 1466.2 818.109 1468.8 Q817.53 1469.47 814.428 1472.69 Q811.327 1475.88 805.679 1481.64 Z" fill="#000000" fill-rule="nonzero" fill-opacity="1" /><path clip-path="url(#clip620)" d="M831.859 1451.02 L850.215 1451.02 L850.215 1454.96 L836.141 1454.96 L836.141 1463.43 Q837.16 1463.08 838.178 1462.92 Q839.197 1462.73 840.215 1462.73 Q846.002 1462.73 849.382 1465.9 Q852.762 1469.08 852.762 1474.49 Q852.762 1480.07 849.289 1483.17 Q845.817 1486.25 839.498 1486.25 Q837.322 1486.25 835.053 1485.88 Q832.808 1485.51 830.401 1484.77 L830.401 1480.07 Q832.484 1481.2 834.706 1481.76 Q836.928 1482.32 839.405 1482.32 Q843.41 1482.32 845.748 1480.21 Q848.086 1478.1 848.086 1474.49 Q848.086 1470.88 845.748 1468.77 Q843.41 1466.67 839.405 1466.67 Q837.53 1466.67 835.655 1467.08 Q833.803 1467.5 831.859 1468.38 L831.859 1451.02 Z" fill="#000000" fill-rule="nonzero" fill-opacity="1" /><path clip-path="url(#clip620)" d="M1262.46 1454.1 Q1258.85 1454.1 1257.02 1457.66 Q1255.21 1461.2 1255.21 1468.33 Q1255.21 1475.44 1257.02 1479.01 Q1258.85 1482.55 1262.46 1482.55 Q1266.09 1482.55 1267.9 1479.01 Q1269.73 1475.44 1269.73 1468.33 Q1269.73 1461.2 1267.9 1457.66 Q1266.09 1454.1 1262.46 1454.1 M1262.46 1450.39 Q1268.27 1450.39 1271.33 1455 Q1274.4 1459.58 1274.4 1468.33 Q1274.4 1477.06 1271.33 1481.67 Q1268.27 1486.25 1262.46 1486.25 Q1256.65 1486.25 1253.57 1481.67 Q1250.51 1477.06 1250.51 1468.33 Q1250.51 1459.58 1253.57 1455 Q1256.65 1450.39 1262.46 1450.39 Z" fill="#000000" fill-rule="nonzero" fill-opacity="1" /><path clip-path="url(#clip620)" d="M1282.62 1479.7 L1287.51 1479.7 L1287.51 1485.58 L1282.62 1485.58 L1282.62 1479.7 Z" fill="#000000" fill-rule="nonzero" fill-opacity="1" /><path clip-path="url(#clip620)" d="M1297.74 1451.02 L1316.09 1451.02 L1316.09 1454.96 L1302.02 1454.96 L1302.02 1463.43 Q1303.04 1463.08 1304.06 1462.92 Q1305.07 1462.73 1306.09 1462.73 Q1311.88 1462.73 1315.26 1465.9 Q1318.64 1469.08 1318.64 1474.49 Q1318.64 1480.07 1315.17 1483.17 Q1311.7 1486.25 1305.38 1486.25 Q1303.2 1486.25 1300.93 1485.88 Q1298.69 1485.51 1296.28 1484.77 L1296.28 1480.07 Q1298.36 1481.2 1300.58 1481.76 Q1302.81 1482.32 1305.28 1482.32 Q1309.29 1482.32 1311.63 1480.21 Q1313.96 1478.1 1313.96 1474.49 Q1313.96 1470.88 1311.63 1468.77 Q1309.29 1466.67 1305.28 1466.67 Q1303.41 1466.67 1301.53 1467.08 Q1299.68 1467.5 1297.74 1468.38 L1297.74 1451.02 Z" fill="#000000" fill-rule="nonzero" fill-opacity="1" /><path clip-path="url(#clip620)" d="M1337.85 1454.1 Q1334.24 1454.1 1332.41 1457.66 Q1330.61 1461.2 1330.61 1468.33 Q1330.61 1475.44 1332.41 1479.01 Q1334.24 1482.55 1337.85 1482.55 Q1341.49 1482.55 1343.29 1479.01 Q1345.12 1475.44 1345.12 1468.33 Q1345.12 1461.2 1343.29 1457.66 Q1341.49 1454.1 1337.85 1454.1 M1337.85 1450.39 Q1343.66 1450.39 1346.72 1455 Q1349.8 1459.58 1349.8 1468.33 Q1349.8 1477.06 1346.72 1481.67 Q1343.66 1486.25 1337.85 1486.25 Q1332.04 1486.25 1328.96 1481.67 Q1325.91 1477.06 1325.91 1468.33 Q1325.91 1459.58 1328.96 1455 Q1332.04 1450.39 1337.85 1450.39 Z" fill="#000000" fill-rule="nonzero" fill-opacity="1" /><path clip-path="url(#clip620)" d="M1759.49 1454.1 Q1755.88 1454.1 1754.05 1457.66 Q1752.25 1461.2 1752.25 1468.33 Q1752.25 1475.44 1754.05 1479.01 Q1755.88 1482.55 1759.49 1482.55 Q1763.13 1482.55 1764.93 1479.01 Q1766.76 1475.44 1766.76 1468.33 Q1766.76 1461.2 1764.93 1457.66 Q1763.13 1454.1 1759.49 1454.1 M1759.49 1450.39 Q1765.3 1450.39 1768.36 1455 Q1771.44 1459.58 1771.44 1468.33 Q1771.44 1477.06 1768.36 1481.67 Q1765.3 1486.25 1759.49 1486.25 Q1753.68 1486.25 1750.61 1481.67 Q1747.55 1477.06 1747.55 1468.33 Q1747.55 1459.58 1750.61 1455 Q1753.68 1450.39 1759.49 1450.39 Z" fill="#000000" fill-rule="nonzero" fill-opacity="1" /><path clip-path="url(#clip620)" d="M1779.66 1479.7 L1784.54 1479.7 L1784.54 1485.58 L1779.66 1485.58 L1779.66 1479.7 Z" fill="#000000" fill-rule="nonzero" fill-opacity="1" /><path clip-path="url(#clip620)" d="M1793.55 1451.02 L1815.77 1451.02 L1815.77 1453.01 L1803.22 1485.58 L1798.34 1485.58 L1810.14 1454.96 L1793.55 1454.96 L1793.55 1451.02 Z" fill="#000000" fill-rule="nonzero" fill-opacity="1" /><path clip-path="url(#clip620)" d="M1824.93 1451.02 L1843.29 1451.02 L1843.29 1454.96 L1829.22 1454.96 L1829.22 1463.43 Q1830.23 1463.08 1831.25 1462.92 Q1832.27 1462.73 1833.29 1462.73 Q1839.08 1462.73 1842.46 1465.9 Q1845.84 1469.08 1845.84 1474.49 Q1845.84 1480.07 1842.36 1483.17 Q1838.89 1486.25 1832.57 1486.25 Q1830.4 1486.25 1828.13 1485.88 Q1825.88 1485.51 1823.48 1484.77 L1823.48 1480.07 Q1825.56 1481.2 1827.78 1481.76 Q1830 1482.32 1832.48 1482.32 Q1836.48 1482.32 1838.82 1480.21 Q1841.16 1478.1 1841.16 1474.49 Q1841.16 1470.88 1838.82 1468.77 Q1836.48 1466.67 1832.48 1466.67 Q1830.61 1466.67 1828.73 1467.08 Q1826.88 1467.5 1824.93 1468.38 L1824.93 1451.02 Z" fill="#000000" fill-rule="nonzero" fill-opacity="1" /><path clip-path="url(#clip620)" d="M2245.3 1481.64 L2252.94 1481.64 L2252.94 1455.28 L2244.63 1456.95 L2244.63 1452.69 L2252.9 1451.02 L2257.57 1451.02 L2257.57 1481.64 L2265.21 1481.64 L2265.21 1485.58 L2245.3 1485.58 L2245.3 1481.64 Z" fill="#000000" fill-rule="nonzero" fill-opacity="1" /><path clip-path="url(#clip620)" d="M2274.65 1479.7 L2279.54 1479.7 L2279.54 1485.58 L2274.65 1485.58 L2274.65 1479.7 Z" fill="#000000" fill-rule="nonzero" fill-opacity="1" /><path clip-path="url(#clip620)" d="M2299.72 1454.1 Q2296.11 1454.1 2294.28 1457.66 Q2292.48 1461.2 2292.48 1468.33 Q2292.48 1475.44 2294.28 1479.01 Q2296.11 1482.55 2299.72 1482.55 Q2303.36 1482.55 2305.16 1479.01 Q2306.99 1475.44 2306.99 1468.33 Q2306.99 1461.2 2305.16 1457.66 Q2303.36 1454.1 2299.72 1454.1 M2299.72 1450.39 Q2305.53 1450.39 2308.59 1455 Q2311.67 1459.58 2311.67 1468.33 Q2311.67 1477.06 2308.59 1481.67 Q2305.53 1486.25 2299.72 1486.25 Q2293.91 1486.25 2290.84 1481.67 Q2287.78 1477.06 2287.78 1468.33 Q2287.78 1459.58 2290.84 1455 Q2293.91 1450.39 2299.72 1450.39 Z" fill="#000000" fill-rule="nonzero" fill-opacity="1" /><path clip-path="url(#clip620)" d="M2329.89 1454.1 Q2326.27 1454.1 2324.45 1457.66 Q2322.64 1461.2 2322.64 1468.33 Q2322.64 1475.44 2324.45 1479.01 Q2326.27 1482.55 2329.89 1482.55 Q2333.52 1482.55 2335.33 1479.01 Q2337.15 1475.44 2337.15 1468.33 Q2337.15 1461.2 2335.33 1457.66 Q2333.52 1454.1 2329.89 1454.1 M2329.89 1450.39 Q2335.7 1450.39 2338.75 1455 Q2341.83 1459.58 2341.83 1468.33 Q2341.83 1477.06 2338.75 1481.67 Q2335.7 1486.25 2329.89 1486.25 Q2324.08 1486.25 2321 1481.67 Q2317.94 1477.06 2317.94 1468.33 Q2317.94 1459.58 2321 1455 Q2324.08 1450.39 2329.89 1450.39 Z" fill="#000000" fill-rule="nonzero" fill-opacity="1" /><path clip-path="url(#clip620)" d="M1317.76 1532.4 L1304.87 1549.74 L1318.43 1568.04 L1311.53 1568.04 L1301.15 1554.04 L1290.77 1568.04 L1283.87 1568.04 L1297.71 1549.39 L1285.04 1532.4 L1291.95 1532.4 L1301.4 1545.1 L1310.86 1532.4 L1317.76 1532.4 Z" fill="#000000" fill-rule="nonzero" fill-opacity="1" /><polyline clip-path="url(#clip622)" style="stroke:#000000; stroke-linecap:round; stroke-linejoin:round; stroke-width:2; stroke-opacity:0.1; fill:none" points="249.542,1384.24 2352.76,1384.24 "/>
<polyline clip-path="url(#clip622)" style="stroke:#000000; stroke-linecap:round; stroke-linejoin:round; stroke-width:2; stroke-opacity:0.1; fill:none" points="249.542,1059.73 2352.76,1059.73 "/>
<polyline clip-path="url(#clip622)" style="stroke:#000000; stroke-linecap:round; stroke-linejoin:round; stroke-width:2; stroke-opacity:0.1; fill:none" points="249.542,735.212 2352.76,735.212 "/>
<polyline clip-path="url(#clip622)" style="stroke:#000000; stroke-linecap:round; stroke-linejoin:round; stroke-width:2; stroke-opacity:0.1; fill:none" points="249.542,410.699 2352.76,410.699 "/>
<polyline clip-path="url(#clip622)" style="stroke:#000000; stroke-linecap:round; stroke-linejoin:round; stroke-width:2; stroke-opacity:0.1; fill:none" points="249.542,86.1857 2352.76,86.1857 "/>
<polyline clip-path="url(#clip620)" style="stroke:#000000; stroke-linecap:round; stroke-linejoin:round; stroke-width:4; stroke-opacity:1; fill:none" points="249.542,1423.18 249.542,47.2441 "/>
<polyline clip-path="url(#clip620)" style="stroke:#000000; stroke-linecap:round; stroke-linejoin:round; stroke-width:4; stroke-opacity:1; fill:none" points="249.542,1384.24 268.44,1384.24 "/>
<polyline clip-path="url(#clip620)" style="stroke:#000000; stroke-linecap:round; stroke-linejoin:round; stroke-width:4; stroke-opacity:1; fill:none" points="249.542,1059.73 268.44,1059.73 "/>
<polyline clip-path="url(#clip620)" style="stroke:#000000; stroke-linecap:round; stroke-linejoin:round; stroke-width:4; stroke-opacity:1; fill:none" points="249.542,735.212 268.44,735.212 "/>
<polyline clip-path="url(#clip620)" style="stroke:#000000; stroke-linecap:round; stroke-linejoin:round; stroke-width:4; stroke-opacity:1; fill:none" points="249.542,410.699 268.44,410.699 "/>
<polyline clip-path="url(#clip620)" style="stroke:#000000; stroke-linecap:round; stroke-linejoin:round; stroke-width:4; stroke-opacity:1; fill:none" points="249.542,86.1857 268.44,86.1857 "/>
<path clip-path="url(#clip620)" d="M126.205 1370.04 Q122.593 1370.04 120.765 1373.6 Q118.959 1377.14 118.959 1384.27 Q118.959 1391.38 120.765 1394.94 Q122.593 1398.49 126.205 1398.49 Q129.839 1398.49 131.644 1394.94 Q133.473 1391.38 133.473 1384.27 Q133.473 1377.14 131.644 1373.6 Q129.839 1370.04 126.205 1370.04 M126.205 1366.33 Q132.015 1366.33 135.07 1370.94 Q138.149 1375.52 138.149 1384.27 Q138.149 1393 135.07 1397.61 Q132.015 1402.19 126.205 1402.19 Q120.394 1402.19 117.316 1397.61 Q114.26 1393 114.26 1384.27 Q114.26 1375.52 117.316 1370.94 Q120.394 1366.33 126.205 1366.33 Z" fill="#000000" fill-rule="nonzero" fill-opacity="1" /><path clip-path="url(#clip620)" d="M146.366 1395.64 L151.251 1395.64 L151.251 1401.52 L146.366 1401.52 L146.366 1395.64 Z" fill="#000000" fill-rule="nonzero" fill-opacity="1" /><path clip-path="url(#clip620)" d="M171.436 1370.04 Q167.825 1370.04 165.996 1373.6 Q164.19 1377.14 164.19 1384.27 Q164.19 1391.38 165.996 1394.94 Q167.825 1398.49 171.436 1398.49 Q175.07 1398.49 176.876 1394.94 Q178.704 1391.38 178.704 1384.27 Q178.704 1377.14 176.876 1373.6 Q175.07 1370.04 171.436 1370.04 M171.436 1366.33 Q177.246 1366.33 180.301 1370.94 Q183.38 1375.52 183.38 1384.27 Q183.38 1393 180.301 1397.61 Q177.246 1402.19 171.436 1402.19 Q165.626 1402.19 162.547 1397.61 Q159.491 1393 159.491 1384.27 Q159.491 1375.52 162.547 1370.94 Q165.626 1366.33 171.436 1366.33 Z" fill="#000000" fill-rule="nonzero" fill-opacity="1" /><path clip-path="url(#clip620)" d="M201.598 1370.04 Q197.987 1370.04 196.158 1373.6 Q194.352 1377.14 194.352 1384.27 Q194.352 1391.38 196.158 1394.94 Q197.987 1398.49 201.598 1398.49 Q205.232 1398.49 207.037 1394.94 Q208.866 1391.38 208.866 1384.27 Q208.866 1377.14 207.037 1373.6 Q205.232 1370.04 201.598 1370.04 M201.598 1366.33 Q207.408 1366.33 210.463 1370.94 Q213.542 1375.52 213.542 1384.27 Q213.542 1393 210.463 1397.61 Q207.408 1402.19 201.598 1402.19 Q195.787 1402.19 192.709 1397.61 Q189.653 1393 189.653 1384.27 Q189.653 1375.52 192.709 1370.94 Q195.787 1366.33 201.598 1366.33 Z" fill="#000000" fill-rule="nonzero" fill-opacity="1" /><path clip-path="url(#clip620)" d="M127.2 1045.52 Q123.589 1045.52 121.76 1049.09 Q119.955 1052.63 119.955 1059.76 Q119.955 1066.87 121.76 1070.43 Q123.589 1073.97 127.2 1073.97 Q130.834 1073.97 132.64 1070.43 Q134.468 1066.87 134.468 1059.76 Q134.468 1052.63 132.64 1049.09 Q130.834 1045.52 127.2 1045.52 M127.2 1041.82 Q133.01 1041.82 136.066 1046.43 Q139.144 1051.01 139.144 1059.76 Q139.144 1068.49 136.066 1073.09 Q133.01 1077.68 127.2 1077.68 Q121.39 1077.68 118.311 1073.09 Q115.256 1068.49 115.256 1059.76 Q115.256 1051.01 118.311 1046.43 Q121.39 1041.82 127.2 1041.82 Z" fill="#000000" fill-rule="nonzero" fill-opacity="1" /><path clip-path="url(#clip620)" d="M147.362 1071.13 L152.246 1071.13 L152.246 1077.01 L147.362 1077.01 L147.362 1071.13 Z" fill="#000000" fill-rule="nonzero" fill-opacity="1" /><path clip-path="url(#clip620)" d="M166.459 1073.07 L182.778 1073.07 L182.778 1077.01 L160.834 1077.01 L160.834 1073.07 Q163.496 1070.32 168.079 1065.69 Q172.686 1061.03 173.866 1059.69 Q176.112 1057.17 176.991 1055.43 Q177.894 1053.67 177.894 1051.98 Q177.894 1049.23 175.95 1047.49 Q174.028 1045.76 170.927 1045.76 Q168.727 1045.76 166.274 1046.52 Q163.843 1047.28 161.065 1048.83 L161.065 1044.11 Q163.89 1042.98 166.343 1042.4 Q168.797 1041.82 170.834 1041.82 Q176.204 1041.82 179.399 1044.51 Q182.593 1047.19 182.593 1051.68 Q182.593 1053.81 181.783 1055.73 Q180.996 1057.63 178.889 1060.22 Q178.311 1060.89 175.209 1064.11 Q172.107 1067.31 166.459 1073.07 Z" fill="#000000" fill-rule="nonzero" fill-opacity="1" /><path clip-path="url(#clip620)" d="M192.639 1042.45 L210.996 1042.45 L210.996 1046.38 L196.922 1046.38 L196.922 1054.85 Q197.94 1054.51 198.959 1054.34 Q199.977 1054.16 200.996 1054.16 Q206.783 1054.16 210.162 1057.33 Q213.542 1060.5 213.542 1065.92 Q213.542 1071.5 210.07 1074.6 Q206.598 1077.68 200.278 1077.68 Q198.102 1077.68 195.834 1077.31 Q193.588 1076.94 191.181 1076.19 L191.181 1071.5 Q193.264 1072.63 195.487 1073.19 Q197.709 1073.74 200.186 1073.74 Q204.19 1073.74 206.528 1071.63 Q208.866 1069.53 208.866 1065.92 Q208.866 1062.31 206.528 1060.2 Q204.19 1058.09 200.186 1058.09 Q198.311 1058.09 196.436 1058.51 Q194.584 1058.93 192.639 1059.81 L192.639 1042.45 Z" fill="#000000" fill-rule="nonzero" fill-opacity="1" /><path clip-path="url(#clip620)" d="M126.205 721.011 Q122.593 721.011 120.765 724.575 Q118.959 728.117 118.959 735.247 Q118.959 742.353 120.765 745.918 Q122.593 749.46 126.205 749.46 Q129.839 749.46 131.644 745.918 Q133.473 742.353 133.473 735.247 Q133.473 728.117 131.644 724.575 Q129.839 721.011 126.205 721.011 M126.205 717.307 Q132.015 717.307 135.07 721.913 Q138.149 726.497 138.149 735.247 Q138.149 743.973 135.07 748.58 Q132.015 753.163 126.205 753.163 Q120.394 753.163 117.316 748.58 Q114.26 743.973 114.26 735.247 Q114.26 726.497 117.316 721.913 Q120.394 717.307 126.205 717.307 Z" fill="#000000" fill-rule="nonzero" fill-opacity="1" /><path clip-path="url(#clip620)" d="M146.366 746.612 L151.251 746.612 L151.251 752.492 L146.366 752.492 L146.366 746.612 Z" fill="#000000" fill-rule="nonzero" fill-opacity="1" /><path clip-path="url(#clip620)" d="M161.482 717.932 L179.839 717.932 L179.839 721.867 L165.765 721.867 L165.765 730.339 Q166.783 729.992 167.802 729.83 Q168.82 729.645 169.839 729.645 Q175.626 729.645 179.005 732.816 Q182.385 735.987 182.385 741.404 Q182.385 746.983 178.913 750.085 Q175.44 753.163 169.121 753.163 Q166.945 753.163 164.677 752.793 Q162.431 752.423 160.024 751.682 L160.024 746.983 Q162.107 748.117 164.329 748.673 Q166.552 749.228 169.028 749.228 Q173.033 749.228 175.371 747.122 Q177.709 745.015 177.709 741.404 Q177.709 737.793 175.371 735.687 Q173.033 733.58 169.028 733.58 Q167.153 733.58 165.278 733.997 Q163.427 734.413 161.482 735.293 L161.482 717.932 Z" fill="#000000" fill-rule="nonzero" fill-opacity="1" /><path clip-path="url(#clip620)" d="M201.598 721.011 Q197.987 721.011 196.158 724.575 Q194.352 728.117 194.352 735.247 Q194.352 742.353 196.158 745.918 Q197.987 749.46 201.598 749.46 Q205.232 749.46 207.037 745.918 Q208.866 742.353 208.866 735.247 Q208.866 728.117 207.037 724.575 Q205.232 721.011 201.598 721.011 M201.598 717.307 Q207.408 717.307 210.463 721.913 Q213.542 726.497 213.542 735.247 Q213.542 743.973 210.463 748.58 Q207.408 753.163 201.598 753.163 Q195.787 753.163 192.709 748.58 Q189.653 743.973 189.653 735.247 Q189.653 726.497 192.709 721.913 Q195.787 717.307 201.598 717.307 Z" fill="#000000" fill-rule="nonzero" fill-opacity="1" /><path clip-path="url(#clip620)" d="M127.2 396.498 Q123.589 396.498 121.76 400.062 Q119.955 403.604 119.955 410.734 Q119.955 417.84 121.76 421.405 Q123.589 424.946 127.2 424.946 Q130.834 424.946 132.64 421.405 Q134.468 417.84 134.468 410.734 Q134.468 403.604 132.64 400.062 Q130.834 396.498 127.2 396.498 M127.2 392.794 Q133.01 392.794 136.066 397.4 Q139.144 401.984 139.144 410.734 Q139.144 419.46 136.066 424.067 Q133.01 428.65 127.2 428.65 Q121.39 428.65 118.311 424.067 Q115.256 419.46 115.256 410.734 Q115.256 401.984 118.311 397.4 Q121.39 392.794 127.2 392.794 Z" fill="#000000" fill-rule="nonzero" fill-opacity="1" /><path clip-path="url(#clip620)" d="M147.362 422.099 L152.246 422.099 L152.246 427.979 L147.362 427.979 L147.362 422.099 Z" fill="#000000" fill-rule="nonzero" fill-opacity="1" /><path clip-path="url(#clip620)" d="M161.251 393.419 L183.473 393.419 L183.473 395.41 L170.927 427.979 L166.042 427.979 L177.848 397.354 L161.251 397.354 L161.251 393.419 Z" fill="#000000" fill-rule="nonzero" fill-opacity="1" /><path clip-path="url(#clip620)" d="M192.639 393.419 L210.996 393.419 L210.996 397.354 L196.922 397.354 L196.922 405.826 Q197.94 405.479 198.959 405.317 Q199.977 405.132 200.996 405.132 Q206.783 405.132 210.162 408.303 Q213.542 411.474 213.542 416.891 Q213.542 422.47 210.07 425.571 Q206.598 428.65 200.278 428.65 Q198.102 428.65 195.834 428.28 Q193.588 427.909 191.181 427.169 L191.181 422.47 Q193.264 423.604 195.487 424.159 Q197.709 424.715 200.186 424.715 Q204.19 424.715 206.528 422.608 Q208.866 420.502 208.866 416.891 Q208.866 413.28 206.528 411.173 Q204.19 409.067 200.186 409.067 Q198.311 409.067 196.436 409.484 Q194.584 409.9 192.639 410.78 L192.639 393.419 Z" fill="#000000" fill-rule="nonzero" fill-opacity="1" /><path clip-path="url(#clip620)" d="M117.015 99.5305 L124.654 99.5305 L124.654 73.1649 L116.343 74.8316 L116.343 70.5723 L124.607 68.9057 L129.283 68.9057 L129.283 99.5305 L136.922 99.5305 L136.922 103.466 L117.015 103.466 L117.015 99.5305 Z" fill="#000000" fill-rule="nonzero" fill-opacity="1" /><path clip-path="url(#clip620)" d="M146.366 97.5861 L151.251 97.5861 L151.251 103.466 L146.366 103.466 L146.366 97.5861 Z" fill="#000000" fill-rule="nonzero" fill-opacity="1" /><path clip-path="url(#clip620)" d="M171.436 71.9844 Q167.825 71.9844 165.996 75.5492 Q164.19 79.0908 164.19 86.2204 Q164.19 93.3268 165.996 96.8916 Q167.825 100.433 171.436 100.433 Q175.07 100.433 176.876 96.8916 Q178.704 93.3268 178.704 86.2204 Q178.704 79.0908 176.876 75.5492 Q175.07 71.9844 171.436 71.9844 M171.436 68.2807 Q177.246 68.2807 180.301 72.8871 Q183.38 77.4704 183.38 86.2204 Q183.38 94.9472 180.301 99.5537 Q177.246 104.137 171.436 104.137 Q165.626 104.137 162.547 99.5537 Q159.491 94.9472 159.491 86.2204 Q159.491 77.4704 162.547 72.8871 Q165.626 68.2807 171.436 68.2807 Z" fill="#000000" fill-rule="nonzero" fill-opacity="1" /><path clip-path="url(#clip620)" d="M201.598 71.9844 Q197.987 71.9844 196.158 75.5492 Q194.352 79.0908 194.352 86.2204 Q194.352 93.3268 196.158 96.8916 Q197.987 100.433 201.598 100.433 Q205.232 100.433 207.037 96.8916 Q208.866 93.3268 208.866 86.2204 Q208.866 79.0908 207.037 75.5492 Q205.232 71.9844 201.598 71.9844 M201.598 68.2807 Q207.408 68.2807 210.463 72.8871 Q213.542 77.4704 213.542 86.2204 Q213.542 94.9472 210.463 99.5537 Q207.408 104.137 201.598 104.137 Q195.787 104.137 192.709 99.5537 Q189.653 94.9472 189.653 86.2204 Q189.653 77.4704 192.709 72.8871 Q195.787 68.2807 201.598 68.2807 Z" fill="#000000" fill-rule="nonzero" fill-opacity="1" /><path clip-path="url(#clip620)" d="M49.9359 750.14 L28.3562 750.14 L28.3562 744.283 L49.7131 744.283 Q54.7739 744.283 57.3202 742.31 Q59.8346 740.336 59.8346 736.39 Q59.8346 731.647 56.8109 728.91 Q53.7872 726.141 48.5673 726.141 L28.3562 726.141 L28.3562 720.284 L64.0042 720.284 L64.0042 726.141 L58.5296 726.141 Q61.7762 728.273 63.3676 731.106 Q64.9272 733.907 64.9272 737.631 Q64.9272 743.774 61.1078 746.957 Q57.2883 750.14 49.9359 750.14 M27.4968 735.403 L27.4968 735.403 Z" fill="#000000" fill-rule="nonzero" fill-opacity="1" /><polyline clip-path="url(#clip622)" style="stroke:#009af9; stroke-linecap:round; stroke-linejoin:round; stroke-width:4; stroke-opacity:1; fill:none" points="309.067,1384.24 311.053,1384.24 313.039,1384.24 315.025,1384.24 317.012,1384.24 318.998,1384.24 320.984,1384.24 322.97,1384.24 324.956,1384.24 326.942,1384.24 328.928,1384.24 330.915,1384.24 332.901,1384.24 334.887,1384.24 336.873,1384.24 338.859,1384.24 340.845,1384.24 342.832,1384.24 344.818,1384.24 346.804,1384.24 348.79,1384.24 350.776,1384.24 352.762,1384.24 354.748,1384.24 356.735,1384.24 358.721,1384.24 360.707,1384.24 362.693,1384.24 364.679,1384.24 366.665,1384.24 368.651,1384.24 370.638,1384.24 372.624,1384.24 374.61,1384.24 376.596,1384.24 378.582,1384.24 380.568,1384.24 382.555,1384.24 384.541,1384.24 386.527,1384.24 388.513,1384.24 390.499,1384.24 392.485,1384.24 394.471,1384.24 396.458,1384.24 398.444,1384.24 400.43,1384.24 402.416,1384.24 404.402,1384.24 406.388,1384.24 408.374,1384.24 410.361,1384.24 412.347,1384.24 414.333,1384.24 416.319,1384.24 418.305,1384.24 420.291,1384.24 422.278,1384.24 424.264,1384.24 426.25,1384.24 428.236,1384.24 430.222,1384.24 432.208,1384.24 434.194,1384.24 436.181,1384.24 438.167,1384.24 440.153,1384.24 442.139,1384.24 444.125,1384.24 446.111,1384.24 448.097,1384.24 450.084,1384.24 452.07,1384.24 454.056,1384.24 456.042,1384.24 458.028,1384.24 460.014,1384.24 462.001,1384.24 463.987,1384.24 465.973,1384.24 467.959,1384.24 469.945,1384.24 471.931,1384.24 473.917,1384.24 475.904,1384.24 477.89,1384.24 479.876,1384.24 481.862,1384.24 483.848,1384.24 485.834,1384.24 487.82,1384.24 489.807,1384.24 491.793,1384.24 493.779,1384.24 495.765,1384.24 497.751,1384.24 499.737,1384.24 501.724,1384.24 503.71,1384.24 505.696,1384.24 507.682,1384.24 509.668,1384.24 511.654,1384.24 513.64,1384.24 515.627,1384.24 517.613,1384.24 519.599,1384.24 521.585,1384.24 523.571,1384.24 525.557,1384.24 527.543,1384.24 529.53,1384.24 531.516,1384.24 533.502,1384.24 535.488,1384.24 537.474,1384.24 539.46,1384.24 541.447,1384.24 543.433,1384.24 545.419,1384.24 547.405,1384.24 549.391,1384.24 551.377,1384.24 553.363,1384.24 555.35,1384.24 557.336,1384.24 559.322,1384.24 561.308,1384.24 563.294,1384.24 565.28,1384.24 567.266,1384.24 569.253,1384.24 571.239,1384.24 573.225,1384.24 575.211,1384.24 577.197,1384.24 579.183,1384.24 581.17,1384.24 583.156,1384.24 585.142,1384.24 587.128,1384.24 589.114,1384.24 591.1,1384.24 593.086,1384.24 595.073,1384.24 597.059,1384.24 599.045,1384.24 601.031,1384.24 603.017,1384.24 605.003,1384.24 606.989,1384.24 608.976,1384.24 610.962,1384.24 612.948,1384.24 614.934,1384.24 616.92,1384.24 618.906,1384.24 620.893,1384.24 622.879,1384.24 624.865,1384.24 626.851,1384.24 628.837,1384.24 630.823,1384.24 632.809,1384.24 634.796,1384.24 636.782,1384.24 638.768,1384.24 640.754,1384.24 642.74,1384.24 644.726,1384.24 646.712,1384.24 648.699,1384.24 650.685,1384.24 652.671,1384.24 654.657,1384.24 656.643,1384.24 658.629,1384.24 660.616,1384.24 662.602,1384.24 664.588,1384.24 666.574,1384.24 668.56,1384.24 670.546,1384.24 672.532,1384.24 674.519,1384.24 676.505,1384.24 678.491,1384.24 680.477,1384.24 682.463,1384.24 684.449,1384.24 686.435,1384.24 688.422,1384.24 690.408,1384.24 692.394,1384.24 694.38,1384.24 696.366,1384.24 698.352,1384.24 700.339,1384.24 702.325,1384.24 704.311,1384.24 706.297,1384.24 708.283,1384.24 710.269,1384.24 712.255,1384.24 714.242,1384.24 716.228,1384.24 718.214,1384.24 720.2,1384.24 722.186,1384.24 724.172,1384.24 726.158,1384.24 728.145,1384.24 730.131,1384.24 732.117,1384.24 734.103,1384.24 736.089,1384.24 738.075,1384.24 740.062,1384.24 742.048,1384.24 744.034,1384.24 746.02,1384.24 748.006,1384.24 749.992,1384.24 751.978,1384.24 753.965,1384.24 755.951,1384.24 757.937,1384.24 759.923,1384.24 761.909,1384.24 763.895,1384.24 765.881,1384.24 767.868,1384.24 769.854,1384.24 771.84,1384.24 773.826,1384.24 775.812,1384.24 777.798,1384.24 779.785,1384.24 781.771,1384.24 783.757,1384.24 785.743,1384.24 787.729,1384.24 789.715,1384.24 791.701,1384.24 793.688,1384.24 795.674,1384.24 797.66,1384.24 799.646,1384.24 801.632,1384.24 803.618,1384.24 805.604,1384.24 807.591,1384.24 809.577,1384.24 811.563,1384.24 813.549,1384.24 815.535,1384.24 817.521,1384.24 819.508,1384.24 821.494,1384.24 823.48,1384.24 825.466,1384.24 827.452,1384.24 829.438,1384.24 831.424,1384.24 833.411,1384.24 835.397,1384.24 837.383,1384.24 839.369,1384.24 841.355,1384.24 843.341,1384.24 845.328,1384.24 847.314,1384.24 849.3,1384.24 851.286,1384.24 853.272,1384.24 855.258,1384.24 857.244,1384.24 859.231,1384.24 861.217,1384.24 863.203,1384.24 865.189,1384.24 867.175,1384.24 869.161,1384.24 871.147,1384.24 873.134,1384.24 875.12,1384.24 877.106,1384.24 879.092,1384.24 881.078,1384.24 883.064,1384.24 885.051,1384.24 887.037,1384.24 889.023,1384.24 891.009,1384.24 892.995,1384.24 894.981,1384.24 896.967,1384.24 898.954,1384.24 900.94,1384.24 902.926,1384.24 904.912,1384.24 906.898,1384.24 908.884,1384.24 910.87,1384.24 912.857,1384.24 914.843,1384.24 916.829,1384.24 918.815,1384.24 920.801,1384.24 922.787,1384.24 924.774,1384.24 926.76,1384.24 928.746,1384.24 930.732,1384.24 932.718,1384.24 934.704,1384.24 936.69,1384.24 938.677,1384.24 940.663,1384.24 942.649,1384.24 944.635,1384.24 946.621,1384.24 948.607,1384.24 950.593,1384.24 952.58,1384.24 954.566,1384.24 956.552,1384.24 958.538,1384.24 960.524,1384.24 962.51,1384.24 964.497,1384.24 966.483,1384.24 968.469,1384.24 970.455,1384.24 972.441,1384.24 974.427,1384.24 976.413,1384.24 978.4,1384.24 980.386,1384.24 982.372,1384.24 984.358,1384.24 986.344,1384.24 988.33,1384.24 990.316,1384.24 992.303,1384.24 994.289,1384.24 996.275,1384.24 998.261,1384.24 1000.25,1384.24 1002.23,1384.24 1004.22,1384.24 1006.21,1384.24 1008.19,1384.24 1010.18,1384.24 1012.16,1384.24 1014.15,1384.24 1016.14,1384.24 1018.12,1384.24 1020.11,1384.24 1022.09,1384.24 1024.08,1384.24 1026.07,1384.24 1028.05,1384.24 1030.04,1384.24 1032.03,1384.24 1034.01,1384.24 1036,1384.24 1037.98,1384.24 1039.97,1384.24 1041.96,1384.24 1043.94,1384.24 1045.93,1384.24 1047.91,1384.24 1049.9,1384.24 1051.89,1384.24 1053.87,1384.24 1055.86,1384.24 1057.85,1384.24 1059.83,1384.24 1061.82,1384.24 1063.8,1384.24 1065.79,1384.24 1067.78,1384.24 1069.76,1384.24 1071.75,1384.24 1073.73,1384.24 1075.72,1384.24 1077.71,1384.24 1079.69,1384.24 1081.68,1384.24 1083.67,1384.24 1085.65,1384.24 1087.64,1384.24 1089.62,1384.24 1091.61,1384.24 1093.6,1384.24 1095.58,1384.24 1097.57,1384.24 1099.55,1384.24 1101.54,1384.24 1103.53,86.1857 1105.51,86.1857 1107.5,86.1857 1109.49,86.1857 1111.47,86.1857 1113.46,86.1857 1115.44,86.1857 1117.43,86.1857 1119.42,86.1857 1121.4,86.1857 1123.39,86.1857 1125.37,86.1857 1127.36,86.1857 1129.35,86.1857 1131.33,86.1857 1133.32,86.1857 1135.31,86.1857 1137.29,86.1857 1139.28,86.1857 1141.26,86.1857 1143.25,86.1857 1145.24,86.1857 1147.22,86.1857 1149.21,86.1857 1151.19,86.1857 1153.18,86.1857 1155.17,86.1857 1157.15,86.1857 1159.14,86.1857 1161.13,86.1857 1163.11,86.1857 1165.1,86.1857 1167.08,86.1857 1169.07,86.1857 1171.06,86.1857 1173.04,86.1857 1175.03,86.1857 1177.01,86.1857 1179,86.1857 1180.99,86.1857 1182.97,86.1857 1184.96,86.1857 1186.95,86.1857 1188.93,86.1857 1190.92,86.1857 1192.9,86.1857 1194.89,86.1857 1196.88,86.1857 1198.86,86.1857 1200.85,86.1857 1202.83,86.1857 1204.82,86.1857 1206.81,86.1857 1208.79,86.1857 1210.78,86.1857 1212.77,86.1857 1214.75,86.1857 1216.74,86.1857 1218.72,86.1857 1220.71,86.1857 1222.7,86.1857 1224.68,86.1857 1226.67,86.1857 1228.65,86.1857 1230.64,86.1857 1232.63,86.1857 1234.61,86.1857 1236.6,86.1857 1238.59,86.1857 1240.57,86.1857 1242.56,86.1857 1244.54,86.1857 1246.53,86.1857 1248.52,86.1857 1250.5,86.1857 1252.49,86.1857 1254.47,86.1857 1256.46,86.1857 1258.45,86.1857 1260.43,86.1857 1262.42,86.1857 1264.41,86.1857 1266.39,86.1857 1268.38,86.1857 1270.36,86.1857 1272.35,86.1857 1274.34,86.1857 1276.32,86.1857 1278.31,86.1857 1280.29,86.1857 1282.28,86.1857 1284.27,86.1857 1286.25,86.1857 1288.24,86.1857 1290.23,86.1857 1292.21,86.1857 1294.2,86.1857 1296.18,86.1857 1298.17,86.1857 1300.16,86.1857 1302.14,86.1857 1304.13,86.1857 1306.11,86.1857 1308.1,86.1857 1310.09,86.1857 1312.07,86.1857 1314.06,86.1857 1316.05,86.1857 1318.03,86.1857 1320.02,86.1857 1322,86.1857 1323.99,86.1857 1325.98,86.1857 1327.96,86.1857 1329.95,86.1857 1331.93,86.1857 1333.92,86.1857 1335.91,86.1857 1337.89,86.1857 1339.88,86.1857 1341.87,86.1857 1343.85,86.1857 1345.84,86.1857 1347.82,86.1857 1349.81,86.1857 1351.8,86.1857 1353.78,86.1857 1355.77,86.1857 1357.75,86.1857 1359.74,86.1857 1361.73,86.1857 1363.71,86.1857 1365.7,86.1857 1367.69,86.1857 1369.67,86.1857 1371.66,86.1857 1373.64,86.1857 1375.63,86.1857 1377.62,86.1857 1379.6,86.1857 1381.59,86.1857 1383.57,86.1857 1385.56,86.1857 1387.55,86.1857 1389.53,86.1857 1391.52,86.1857 1393.5,86.1857 1395.49,86.1857 1397.48,86.1857 1399.46,86.1857 1401.45,86.1857 1403.44,86.1857 1405.42,86.1857 1407.41,86.1857 1409.39,86.1857 1411.38,86.1857 1413.37,86.1857 1415.35,86.1857 1417.34,86.1857 1419.32,86.1857 1421.31,86.1857 1423.3,86.1857 1425.28,86.1857 1427.27,86.1857 1429.26,86.1857 1431.24,86.1857 1433.23,86.1857 1435.21,86.1857 1437.2,86.1857 1439.19,86.1857 1441.17,86.1857 1443.16,86.1857 1445.14,86.1857 1447.13,86.1857 1449.12,86.1857 1451.1,86.1857 1453.09,86.1857 1455.08,86.1857 1457.06,86.1857 1459.05,86.1857 1461.03,86.1857 1463.02,86.1857 1465.01,86.1857 1466.99,86.1857 1468.98,86.1857 1470.96,86.1857 1472.95,86.1857 1474.94,86.1857 1476.92,86.1857 1478.91,86.1857 1480.9,86.1857 1482.88,86.1857 1484.87,86.1857 1486.85,86.1857 1488.84,86.1857 1490.83,86.1857 1492.81,86.1857 1494.8,86.1857 1496.78,86.1857 1498.77,86.1857 1500.76,1384.24 1502.74,1384.24 1504.73,1384.24 1506.72,1384.24 1508.7,1384.24 1510.69,1384.24 1512.67,1384.24 1514.66,1384.24 1516.65,1384.24 1518.63,1384.24 1520.62,1384.24 1522.6,1384.24 1524.59,1384.24 1526.58,1384.24 1528.56,1384.24 1530.55,1384.24 1532.54,1384.24 1534.52,1384.24 1536.51,1384.24 1538.49,1384.24 1540.48,1384.24 1542.47,1384.24 1544.45,1384.24 1546.44,1384.24 1548.42,1384.24 1550.41,1384.24 1552.4,1384.24 1554.38,1384.24 1556.37,1384.24 1558.36,1384.24 1560.34,1384.24 1562.33,1384.24 1564.31,1384.24 1566.3,1384.24 1568.29,1384.24 1570.27,1384.24 1572.26,1384.24 1574.24,1384.24 1576.23,1384.24 1578.22,1384.24 1580.2,1384.24 1582.19,1384.24 1584.18,1384.24 1586.16,1384.24 1588.15,1384.24 1590.13,1384.24 1592.12,1384.24 1594.11,1384.24 1596.09,1384.24 1598.08,1384.24 1600.06,1384.24 1602.05,1384.24 1604.04,1384.24 1606.02,1384.24 1608.01,1384.24 1610,1384.24 1611.98,1384.24 1613.97,1384.24 1615.95,1384.24 1617.94,1384.24 1619.93,1384.24 1621.91,1384.24 1623.9,1384.24 1625.88,1384.24 1627.87,1384.24 1629.86,1384.24 1631.84,1384.24 1633.83,1384.24 1635.82,1384.24 1637.8,1384.24 1639.79,1384.24 1641.77,1384.24 1643.76,1384.24 1645.75,1384.24 1647.73,1384.24 1649.72,1384.24 1651.7,1384.24 1653.69,1384.24 1655.68,1384.24 1657.66,1384.24 1659.65,1384.24 1661.64,1384.24 1663.62,1384.24 1665.61,1384.24 1667.59,1384.24 1669.58,1384.24 1671.57,1384.24 1673.55,1384.24 1675.54,1384.24 1677.52,1384.24 1679.51,1384.24 1681.5,1384.24 1683.48,1384.24 1685.47,1384.24 1687.46,1384.24 1689.44,1384.24 1691.43,1384.24 1693.41,1384.24 1695.4,1384.24 1697.39,1384.24 1699.37,1384.24 1701.36,1384.24 1703.34,1384.24 1705.33,1384.24 1707.32,1384.24 1709.3,1384.24 1711.29,1384.24 1713.28,1384.24 1715.26,1384.24 1717.25,1384.24 1719.23,1384.24 1721.22,1384.24 1723.21,1384.24 1725.19,1384.24 1727.18,1384.24 1729.16,1384.24 1731.15,1384.24 1733.14,1384.24 1735.12,1384.24 1737.11,1384.24 1739.1,1384.24 1741.08,1384.24 1743.07,1384.24 1745.05,1384.24 1747.04,1384.24 1749.03,1384.24 1751.01,1384.24 1753,1384.24 1754.98,1384.24 1756.97,1384.24 1758.96,1384.24 1760.94,1384.24 1762.93,1384.24 1764.92,1384.24 1766.9,1384.24 1768.89,1384.24 1770.87,1384.24 1772.86,1384.24 1774.85,1384.24 1776.83,1384.24 1778.82,1384.24 1780.8,1384.24 1782.79,1384.24 1784.78,1384.24 1786.76,1384.24 1788.75,1384.24 1790.73,1384.24 1792.72,1384.24 1794.71,1384.24 1796.69,1384.24 1798.68,1384.24 1800.67,1384.24 1802.65,1384.24 1804.64,1384.24 1806.62,1384.24 1808.61,1384.24 1810.6,1384.24 1812.58,1384.24 1814.57,1384.24 1816.55,1384.24 1818.54,1384.24 1820.53,1384.24 1822.51,1384.24 1824.5,1384.24 1826.49,1384.24 1828.47,1384.24 1830.46,1384.24 1832.44,1384.24 1834.43,1384.24 1836.42,1384.24 1838.4,1384.24 1840.39,1384.24 1842.37,1384.24 1844.36,1384.24 1846.35,1384.24 1848.33,1384.24 1850.32,1384.24 1852.31,1384.24 1854.29,1384.24 1856.28,1384.24 1858.26,1384.24 1860.25,1384.24 1862.24,1384.24 1864.22,1384.24 1866.21,1384.24 1868.19,1384.24 1870.18,1384.24 1872.17,1384.24 1874.15,1384.24 1876.14,1384.24 1878.13,1384.24 1880.11,1384.24 1882.1,1384.24 1884.08,1384.24 1886.07,1384.24 1888.06,1384.24 1890.04,1384.24 1892.03,1384.24 1894.01,1384.24 1896,1384.24 1897.99,1384.24 1899.97,1384.24 1901.96,1384.24 1903.95,1384.24 1905.93,1384.24 1907.92,1384.24 1909.9,1384.24 1911.89,1384.24 1913.88,1384.24 1915.86,1384.24 1917.85,1384.24 1919.83,1384.24 1921.82,1384.24 1923.81,1384.24 1925.79,1384.24 1927.78,1384.24 1929.77,1384.24 1931.75,1384.24 1933.74,1384.24 1935.72,1384.24 1937.71,1384.24 1939.7,1384.24 1941.68,1384.24 1943.67,1384.24 1945.65,1384.24 1947.64,1384.24 1949.63,1384.24 1951.61,1384.24 1953.6,1384.24 1955.59,1384.24 1957.57,1384.24 1959.56,1384.24 1961.54,1384.24 1963.53,1384.24 1965.52,1384.24 1967.5,1384.24 1969.49,1384.24 1971.47,1384.24 1973.46,1384.24 1975.45,1384.24 1977.43,1384.24 1979.42,1384.24 1981.41,1384.24 1983.39,1384.24 1985.38,1384.24 1987.36,1384.24 1989.35,1384.24 1991.34,1384.24 1993.32,1384.24 1995.31,1384.24 1997.29,1384.24 1999.28,1384.24 2001.27,1384.24 2003.25,1384.24 2005.24,1384.24 2007.23,1384.24 2009.21,1384.24 2011.2,1384.24 2013.18,1384.24 2015.17,1384.24 2017.16,1384.24 2019.14,1384.24 2021.13,1384.24 2023.11,1384.24 2025.1,1384.24 2027.09,1384.24 2029.07,1384.24 2031.06,1384.24 2033.05,1384.24 2035.03,1384.24 2037.02,1384.24 2039,1384.24 2040.99,1384.24 2042.98,1384.24 2044.96,1384.24 2046.95,1384.24 2048.93,1384.24 2050.92,1384.24 2052.91,1384.24 2054.89,1384.24 2056.88,1384.24 2058.87,1384.24 2060.85,1384.24 2062.84,1384.24 2064.82,1384.24 2066.81,1384.24 2068.8,1384.24 2070.78,1384.24 2072.77,1384.24 2074.75,1384.24 2076.74,1384.24 2078.73,1384.24 2080.71,1384.24 2082.7,1384.24 2084.69,1384.24 2086.67,1384.24 2088.66,1384.24 2090.64,1384.24 2092.63,1384.24 2094.62,1384.24 2096.6,1384.24 2098.59,1384.24 2100.57,1384.24 2102.56,1384.24 2104.55,1384.24 2106.53,1384.24 2108.52,1384.24 2110.51,1384.24 2112.49,1384.24 2114.48,1384.24 2116.46,1384.24 2118.45,1384.24 2120.44,1384.24 2122.42,1384.24 2124.41,1384.24 2126.39,1384.24 2128.38,1384.24 2130.37,1384.24 2132.35,1384.24 2134.34,1384.24 2136.33,1384.24 2138.31,1384.24 2140.3,1384.24 2142.28,1384.24 2144.27,1384.24 2146.26,1384.24 2148.24,1384.24 2150.23,1384.24 2152.21,1384.24 2154.2,1384.24 2156.19,1384.24 2158.17,1384.24 2160.16,1384.24 2162.15,1384.24 2164.13,1384.24 2166.12,1384.24 2168.1,1384.24 2170.09,1384.24 2172.08,1384.24 2174.06,1384.24 2176.05,1384.24 2178.03,1384.24 2180.02,1384.24 2182.01,1384.24 2183.99,1384.24 2185.98,1384.24 2187.97,1384.24 2189.95,1384.24 2191.94,1384.24 2193.92,1384.24 2195.91,1384.24 2197.9,1384.24 2199.88,1384.24 2201.87,1384.24 2203.85,1384.24 2205.84,1384.24 2207.83,1384.24 2209.81,1384.24 2211.8,1384.24 2213.78,1384.24 2215.77,1384.24 2217.76,1384.24 2219.74,1384.24 2221.73,1384.24 2223.72,1384.24 2225.7,1384.24 2227.69,1384.24 2229.67,1384.24 2231.66,1384.24 2233.65,1384.24 2235.63,1384.24 2237.62,1384.24 2239.6,1384.24 2241.59,1384.24 2243.58,1384.24 2245.56,1384.24 2247.55,1384.24 2249.54,1384.24 2251.52,1384.24 2253.51,1384.24 2255.49,1384.24 2257.48,1384.24 2259.47,1384.24 2261.45,1384.24 2263.44,1384.24 2265.42,1384.24 2267.41,1384.24 2269.4,1384.24 2271.38,1384.24 2273.37,1384.24 2275.36,1384.24 2277.34,1384.24 2279.33,1384.24 2281.31,1384.24 2283.3,1384.24 2285.29,1384.24 2287.27,1384.24 2289.26,1384.24 2291.24,1384.24 2293.23,1384.24 "/>
<polyline clip-path="url(#clip622)" style="stroke:#e26f46; stroke-linecap:round; stroke-linejoin:round; stroke-width:4; stroke-opacity:1; fill:none" points="309.067,1384.24 311.053,1384.24 313.039,1384.24 315.025,1384.24 317.012,1384.24 318.998,1384.24 320.984,1384.24 322.97,1384.24 324.956,1384.24 326.942,1384.24 328.928,1384.24 330.915,1384.24 332.901,1384.24 334.887,1384.24 336.873,1384.24 338.859,1384.24 340.845,1384.24 342.832,1384.24 344.818,1384.24 346.804,1384.24 348.79,1384.24 350.776,1384.24 352.762,1384.24 354.748,1384.24 356.735,1384.24 358.721,1384.24 360.707,1384.24 362.693,1384.24 364.679,1384.24 366.665,1384.24 368.651,1384.24 370.638,1384.24 372.624,1384.24 374.61,1384.24 376.596,1384.24 378.582,1384.24 380.568,1384.24 382.555,1384.24 384.541,1384.24 386.527,1384.24 388.513,1384.24 390.499,1384.24 392.485,1384.24 394.471,1384.24 396.458,1384.24 398.444,1384.24 400.43,1384.24 402.416,1384.24 404.402,1384.24 406.388,1384.24 408.374,1384.24 410.361,1384.24 412.347,1384.24 414.333,1384.24 416.319,1384.24 418.305,1384.24 420.291,1384.24 422.278,1384.24 424.264,1384.24 426.25,1384.24 428.236,1384.24 430.222,1384.24 432.208,1384.24 434.194,1384.24 436.181,1384.24 438.167,1384.24 440.153,1384.24 442.139,1384.24 444.125,1384.24 446.111,1384.24 448.097,1384.24 450.084,1384.24 452.07,1384.24 454.056,1384.24 456.042,1384.24 458.028,1384.24 460.014,1384.24 462.001,1384.24 463.987,1384.24 465.973,1384.24 467.959,1384.24 469.945,1384.24 471.931,1384.24 473.917,1384.24 475.904,1384.24 477.89,1384.24 479.876,1384.24 481.862,1384.24 483.848,1384.24 485.834,1384.24 487.82,1384.24 489.807,1384.24 491.793,1384.24 493.779,1384.24 495.765,1384.24 497.751,1384.24 499.737,1384.24 501.724,1384.24 503.71,1384.24 505.696,1384.24 507.682,1384.24 509.668,1384.24 511.654,1384.24 513.64,1384.24 515.627,1384.24 517.613,1384.24 519.599,1384.24 521.585,1384.24 523.571,1384.24 525.557,1384.24 527.543,1384.24 529.53,1384.24 531.516,1384.24 533.502,1384.24 535.488,1384.24 537.474,1384.24 539.46,1384.24 541.447,1384.24 543.433,1384.24 545.419,1384.24 547.405,1384.24 549.391,1384.24 551.377,1384.24 553.363,1384.24 555.35,1384.24 557.336,1384.24 559.322,1384.24 561.308,1384.24 563.294,1384.24 565.28,1384.24 567.266,1384.24 569.253,1384.24 571.239,1384.24 573.225,1384.24 575.211,1384.24 577.197,1384.24 579.183,1384.24 581.17,1384.24 583.156,1384.24 585.142,1384.24 587.128,1384.24 589.114,1384.24 591.1,1384.24 593.086,1384.24 595.073,1384.24 597.059,1384.24 599.045,1384.24 601.031,1384.24 603.017,1384.24 605.003,1384.24 606.989,1384.24 608.976,1384.24 610.962,1384.24 612.948,1384.24 614.934,1384.24 616.92,1384.24 618.906,1384.24 620.893,1384.24 622.879,1384.24 624.865,1384.24 626.851,1384.24 628.837,1384.24 630.823,1384.24 632.809,1384.24 634.796,1384.24 636.782,1384.24 638.768,1384.24 640.754,1384.24 642.74,1384.24 644.726,1384.24 646.712,1384.24 648.699,1384.24 650.685,1384.24 652.671,1384.24 654.657,1384.24 656.643,1384.24 658.629,1384.24 660.616,1384.24 662.602,1384.24 664.588,1384.24 666.574,1384.24 668.56,1384.24 670.546,1384.24 672.532,1384.24 674.519,1384.24 676.505,1384.24 678.491,1384.24 680.477,1384.24 682.463,1384.24 684.449,1384.24 686.435,1384.24 688.422,1384.24 690.408,1384.24 692.394,1384.24 694.38,1384.24 696.366,1384.24 698.352,1384.24 700.339,1384.24 702.325,1384.24 704.311,1384.24 706.297,1384.24 708.283,1384.24 710.269,1384.24 712.255,1384.24 714.242,1384.24 716.228,1384.24 718.214,1384.24 720.2,1384.24 722.186,1384.24 724.172,1384.24 726.158,1384.24 728.145,1384.24 730.131,1384.24 732.117,1384.24 734.103,1384.24 736.089,1384.24 738.075,1384.24 740.062,1384.24 742.048,1384.24 744.034,1384.24 746.02,1384.24 748.006,1384.24 749.992,1384.24 751.978,1384.24 753.965,1384.24 755.951,1384.24 757.937,1384.24 759.923,1384.24 761.909,1384.24 763.895,1384.24 765.881,1384.24 767.868,1384.24 769.854,1384.24 771.84,1384.24 773.826,1384.24 775.812,1384.24 777.798,1384.24 779.785,1384.24 781.771,1384.24 783.757,1384.24 785.743,1384.24 787.729,1384.24 789.715,1384.24 791.701,1384.24 793.688,1384.24 795.674,1384.24 797.66,1384.24 799.646,1384.24 801.632,1384.24 803.618,1384.24 805.604,1384.24 807.591,1384.24 809.577,1384.24 811.563,1384.24 813.549,1384.24 815.535,1384.24 817.521,1384.24 819.508,1384.23 821.494,1384.23 823.48,1384.23 825.466,1384.23 827.452,1384.23 829.438,1384.23 831.424,1384.23 833.411,1384.23 835.397,1384.23 837.383,1384.22 839.369,1384.22 841.355,1384.22 843.341,1384.22 845.328,1384.21 847.314,1384.21 849.3,1384.21 851.286,1384.2 853.272,1384.2 855.258,1384.19 857.244,1384.18 859.231,1384.18 861.217,1384.17 863.203,1384.16 865.189,1384.14 867.175,1384.13 869.161,1384.12 871.147,1384.1 873.134,1384.08 875.12,1384.06 877.106,1384.04 879.092,1384.01 881.078,1383.99 883.064,1383.95 885.051,1383.92 887.037,1383.88 889.023,1383.83 891.009,1383.78 892.995,1383.72 894.981,1383.66 896.967,1383.59 898.954,1383.52 900.94,1383.43 902.926,1383.34 904.912,1383.23 906.898,1383.11 908.884,1382.99 910.87,1382.84 912.857,1382.69 914.843,1382.52 916.829,1382.33 918.815,1382.12 920.801,1381.89 922.787,1381.64 924.774,1381.37 926.76,1381.07 928.746,1380.74 930.732,1380.38 932.718,1379.99 934.704,1379.56 936.69,1379.09 938.677,1378.59 940.663,1378.04 942.649,1377.44 944.635,1376.79 946.621,1376.08 948.607,1375.32 950.593,1374.5 952.58,1373.61 954.566,1372.64 956.552,1371.61 958.538,1370.49 960.524,1369.29 962.51,1368 964.497,1366.61 966.483,1365.12 968.469,1363.52 970.455,1361.81 972.441,1359.98 974.427,1358.03 976.413,1355.94 978.4,1353.72 980.386,1351.35 982.372,1348.83 984.358,1346.15 986.344,1343.3 988.33,1340.28 990.316,1337.07 992.303,1333.68 994.289,1330.09 996.275,1326.3 998.261,1322.3 1000.25,1318.08 1002.23,1313.63 1004.22,1308.95 1006.21,1304.03 1008.19,1298.87 1010.18,1293.45 1012.16,1287.76 1014.15,1281.81 1016.14,1275.59 1018.12,1269.09 1020.11,1262.3 1022.09,1255.22 1024.08,1247.84 1026.07,1240.17 1028.05,1232.19 1030.04,1223.9 1032.03,1215.3 1034.01,1206.38 1036,1197.16 1037.98,1187.61 1039.97,1177.75 1041.96,1167.56 1043.94,1157.06 1045.93,1146.25 1047.91,1135.12 1049.9,1123.67 1051.89,1111.92 1053.87,1099.86 1055.86,1087.51 1057.85,1074.85 1059.83,1061.91 1061.82,1048.69 1063.8,1035.19 1065.79,1021.43 1067.78,1007.4 1069.76,993.136 1071.75,978.631 1073.73,963.9 1075.72,948.955 1077.71,933.809 1079.69,918.474 1081.68,902.964 1083.67,887.292 1085.65,871.473 1087.64,855.523 1089.62,839.455 1091.61,823.287 1093.6,807.033 1095.58,790.71 1097.57,774.334 1099.55,757.922 1101.54,741.49 1103.53,725.055 1105.51,708.634 1107.5,692.243 1109.49,675.898 1111.47,659.617 1113.46,643.415 1115.44,627.308 1117.43,611.312 1119.42,595.441 1121.4,579.712 1123.39,564.138 1125.37,548.734 1127.36,533.512 1129.35,518.486 1131.33,503.669 1133.32,489.071 1135.31,474.705 1137.29,460.58 1139.28,446.707 1141.26,433.094 1143.25,419.75 1145.24,406.684 1147.22,393.901 1149.21,381.408 1151.19,369.211 1153.18,357.314 1155.17,345.722 1157.15,334.438 1159.14,323.464 1161.13,312.803 1163.11,302.457 1165.1,292.424 1167.08,282.707 1169.07,273.303 1171.06,264.212 1173.04,255.432 1175.03,246.961 1177.01,238.795 1179,230.932 1180.99,223.367 1182.97,216.096 1184.96,209.115 1186.95,202.419 1188.93,196.001 1190.92,189.857 1192.9,183.98 1194.89,178.364 1196.88,173.003 1198.86,167.89 1200.85,163.018 1202.83,158.38 1204.82,153.969 1206.81,149.779 1208.79,145.8 1210.78,142.028 1212.77,138.453 1214.75,135.069 1216.74,131.87 1218.72,128.846 1220.71,125.992 1222.7,123.301 1224.68,120.765 1226.67,118.378 1228.65,116.133 1230.64,114.024 1232.63,112.044 1234.61,110.187 1236.6,108.447 1238.59,106.818 1240.57,105.295 1242.56,103.872 1244.54,102.544 1246.53,101.305 1248.52,100.151 1250.5,99.0767 1252.49,98.0781 1254.47,97.1507 1256.46,96.2905 1258.45,95.4934 1260.43,94.7558 1262.42,94.0741 1264.41,93.445 1266.39,92.8654 1268.38,92.3323 1270.36,91.843 1272.35,91.3948 1274.34,90.9853 1276.32,90.6123 1278.31,90.2738 1280.29,89.9678 1282.28,89.6926 1284.27,89.4466 1286.25,89.2285 1288.24,89.0369 1290.23,88.8708 1292.21,88.7293 1294.2,88.6116 1296.18,88.517 1298.17,88.4451 1300.16,88.3955 1302.14,88.368 1304.13,88.3627 1306.11,88.3797 1308.1,88.4192 1310.09,88.4817 1312.07,88.5677 1314.06,88.678 1316.05,88.8136 1318.03,88.9754 1320.02,89.1647 1322,89.3829 1323.99,89.6315 1325.98,89.9123 1327.96,90.2273 1329.95,90.5784 1331.93,90.968 1333.92,91.3986 1335.91,91.8728 1337.89,92.3934 1339.88,92.9636 1341.87,93.5864 1343.85,94.2655 1345.84,95.0045 1347.82,95.8072 1349.81,96.6778 1351.8,97.6204 1353.78,98.6396 1355.77,99.7402 1357.75,100.927 1359.74,102.205 1361.73,103.58 1363.71,105.058 1365.7,106.643 1367.69,108.342 1369.67,110.162 1371.66,112.108 1373.64,114.186 1375.63,116.405 1377.62,118.77 1379.6,121.288 1381.59,123.967 1383.57,126.813 1385.56,129.835 1387.55,133.039 1389.53,136.432 1391.52,140.023 1393.5,143.818 1395.49,147.826 1397.48,152.053 1399.46,156.508 1401.45,161.197 1403.44,166.127 1405.42,171.307 1407.41,176.741 1409.39,182.439 1411.38,188.405 1413.37,194.646 1415.35,201.168 1417.34,207.976 1419.32,215.077 1421.31,222.475 1423.3,230.173 1425.28,238.177 1427.27,246.49 1429.26,255.115 1431.24,264.054 1433.23,273.31 1435.21,282.884 1437.2,292.775 1439.19,302.986 1441.17,313.515 1443.16,324.36 1445.14,335.521 1447.13,346.993 1449.12,358.775 1451.1,370.862 1453.09,383.249 1455.08,395.93 1457.06,408.9 1459.05,422.151 1461.03,435.676 1463.02,449.466 1465.01,463.512 1466.99,477.804 1468.98,492.331 1470.96,507.084 1472.95,522.048 1474.94,537.213 1476.92,552.566 1478.91,568.092 1480.9,583.778 1482.88,599.609 1484.87,615.57 1486.85,631.646 1488.84,647.822 1490.83,664.081 1492.81,680.408 1494.8,696.785 1496.78,713.197 1498.77,729.627 1500.76,746.058 1502.74,762.474 1504.73,778.857 1506.72,795.192 1508.7,811.463 1510.69,827.652 1512.67,843.745 1514.66,859.725 1516.65,875.577 1518.63,891.288 1520.62,906.841 1522.6,922.224 1524.59,937.423 1526.58,952.425 1528.56,967.218 1530.55,981.79 1532.54,996.13 1534.52,1010.23 1536.51,1024.07 1538.49,1037.66 1540.48,1050.97 1542.47,1064.01 1544.45,1076.76 1546.44,1089.23 1548.42,1101.4 1550.41,1113.26 1552.4,1124.83 1554.38,1136.08 1556.37,1147.03 1558.36,1157.66 1560.34,1167.98 1562.33,1177.99 1564.31,1187.68 1566.3,1197.06 1568.29,1206.13 1570.27,1214.88 1572.26,1223.33 1574.24,1231.48 1576.23,1239.32 1578.22,1246.87 1580.2,1254.12 1582.19,1261.09 1584.18,1267.77 1586.16,1274.17 1588.15,1280.31 1590.13,1286.17 1592.12,1291.78 1594.11,1297.13 1596.09,1302.24 1598.08,1307.1 1600.06,1311.73 1602.05,1316.14 1604.04,1320.33 1606.02,1324.31 1608.01,1328.08 1610,1331.65 1611.98,1335.04 1613.97,1338.24 1615.95,1341.26 1617.94,1344.12 1619.93,1346.82 1621.91,1349.36 1623.9,1351.75 1625.88,1354 1627.87,1356.12 1629.86,1358.11 1631.84,1359.98 1633.83,1361.72 1635.82,1363.36 1637.8,1364.9 1639.79,1366.33 1641.77,1367.67 1643.76,1368.92 1645.75,1370.09 1647.73,1371.18 1649.72,1372.19 1651.7,1373.13 1653.69,1374.01 1655.68,1374.82 1657.66,1375.58 1659.65,1376.28 1661.64,1376.93 1663.62,1377.53 1665.61,1378.08 1667.59,1378.6 1669.58,1379.07 1671.57,1379.51 1673.55,1379.91 1675.54,1380.28 1677.52,1380.63 1679.51,1380.94 1681.5,1381.23 1683.48,1381.5 1685.47,1381.74 1687.46,1381.96 1689.44,1382.17 1691.43,1382.36 1693.41,1382.53 1695.4,1382.69 1697.39,1382.83 1699.37,1382.96 1701.36,1383.08 1703.34,1383.19 1705.33,1383.29 1707.32,1383.38 1709.3,1383.46 1711.29,1383.54 1713.28,1383.61 1715.26,1383.67 1717.25,1383.72 1719.23,1383.77 1721.22,1383.82 1723.21,1383.86 1725.19,1383.9 1727.18,1383.93 1729.16,1383.97 1731.15,1383.99 1733.14,1384.02 1735.12,1384.04 1737.11,1384.06 1739.1,1384.08 1741.08,1384.1 1743.07,1384.11 1745.05,1384.12 1747.04,1384.14 1749.03,1384.15 1751.01,1384.16 1753,1384.17 1754.98,1384.17 1756.97,1384.18 1758.96,1384.19 1760.94,1384.19 1762.93,1384.2 1764.92,1384.2 1766.9,1384.21 1768.89,1384.21 1770.87,1384.21 1772.86,1384.22 1774.85,1384.22 1776.83,1384.22 1778.82,1384.22 1780.8,1384.22 1782.79,1384.23 1784.78,1384.23 1786.76,1384.23 1788.75,1384.23 1790.73,1384.23 1792.72,1384.23 1794.71,1384.23 1796.69,1384.23 1798.68,1384.23 1800.67,1384.23 1802.65,1384.23 1804.64,1384.24 1806.62,1384.24 1808.61,1384.24 1810.6,1384.24 1812.58,1384.24 1814.57,1384.24 1816.55,1384.24 1818.54,1384.24 1820.53,1384.24 1822.51,1384.24 1824.5,1384.24 1826.49,1384.24 1828.47,1384.24 1830.46,1384.24 1832.44,1384.24 1834.43,1384.24 1836.42,1384.24 1838.4,1384.24 1840.39,1384.24 1842.37,1384.24 1844.36,1384.24 1846.35,1384.24 1848.33,1384.24 1850.32,1384.24 1852.31,1384.24 1854.29,1384.24 1856.28,1384.24 1858.26,1384.24 1860.25,1384.24 1862.24,1384.24 1864.22,1384.24 1866.21,1384.24 1868.19,1384.24 1870.18,1384.24 1872.17,1384.24 1874.15,1384.24 1876.14,1384.24 1878.13,1384.24 1880.11,1384.24 1882.1,1384.24 1884.08,1384.24 1886.07,1384.24 1888.06,1384.24 1890.04,1384.24 1892.03,1384.24 1894.01,1384.24 1896,1384.24 1897.99,1384.24 1899.97,1384.24 1901.96,1384.24 1903.95,1384.24 1905.93,1384.24 1907.92,1384.24 1909.9,1384.24 1911.89,1384.24 1913.88,1384.24 1915.86,1384.24 1917.85,1384.24 1919.83,1384.24 1921.82,1384.24 1923.81,1384.24 1925.79,1384.24 1927.78,1384.24 1929.77,1384.24 1931.75,1384.24 1933.74,1384.24 1935.72,1384.24 1937.71,1384.24 1939.7,1384.24 1941.68,1384.24 1943.67,1384.24 1945.65,1384.24 1947.64,1384.24 1949.63,1384.24 1951.61,1384.24 1953.6,1384.24 1955.59,1384.24 1957.57,1384.24 1959.56,1384.24 1961.54,1384.24 1963.53,1384.24 1965.52,1384.24 1967.5,1384.24 1969.49,1384.24 1971.47,1384.24 1973.46,1384.24 1975.45,1384.24 1977.43,1384.24 1979.42,1384.24 1981.41,1384.24 1983.39,1384.24 1985.38,1384.24 1987.36,1384.24 1989.35,1384.24 1991.34,1384.24 1993.32,1384.24 1995.31,1384.24 1997.29,1384.24 1999.28,1384.24 2001.27,1384.24 2003.25,1384.24 2005.24,1384.24 2007.23,1384.24 2009.21,1384.24 2011.2,1384.24 2013.18,1384.24 2015.17,1384.24 2017.16,1384.24 2019.14,1384.24 2021.13,1384.24 2023.11,1384.24 2025.1,1384.24 2027.09,1384.24 2029.07,1384.24 2031.06,1384.24 2033.05,1384.24 2035.03,1384.24 2037.02,1384.24 2039,1384.24 2040.99,1384.24 2042.98,1384.24 2044.96,1384.24 2046.95,1384.24 2048.93,1384.24 2050.92,1384.24 2052.91,1384.24 2054.89,1384.24 2056.88,1384.24 2058.87,1384.24 2060.85,1384.24 2062.84,1384.24 2064.82,1384.24 2066.81,1384.24 2068.8,1384.24 2070.78,1384.24 2072.77,1384.24 2074.75,1384.24 2076.74,1384.24 2078.73,1384.24 2080.71,1384.24 2082.7,1384.24 2084.69,1384.24 2086.67,1384.24 2088.66,1384.24 2090.64,1384.24 2092.63,1384.24 2094.62,1384.24 2096.6,1384.24 2098.59,1384.24 2100.57,1384.24 2102.56,1384.24 2104.55,1384.24 2106.53,1384.24 2108.52,1384.24 2110.51,1384.24 2112.49,1384.24 2114.48,1384.24 2116.46,1384.24 2118.45,1384.24 2120.44,1384.24 2122.42,1384.24 2124.41,1384.24 2126.39,1384.24 2128.38,1384.24 2130.37,1384.24 2132.35,1384.24 2134.34,1384.24 2136.33,1384.24 2138.31,1384.24 2140.3,1384.24 2142.28,1384.24 2144.27,1384.24 2146.26,1384.24 2148.24,1384.24 2150.23,1384.24 2152.21,1384.24 2154.2,1384.24 2156.19,1384.24 2158.17,1384.24 2160.16,1384.24 2162.15,1384.24 2164.13,1384.24 2166.12,1384.24 2168.1,1384.24 2170.09,1384.24 2172.08,1384.24 2174.06,1384.24 2176.05,1384.24 2178.03,1384.24 2180.02,1384.24 2182.01,1384.24 2183.99,1384.24 2185.98,1384.24 2187.97,1384.24 2189.95,1384.24 2191.94,1384.24 2193.92,1384.24 2195.91,1384.24 2197.9,1384.24 2199.88,1384.24 2201.87,1384.24 2203.85,1384.24 2205.84,1384.24 2207.83,1384.24 2209.81,1384.24 2211.8,1384.24 2213.78,1384.24 2215.77,1384.24 2217.76,1384.24 2219.74,1384.24 2221.73,1384.24 2223.72,1384.24 2225.7,1384.24 2227.69,1384.24 2229.67,1384.24 2231.66,1384.24 2233.65,1384.24 2235.63,1384.24 2237.62,1384.24 2239.6,1384.24 2241.59,1384.24 2243.58,1384.24 2245.56,1384.24 2247.55,1384.24 2249.54,1384.24 2251.52,1384.24 2253.51,1384.24 2255.49,1384.24 2257.48,1384.24 2259.47,1384.24 2261.45,1384.24 2263.44,1384.24 2265.42,1384.24 2267.41,1384.24 2269.4,1384.24 2271.38,1384.24 2273.37,1384.24 2275.36,1384.24 2277.34,1384.24 2279.33,1384.24 2281.31,1384.24 2283.3,1384.24 2285.29,1384.24 2287.27,1384.24 2289.26,1384.24 2291.24,1384.24 2293.23,1384.24 "/>
<path clip-path="url(#clip620)" d="M2019.3 248.629 L2282.65 248.629 L2282.65 93.1086 L2019.3 93.1086  Z" fill="#ffffff" fill-rule="evenodd" fill-opacity="1"/>
<polyline clip-path="url(#clip620)" style="stroke:#000000; stroke-linecap:round; stroke-linejoin:round; stroke-width:4; stroke-opacity:1; fill:none" points="2019.3,248.629 2282.65,248.629 2282.65,93.1086 2019.3,93.1086 2019.3,248.629 "/>
<polyline clip-path="url(#clip620)" style="stroke:#009af9; stroke-linecap:round; stroke-linejoin:round; stroke-width:4; stroke-opacity:1; fill:none" points="2042.66,144.949 2182.88,144.949 "/>
<path clip-path="url(#clip620)" d="M2206.25 151.997 L2206.25 136.303 L2210.51 136.303 L2210.51 151.835 Q2210.51 155.516 2211.94 157.368 Q2213.38 159.196 2216.25 159.196 Q2219.7 159.196 2221.69 156.997 Q2223.7 154.798 2223.7 151.002 L2223.7 136.303 L2227.96 136.303 L2227.96 162.229 L2223.7 162.229 L2223.7 158.247 Q2222.15 160.608 2220.09 161.766 Q2218.05 162.9 2215.34 162.9 Q2210.88 162.9 2208.56 160.122 Q2206.25 157.344 2206.25 151.997 M2216.97 135.678 L2216.97 135.678 Z" fill="#000000" fill-rule="nonzero" fill-opacity="1" /><path clip-path="url(#clip620)" d="M2247.34 130.747 Q2243.72 130.747 2241.9 134.312 Q2240.09 137.854 2240.09 144.983 Q2240.09 152.09 2241.9 155.655 Q2243.72 159.196 2247.34 159.196 Q2250.97 159.196 2252.78 155.655 Q2254.6 152.09 2254.6 144.983 Q2254.6 137.854 2252.78 134.312 Q2250.97 130.747 2247.34 130.747 M2247.34 127.044 Q2253.15 127.044 2256.2 131.65 Q2259.28 136.233 2259.28 144.983 Q2259.28 153.71 2256.2 158.317 Q2253.15 162.9 2247.34 162.9 Q2241.53 162.9 2238.45 158.317 Q2235.39 153.71 2235.39 144.983 Q2235.39 136.233 2238.45 131.65 Q2241.53 127.044 2247.34 127.044 Z" fill="#000000" fill-rule="nonzero" fill-opacity="1" /><polyline clip-path="url(#clip620)" style="stroke:#e26f46; stroke-linecap:round; stroke-linejoin:round; stroke-width:4; stroke-opacity:1; fill:none" points="2042.66,196.789 2182.88,196.789 "/>
<path clip-path="url(#clip620)" d="M2206.25 203.837 L2206.25 188.143 L2210.51 188.143 L2210.51 203.675 Q2210.51 207.356 2211.94 209.208 Q2213.38 211.036 2216.25 211.036 Q2219.7 211.036 2221.69 208.837 Q2223.7 206.638 2223.7 202.842 L2223.7 188.143 L2227.96 188.143 L2227.96 214.069 L2223.7 214.069 L2223.7 210.087 Q2222.15 212.448 2220.09 213.606 Q2218.05 214.74 2215.34 214.74 Q2210.88 214.74 2208.56 211.962 Q2206.25 209.184 2206.25 203.837 M2216.97 187.518 L2216.97 187.518 Z" fill="#000000" fill-rule="nonzero" fill-opacity="1" /></svg>
