<?xml version="1.0" encoding="utf-8"?>
<svg xmlns="http://www.w3.org/2000/svg" xmlns:xlink="http://www.w3.org/1999/xlink" width="600" height="400" viewBox="0 0 2400 1600">
<defs>
  <clipPath id="clip970">
    <rect x="0" y="0" width="2400" height="1600"/>
  </clipPath>
</defs>
<path clip-path="url(#clip970)" d="M0 1600 L2400 1600 L2400 0 L0 0  Z" fill="#ffffff" fill-rule="evenodd" fill-opacity="1"/>
<defs>
  <clipPath id="clip971">
    <rect x="480" y="0" width="1681" height="1600"/>
  </clipPath>
</defs>
<path clip-path="url(#clip970)" d="M155.765 1423.18 L2352.76 1423.18 L2352.76 47.2441 L155.765 47.2441  Z" fill="#ffffff" fill-rule="evenodd" fill-opacity="1"/>
<defs>
  <clipPath id="clip972">
    <rect x="155" y="47" width="2198" height="1377"/>
  </clipPath>
</defs>
<polyline clip-path="url(#clip972)" style="stroke:#000000; stroke-linecap:round; stroke-linejoin:round; stroke-width:2; stroke-opacity:0.1; fill:none" points="155.765,1423.18 155.765,47.2441 "/>
<polyline clip-path="url(#clip972)" style="stroke:#000000; stroke-linecap:round; stroke-linejoin:round; stroke-width:2; stroke-opacity:0.1; fill:none" points="595.163,1423.18 595.163,47.2441 "/>
<polyline clip-path="url(#clip972)" style="stroke:#000000; stroke-linecap:round; stroke-linejoin:round; stroke-width:2; stroke-opacity:0.1; fill:none" points="1034.56,1423.18 1034.56,47.2441 "/>
<polyline clip-path="url(#clip972)" style="stroke:#000000; stroke-linecap:round; stroke-linejoin:round; stroke-width:2; stroke-opacity:0.1; fill:none" points="1473.96,1423.18 1473.96,47.2441 "/>
<polyline clip-path="url(#clip972)" style="stroke:#000000; stroke-linecap:round; stroke-linejoin:round; stroke-width:2; stroke-opacity:0.1; fill:none" points="1913.36,1423.18 1913.36,47.2441 "/>
<polyline clip-path="url(#clip972)" style="stroke:#000000; stroke-linecap:round; stroke-linejoin:round; stroke-width:2; stroke-opacity:0.1; fill:none" points="2352.76,1423.18 2352.76,47.2441 "/>
<polyline clip-path="url(#clip970)" style="stroke:#000000; stroke-linecap:round; stroke-linejoin:round; stroke-width:4; stroke-opacity:1; fill:none" points="155.765,1423.18 2352.76,1423.18 "/>
<polyline clip-path="url(#clip970)" style="stroke:#000000; stroke-linecap:round; stroke-linejoin:round; stroke-width:4; stroke-opacity:1; fill:none" points="155.765,1423.18 155.765,1404.28 "/>
<polyline clip-path="url(#clip970)" style="stroke:#000000; stroke-linecap:round; stroke-linejoin:round; stroke-width:4; stroke-opacity:1; fill:none" points="595.163,1423.18 595.163,1404.28 "/>
<polyline clip-path="url(#clip970)" style="stroke:#000000; stroke-linecap:round; stroke-linejoin:round; stroke-width:4; stroke-opacity:1; fill:none" points="1034.56,1423.18 1034.56,1404.28 "/>
<polyline clip-path="url(#clip970)" style="stroke:#000000; stroke-linecap:round; stroke-linejoin:round; stroke-width:4; stroke-opacity:1; fill:none" points="1473.96,1423.18 1473.96,1404.28 "/>
<polyline clip-path="url(#clip970)" style="stroke:#000000; stroke-linecap:round; stroke-linejoin:round; stroke-width:4; stroke-opacity:1; fill:none" points="1913.36,1423.18 1913.36,1404.28 "/>
<polyline clip-path="url(#clip970)" style="stroke:#000000; stroke-linecap:round; stroke-linejoin:round; stroke-width:4; stroke-opacity:1; fill:none" points="2352.76,1423.18 2352.76,1404.28 "/>
<path clip-path="url(#clip970)" d="M155.765 1454.1 Q152.154 1454.1 150.325 1457.66 Q148.52 1461.2 148.52 1468.33 Q148.52 1475.44 150.325 1479.01 Q152.154 1482.55 155.765 1482.55 Q159.399 1482.55 161.205 1479.01 Q163.033 1475.44 163.033 1468.33 Q163.033 1461.2 161.205 1457.66 Q159.399 1454.1 155.765 1454.1 M155.765 1450.39 Q161.575 1450.39 164.631 1455 Q167.709 1459.58 167.709 1468.33 Q167.709 1477.06 164.631 1481.67 Q161.575 1486.25 155.765 1486.25 Q149.955 1486.25 146.876 1481.67 Q143.821 1477.06 143.821 1468.33 Q143.821 1459.58 146.876 1455 Q149.955 1450.39 155.765 1450.39 Z" fill="#000000" fill-rule="nonzero" fill-opacity="1" /><path clip-path="url(#clip970)" d="M589.816 1481.64 L606.135 1481.64 L606.135 1485.58 L584.191 1485.58 L584.191 1481.64 Q586.853 1478.89 591.436 1474.26 Q596.043 1469.61 597.223 1468.27 Q599.469 1465.74 600.348 1464.01 Q601.251 1462.25 601.251 1460.56 Q601.251 1457.8 599.307 1456.07 Q597.385 1454.33 594.283 1454.33 Q592.084 1454.33 589.631 1455.09 Q587.2 1455.86 584.422 1457.41 L584.422 1452.69 Q587.246 1451.55 589.7 1450.97 Q592.154 1450.39 594.191 1450.39 Q599.561 1450.39 602.756 1453.08 Q605.95 1455.77 605.95 1460.26 Q605.95 1462.39 605.14 1464.31 Q604.353 1466.2 602.246 1468.8 Q601.668 1469.47 598.566 1472.69 Q595.464 1475.88 589.816 1481.64 Z" fill="#000000" fill-rule="nonzero" fill-opacity="1" /><path clip-path="url(#clip970)" d="M1037.57 1455.09 L1025.77 1473.54 L1037.57 1473.54 L1037.57 1455.09 M1036.34 1451.02 L1042.22 1451.02 L1042.22 1473.54 L1047.15 1473.54 L1047.15 1477.43 L1042.22 1477.43 L1042.22 1485.58 L1037.57 1485.58 L1037.57 1477.43 L1021.97 1477.43 L1021.97 1472.92 L1036.34 1451.02 Z" fill="#000000" fill-rule="nonzero" fill-opacity="1" /><path clip-path="url(#clip970)" d="M1474.36 1466.44 Q1471.22 1466.44 1469.36 1468.59 Q1467.54 1470.74 1467.54 1474.49 Q1467.54 1478.22 1469.36 1480.39 Q1471.22 1482.55 1474.36 1482.55 Q1477.51 1482.55 1479.34 1480.39 Q1481.19 1478.22 1481.19 1474.49 Q1481.19 1470.74 1479.34 1468.59 Q1477.51 1466.44 1474.36 1466.44 M1483.65 1451.78 L1483.65 1456.04 Q1481.89 1455.21 1480.08 1454.77 Q1478.3 1454.33 1476.54 1454.33 Q1471.91 1454.33 1469.46 1457.45 Q1467.03 1460.58 1466.68 1466.9 Q1468.05 1464.89 1470.11 1463.82 Q1472.17 1462.73 1474.64 1462.73 Q1479.85 1462.73 1482.86 1465.9 Q1485.89 1469.05 1485.89 1474.49 Q1485.89 1479.82 1482.74 1483.03 Q1479.6 1486.25 1474.36 1486.25 Q1468.37 1486.25 1465.2 1481.67 Q1462.03 1477.06 1462.03 1468.33 Q1462.03 1460.14 1465.92 1455.28 Q1469.8 1450.39 1476.36 1450.39 Q1478.11 1450.39 1479.9 1450.74 Q1481.7 1451.09 1483.65 1451.78 Z" fill="#000000" fill-rule="nonzero" fill-opacity="1" /><path clip-path="url(#clip970)" d="M1913.36 1469.17 Q1910.02 1469.17 1908.1 1470.95 Q1906.2 1472.73 1906.2 1475.86 Q1906.2 1478.98 1908.1 1480.77 Q1910.02 1482.55 1913.36 1482.55 Q1916.69 1482.55 1918.61 1480.77 Q1920.53 1478.96 1920.53 1475.86 Q1920.53 1472.73 1918.61 1470.95 Q1916.71 1469.17 1913.36 1469.17 M1908.68 1467.18 Q1905.67 1466.44 1903.98 1464.38 Q1902.32 1462.32 1902.32 1459.35 Q1902.32 1455.21 1905.26 1452.8 Q1908.22 1450.39 1913.36 1450.39 Q1918.52 1450.39 1921.46 1452.8 Q1924.4 1455.21 1924.4 1459.35 Q1924.4 1462.32 1922.71 1464.38 Q1921.04 1466.44 1918.06 1467.18 Q1921.44 1467.96 1923.31 1470.26 Q1925.21 1472.55 1925.21 1475.86 Q1925.21 1480.88 1922.13 1483.57 Q1919.08 1486.25 1913.36 1486.25 Q1907.64 1486.25 1904.56 1483.57 Q1901.51 1480.88 1901.51 1475.86 Q1901.51 1472.55 1903.4 1470.26 Q1905.3 1467.96 1908.68 1467.18 M1906.97 1459.79 Q1906.97 1462.48 1908.64 1463.98 Q1910.33 1465.49 1913.36 1465.49 Q1916.37 1465.49 1918.06 1463.98 Q1919.77 1462.48 1919.77 1459.79 Q1919.77 1457.11 1918.06 1455.6 Q1916.37 1454.1 1913.36 1454.1 Q1910.33 1454.1 1908.64 1455.6 Q1906.97 1457.11 1906.97 1459.79 Z" fill="#000000" fill-rule="nonzero" fill-opacity="1" /><path clip-path="url(#clip970)" d="M2327.44 1481.64 L2335.08 1481.64 L2335.08 1455.28 L2326.77 1456.95 L2326.77 1452.69 L2335.04 1451.02 L2339.71 1451.02 L2339.71 1481.64 L2347.35 1481.64 L2347.35 1485.58 L2327.44 1485.58 L2327.44 1481.64 Z" fill="#000000" fill-rule="nonzero" fill-opacity="1" /><path clip-path="url(#clip970)" d="M2366.8 1454.1 Q2363.18 1454.1 2361.36 1457.66 Q2359.55 1461.2 2359.55 1468.33 Q2359.55 1475.44 2361.36 1479.01 Q2363.18 1482.55 2366.8 1482.55 Q2370.43 1482.55 2372.23 1479.01 Q2374.06 1475.44 2374.06 1468.33 Q2374.06 1461.2 2372.23 1457.66 Q2370.43 1454.1 2366.8 1454.1 M2366.8 1450.39 Q2372.61 1450.39 2375.66 1455 Q2378.74 1459.58 2378.74 1468.33 Q2378.74 1477.06 2375.66 1481.67 Q2372.61 1486.25 2366.8 1486.25 Q2360.99 1486.25 2357.91 1481.67 Q2354.85 1477.06 2354.85 1468.33 Q2354.85 1459.58 2357.91 1455 Q2360.99 1450.39 2366.8 1450.39 Z" fill="#000000" fill-rule="nonzero" fill-opacity="1" /><path clip-path="url(#clip970)" d="M1253.32 1522.27 L1253.32 1532.4 L1265.38 1532.4 L1265.38 1536.95 L1253.32 1536.95 L1253.32 1556.3 Q1253.32 1560.66 1254.5 1561.9 Q1255.71 1563.14 1259.37 1563.14 L1265.38 1563.14 L1265.38 1568.04 L1259.37 1568.04 Q1252.59 1568.04 1250.01 1565.53 Q1247.43 1562.98 1247.43 1556.3 L1247.43 1536.95 L1243.14 1536.95 L1243.14 1532.4 L1247.43 1532.4 L1247.43 1522.27 L1253.32 1522.27 Z" fill="#000000" fill-rule="nonzero" fill-opacity="1" /><polyline clip-path="url(#clip972)" style="stroke:#000000; stroke-linecap:round; stroke-linejoin:round; stroke-width:2; stroke-opacity:0.1; fill:none" points="155.765,1342.55 2352.76,1342.55 "/>
<polyline clip-path="url(#clip972)" style="stroke:#000000; stroke-linecap:round; stroke-linejoin:round; stroke-width:2; stroke-opacity:0.1; fill:none" points="155.765,1119.99 2352.76,1119.99 "/>
<polyline clip-path="url(#clip972)" style="stroke:#000000; stroke-linecap:round; stroke-linejoin:round; stroke-width:2; stroke-opacity:0.1; fill:none" points="155.765,897.437 2352.76,897.437 "/>
<polyline clip-path="url(#clip972)" style="stroke:#000000; stroke-linecap:round; stroke-linejoin:round; stroke-width:2; stroke-opacity:0.1; fill:none" points="155.765,674.88 2352.76,674.88 "/>
<polyline clip-path="url(#clip972)" style="stroke:#000000; stroke-linecap:round; stroke-linejoin:round; stroke-width:2; stroke-opacity:0.1; fill:none" points="155.765,452.323 2352.76,452.323 "/>
<polyline clip-path="url(#clip972)" style="stroke:#000000; stroke-linecap:round; stroke-linejoin:round; stroke-width:2; stroke-opacity:0.1; fill:none" points="155.765,229.766 2352.76,229.766 "/>
<polyline clip-path="url(#clip970)" style="stroke:#000000; stroke-linecap:round; stroke-linejoin:round; stroke-width:4; stroke-opacity:1; fill:none" points="155.765,1423.18 155.765,47.2441 "/>
<polyline clip-path="url(#clip970)" style="stroke:#000000; stroke-linecap:round; stroke-linejoin:round; stroke-width:4; stroke-opacity:1; fill:none" points="155.765,1342.55 174.663,1342.55 "/>
<polyline clip-path="url(#clip970)" style="stroke:#000000; stroke-linecap:round; stroke-linejoin:round; stroke-width:4; stroke-opacity:1; fill:none" points="155.765,1119.99 174.663,1119.99 "/>
<polyline clip-path="url(#clip970)" style="stroke:#000000; stroke-linecap:round; stroke-linejoin:round; stroke-width:4; stroke-opacity:1; fill:none" points="155.765,897.437 174.663,897.437 "/>
<polyline clip-path="url(#clip970)" style="stroke:#000000; stroke-linecap:round; stroke-linejoin:round; stroke-width:4; stroke-opacity:1; fill:none" points="155.765,674.88 174.663,674.88 "/>
<polyline clip-path="url(#clip970)" style="stroke:#000000; stroke-linecap:round; stroke-linejoin:round; stroke-width:4; stroke-opacity:1; fill:none" points="155.765,452.323 174.663,452.323 "/>
<polyline clip-path="url(#clip970)" style="stroke:#000000; stroke-linecap:round; stroke-linejoin:round; stroke-width:4; stroke-opacity:1; fill:none" points="155.765,229.766 174.663,229.766 "/>
<path clip-path="url(#clip970)" d="M63.5847 1328.35 Q59.9736 1328.35 58.1449 1331.91 Q56.3393 1335.46 56.3393 1342.59 Q56.3393 1349.69 58.1449 1353.26 Q59.9736 1356.8 63.5847 1356.8 Q67.2189 1356.8 69.0244 1353.26 Q70.8531 1349.69 70.8531 1342.59 Q70.8531 1335.46 69.0244 1331.91 Q67.2189 1328.35 63.5847 1328.35 M63.5847 1324.65 Q69.3948 1324.65 72.4503 1329.25 Q75.529 1333.84 75.529 1342.59 Q75.529 1351.31 72.4503 1355.92 Q69.3948 1360.5 63.5847 1360.5 Q57.7745 1360.5 54.6958 1355.92 Q51.6403 1351.31 51.6403 1342.59 Q51.6403 1333.84 54.6958 1329.25 Q57.7745 1324.65 63.5847 1324.65 Z" fill="#000000" fill-rule="nonzero" fill-opacity="1" /><path clip-path="url(#clip970)" d="M83.7466 1353.95 L88.6308 1353.95 L88.6308 1359.83 L83.7466 1359.83 L83.7466 1353.95 Z" fill="#000000" fill-rule="nonzero" fill-opacity="1" /><path clip-path="url(#clip970)" d="M98.8622 1325.27 L117.219 1325.27 L117.219 1329.21 L103.145 1329.21 L103.145 1337.68 Q104.163 1337.33 105.182 1337.17 Q106.2 1336.98 107.219 1336.98 Q113.006 1336.98 116.385 1340.16 Q119.765 1343.33 119.765 1348.74 Q119.765 1354.32 116.293 1357.42 Q112.82 1360.5 106.501 1360.5 Q104.325 1360.5 102.057 1360.13 Q99.8113 1359.76 97.4039 1359.02 L97.4039 1354.32 Q99.4872 1355.46 101.709 1356.01 Q103.932 1356.57 106.408 1356.57 Q110.413 1356.57 112.751 1354.46 Q115.089 1352.35 115.089 1348.74 Q115.089 1345.13 112.751 1343.03 Q110.413 1340.92 106.408 1340.92 Q104.534 1340.92 102.659 1341.34 Q100.807 1341.75 98.8622 1342.63 L98.8622 1325.27 Z" fill="#000000" fill-rule="nonzero" fill-opacity="1" /><path clip-path="url(#clip970)" d="M53.3995 1133.34 L61.0384 1133.34 L61.0384 1106.97 L52.7282 1108.64 L52.7282 1104.38 L60.9921 1102.71 L65.668 1102.71 L65.668 1133.34 L73.3068 1133.34 L73.3068 1137.27 L53.3995 1137.27 L53.3995 1133.34 Z" fill="#000000" fill-rule="nonzero" fill-opacity="1" /><path clip-path="url(#clip970)" d="M82.7512 1131.39 L87.6354 1131.39 L87.6354 1137.27 L82.7512 1137.27 L82.7512 1131.39 Z" fill="#000000" fill-rule="nonzero" fill-opacity="1" /><path clip-path="url(#clip970)" d="M107.821 1105.79 Q104.209 1105.79 102.381 1109.36 Q100.575 1112.9 100.575 1120.03 Q100.575 1127.14 102.381 1130.7 Q104.209 1134.24 107.821 1134.24 Q111.455 1134.24 113.26 1130.7 Q115.089 1127.14 115.089 1120.03 Q115.089 1112.9 113.26 1109.36 Q111.455 1105.79 107.821 1105.79 M107.821 1102.09 Q113.631 1102.09 116.686 1106.7 Q119.765 1111.28 119.765 1120.03 Q119.765 1128.76 116.686 1133.36 Q113.631 1137.95 107.821 1137.95 Q102.01 1137.95 98.9317 1133.36 Q95.8761 1128.76 95.8761 1120.03 Q95.8761 1111.28 98.9317 1106.7 Q102.01 1102.09 107.821 1102.09 Z" fill="#000000" fill-rule="nonzero" fill-opacity="1" /><path clip-path="url(#clip970)" d="M54.3949 910.782 L62.0337 910.782 L62.0337 884.416 L53.7236 886.083 L53.7236 881.824 L61.9874 880.157 L66.6633 880.157 L66.6633 910.782 L74.3022 910.782 L74.3022 914.717 L54.3949 914.717 L54.3949 910.782 Z" fill="#000000" fill-rule="nonzero" fill-opacity="1" /><path clip-path="url(#clip970)" d="M83.7466 908.838 L88.6308 908.838 L88.6308 914.717 L83.7466 914.717 L83.7466 908.838 Z" fill="#000000" fill-rule="nonzero" fill-opacity="1" /><path clip-path="url(#clip970)" d="M98.8622 880.157 L117.219 880.157 L117.219 884.092 L103.145 884.092 L103.145 892.565 Q104.163 892.217 105.182 892.055 Q106.2 891.87 107.219 891.87 Q113.006 891.87 116.385 895.041 Q119.765 898.213 119.765 903.629 Q119.765 909.208 116.293 912.31 Q112.82 915.389 106.501 915.389 Q104.325 915.389 102.057 915.018 Q99.8113 914.648 97.4039 913.907 L97.4039 909.208 Q99.4872 910.342 101.709 910.898 Q103.932 911.453 106.408 911.453 Q110.413 911.453 112.751 909.347 Q115.089 907.24 115.089 903.629 Q115.089 900.018 112.751 897.912 Q110.413 895.805 106.408 895.805 Q104.534 895.805 102.659 896.222 Q100.807 896.639 98.8622 897.518 L98.8622 880.157 Z" fill="#000000" fill-rule="nonzero" fill-opacity="1" /><path clip-path="url(#clip970)" d="M56.6171 688.225 L72.9365 688.225 L72.9365 692.16 L50.9921 692.16 L50.9921 688.225 Q53.6541 685.471 58.2375 680.841 Q62.8439 676.188 64.0245 674.846 Q66.2698 672.322 67.1494 670.586 Q68.0522 668.827 68.0522 667.137 Q68.0522 664.383 66.1078 662.647 Q64.1865 660.91 61.0847 660.91 Q58.8856 660.91 56.4319 661.674 Q54.0014 662.438 51.2236 663.989 L51.2236 659.267 Q54.0477 658.133 56.5014 657.554 Q58.955 656.975 60.9921 656.975 Q66.3624 656.975 69.5568 659.66 Q72.7513 662.346 72.7513 666.836 Q72.7513 668.966 71.9411 670.887 Q71.1541 672.785 69.0476 675.378 Q68.4689 676.049 65.367 679.267 Q62.2652 682.461 56.6171 688.225 Z" fill="#000000" fill-rule="nonzero" fill-opacity="1" /><path clip-path="url(#clip970)" d="M82.7512 686.281 L87.6354 686.281 L87.6354 692.16 L82.7512 692.16 L82.7512 686.281 Z" fill="#000000" fill-rule="nonzero" fill-opacity="1" /><path clip-path="url(#clip970)" d="M107.821 660.679 Q104.209 660.679 102.381 664.244 Q100.575 667.785 100.575 674.915 Q100.575 682.021 102.381 685.586 Q104.209 689.128 107.821 689.128 Q111.455 689.128 113.26 685.586 Q115.089 682.021 115.089 674.915 Q115.089 667.785 113.26 664.244 Q111.455 660.679 107.821 660.679 M107.821 656.975 Q113.631 656.975 116.686 661.582 Q119.765 666.165 119.765 674.915 Q119.765 683.642 116.686 688.248 Q113.631 692.832 107.821 692.832 Q102.01 692.832 98.9317 688.248 Q95.8761 683.642 95.8761 674.915 Q95.8761 666.165 98.9317 661.582 Q102.01 656.975 107.821 656.975 Z" fill="#000000" fill-rule="nonzero" fill-opacity="1" /><path clip-path="url(#clip970)" d="M57.6125 465.668 L73.9318 465.668 L73.9318 469.603 L51.9875 469.603 L51.9875 465.668 Q54.6495 462.914 59.2328 458.284 Q63.8393 453.631 65.0198 452.289 Q67.2652 449.766 68.1448 448.029 Q69.0476 446.27 69.0476 444.58 Q69.0476 441.826 67.1032 440.09 Q65.1819 438.354 62.08 438.354 Q59.881 438.354 57.4273 439.117 Q54.9967 439.881 52.219 441.432 L52.219 436.71 Q55.043 435.576 57.4967 434.997 Q59.9504 434.418 61.9874 434.418 Q67.3578 434.418 70.5522 437.104 Q73.7466 439.789 73.7466 444.279 Q73.7466 446.409 72.9365 448.33 Q72.1494 450.229 70.0429 452.821 Q69.4642 453.492 66.3624 456.71 Q63.2606 459.904 57.6125 465.668 Z" fill="#000000" fill-rule="nonzero" fill-opacity="1" /><path clip-path="url(#clip970)" d="M83.7466 463.724 L88.6308 463.724 L88.6308 469.603 L83.7466 469.603 L83.7466 463.724 Z" fill="#000000" fill-rule="nonzero" fill-opacity="1" /><path clip-path="url(#clip970)" d="M98.8622 435.043 L117.219 435.043 L117.219 438.979 L103.145 438.979 L103.145 447.451 Q104.163 447.104 105.182 446.941 Q106.2 446.756 107.219 446.756 Q113.006 446.756 116.385 449.928 Q119.765 453.099 119.765 458.515 Q119.765 464.094 116.293 467.196 Q112.82 470.275 106.501 470.275 Q104.325 470.275 102.057 469.904 Q99.8113 469.534 97.4039 468.793 L97.4039 464.094 Q99.4872 465.228 101.709 465.784 Q103.932 466.34 106.408 466.34 Q110.413 466.34 112.751 464.233 Q115.089 462.127 115.089 458.515 Q115.089 454.904 112.751 452.798 Q110.413 450.691 106.408 450.691 Q104.534 450.691 102.659 451.108 Q100.807 451.525 98.8622 452.404 L98.8622 435.043 Z" fill="#000000" fill-rule="nonzero" fill-opacity="1" /><path clip-path="url(#clip970)" d="M66.7559 228.412 Q70.1124 229.13 71.9874 231.398 Q73.8855 233.667 73.8855 237 Q73.8855 242.116 70.367 244.917 Q66.8485 247.718 60.3671 247.718 Q58.1912 247.718 55.8764 247.278 Q53.5847 246.861 51.131 246.005 L51.131 241.491 Q53.0754 242.625 55.3903 243.204 Q57.7051 243.783 60.2282 243.783 Q64.6263 243.783 66.918 242.047 Q69.2328 240.31 69.2328 237 Q69.2328 233.945 67.08 232.232 Q64.9504 230.496 61.131 230.496 L57.1032 230.496 L57.1032 226.653 L61.3161 226.653 Q64.7652 226.653 66.5939 225.287 Q68.4226 223.898 68.4226 221.306 Q68.4226 218.644 66.5245 217.232 Q64.6495 215.797 61.131 215.797 Q59.2097 215.797 57.0106 216.213 Q54.8115 216.63 52.1727 217.51 L52.1727 213.343 Q54.8347 212.602 57.1495 212.232 Q59.4875 211.861 61.5476 211.861 Q66.8717 211.861 69.9735 214.292 Q73.0753 216.699 73.0753 220.82 Q73.0753 223.69 71.4318 225.681 Q69.7883 227.648 66.7559 228.412 Z" fill="#000000" fill-rule="nonzero" fill-opacity="1" /><path clip-path="url(#clip970)" d="M82.7512 241.167 L87.6354 241.167 L87.6354 247.046 L82.7512 247.046 L82.7512 241.167 Z" fill="#000000" fill-rule="nonzero" fill-opacity="1" /><path clip-path="url(#clip970)" d="M107.821 215.565 Q104.209 215.565 102.381 219.13 Q100.575 222.672 100.575 229.801 Q100.575 236.908 102.381 240.472 Q104.209 244.014 107.821 244.014 Q111.455 244.014 113.26 240.472 Q115.089 236.908 115.089 229.801 Q115.089 222.672 113.26 219.13 Q111.455 215.565 107.821 215.565 M107.821 211.861 Q113.631 211.861 116.686 216.468 Q119.765 221.051 119.765 229.801 Q119.765 238.528 116.686 243.134 Q113.631 247.718 107.821 247.718 Q102.01 247.718 98.9317 243.134 Q95.8761 238.528 95.8761 229.801 Q95.8761 221.051 98.9317 216.468 Q102.01 211.861 107.821 211.861 Z" fill="#000000" fill-rule="nonzero" fill-opacity="1" /><polyline clip-path="url(#clip972)" style="stroke:#009af9; stroke-linecap:round; stroke-linejoin:round; stroke-width:4; stroke-opacity:1; fill:none" points="155.765,674.88 157.964,674.97 160.163,675.239 162.362,675.691 164.562,676.325 166.761,677.143 168.96,678.147 171.159,679.336 173.358,680.712 175.558,682.275 177.757,684.026 179.956,685.963 182.155,688.087 184.354,690.398 186.554,692.894 188.753,695.576 190.952,698.441 193.151,701.488 195.35,704.717 197.55,708.124 199.749,711.708 201.948,715.468 204.147,719.399 206.346,723.5 208.545,727.768 210.745,732.2 212.944,736.791 215.143,741.541 217.342,746.443 219.541,751.494 221.741,756.691 223.94,762.028 226.139,767.502 228.338,773.107 230.537,778.839 232.737,784.694 234.936,790.666 237.135,796.751 239.334,802.943 241.533,809.238 243.733,815.63 245.932,822.113 248.131,828.683 250.33,835.334 252.529,842.059 254.728,848.854 256.928,855.713 259.127,862.631 261.326,869.602 263.525,876.621 265.724,883.681 267.924,890.778 270.123,897.906 272.322,905.06 274.521,912.234 276.72,919.423 278.92,926.623 281.119,933.828 283.318,941.033 285.517,948.235 287.716,955.428 289.916,962.609 292.115,969.772 294.314,976.914 296.513,984.031 298.712,991.118 300.911,998.173 303.111,1005.19 305.31,1012.17 307.509,1019.1 309.708,1025.99 311.907,1032.82 314.107,1039.61 316.306,1046.33 318.505,1053 320.704,1059.61 322.903,1066.15 325.103,1072.63 327.302,1079.05 329.501,1085.39 331.7,1091.67 333.899,1097.87 336.099,1104 338.298,1110.06 340.497,1116.03 342.696,1121.94 344.895,1127.76 347.094,1133.5 349.294,1139.17 351.493,1144.75 353.692,1150.25 355.891,1155.67 358.09,1161.01 360.29,1166.27 362.489,1171.44 364.688,1176.53 366.887,1181.54 369.086,1186.47 371.286,1191.32 373.485,1196.08 375.684,1200.77 377.883,1205.37 380.082,1209.89 382.281,1214.33 384.481,1218.7 386.68,1222.98 388.879,1227.19 391.078,1231.32 393.277,1235.37 395.477,1239.34 397.676,1243.24 399.875,1247.07 402.074,1250.82 404.273,1254.5 406.473,1258.1 408.672,1261.64 410.871,1265.1 413.07,1268.49 415.269,1271.82 417.469,1275.08 419.668,1278.26 421.867,1281.39 424.066,1284.44 426.265,1287.43 428.464,1290.36 430.664,1293.23 432.863,1296.03 435.062,1298.77 437.261,1301.46 439.46,1304.08 441.66,1306.64 443.859,1309.15 446.058,1311.6 448.257,1314 450.456,1316.34 452.656,1318.63 454.855,1320.86 457.054,1323.05 459.253,1325.18 461.452,1327.26 463.652,1329.29 465.851,1331.27 468.05,1333.21 470.249,1335.1 472.448,1336.94 474.647,1338.73 476.847,1340.48 479.046,1342.19 481.245,1343.85 483.444,1345.47 485.643,1347.05 487.843,1348.59 490.042,1350.09 492.241,1351.54 494.44,1352.96 496.639,1354.34 498.839,1355.68 501.038,1356.99 503.237,1358.25 505.436,1359.48 507.635,1360.68 509.835,1361.84 512.034,1362.96 514.233,1364.05 516.432,1365.11 518.631,1366.13 520.83,1367.12 523.03,1368.08 525.229,1369.01 527.428,1369.9 529.627,1370.77 531.826,1371.6 534.026,1372.4 536.225,1373.18 538.424,1373.92 540.623,1374.64 542.822,1375.32 545.022,1375.98 547.221,1376.61 549.42,1377.22 551.619,1377.79 553.818,1378.34 556.018,1378.87 558.217,1379.37 560.416,1379.84 562.615,1380.28 564.814,1380.71 567.013,1381.1 569.213,1381.47 571.412,1381.82 573.611,1382.14 575.81,1382.44 578.009,1382.72 580.209,1382.97 582.408,1383.2 584.607,1383.4 586.806,1383.58 589.005,1383.74 591.205,1383.88 593.404,1383.99 595.603,1384.09 597.802,1384.16 600.001,1384.21 602.201,1384.23 604.4,1384.24 606.599,1384.22 608.798,1384.18 610.997,1384.13 613.196,1384.05 615.396,1383.94 617.595,1383.82 619.794,1383.68 621.993,1383.52 624.192,1383.33 626.392,1383.13 628.591,1382.9 630.79,1382.66 632.989,1382.39 635.188,1382.1 637.388,1381.8 639.587,1381.47 641.786,1381.12 643.985,1380.76 646.184,1380.37 648.384,1379.96 650.583,1379.53 652.782,1379.08 654.981,1378.61 657.18,1378.13 659.379,1377.62 661.579,1377.09 663.778,1376.54 665.977,1375.97 668.176,1375.38 670.375,1374.77 672.575,1374.14 674.774,1373.49 676.973,1372.82 679.172,1372.13 681.371,1371.41 683.571,1370.68 685.77,1369.93 687.969,1369.15 690.168,1368.36 692.367,1367.54 694.567,1366.71 696.766,1365.85 698.965,1364.97 701.164,1364.07 703.363,1363.15 705.562,1362.21 707.762,1361.25 709.961,1360.26 712.16,1359.25 714.359,1358.23 716.558,1357.18 718.758,1356.1 720.957,1355.01 723.156,1353.89 725.355,1352.76 727.554,1351.59 729.754,1350.41 731.953,1349.2 734.152,1347.98 736.351,1346.72 738.55,1345.45 740.749,1344.15 742.949,1342.83 745.148,1341.48 747.347,1340.11 749.546,1338.72 751.745,1337.3 753.945,1335.86 756.144,1334.4 758.343,1332.91 760.542,1331.39 762.741,1329.85 764.941,1328.29 767.14,1326.7 769.339,1325.08 771.538,1323.44 773.737,1321.77 775.937,1320.08 778.136,1318.36 780.335,1316.61 782.534,1314.83 784.733,1313.03 786.932,1311.21 789.132,1309.35 791.331,1307.47 793.53,1305.56 795.729,1303.62 797.928,1301.65 800.128,1299.66 802.327,1297.63 804.526,1295.58 806.725,1293.5 808.924,1291.39 811.124,1289.25 813.323,1287.07 815.522,1284.87 817.721,1282.64 819.92,1280.38 822.12,1278.09 824.319,1275.77 826.518,1273.42 828.717,1271.04 830.916,1268.62 833.115,1266.17 835.315,1263.69 837.514,1261.18 839.713,1258.64 841.912,1256.07 844.111,1253.46 846.311,1250.82 848.51,1248.15 850.709,1245.44 852.908,1242.7 855.107,1239.92 857.307,1237.12 859.506,1234.27 861.705,1231.4 863.904,1228.49 866.103,1225.54 868.303,1222.56 870.502,1219.54 872.701,1216.49 874.9,1213.4 877.099,1210.28 879.298,1207.13 881.498,1203.94 883.697,1200.72 885.896,1197.46 888.095,1194.17 890.294,1190.84 892.494,1187.47 894.693,1184.07 896.892,1180.63 899.091,1177.16 901.29,1173.64 903.49,1170.09 905.689,1166.5 907.888,1162.87 910.087,1159.21 912.286,1155.5 914.486,1151.76 916.685,1147.98 918.884,1144.16 921.083,1140.3 923.282,1136.4 925.481,1132.47 927.681,1128.49 929.88,1124.48 932.079,1120.43 934.278,1116.34 936.477,1112.21 938.677,1108.04 940.876,1103.84 943.075,1099.59 945.274,1095.32 947.473,1091 949.673,1086.65 951.872,1082.26 954.071,1077.83 956.27,1073.37 958.469,1068.87 960.669,1064.34 962.868,1059.78 965.067,1055.18 967.266,1050.55 969.465,1045.88 971.664,1041.18 973.864,1036.45 976.063,1031.69 978.262,1026.9 980.461,1022.09 982.66,1017.24 984.86,1012.36 987.059,1007.46 989.258,1002.53 991.457,997.572 993.656,992.591 995.856,987.586 998.055,982.559 1000.25,977.509 1002.45,972.438 1004.65,967.346 1006.85,962.236 1009.05,957.107 1011.25,951.961 1013.45,946.799 1015.65,941.623 1017.85,936.432 1020.05,931.229 1022.25,926.014 1024.45,920.789 1026.64,915.555 1028.84,910.313 1031.04,905.065 1033.24,899.811 1035.44,894.553 1037.64,889.291 1039.84,884.03 1042.04,878.77 1044.24,873.516 1046.44,868.269 1048.64,863.031 1050.84,857.806 1053.03,852.596 1055.23,847.404 1057.43,842.232 1059.63,837.083 1061.83,831.96 1064.03,826.865 1066.23,821.801 1068.43,816.771 1070.63,811.777 1072.83,806.824 1075.03,801.912 1077.23,797.046 1079.42,792.228 1081.62,787.461 1083.82,782.747 1086.02,778.091 1088.22,773.495 1090.42,768.961 1092.62,764.493 1094.82,760.095 1097.02,755.768 1099.22,751.517 1101.42,747.343 1103.62,743.252 1105.82,739.245 1108.01,735.325 1110.21,731.497 1112.41,727.763 1114.61,724.127 1116.81,720.591 1119.01,717.16 1121.21,713.836 1123.41,710.623 1125.61,707.525 1127.81,704.544 1130.01,701.684 1132.21,698.949 1134.4,696.342 1136.6,693.867 1138.8,691.527 1141,689.325 1143.2,687.266 1145.4,685.353 1147.6,683.59 1149.8,681.979 1152,680.526 1154.2,679.233 1156.4,678.104 1158.6,677.144 1160.79,676.355 1162.99,675.752 1165.19,675.341 1167.39,675.123 1169.59,675.097 1171.79,675.261 1173.99,675.616 1176.19,676.16 1178.39,676.893 1180.59,677.813 1182.79,678.92 1184.99,680.211 1187.19,681.687 1189.38,683.345 1191.58,685.184 1193.78,687.203 1195.98,689.4 1198.18,691.773 1200.38,694.321 1202.58,697.041 1204.78,699.932 1206.98,702.991 1209.18,706.218 1211.38,709.608 1213.58,713.16 1215.77,716.872 1217.97,720.742 1220.17,724.766 1222.37,728.942 1224.57,733.267 1226.77,737.739 1228.97,742.354 1231.17,747.11 1233.37,752.004 1235.57,757.032 1237.77,762.192 1239.97,767.479 1242.16,772.891 1244.36,778.424 1246.56,784.075 1248.76,789.84 1250.96,795.715 1253.16,801.696 1255.36,807.78 1257.56,813.962 1259.76,820.238 1261.96,826.605 1264.16,833.058 1266.36,839.593 1268.56,846.204 1270.75,852.889 1272.95,859.642 1275.15,866.459 1277.35,873.334 1279.55,880.264 1281.75,887.242 1283.95,894.265 1286.15,901.327 1288.35,908.422 1290.55,915.546 1292.75,922.694 1294.95,929.859 1297.14,937.037 1299.34,944.221 1301.54,951.407 1303.74,958.588 1305.94,965.758 1308.14,972.912 1310.34,980.046 1312.54,987.155 1314.74,994.236 1316.94,1001.28 1319.14,1008.3 1321.34,1015.27 1323.53,1022.2 1325.73,1029.09 1327.93,1035.92 1330.13,1042.7 1332.33,1049.43 1334.53,1056.1 1336.73,1062.71 1338.93,1069.26 1341.13,1075.74 1343.33,1082.15 1345.53,1088.5 1347.73,1094.77 1349.93,1100.97 1352.12,1107.09 1354.32,1113.14 1356.52,1119.1 1358.72,1124.99 1360.92,1130.8 1363.12,1136.52 1365.32,1142.16 1367.52,1147.72 1369.72,1153.19 1371.92,1158.58 1374.12,1163.89 1376.32,1169.1 1378.51,1174.23 1380.71,1179.28 1382.91,1184.23 1385.11,1189.11 1387.31,1193.89 1389.51,1198.59 1391.71,1203.21 1393.91,1207.75 1396.11,1212.2 1398.31,1216.56 1400.51,1220.85 1402.71,1225.06 1404.9,1229.19 1407.1,1233.24 1409.3,1237.22 1411.5,1241.12 1413.7,1244.96 1415.9,1248.72 1418.1,1252.42 1420.3,1256.05 1422.5,1259.61 1424.7,1263.11 1426.9,1266.54 1429.1,1269.9 1431.3,1273.19 1433.49,1276.41 1435.69,1279.56 1437.89,1282.65 1440.09,1285.67 1442.29,1288.63 1444.49,1291.52 1446.69,1294.36 1448.89,1297.13 1451.09,1299.84 1453.29,1302.5 1455.49,1305.09 1457.69,1307.63 1459.88,1310.11 1462.08,1312.54 1464.28,1314.91 1466.48,1317.23 1468.68,1319.49 1470.88,1321.71 1473.08,1323.87 1475.28,1325.98 1477.48,1328.04 1479.68,1330.05 1481.88,1332.02 1484.08,1333.93 1486.27,1335.8 1488.47,1337.63 1490.67,1339.4 1492.87,1341.14 1495.07,1342.83 1497.27,1344.48 1499.47,1346.08 1501.67,1347.64 1503.87,1349.17 1506.07,1350.65 1508.27,1352.09 1510.47,1353.49 1512.67,1354.86 1514.86,1356.18 1517.06,1357.47 1519.26,1358.72 1521.46,1359.93 1523.66,1361.11 1525.86,1362.26 1528.06,1363.37 1530.26,1364.44 1532.46,1365.48 1534.66,1366.49 1536.86,1367.46 1539.06,1368.4 1541.25,1369.32 1543.45,1370.2 1545.65,1371.05 1547.85,1371.87 1550.05,1372.66 1552.25,1373.42 1554.45,1374.15 1556.65,1374.85 1558.85,1375.53 1561.05,1376.18 1563.25,1376.79 1565.45,1377.39 1567.65,1377.95 1569.84,1378.49 1572.04,1379 1574.24,1379.49 1576.44,1379.95 1578.64,1380.39 1580.84,1380.8 1583.04,1381.18 1585.24,1381.54 1587.44,1381.88 1589.64,1382.19 1591.84,1382.48 1594.04,1382.74 1596.23,1382.99 1598.43,1383.21 1600.63,1383.4 1602.83,1383.57 1605.03,1383.73 1607.23,1383.85 1609.43,1383.96 1611.63,1384.04 1613.83,1384.11 1616.03,1384.15 1618.23,1384.17 1620.43,1384.16 1622.62,1384.14 1624.82,1384.1 1627.02,1384.03 1629.22,1383.95 1631.42,1383.84 1633.62,1383.71 1635.82,1383.56 1638.02,1383.39 1640.22,1383.21 1642.42,1383 1644.62,1382.77 1646.82,1382.52 1649.02,1382.25 1651.21,1381.96 1653.41,1381.64 1655.61,1381.31 1657.81,1380.96 1660.01,1380.59 1662.21,1380.2 1664.41,1379.79 1666.61,1379.36 1668.81,1378.91 1671.01,1378.43 1673.21,1377.94 1675.41,1377.43 1677.6,1376.9 1679.8,1376.34 1682,1375.77 1684.2,1375.17 1686.4,1374.56 1688.6,1373.92 1690.8,1373.26 1693,1372.58 1695.2,1371.88 1697.4,1371.16 1699.6,1370.42 1701.8,1369.66 1703.99,1368.88 1706.19,1368.08 1708.39,1367.25 1710.59,1366.41 1712.79,1365.54 1714.99,1364.66 1717.19,1363.75 1719.39,1362.82 1721.59,1361.87 1723.79,1360.9 1725.99,1359.9 1728.19,1358.89 1730.39,1357.85 1732.58,1356.79 1734.78,1355.71 1736.98,1354.61 1739.18,1353.48 1741.38,1352.34 1743.58,1351.17 1745.78,1349.97 1747.98,1348.76 1750.18,1347.52 1752.38,1346.26 1754.58,1344.97 1756.78,1343.66 1758.97,1342.33 1761.17,1340.98 1763.37,1339.6 1765.57,1338.19 1767.77,1336.76 1769.97,1335.31 1772.17,1333.84 1774.37,1332.33 1776.57,1330.81 1778.77,1329.26 1780.97,1327.68 1783.17,1326.08 1785.36,1324.45 1787.56,1322.8 1789.76,1321.12 1791.96,1319.41 1794.16,1317.68 1796.36,1315.92 1798.56,1314.14 1800.76,1312.33 1802.96,1310.49 1805.16,1308.62 1807.36,1306.73 1809.56,1304.81 1811.76,1302.86 1813.95,1300.88 1816.15,1298.87 1818.35,1296.84 1820.55,1294.77 1822.75,1292.68 1824.95,1290.56 1827.15,1288.41 1829.35,1286.23 1831.55,1284.03 1833.75,1281.79 1835.95,1279.53 1838.15,1277.24 1840.34,1274.92 1842.54,1272.57 1844.74,1270.19 1846.94,1267.77 1849.14,1265.33 1851.34,1262.86 1853.54,1260.35 1855.74,1257.81 1857.94,1255.23 1860.14,1252.63 1862.34,1249.99 1864.54,1247.31 1866.73,1244.6 1868.93,1241.86 1871.13,1239.08 1873.33,1236.27 1875.53,1233.42 1877.73,1230.54 1879.93,1227.62 1882.13,1224.66 1884.33,1221.67 1886.53,1218.64 1888.73,1215.57 1890.93,1212.47 1893.13,1209.33 1895.32,1206.15 1897.52,1202.94 1899.72,1199.68 1901.92,1196.39 1904.12,1193.07 1906.32,1189.7 1908.52,1186.3 1910.72,1182.86 1912.92,1179.38 1915.12,1175.86 1917.32,1172.31 1919.52,1168.72 1921.71,1165.09 1923.91,1161.42 1926.11,1157.71 1928.31,1153.97 1930.51,1150.18 1932.71,1146.36 1934.91,1142.51 1937.11,1138.61 1939.31,1134.68 1941.51,1130.71 1943.71,1126.71 1945.91,1122.66 1948.1,1118.58 1950.3,1114.47 1952.5,1110.31 1954.7,1106.12 1956.9,1101.9 1959.1,1097.64 1961.3,1093.34 1963.5,1089.01 1965.7,1084.64 1967.9,1080.24 1970.1,1075.81 1972.3,1071.34 1974.5,1066.83 1976.69,1062.3 1978.89,1057.73 1981.09,1053.13 1983.29,1048.49 1985.49,1043.83 1987.69,1039.13 1989.89,1034.4 1992.09,1029.64 1994.29,1024.85 1996.49,1020.03 1998.69,1015.18 2000.89,1010.31 2003.08,1005.4 2005.28,1000.47 2007.48,995.51 2009.68,990.523 2011.88,985.51 2014.08,980.472 2016.28,975.409 2018.48,970.322 2020.68,965.211 2022.88,960.08 2025.08,954.928 2027.28,949.758 2029.47,944.571 2031.67,939.369 2033.87,934.153 2036.07,928.924 2038.27,923.685 2040.47,918.438 2042.67,913.183 2044.87,907.923 2047.07,902.66 2049.27,897.395 2051.47,892.131 2053.67,886.869 2055.87,881.612 2058.06,876.361 2060.26,871.119 2062.46,865.887 2064.66,860.669 2066.86,855.465 2069.06,850.28 2071.26,845.113 2073.46,839.969 2075.66,834.85 2077.86,829.757 2080.06,824.694 2082.26,819.662 2084.45,814.665 2086.65,809.705 2088.85,804.785 2091.05,799.907 2093.25,795.075 2095.45,790.29 2097.65,785.556 2099.85,780.875 2102.05,776.251 2104.25,771.686 2106.45,767.184 2108.65,762.746 2110.84,758.378 2113.04,754.08 2115.24,749.858 2117.44,745.713 2119.64,741.649 2121.84,737.669 2124.04,733.778 2126.24,729.977 2128.44,726.27 2130.64,722.661 2132.84,719.154 2135.04,715.751 2137.24,712.457 2139.43,709.274 2141.63,706.207 2143.83,703.26 2146.03,700.435 2148.23,697.737 2150.43,695.17 2152.63,692.737 2154.83,690.443 2157.03,688.29 2159.23,686.284 2161.43,684.428 2163.63,682.726 2165.82,681.183 2168.02,679.802 2170.22,678.59 2172.42,677.552 2174.62,676.69 2176.82,676.006 2179.02,675.5 2181.22,675.173 2183.42,675.027 2185.62,675.061 2187.82,675.278 2190.02,675.676 2192.22,676.257 2194.41,677.021 2196.61,677.967 2198.81,679.096 2201.01,680.407 2203.21,681.901 2205.41,683.576 2207.61,685.432 2209.81,687.469 2212.01,689.685 2214.21,692.079 2216.41,694.651 2218.61,697.398 2220.8,700.32 2223,703.415 2225.2,706.682 2227.4,710.118 2229.6,713.722 2231.8,717.491 2234,721.423 2236.2,725.517 2238.4,729.768 2240.6,734.176 2242.8,738.737 2245,743.447 2247.19,748.305 2249.39,753.307 2251.59,758.45 2253.79,763.729 2255.99,769.143 2258.19,774.686 2260.39,780.356 2262.59,786.148 2264.79,792.057 2266.99,798.081 2269.19,804.214 2271.39,810.452 2273.59,816.791 2275.78,823.224 2277.98,829.749 2280.18,836.359 2282.38,843.05 2284.58,849.815 2286.78,856.651 2288.98,863.55 2291.18,870.508 2293.38,877.518 2295.58,884.574 2297.78,891.671 2299.98,898.803 2302.17,905.962 2304.37,913.142 2306.57,920.337 2308.77,927.542 2310.97,934.752 2313.17,941.962 2315.37,949.168 2317.57,956.364 2319.77,963.546 2321.97,970.711 2324.17,977.853 2326.37,984.969 2328.56,992.055 2330.76,999.106 2332.96,1006.12 2335.16,1013.09 2337.36,1020.02 2339.56,1026.91 2341.76,1033.74 2343.96,1040.52 2346.16,1047.24 2348.36,1053.9 2350.56,1060.5 2352.76,1067.04 "/>
<polyline clip-path="url(#clip972)" style="stroke:#e26f46; stroke-linecap:round; stroke-linejoin:round; stroke-width:4; stroke-opacity:1; fill:none" points="155.765,674.88 157.964,665.925 160.163,656.883 162.362,647.758 164.562,638.552 166.761,629.27 168.96,619.913 171.159,610.487 173.358,600.994 175.558,591.44 177.757,581.827 179.956,572.16 182.155,562.444 184.354,552.684 186.554,542.883 188.753,533.049 190.952,523.184 193.151,513.296 195.35,503.388 197.55,493.467 199.749,483.538 201.948,473.608 204.147,463.681 206.346,453.764 208.545,443.864 210.745,433.986 212.944,424.137 215.143,414.322 217.342,404.549 219.541,394.824 221.741,385.154 223.94,375.545 226.139,366.004 228.338,356.537 230.537,347.151 232.737,337.852 234.936,328.646 237.135,319.541 239.334,310.541 241.533,301.654 243.733,292.884 245.932,284.239 248.131,275.724 250.33,267.346 252.529,259.109 254.728,251.02 256.928,243.085 259.127,235.307 261.326,227.692 263.525,220.245 265.724,212.971 267.924,205.874 270.123,198.958 272.322,192.228 274.521,185.687 276.72,179.339 278.92,173.186 281.119,167.233 283.318,161.482 285.517,155.936 287.716,150.597 289.916,145.467 292.115,140.548 294.314,135.842 296.513,131.35 298.712,127.074 300.911,123.015 303.111,119.173 305.31,115.549 307.509,112.143 309.708,108.955 311.907,105.986 314.107,103.236 316.306,100.703 318.505,98.3873 320.704,96.2867 322.903,94.4002 325.103,92.7265 327.302,91.264 329.501,90.0111 331.7,88.9661 333.899,88.1271 336.099,87.492 338.298,87.0589 340.497,86.8256 342.696,86.7897 344.895,86.9488 347.094,87.3004 349.294,87.8418 351.493,88.5703 353.692,89.4831 355.891,90.577 358.09,91.8492 360.29,93.2962 362.489,94.9149 364.688,96.7018 366.887,98.6534 369.086,100.766 371.286,103.036 373.485,105.459 375.684,108.032 377.883,110.752 380.082,113.616 382.281,116.621 384.481,119.764 386.68,123.039 388.879,126.444 391.078,129.976 393.277,133.63 395.477,137.403 397.676,141.293 399.875,145.295 402.074,149.406 404.273,153.622 406.473,157.942 408.672,162.361 410.871,166.875 413.07,171.483 415.269,176.181 417.469,180.965 419.668,185.833 421.867,190.781 424.066,195.807 426.265,200.907 428.464,206.08 430.664,211.32 432.863,216.627 435.062,221.997 437.261,227.427 439.46,232.915 441.66,238.457 443.859,244.052 446.058,249.696 448.257,255.387 450.456,261.123 452.656,266.902 454.855,272.72 457.054,278.577 459.253,284.469 461.452,290.394 463.652,296.352 465.851,302.338 468.05,308.351 470.249,314.39 472.448,320.452 474.647,326.536 476.847,332.639 479.046,338.759 481.245,344.896 483.444,351.047 485.643,357.21 487.843,363.384 490.042,369.567 492.241,375.757 494.44,381.954 496.639,388.155 498.839,394.359 501.038,400.565 503.237,406.772 505.436,412.977 507.635,419.18 509.835,425.38 512.034,431.574 514.233,437.763 516.432,443.945 518.631,450.119 520.83,456.284 523.03,462.439 525.229,468.583 527.428,474.715 529.627,480.834 531.826,486.94 534.026,493.032 536.225,499.108 538.424,505.169 540.623,511.213 542.822,517.238 545.022,523.246 547.221,529.233 549.42,535.201 551.619,541.148 553.818,547.073 556.018,552.977 558.217,558.857 560.416,564.715 562.615,570.549 564.814,576.359 567.013,582.144 569.213,587.904 571.412,593.637 573.611,599.345 575.81,605.026 578.009,610.679 580.209,616.305 582.408,621.903 584.607,627.472 586.806,633.013 589.005,638.524 591.205,644.006 593.404,649.457 595.603,654.879 597.802,660.27 600.001,665.63 602.201,670.959 604.4,676.256 606.599,681.522 608.798,686.756 610.997,691.958 613.196,697.127 615.396,702.265 617.595,707.369 619.794,712.441 621.993,717.479 624.192,722.485 626.392,727.458 628.591,732.397 630.79,737.303 632.989,742.176 635.188,747.015 637.388,751.82 639.587,756.591 641.786,761.328 643.985,766.031 646.184,770.7 648.384,775.334 650.583,779.934 652.782,784.499 654.981,789.03 657.18,793.527 659.379,797.989 661.579,802.416 663.778,806.808 665.977,811.166 668.176,815.489 670.375,819.777 672.575,824.031 674.774,828.249 676.973,832.433 679.172,836.582 681.371,840.695 683.571,844.774 685.77,848.818 687.969,852.827 690.168,856.801 692.367,860.74 694.567,864.645 696.766,868.514 698.965,872.348 701.164,876.147 703.363,879.912 705.562,883.641 707.762,887.335 709.961,890.995 712.16,894.62 714.359,898.21 716.558,901.765 718.758,905.285 720.957,908.771 723.156,912.222 725.355,915.638 727.554,919.02 729.754,922.367 731.953,925.68 734.152,928.958 736.351,932.202 738.55,935.412 740.749,938.587 742.949,941.728 745.148,944.835 747.347,947.907 749.546,950.945 751.745,953.948 753.945,956.918 756.144,959.853 758.343,962.754 760.542,965.62 762.741,968.453 764.941,971.252 767.14,974.016 769.339,976.747 771.538,979.443 773.737,982.106 775.937,984.734 778.136,987.329 780.335,989.89 782.534,992.416 784.733,994.909 786.932,997.368 789.132,999.793 791.331,1002.18 793.53,1004.54 795.729,1006.86 797.928,1009.15 800.128,1011.41 802.327,1013.63 804.526,1015.81 806.725,1017.97 808.924,1020.09 811.124,1022.17 813.323,1024.22 815.522,1026.24 817.721,1028.22 819.92,1030.16 822.12,1032.08 824.319,1033.96 826.518,1035.8 828.717,1037.61 830.916,1039.38 833.115,1041.12 835.315,1042.83 837.514,1044.5 839.713,1046.13 841.912,1047.73 844.111,1049.3 846.311,1050.83 848.51,1052.32 850.709,1053.78 852.908,1055.21 855.107,1056.6 857.307,1057.95 859.506,1059.27 861.705,1060.55 863.904,1061.79 866.103,1063 868.303,1064.18 870.502,1065.31 872.701,1066.41 874.9,1067.48 877.099,1068.5 879.298,1069.49 881.498,1070.44 883.697,1071.35 885.896,1072.23 888.095,1073.07 890.294,1073.86 892.494,1074.62 894.693,1075.34 896.892,1076.03 899.091,1076.67 901.29,1077.27 903.49,1077.84 905.689,1078.36 907.888,1078.85 910.087,1079.29 912.286,1079.7 914.486,1080.06 916.685,1080.38 918.884,1080.66 921.083,1080.9 923.282,1081.1 925.481,1081.26 927.681,1081.37 929.88,1081.44 932.079,1081.46 934.278,1081.45 936.477,1081.38 938.677,1081.28 940.876,1081.13 943.075,1080.93 945.274,1080.68 947.473,1080.39 949.673,1080.06 951.872,1079.67 954.071,1079.24 956.27,1078.76 958.469,1078.22 960.669,1077.64 962.868,1077.01 965.067,1076.33 967.266,1075.6 969.465,1074.81 971.664,1073.97 973.864,1073.08 976.063,1072.13 978.262,1071.13 980.461,1070.07 982.66,1068.96 984.86,1067.79 987.059,1066.56 989.258,1065.28 991.457,1063.93 993.656,1062.53 995.856,1061.06 998.055,1059.53 1000.25,1057.94 1002.45,1056.29 1004.65,1054.57 1006.85,1052.79 1009.05,1050.94 1011.25,1049.03 1013.45,1047.05 1015.65,1045 1017.85,1042.88 1020.05,1040.69 1022.25,1038.43 1024.45,1036.1 1026.64,1033.69 1028.84,1031.21 1031.04,1028.65 1033.24,1026.02 1035.44,1023.32 1037.64,1020.54 1039.84,1017.68 1042.04,1014.75 1044.24,1011.73 1046.44,1008.63 1048.64,1005.45 1050.84,1002.18 1053.03,998.827 1055.23,995.385 1057.43,991.853 1059.63,988.231 1061.83,984.518 1064.03,980.711 1066.23,976.81 1068.43,972.814 1070.63,968.721 1072.83,964.531 1075.03,960.242 1077.23,955.854 1079.42,951.365 1081.62,946.775 1083.82,942.083 1086.02,937.288 1088.22,932.39 1090.42,927.387 1092.62,922.279 1094.82,917.065 1097.02,911.744 1099.22,906.317 1101.42,900.783 1103.62,895.14 1105.82,889.39 1108.01,883.53 1110.21,877.562 1112.41,871.484 1114.61,865.296 1116.81,858.999 1119.01,852.592 1121.21,846.074 1123.41,839.446 1125.61,832.708 1127.81,825.859 1130.01,818.9 1132.21,811.831 1134.4,804.651 1136.6,797.361 1138.8,789.962 1141,782.453 1143.2,774.834 1145.4,767.106 1147.6,759.27 1149.8,751.325 1152,743.272 1154.2,735.112 1156.4,726.845 1158.6,718.472 1160.79,709.993 1162.99,701.395 1165.19,692.674 1167.39,683.836 1169.59,674.888 1171.79,665.836 1173.99,656.686 1176.19,647.445 1178.39,638.12 1180.59,628.715 1182.79,619.237 1184.99,609.693 1187.19,600.089 1189.38,590.431 1191.58,580.724 1193.78,570.974 1195.98,561.188 1198.18,551.372 1200.38,541.531 1202.58,531.671 1204.78,521.797 1206.98,511.916 1209.18,502.034 1211.38,492.154 1213.58,482.285 1215.77,472.43 1217.97,462.595 1220.17,452.786 1222.37,443.008 1224.57,433.267 1226.77,423.567 1228.97,413.915 1231.17,404.314 1233.37,394.771 1235.57,385.291 1237.77,375.878 1239.97,366.538 1242.16,357.276 1244.36,348.096 1246.56,339.004 1248.76,330.004 1250.96,321.102 1253.16,312.301 1255.36,303.607 1257.56,295.025 1259.76,286.559 1261.96,278.213 1264.16,269.993 1266.36,261.902 1268.56,253.946 1270.75,246.128 1272.95,238.454 1275.15,230.926 1277.35,223.551 1279.55,216.331 1281.75,209.272 1283.95,202.377 1286.15,195.65 1288.35,189.096 1290.55,182.718 1292.75,176.521 1294.95,170.509 1297.14,164.685 1299.34,159.053 1301.54,153.617 1303.74,148.381 1305.94,143.348 1308.14,138.523 1310.34,133.909 1312.54,129.506 1314.74,125.315 1316.94,121.337 1319.14,117.573 1321.34,114.024 1323.53,110.688 1325.73,107.568 1327.93,104.662 1330.13,101.971 1332.33,99.494 1334.53,97.2311 1336.73,95.1817 1338.93,93.3451 1341.13,91.7205 1343.33,90.3068 1345.53,89.1032 1347.73,88.1082 1349.93,87.3205 1352.12,86.7387 1354.32,86.361 1356.52,86.1857 1358.72,86.2108 1360.92,86.4343 1363.12,86.854 1365.32,87.4674 1367.52,88.2722 1369.72,89.2657 1371.92,90.445 1374.12,91.8073 1376.32,93.3495 1378.51,95.0685 1380.71,96.9608 1382.91,99.0231 1385.11,101.252 1387.31,103.643 1389.51,106.192 1391.71,108.897 1393.91,111.751 1396.11,114.752 1398.31,117.894 1400.51,121.174 1402.71,124.585 1404.9,128.125 1407.1,131.786 1409.3,135.565 1411.5,139.455 1413.7,143.452 1415.9,147.55 1418.1,151.743 1420.3,156.025 1422.5,160.392 1424.7,164.851 1426.9,169.405 1429.1,174.051 1431.3,178.785 1433.49,183.604 1435.69,188.505 1437.89,193.486 1440.09,198.542 1442.29,203.671 1444.49,208.871 1446.69,214.138 1448.89,219.469 1451.09,224.861 1453.29,230.313 1455.49,235.821 1457.69,241.382 1459.88,246.994 1462.08,252.655 1464.28,258.362 1466.48,264.112 1468.68,269.904 1470.88,275.735 1473.08,281.602 1475.28,287.504 1477.48,293.437 1479.68,299.401 1481.88,305.393 1484.08,311.411 1486.27,317.453 1488.47,323.517 1490.67,329.601 1492.87,335.703 1495.07,341.823 1497.27,347.957 1499.47,354.104 1501.67,360.262 1503.87,366.431 1506.07,372.608 1508.27,378.792 1510.47,384.981 1512.67,391.175 1514.86,397.372 1517.06,403.57 1519.26,409.768 1521.46,415.965 1523.66,422.161 1525.86,428.353 1528.06,434.541 1530.26,440.724 1532.46,446.901 1534.66,453.069 1536.86,459.228 1539.06,465.376 1541.25,471.512 1543.45,477.636 1545.65,483.747 1547.85,489.844 1550.05,495.926 1552.25,501.993 1554.45,508.043 1556.65,514.076 1558.85,520.091 1561.05,526.088 1563.25,532.065 1565.45,538.022 1567.65,543.959 1569.84,549.875 1572.04,555.768 1574.24,561.639 1576.44,567.487 1578.64,573.311 1580.84,579.111 1583.04,584.886 1585.24,590.636 1587.44,596.359 1589.64,602.056 1591.84,607.726 1594.04,613.369 1596.23,618.984 1598.43,624.57 1600.63,630.128 1602.83,635.657 1605.03,641.155 1607.23,646.624 1609.43,652.063 1611.63,657.47 1613.83,662.847 1616.03,668.193 1618.23,673.506 1620.43,678.788 1622.62,684.037 1624.82,689.254 1627.02,694.438 1629.22,699.59 1631.42,704.708 1633.62,709.792 1635.82,714.843 1638.02,719.861 1640.22,724.844 1642.42,729.793 1644.62,734.709 1646.82,739.59 1649.02,744.437 1651.21,749.249 1653.41,754.027 1655.61,758.77 1657.81,763.479 1660.01,768.154 1662.21,772.794 1664.41,777.4 1666.61,781.971 1668.81,786.508 1671.01,791.01 1673.21,795.478 1675.41,799.913 1677.6,804.313 1679.8,808.679 1682,813.012 1684.2,817.311 1686.4,821.577 1688.6,825.81 1690.8,830.01 1693,834.177 1695.2,838.312 1697.4,842.411 1699.6,846.476 1701.8,850.505 1703.99,854.5 1706.19,858.459 1708.39,862.384 1710.59,866.274 1712.79,870.129 1714.99,873.949 1717.19,877.734 1719.39,881.485 1721.59,885.201 1723.79,888.882 1725.99,892.528 1728.19,896.14 1730.39,899.717 1732.58,903.259 1734.78,906.767 1736.98,910.24 1739.18,913.678 1741.38,917.082 1743.58,920.452 1745.78,923.787 1747.98,927.087 1750.18,930.353 1752.38,933.584 1754.58,936.781 1756.78,939.944 1758.97,943.072 1761.17,946.165 1763.37,949.225 1765.57,952.25 1767.77,955.24 1769.97,958.197 1772.17,961.119 1774.37,964.006 1776.57,966.86 1778.77,969.679 1780.97,972.464 1783.17,975.215 1785.36,977.932 1787.56,980.614 1789.76,983.263 1791.96,985.877 1794.16,988.457 1796.36,991.003 1798.56,993.515 1800.76,995.993 1802.96,998.436 1805.16,1000.85 1807.36,1003.22 1809.56,1005.56 1811.76,1007.87 1813.95,1010.14 1816.15,1012.38 1818.35,1014.59 1820.55,1016.76 1822.75,1018.9 1824.95,1021 1827.15,1023.07 1829.35,1025.11 1831.55,1027.11 1833.75,1029.07 1835.95,1031 1838.15,1032.9 1840.34,1034.75 1842.54,1036.58 1844.74,1038.37 1846.94,1040.13 1849.14,1041.85 1851.34,1043.53 1853.54,1045.19 1855.74,1046.8 1857.94,1048.38 1860.14,1049.93 1862.34,1051.44 1864.54,1052.92 1866.73,1054.37 1868.93,1055.77 1871.13,1057.15 1873.33,1058.48 1875.53,1059.79 1877.73,1061.05 1879.93,1062.28 1882.13,1063.48 1884.33,1064.64 1886.53,1065.76 1888.73,1066.85 1890.93,1067.9 1893.13,1068.92 1895.32,1069.9 1897.52,1070.84 1899.72,1071.74 1901.92,1072.61 1904.12,1073.44 1906.32,1074.23 1908.52,1074.98 1910.72,1075.7 1912.92,1076.38 1915.12,1077.01 1917.32,1077.61 1919.52,1078.17 1921.71,1078.69 1923.91,1079.17 1926.11,1079.61 1928.31,1080.01 1930.51,1080.37 1932.71,1080.68 1934.91,1080.96 1937.11,1081.19 1939.31,1081.38 1941.51,1081.52 1943.71,1081.63 1945.91,1081.69 1948.1,1081.7 1950.3,1081.67 1952.5,1081.6 1954.7,1081.48 1956.9,1081.31 1959.1,1081.1 1961.3,1080.84 1963.5,1080.53 1965.7,1080.18 1967.9,1079.77 1970.1,1079.32 1972.3,1078.82 1974.5,1078.27 1976.69,1077.66 1978.89,1077.01 1981.09,1076.3 1983.29,1075.55 1985.49,1074.74 1987.69,1073.87 1989.89,1072.95 1992.09,1071.98 1994.29,1070.95 1996.49,1069.87 1998.69,1068.72 2000.89,1067.53 2003.08,1066.27 2005.28,1064.95 2007.48,1063.58 2009.68,1062.15 2011.88,1060.65 2014.08,1059.09 2016.28,1057.47 2018.48,1055.8 2020.68,1054.06 2022.88,1052.26 2025.08,1050.39 2027.28,1048.46 2029.47,1046.46 2031.67,1044.39 2033.87,1042.26 2036.07,1040.05 2038.27,1037.77 2040.47,1035.42 2042.67,1032.99 2044.87,1030.49 2047.07,1027.91 2049.27,1025.25 2051.47,1022.51 2053.67,1019.69 2055.87,1016.79 2058.06,1013.8 2060.26,1010.74 2062.46,1007.58 2064.66,1004.34 2066.86,1001.02 2069.06,997.601 2071.26,994.097 2073.46,990.502 2075.66,986.816 2077.86,983.038 2080.06,979.167 2082.26,975.203 2084.45,971.143 2086.65,966.987 2088.85,962.735 2091.05,958.386 2093.25,953.939 2095.45,949.392 2097.65,944.747 2099.85,940 2102.05,935.153 2104.25,930.204 2106.45,925.152 2108.65,919.998 2110.84,914.739 2113.04,909.377 2115.24,903.909 2117.44,898.336 2119.64,892.657 2121.84,886.871 2124.04,880.978 2126.24,874.978 2128.44,868.869 2130.64,862.652 2132.84,856.327 2135.04,849.892 2137.24,843.347 2139.43,836.692 2141.63,829.927 2143.83,823.05 2146.03,816.063 2148.23,808.965 2150.43,801.755 2152.63,794.433 2154.83,786.999 2157.03,779.453 2159.23,771.795 2161.43,764.023 2163.63,756.139 2165.82,748.143 2168.02,740.033 2170.22,731.805 2172.42,723.452 2174.62,714.98 2176.82,706.392 2179.02,697.695 2181.22,688.892 2183.42,679.989 2185.62,670.99 2187.82,661.901 2190.02,652.727 2192.22,643.472 2194.41,634.142 2196.61,624.741 2198.81,615.275 2201.01,605.749 2203.21,596.167 2205.41,586.535 2207.61,576.857 2209.81,567.139 2212.01,557.386 2214.21,547.603 2216.41,537.795 2218.61,527.967 2220.8,518.124 2223,508.271 2225.2,498.414 2227.4,488.557 2229.6,478.706 2231.8,468.866 2234,459.042 2236.2,449.24 2238.4,439.463 2240.6,429.719 2242.8,420.011 2245,410.345 2247.19,400.726 2249.39,391.161 2251.59,381.652 2253.79,372.207 2255.99,362.83 2258.19,353.527 2260.39,344.303 2262.59,335.163 2264.79,326.112 2266.99,317.156 2269.19,308.301 2271.39,299.551 2273.59,290.912 2275.78,282.389 2277.98,273.987 2280.18,265.713 2282.38,257.571 2284.58,249.567 2286.78,241.706 2288.98,233.993 2291.18,226.435 2293.38,219.036 2295.58,211.802 2297.78,204.739 2299.98,197.852 2302.17,191.146 2304.37,184.628 2306.57,178.303 2308.77,172.175 2310.97,166.247 2313.17,160.521 2315.37,155.001 2317.57,149.687 2319.77,144.584 2321.97,139.691 2324.17,135.012 2326.37,130.548 2328.56,126.3 2330.76,122.268 2332.96,118.454 2335.16,114.858 2337.36,111.481 2339.56,108.322 2341.76,105.381 2343.96,102.659 2346.16,100.154 2348.36,97.8659 2350.56,95.7932 2352.76,93.9347 "/>
<path clip-path="url(#clip970)" d="M1970.73 1377.32 L2279.52 1377.32 L2279.52 1221.8 L1970.73 1221.8  Z" fill="#ffffff" fill-rule="evenodd" fill-opacity="1"/>
<polyline clip-path="url(#clip970)" style="stroke:#000000; stroke-linecap:round; stroke-linejoin:round; stroke-width:4; stroke-opacity:1; fill:none" points="1970.73,1377.32 2279.52,1377.32 2279.52,1221.8 1970.73,1221.8 1970.73,1377.32 "/>
<polyline clip-path="url(#clip970)" style="stroke:#009af9; stroke-linecap:round; stroke-linejoin:round; stroke-width:4; stroke-opacity:1; fill:none" points="1995.14,1273.64 2141.6,1273.64 "/>
<path clip-path="url(#clip970)" d="M2166.02 1280.68 L2166.02 1264.99 L2170.27 1264.99 L2170.27 1280.52 Q2170.27 1284.2 2171.71 1286.05 Q2173.14 1287.88 2176.02 1287.88 Q2179.46 1287.88 2181.45 1285.68 Q2183.47 1283.48 2183.47 1279.69 L2183.47 1264.99 L2187.73 1264.99 L2187.73 1290.92 L2183.47 1290.92 L2183.47 1286.93 Q2181.92 1289.29 2179.86 1290.45 Q2177.82 1291.59 2175.11 1291.59 Q2170.64 1291.59 2168.33 1288.81 Q2166.02 1286.03 2166.02 1280.68 M2176.73 1264.36 L2176.73 1264.36 Z" fill="#000000" fill-rule="nonzero" fill-opacity="1" /><path clip-path="url(#clip970)" d="M2196.11 1254.9 L2205.92 1254.9 L2205.92 1258.21 L2200.37 1258.21 L2200.37 1293.86 L2205.92 1293.86 L2205.92 1297.17 L2196.11 1297.17 L2196.11 1254.9 Z" fill="#000000" fill-rule="nonzero" fill-opacity="1" /><path clip-path="url(#clip970)" d="M2216.41 1286.98 L2224.05 1286.98 L2224.05 1260.61 L2215.74 1262.28 L2215.74 1258.02 L2224 1256.36 L2228.68 1256.36 L2228.68 1286.98 L2236.32 1286.98 L2236.32 1290.92 L2216.41 1290.92 L2216.41 1286.98 Z" fill="#000000" fill-rule="nonzero" fill-opacity="1" /><path clip-path="url(#clip970)" d="M2255.11 1254.9 L2255.11 1297.17 L2245.3 1297.17 L2245.3 1293.86 L2250.83 1293.86 L2250.83 1258.21 L2245.3 1258.21 L2245.3 1254.9 L2255.11 1254.9 Z" fill="#000000" fill-rule="nonzero" fill-opacity="1" /><polyline clip-path="url(#clip970)" style="stroke:#e26f46; stroke-linecap:round; stroke-linejoin:round; stroke-width:4; stroke-opacity:1; fill:none" points="1995.14,1325.48 2141.6,1325.48 "/>
<path clip-path="url(#clip970)" d="M2166.02 1332.52 L2166.02 1316.83 L2170.27 1316.83 L2170.27 1332.36 Q2170.27 1336.04 2171.71 1337.89 Q2173.14 1339.72 2176.02 1339.72 Q2179.46 1339.72 2181.45 1337.52 Q2183.47 1335.32 2183.47 1331.53 L2183.47 1316.83 L2187.73 1316.83 L2187.73 1342.76 L2183.47 1342.76 L2183.47 1338.77 Q2181.92 1341.13 2179.86 1342.29 Q2177.82 1343.43 2175.11 1343.43 Q2170.64 1343.43 2168.33 1340.65 Q2166.02 1337.87 2166.02 1332.52 M2176.73 1316.2 L2176.73 1316.2 Z" fill="#000000" fill-rule="nonzero" fill-opacity="1" /><path clip-path="url(#clip970)" d="M2196.11 1306.74 L2205.92 1306.74 L2205.92 1310.05 L2200.37 1310.05 L2200.37 1345.7 L2205.92 1345.7 L2205.92 1349.01 L2196.11 1349.01 L2196.11 1306.74 Z" fill="#000000" fill-rule="nonzero" fill-opacity="1" /><path clip-path="url(#clip970)" d="M2219.63 1338.82 L2235.95 1338.82 L2235.95 1342.76 L2214 1342.76 L2214 1338.82 Q2216.66 1336.07 2221.25 1331.44 Q2225.85 1326.78 2227.03 1325.44 Q2229.28 1322.92 2230.16 1321.18 Q2231.06 1319.42 2231.06 1317.73 Q2231.06 1314.98 2229.12 1313.24 Q2227.2 1311.51 2224.09 1311.51 Q2221.89 1311.51 2219.44 1312.27 Q2217.01 1313.03 2214.23 1314.58 L2214.23 1309.86 Q2217.06 1308.73 2219.51 1308.15 Q2221.96 1307.57 2224 1307.57 Q2229.37 1307.57 2232.57 1310.26 Q2235.76 1312.94 2235.76 1317.43 Q2235.76 1319.56 2234.95 1321.48 Q2234.16 1323.38 2232.06 1325.97 Q2231.48 1326.64 2228.38 1329.86 Q2225.27 1333.06 2219.63 1338.82 Z" fill="#000000" fill-rule="nonzero" fill-opacity="1" /><path clip-path="url(#clip970)" d="M2255.11 1306.74 L2255.11 1349.01 L2245.3 1349.01 L2245.3 1345.7 L2250.83 1345.7 L2250.83 1310.05 L2245.3 1310.05 L2245.3 1306.74 L2255.11 1306.74 Z" fill="#000000" fill-rule="nonzero" fill-opacity="1" /></svg>
