<?xml version="1.0" encoding="utf-8"?>
<svg xmlns="http://www.w3.org/2000/svg" xmlns:xlink="http://www.w3.org/1999/xlink" width="600" height="400" viewBox="0 0 2400 1600">
<defs>
  <clipPath id="clip660">
    <rect x="0" y="0" width="2400" height="1600"/>
  </clipPath>
</defs>
<path clip-path="url(#clip660)" d="M0 1600 L2400 1600 L2400 0 L0 0  Z" fill="#ffffff" fill-rule="evenodd" fill-opacity="1"/>
<defs>
  <clipPath id="clip661">
    <rect x="480" y="0" width="1681" height="1600"/>
  </clipPath>
</defs>
<path clip-path="url(#clip660)" d="M186.274 1423.18 L2352.76 1423.18 L2352.76 47.2441 L186.274 47.2441  Z" fill="#ffffff" fill-rule="evenodd" fill-opacity="1"/>
<defs>
  <clipPath id="clip662">
    <rect x="186" y="47" width="2167" height="1377"/>
  </clipPath>
</defs>
<polyline clip-path="url(#clip662)" style="stroke:#000000; stroke-linecap:round; stroke-linejoin:round; stroke-width:2; stroke-opacity:0.1; fill:none" points="186.274,1423.18 186.274,47.2441 "/>
<polyline clip-path="url(#clip662)" style="stroke:#000000; stroke-linecap:round; stroke-linejoin:round; stroke-width:2; stroke-opacity:0.1; fill:none" points="908.435,1423.18 908.435,47.2441 "/>
<polyline clip-path="url(#clip662)" style="stroke:#000000; stroke-linecap:round; stroke-linejoin:round; stroke-width:2; stroke-opacity:0.1; fill:none" points="1630.6,1423.18 1630.6,47.2441 "/>
<polyline clip-path="url(#clip662)" style="stroke:#000000; stroke-linecap:round; stroke-linejoin:round; stroke-width:2; stroke-opacity:0.1; fill:none" points="2352.76,1423.18 2352.76,47.2441 "/>
<polyline clip-path="url(#clip662)" style="stroke:#000000; stroke-linecap:round; stroke-linejoin:round; stroke-width:2; stroke-opacity:0.1; fill:none" points="186.274,1384.24 2352.76,1384.24 "/>
<polyline clip-path="url(#clip662)" style="stroke:#000000; stroke-linecap:round; stroke-linejoin:round; stroke-width:2; stroke-opacity:0.1; fill:none" points="186.274,1059.73 2352.76,1059.73 "/>
<polyline clip-path="url(#clip662)" style="stroke:#000000; stroke-linecap:round; stroke-linejoin:round; stroke-width:2; stroke-opacity:0.1; fill:none" points="186.274,735.212 2352.76,735.212 "/>
<polyline clip-path="url(#clip662)" style="stroke:#000000; stroke-linecap:round; stroke-linejoin:round; stroke-width:2; stroke-opacity:0.1; fill:none" points="186.274,410.699 2352.76,410.699 "/>
<polyline clip-path="url(#clip662)" style="stroke:#000000; stroke-linecap:round; stroke-linejoin:round; stroke-width:2; stroke-opacity:0.1; fill:none" points="186.274,86.1857 2352.76,86.1857 "/>
<polyline clip-path="url(#clip660)" style="stroke:#000000; stroke-linecap:round; stroke-linejoin:round; stroke-width:4; stroke-opacity:1; fill:none" points="186.274,1423.18 2352.76,1423.18 "/>
<polyline clip-path="url(#clip660)" style="stroke:#000000; stroke-linecap:round; stroke-linejoin:round; stroke-width:4; stroke-opacity:1; fill:none" points="186.274,1423.18 186.274,1404.28 "/>
<polyline clip-path="url(#clip660)" style="stroke:#000000; stroke-linecap:round; stroke-linejoin:round; stroke-width:4; stroke-opacity:1; fill:none" points="908.435,1423.18 908.435,1404.28 "/>
<polyline clip-path="url(#clip660)" style="stroke:#000000; stroke-linecap:round; stroke-linejoin:round; stroke-width:4; stroke-opacity:1; fill:none" points="1630.6,1423.18 1630.6,1404.28 "/>
<polyline clip-path="url(#clip660)" style="stroke:#000000; stroke-linecap:round; stroke-linejoin:round; stroke-width:4; stroke-opacity:1; fill:none" points="2352.76,1423.18 2352.76,1404.28 "/>
<path clip-path="url(#clip660)" d="M186.274 1454.1 Q182.663 1454.1 180.834 1457.66 Q179.029 1461.2 179.029 1468.33 Q179.029 1475.44 180.834 1479.01 Q182.663 1482.55 186.274 1482.55 Q189.908 1482.55 191.714 1479.01 Q193.542 1475.44 193.542 1468.33 Q193.542 1461.2 191.714 1457.66 Q189.908 1454.1 186.274 1454.1 M186.274 1450.39 Q192.084 1450.39 195.14 1455 Q198.218 1459.58 198.218 1468.33 Q198.218 1477.06 195.14 1481.67 Q192.084 1486.25 186.274 1486.25 Q180.464 1486.25 177.385 1481.67 Q174.33 1477.06 174.33 1468.33 Q174.33 1459.58 177.385 1455 Q180.464 1450.39 186.274 1450.39 Z" fill="#000000" fill-rule="nonzero" fill-opacity="1" /><path clip-path="url(#clip660)" d="M898.817 1481.64 L906.455 1481.64 L906.455 1455.28 L898.145 1456.95 L898.145 1452.69 L906.409 1451.02 L911.085 1451.02 L911.085 1481.64 L918.724 1481.64 L918.724 1485.58 L898.817 1485.58 L898.817 1481.64 Z" fill="#000000" fill-rule="nonzero" fill-opacity="1" /><path clip-path="url(#clip660)" d="M1625.25 1481.64 L1641.57 1481.64 L1641.57 1485.58 L1619.62 1485.58 L1619.62 1481.64 Q1622.29 1478.89 1626.87 1474.26 Q1631.47 1469.61 1632.66 1468.27 Q1634.9 1465.74 1635.78 1464.01 Q1636.68 1462.25 1636.68 1460.56 Q1636.68 1457.8 1634.74 1456.07 Q1632.82 1454.33 1629.72 1454.33 Q1627.52 1454.33 1625.06 1455.09 Q1622.63 1455.86 1619.85 1457.41 L1619.85 1452.69 Q1622.68 1451.55 1625.13 1450.97 Q1627.59 1450.39 1629.62 1450.39 Q1634.99 1450.39 1638.19 1453.08 Q1641.38 1455.77 1641.38 1460.26 Q1641.38 1462.39 1640.57 1464.31 Q1639.79 1466.2 1637.68 1468.8 Q1637.1 1469.47 1634 1472.69 Q1630.9 1475.88 1625.25 1481.64 Z" fill="#000000" fill-rule="nonzero" fill-opacity="1" /><path clip-path="url(#clip660)" d="M2357 1466.95 Q2360.36 1467.66 2362.24 1469.93 Q2364.13 1472.2 2364.13 1475.53 Q2364.13 1480.65 2360.61 1483.45 Q2357.1 1486.25 2350.61 1486.25 Q2348.44 1486.25 2346.12 1485.81 Q2343.83 1485.39 2341.38 1484.54 L2341.38 1480.02 Q2343.32 1481.16 2345.64 1481.74 Q2347.95 1482.32 2350.48 1482.32 Q2354.87 1482.32 2357.17 1480.58 Q2359.48 1478.84 2359.48 1475.53 Q2359.48 1472.48 2357.33 1470.77 Q2355.2 1469.03 2351.38 1469.03 L2347.35 1469.03 L2347.35 1465.19 L2351.56 1465.19 Q2355.01 1465.19 2356.84 1463.82 Q2358.67 1462.43 2358.67 1459.84 Q2358.67 1457.18 2356.77 1455.77 Q2354.9 1454.33 2351.38 1454.33 Q2349.46 1454.33 2347.26 1454.75 Q2345.06 1455.16 2342.42 1456.04 L2342.42 1451.88 Q2345.08 1451.14 2347.4 1450.77 Q2349.74 1450.39 2351.8 1450.39 Q2357.12 1450.39 2360.22 1452.83 Q2363.32 1455.23 2363.32 1459.35 Q2363.32 1462.22 2361.68 1464.21 Q2360.04 1466.18 2357 1466.95 Z" fill="#000000" fill-rule="nonzero" fill-opacity="1" /><path clip-path="url(#clip660)" d="M1268.58 1522.27 L1268.58 1532.4 L1280.64 1532.4 L1280.64 1536.95 L1268.58 1536.95 L1268.58 1556.3 Q1268.58 1560.66 1269.75 1561.9 Q1270.96 1563.14 1274.62 1563.14 L1280.64 1563.14 L1280.64 1568.04 L1274.62 1568.04 Q1267.84 1568.04 1265.27 1565.53 Q1262.69 1562.98 1262.69 1556.3 L1262.69 1536.95 L1258.39 1536.95 L1258.39 1532.4 L1262.69 1532.4 L1262.69 1522.27 L1268.58 1522.27 Z" fill="#000000" fill-rule="nonzero" fill-opacity="1" /><polyline clip-path="url(#clip660)" style="stroke:#000000; stroke-linecap:round; stroke-linejoin:round; stroke-width:4; stroke-opacity:1; fill:none" points="186.274,1423.18 186.274,47.2441 "/>
<polyline clip-path="url(#clip660)" style="stroke:#000000; stroke-linecap:round; stroke-linejoin:round; stroke-width:4; stroke-opacity:1; fill:none" points="186.274,1384.24 205.172,1384.24 "/>
<polyline clip-path="url(#clip660)" style="stroke:#000000; stroke-linecap:round; stroke-linejoin:round; stroke-width:4; stroke-opacity:1; fill:none" points="186.274,1059.73 205.172,1059.73 "/>
<polyline clip-path="url(#clip660)" style="stroke:#000000; stroke-linecap:round; stroke-linejoin:round; stroke-width:4; stroke-opacity:1; fill:none" points="186.274,735.212 205.172,735.212 "/>
<polyline clip-path="url(#clip660)" style="stroke:#000000; stroke-linecap:round; stroke-linejoin:round; stroke-width:4; stroke-opacity:1; fill:none" points="186.274,410.699 205.172,410.699 "/>
<polyline clip-path="url(#clip660)" style="stroke:#000000; stroke-linecap:round; stroke-linejoin:round; stroke-width:4; stroke-opacity:1; fill:none" points="186.274,86.1857 205.172,86.1857 "/>
<path clip-path="url(#clip660)" d="M62.9365 1370.04 Q59.3254 1370.04 57.4967 1373.6 Q55.6912 1377.14 55.6912 1384.27 Q55.6912 1391.38 57.4967 1394.94 Q59.3254 1398.49 62.9365 1398.49 Q66.5707 1398.49 68.3763 1394.94 Q70.205 1391.38 70.205 1384.27 Q70.205 1377.14 68.3763 1373.6 Q66.5707 1370.04 62.9365 1370.04 M62.9365 1366.33 Q68.7467 1366.33 71.8022 1370.94 Q74.8809 1375.52 74.8809 1384.27 Q74.8809 1393 71.8022 1397.61 Q68.7467 1402.19 62.9365 1402.19 Q57.1264 1402.19 54.0477 1397.61 Q50.9921 1393 50.9921 1384.27 Q50.9921 1375.52 54.0477 1370.94 Q57.1264 1366.33 62.9365 1366.33 Z" fill="#000000" fill-rule="nonzero" fill-opacity="1" /><path clip-path="url(#clip660)" d="M83.0984 1395.64 L87.9827 1395.64 L87.9827 1401.52 L83.0984 1401.52 L83.0984 1395.64 Z" fill="#000000" fill-rule="nonzero" fill-opacity="1" /><path clip-path="url(#clip660)" d="M108.168 1370.04 Q104.557 1370.04 102.728 1373.6 Q100.922 1377.14 100.922 1384.27 Q100.922 1391.38 102.728 1394.94 Q104.557 1398.49 108.168 1398.49 Q111.802 1398.49 113.608 1394.94 Q115.436 1391.38 115.436 1384.27 Q115.436 1377.14 113.608 1373.6 Q111.802 1370.04 108.168 1370.04 M108.168 1366.33 Q113.978 1366.33 117.033 1370.94 Q120.112 1375.52 120.112 1384.27 Q120.112 1393 117.033 1397.61 Q113.978 1402.19 108.168 1402.19 Q102.358 1402.19 99.2789 1397.61 Q96.2234 1393 96.2234 1384.27 Q96.2234 1375.52 99.2789 1370.94 Q102.358 1366.33 108.168 1366.33 Z" fill="#000000" fill-rule="nonzero" fill-opacity="1" /><path clip-path="url(#clip660)" d="M138.33 1370.04 Q134.719 1370.04 132.89 1373.6 Q131.084 1377.14 131.084 1384.27 Q131.084 1391.38 132.89 1394.94 Q134.719 1398.49 138.33 1398.49 Q141.964 1398.49 143.769 1394.94 Q145.598 1391.38 145.598 1384.27 Q145.598 1377.14 143.769 1373.6 Q141.964 1370.04 138.33 1370.04 M138.33 1366.33 Q144.14 1366.33 147.195 1370.94 Q150.274 1375.52 150.274 1384.27 Q150.274 1393 147.195 1397.61 Q144.14 1402.19 138.33 1402.19 Q132.519 1402.19 129.441 1397.61 Q126.385 1393 126.385 1384.27 Q126.385 1375.52 129.441 1370.94 Q132.519 1366.33 138.33 1366.33 Z" fill="#000000" fill-rule="nonzero" fill-opacity="1" /><path clip-path="url(#clip660)" d="M63.9319 1045.52 Q60.3208 1045.52 58.4921 1049.09 Q56.6865 1052.63 56.6865 1059.76 Q56.6865 1066.87 58.4921 1070.43 Q60.3208 1073.97 63.9319 1073.97 Q67.5661 1073.97 69.3717 1070.43 Q71.2004 1066.87 71.2004 1059.76 Q71.2004 1052.63 69.3717 1049.09 Q67.5661 1045.52 63.9319 1045.52 M63.9319 1041.82 Q69.742 1041.82 72.7976 1046.43 Q75.8763 1051.01 75.8763 1059.76 Q75.8763 1068.49 72.7976 1073.09 Q69.742 1077.68 63.9319 1077.68 Q58.1217 1077.68 55.043 1073.09 Q51.9875 1068.49 51.9875 1059.76 Q51.9875 1051.01 55.043 1046.43 Q58.1217 1041.82 63.9319 1041.82 Z" fill="#000000" fill-rule="nonzero" fill-opacity="1" /><path clip-path="url(#clip660)" d="M84.0938 1071.13 L88.978 1071.13 L88.978 1077.01 L84.0938 1077.01 L84.0938 1071.13 Z" fill="#000000" fill-rule="nonzero" fill-opacity="1" /><path clip-path="url(#clip660)" d="M103.191 1073.07 L119.51 1073.07 L119.51 1077.01 L97.566 1077.01 L97.566 1073.07 Q100.228 1070.32 104.811 1065.69 Q109.418 1061.03 110.598 1059.69 Q112.844 1057.17 113.723 1055.43 Q114.626 1053.67 114.626 1051.98 Q114.626 1049.23 112.682 1047.49 Q110.76 1045.76 107.658 1045.76 Q105.459 1045.76 103.006 1046.52 Q100.575 1047.28 97.7974 1048.83 L97.7974 1044.11 Q100.621 1042.98 103.075 1042.4 Q105.529 1041.82 107.566 1041.82 Q112.936 1041.82 116.131 1044.51 Q119.325 1047.19 119.325 1051.68 Q119.325 1053.81 118.515 1055.73 Q117.728 1057.63 115.621 1060.22 Q115.043 1060.89 111.941 1064.11 Q108.839 1067.31 103.191 1073.07 Z" fill="#000000" fill-rule="nonzero" fill-opacity="1" /><path clip-path="url(#clip660)" d="M129.371 1042.45 L147.728 1042.45 L147.728 1046.38 L133.654 1046.38 L133.654 1054.85 Q134.672 1054.51 135.691 1054.34 Q136.709 1054.16 137.728 1054.16 Q143.515 1054.16 146.894 1057.33 Q150.274 1060.5 150.274 1065.92 Q150.274 1071.5 146.802 1074.6 Q143.33 1077.68 137.01 1077.68 Q134.834 1077.68 132.566 1077.31 Q130.32 1076.94 127.913 1076.19 L127.913 1071.5 Q129.996 1072.63 132.219 1073.19 Q134.441 1073.74 136.918 1073.74 Q140.922 1073.74 143.26 1071.63 Q145.598 1069.53 145.598 1065.92 Q145.598 1062.31 143.26 1060.2 Q140.922 1058.09 136.918 1058.09 Q135.043 1058.09 133.168 1058.51 Q131.316 1058.93 129.371 1059.81 L129.371 1042.45 Z" fill="#000000" fill-rule="nonzero" fill-opacity="1" /><path clip-path="url(#clip660)" d="M62.9365 721.011 Q59.3254 721.011 57.4967 724.575 Q55.6912 728.117 55.6912 735.247 Q55.6912 742.353 57.4967 745.918 Q59.3254 749.46 62.9365 749.46 Q66.5707 749.46 68.3763 745.918 Q70.205 742.353 70.205 735.247 Q70.205 728.117 68.3763 724.575 Q66.5707 721.011 62.9365 721.011 M62.9365 717.307 Q68.7467 717.307 71.8022 721.913 Q74.8809 726.497 74.8809 735.247 Q74.8809 743.973 71.8022 748.58 Q68.7467 753.163 62.9365 753.163 Q57.1264 753.163 54.0477 748.58 Q50.9921 743.973 50.9921 735.247 Q50.9921 726.497 54.0477 721.913 Q57.1264 717.307 62.9365 717.307 Z" fill="#000000" fill-rule="nonzero" fill-opacity="1" /><path clip-path="url(#clip660)" d="M83.0984 746.612 L87.9827 746.612 L87.9827 752.492 L83.0984 752.492 L83.0984 746.612 Z" fill="#000000" fill-rule="nonzero" fill-opacity="1" /><path clip-path="url(#clip660)" d="M98.2141 717.932 L116.57 717.932 L116.57 721.867 L102.496 721.867 L102.496 730.339 Q103.515 729.992 104.534 729.83 Q105.552 729.645 106.571 729.645 Q112.358 729.645 115.737 732.816 Q119.117 735.987 119.117 741.404 Q119.117 746.983 115.645 750.085 Q112.172 753.163 105.853 753.163 Q103.677 753.163 101.409 752.793 Q99.1632 752.423 96.7558 751.682 L96.7558 746.983 Q98.8391 748.117 101.061 748.673 Q103.284 749.228 105.76 749.228 Q109.765 749.228 112.103 747.122 Q114.441 745.015 114.441 741.404 Q114.441 737.793 112.103 735.687 Q109.765 733.58 105.76 733.58 Q103.885 733.58 102.01 733.997 Q100.159 734.413 98.2141 735.293 L98.2141 717.932 Z" fill="#000000" fill-rule="nonzero" fill-opacity="1" /><path clip-path="url(#clip660)" d="M138.33 721.011 Q134.719 721.011 132.89 724.575 Q131.084 728.117 131.084 735.247 Q131.084 742.353 132.89 745.918 Q134.719 749.46 138.33 749.46 Q141.964 749.46 143.769 745.918 Q145.598 742.353 145.598 735.247 Q145.598 728.117 143.769 724.575 Q141.964 721.011 138.33 721.011 M138.33 717.307 Q144.14 717.307 147.195 721.913 Q150.274 726.497 150.274 735.247 Q150.274 743.973 147.195 748.58 Q144.14 753.163 138.33 753.163 Q132.519 753.163 129.441 748.58 Q126.385 743.973 126.385 735.247 Q126.385 726.497 129.441 721.913 Q132.519 717.307 138.33 717.307 Z" fill="#000000" fill-rule="nonzero" fill-opacity="1" /><path clip-path="url(#clip660)" d="M63.9319 396.498 Q60.3208 396.498 58.4921 400.062 Q56.6865 403.604 56.6865 410.734 Q56.6865 417.84 58.4921 421.405 Q60.3208 424.946 63.9319 424.946 Q67.5661 424.946 69.3717 421.405 Q71.2004 417.84 71.2004 410.734 Q71.2004 403.604 69.3717 400.062 Q67.5661 396.498 63.9319 396.498 M63.9319 392.794 Q69.742 392.794 72.7976 397.4 Q75.8763 401.984 75.8763 410.734 Q75.8763 419.46 72.7976 424.067 Q69.742 428.65 63.9319 428.65 Q58.1217 428.65 55.043 424.067 Q51.9875 419.46 51.9875 410.734 Q51.9875 401.984 55.043 397.4 Q58.1217 392.794 63.9319 392.794 Z" fill="#000000" fill-rule="nonzero" fill-opacity="1" /><path clip-path="url(#clip660)" d="M84.0938 422.099 L88.978 422.099 L88.978 427.979 L84.0938 427.979 L84.0938 422.099 Z" fill="#000000" fill-rule="nonzero" fill-opacity="1" /><path clip-path="url(#clip660)" d="M97.9826 393.419 L120.205 393.419 L120.205 395.41 L107.658 427.979 L102.774 427.979 L114.58 397.354 L97.9826 397.354 L97.9826 393.419 Z" fill="#000000" fill-rule="nonzero" fill-opacity="1" /><path clip-path="url(#clip660)" d="M129.371 393.419 L147.728 393.419 L147.728 397.354 L133.654 397.354 L133.654 405.826 Q134.672 405.479 135.691 405.317 Q136.709 405.132 137.728 405.132 Q143.515 405.132 146.894 408.303 Q150.274 411.474 150.274 416.891 Q150.274 422.47 146.802 425.571 Q143.33 428.65 137.01 428.65 Q134.834 428.65 132.566 428.28 Q130.32 427.909 127.913 427.169 L127.913 422.47 Q129.996 423.604 132.219 424.159 Q134.441 424.715 136.918 424.715 Q140.922 424.715 143.26 422.608 Q145.598 420.502 145.598 416.891 Q145.598 413.28 143.26 411.173 Q140.922 409.067 136.918 409.067 Q135.043 409.067 133.168 409.484 Q131.316 409.9 129.371 410.78 L129.371 393.419 Z" fill="#000000" fill-rule="nonzero" fill-opacity="1" /><path clip-path="url(#clip660)" d="M53.7467 99.5305 L61.3856 99.5305 L61.3856 73.1649 L53.0754 74.8316 L53.0754 70.5723 L61.3393 68.9057 L66.0152 68.9057 L66.0152 99.5305 L73.654 99.5305 L73.654 103.466 L53.7467 103.466 L53.7467 99.5305 Z" fill="#000000" fill-rule="nonzero" fill-opacity="1" /><path clip-path="url(#clip660)" d="M83.0984 97.5861 L87.9827 97.5861 L87.9827 103.466 L83.0984 103.466 L83.0984 97.5861 Z" fill="#000000" fill-rule="nonzero" fill-opacity="1" /><path clip-path="url(#clip660)" d="M108.168 71.9844 Q104.557 71.9844 102.728 75.5492 Q100.922 79.0908 100.922 86.2204 Q100.922 93.3268 102.728 96.8916 Q104.557 100.433 108.168 100.433 Q111.802 100.433 113.608 96.8916 Q115.436 93.3268 115.436 86.2204 Q115.436 79.0908 113.608 75.5492 Q111.802 71.9844 108.168 71.9844 M108.168 68.2807 Q113.978 68.2807 117.033 72.8871 Q120.112 77.4704 120.112 86.2204 Q120.112 94.9472 117.033 99.5537 Q113.978 104.137 108.168 104.137 Q102.358 104.137 99.2789 99.5537 Q96.2234 94.9472 96.2234 86.2204 Q96.2234 77.4704 99.2789 72.8871 Q102.358 68.2807 108.168 68.2807 Z" fill="#000000" fill-rule="nonzero" fill-opacity="1" /><path clip-path="url(#clip660)" d="M138.33 71.9844 Q134.719 71.9844 132.89 75.5492 Q131.084 79.0908 131.084 86.2204 Q131.084 93.3268 132.89 96.8916 Q134.719 100.433 138.33 100.433 Q141.964 100.433 143.769 96.8916 Q145.598 93.3268 145.598 86.2204 Q145.598 79.0908 143.769 75.5492 Q141.964 71.9844 138.33 71.9844 M138.33 68.2807 Q144.14 68.2807 147.195 72.8871 Q150.274 77.4704 150.274 86.2204 Q150.274 94.9472 147.195 99.5537 Q144.14 104.137 138.33 104.137 Q132.519 104.137 129.441 99.5537 Q126.385 94.9472 126.385 86.2204 Q126.385 77.4704 129.441 72.8871 Q132.519 68.2807 138.33 68.2807 Z" fill="#000000" fill-rule="nonzero" fill-opacity="1" /><polyline clip-path="url(#clip662)" style="stroke:#009af9; stroke-linecap:round; stroke-linejoin:round; stroke-width:4; stroke-opacity:1; fill:none" points="186.274,86.1857 207.939,124.835 229.604,162.901 251.268,200.382 272.933,237.279 294.598,273.592 316.263,309.321 337.928,344.466 359.593,379.026 381.257,413.003 402.922,446.395 424.587,479.204 446.252,511.428 467.917,543.068 489.581,574.124 511.246,604.595 532.911,634.483 554.576,663.787 576.241,692.506 597.906,720.641 619.57,748.192 641.235,775.16 662.9,801.542 684.565,827.341 706.23,852.556 727.894,877.186 749.559,901.233 771.224,924.695 792.889,947.573 814.554,969.867 836.219,991.577 857.883,1012.7 879.548,1033.24 901.213,1053.2 922.878,1072.58 944.543,1091.37 966.207,1109.57 987.872,1127.19 1009.54,1144.23 1031.2,1160.68 1052.87,1176.55 1074.53,1191.83 1096.2,1206.53 1117.86,1220.65 1139.53,1234.18 1161.19,1247.13 1182.86,1259.5 1204.52,1271.28 1226.19,1282.47 1247.85,1293.08 1269.51,1303.11 1291.18,1312.55 1312.84,1321.41 1334.51,1329.69 1356.17,1337.38 1377.84,1344.49 1399.5,1351.01 1421.17,1356.95 1442.83,1362.3 1464.5,1367.07 1486.16,1371.26 1507.83,1374.86 1529.49,1377.88 1551.16,1380.31 1572.82,1382.16 1594.49,1383.43 1616.15,1384.11 1637.82,1384.24 1659.48,1384.24 1681.15,1384.24 1702.81,1384.24 1724.48,1384.24 1746.14,1384.24 1767.81,1384.24 1789.47,1384.24 1811.14,1384.24 1832.8,1384.24 1854.47,1384.24 1876.13,1384.24 1897.79,1384.24 1919.46,1384.24 1941.12,1384.24 1962.79,1384.24 1984.45,1384.24 2006.12,1384.24 2027.78,1384.24 2049.45,1384.24 2071.11,1384.24 2092.78,1384.24 2114.44,1384.24 2136.11,1384.24 2157.77,1384.24 2179.44,1384.24 2201.1,1384.24 2222.77,1384.24 2244.43,1384.24 2266.1,1384.24 2287.76,1384.24 2309.43,1384.24 2331.09,1384.24 2352.76,1384.24 "/>
<polyline clip-path="url(#clip662)" style="stroke:#e26f46; stroke-linecap:round; stroke-linejoin:round; stroke-width:4; stroke-opacity:1; fill:none" points="186.274,86.1857 186.975,87.4453 187.677,88.705 188.378,89.9646 189.079,91.2229 189.781,92.4808 190.482,93.7383 191.183,94.9936 191.885,96.2489 192.586,97.5042 193.288,98.7595 193.989,100.015 194.69,101.268 195.392,102.52 196.093,103.771 196.794,105.023 197.496,106.275 198.197,107.526 198.898,108.778 199.6,110.025 200.301,111.272 201.002,112.518 201.704,113.765 202.405,115.011 203.106,116.258 203.808,117.505 204.509,118.751 205.211,119.998 205.912,121.242 206.613,122.482 207.315,123.722 208.016,124.962 208.717,126.203 209.419,127.443 210.12,128.683 210.821,129.924 211.523,131.164 212.224,132.404 212.925,133.645 213.627,134.882 214.328,136.115 215.03,137.348 215.731,138.581 216.432,139.813 217.134,141.046 217.835,142.279 218.536,143.512 219.238,144.744 219.939,145.977 220.64,147.21 221.342,148.442 222.043,149.675 222.744,150.908 223.446,152.133 224.147,153.357 224.848,154.581 225.55,155.805 226.251,157.029 226.953,158.253 227.654,159.477 228.355,160.701 229.057,161.924 229.758,163.148 230.459,164.372 231.161,165.596 231.862,166.82 232.563,168.044 233.265,169.268 233.966,170.486 234.667,171.7 235.369,172.914 236.07,174.128 236.771,175.342 237.473,176.556 238.174,177.77 238.876,178.984 239.577,180.198 240.278,181.412 240.98,182.626 241.681,183.84 242.382,185.054 243.084,186.267 243.785,187.481 244.486,188.695 245.188,189.909 245.889,191.118 246.59,192.321 247.292,193.524 247.993,194.727 248.694,195.93 249.396,197.133 250.097,198.336 250.799,199.539 251.5,200.742 252.201,201.945 252.903,203.148 253.604,204.351 254.305,205.554 255.007,206.757 255.708,207.96 256.409,209.163 257.111,210.367 257.812,211.57 258.513,212.772 259.215,213.964 259.916,215.155 260.618,216.346 261.319,217.537 262.02,218.729 262.722,219.92 263.423,221.111 264.124,222.303 264.826,223.494 265.527,224.685 266.228,225.877 266.93,227.068 267.631,228.259 268.332,229.451 269.034,230.642 269.735,231.833 270.436,233.025 271.138,234.216 271.839,235.407 272.541,236.595 273.242,237.774 273.943,238.953 274.645,240.132 275.346,241.311 276.047,242.489 276.749,243.668 277.45,244.847 278.151,246.026 278.853,247.205 279.554,248.384 280.255,249.563 280.957,250.742 281.658,251.921 282.359,253.1 283.061,254.278 283.762,255.457 284.464,256.636 285.165,257.815 285.866,258.994 286.568,260.173 287.269,261.345 287.97,262.511 288.672,263.677 289.373,264.843 290.074,266.008 290.776,267.174 291.477,268.34 292.178,269.506 292.88,270.672 293.581,271.838 294.282,273.004 294.984,274.17 295.685,275.336 296.387,276.502 297.088,277.668 297.789,278.834 298.491,280 299.192,281.166 299.893,282.331 300.595,283.497 301.296,284.663 301.997,285.829 302.699,286.982 303.4,288.134 304.101,289.287 304.803,290.439 305.504,291.592 306.206,292.745 306.907,293.897 307.608,295.05 308.31,296.202 309.011,297.355 309.712,298.507 310.414,299.66 311.115,300.812 311.816,301.965 312.518,303.117 313.219,304.27 313.92,305.422 314.622,306.575 315.323,307.727 316.024,308.88 316.726,310.032 317.427,311.185 318.129,312.326 318.83,313.465 319.531,314.604 320.233,315.743 320.934,316.881 321.635,318.02 322.337,319.159 323.038,320.298 323.739,321.437 324.441,322.575 325.142,323.714 325.843,324.853 326.545,325.992 327.246,327.131 327.947,328.269 328.649,329.408 329.35,330.547 330.052,331.686 330.753,332.825 331.454,333.964 332.156,335.102 332.857,336.241 333.558,337.377 334.26,338.502 334.961,339.627 335.662,340.752 336.364,341.876 337.065,343.001 337.766,344.126 338.468,345.251 339.169,346.376 339.87,347.501 340.572,348.626 341.273,349.75 341.975,350.875 342.676,352 343.377,353.125 344.079,354.25 344.78,355.375 345.481,356.5 346.183,357.624 346.884,358.749 347.585,359.874 348.287,360.999 348.988,362.124 349.689,363.245 350.391,364.355 351.092,365.466 351.793,366.577 352.495,367.688 353.196,368.798 353.898,369.909 354.599,371.02 355.3,372.131 356.002,373.241 356.703,374.352 357.404,375.463 358.106,376.574 358.807,377.685 359.508,378.795 360.21,379.906 360.911,381.017 361.612,382.128 362.314,383.238 363.015,384.349 363.717,385.46 364.418,386.571 365.119,387.681 365.821,388.79 366.522,389.886 367.223,390.983 367.925,392.08 368.626,393.176 369.327,394.273 370.029,395.369 370.73,396.466 371.431,397.562 372.133,398.659 372.834,399.755 373.535,400.852 374.237,401.949 374.938,403.045 375.64,404.142 376.341,405.238 377.042,406.335 377.744,407.431 378.445,408.528 379.146,409.625 379.848,410.721 380.549,411.818 381.25,412.914 381.952,414.011 382.653,415.094 383.354,416.176 384.056,417.259 384.757,418.341 385.458,419.424 386.16,420.506 386.861,421.588 387.563,422.671 388.264,423.753 388.965,424.835 389.667,425.918 390.368,427 391.069,428.082 391.771,429.165 392.472,430.247 393.173,431.329 393.875,432.412 394.576,433.494 395.277,434.576 395.979,435.659 396.68,436.741 397.381,437.823 398.083,438.906 398.784,439.978 399.486,441.046 400.187,442.114 400.888,443.183 401.59,444.251 402.291,445.319 402.992,446.387 403.694,447.455 404.395,448.523 405.096,449.591 405.798,450.659 406.499,451.728 407.2,452.796 407.902,453.864 408.603,454.932 409.305,456 410.006,457.068 410.707,458.136 411.409,459.204 412.11,460.273 412.811,461.341 413.513,462.409 414.214,463.477 414.915,464.538 415.617,465.592 416.318,466.646 417.019,467.7 417.721,468.754 418.422,469.808 419.123,470.862 419.825,471.916 420.526,472.97 421.228,474.024 421.929,475.078 422.63,476.132 423.332,477.186 424.033,478.24 424.734,479.294 425.436,480.347 426.137,481.401 426.838,482.455 427.54,483.509 428.241,484.563 428.942,485.617 429.644,486.671 430.345,487.725 431.046,488.774 431.748,489.814 432.449,490.854 433.151,491.893 433.852,492.933 434.553,493.973 435.255,495.013 435.956,496.053 436.657,497.093 437.359,498.133 438.06,499.172 438.761,500.212 439.463,501.252 440.164,502.292 440.865,503.332 441.567,504.372 442.268,505.411 442.969,506.451 443.671,507.491 444.372,508.531 445.074,509.571 445.775,510.611 446.476,511.651 447.178,512.685 447.879,513.711 448.58,514.737 449.282,515.762 449.983,516.788 450.684,517.814 451.386,518.84 452.087,519.866 452.788,520.892 453.49,521.917 454.191,522.943 454.893,523.969 455.594,524.995 456.295,526.021 456.997,527.047 457.698,528.073 458.399,529.098 459.101,530.124 459.802,531.15 460.503,532.176 461.205,533.202 461.906,534.228 462.607,535.253 463.309,536.271 464.01,537.283 464.711,538.295 465.413,539.307 466.114,540.319 466.816,541.331 467.517,542.343 468.218,543.355 468.92,544.367 469.621,545.379 470.322,546.391 471.024,547.403 471.725,548.415 472.426,549.426 473.128,550.438 473.829,551.45 474.53,552.462 475.232,553.474 475.933,554.486 476.634,555.498 477.336,556.51 478.037,557.522 478.739,558.534 479.44,559.532 480.141,560.531 480.843,561.529 481.544,562.527 482.245,563.525 482.947,564.523 483.648,565.522 484.349,566.52 485.051,567.518 485.752,568.516 486.453,569.514 487.155,570.512 487.856,571.511 488.557,572.509 489.259,573.507 489.96,574.505 490.662,575.503 491.363,576.502 492.064,577.5 492.766,578.498 493.467,579.496 494.168,580.494 494.87,581.484 495.571,582.469 496.272,583.453 496.974,584.438 497.675,585.423 498.376,586.407 499.078,587.392 499.779,588.376 500.481,589.361 501.182,590.345 501.883,591.33 502.585,592.315 503.286,593.299 503.987,594.284 504.689,595.268 505.39,596.253 506.091,597.237 506.793,598.222 507.494,599.207 508.195,600.191 508.897,601.176 509.598,602.16 510.299,603.139 511.001,604.11 511.702,605.081 512.404,606.052 513.105,607.023 513.806,607.994 514.508,608.965 515.209,609.936 515.91,610.907 516.612,611.879 517.313,612.85 518.014,613.821 518.716,614.792 519.417,615.763 520.118,616.734 520.82,617.705 521.521,618.676 522.222,619.647 522.924,620.618 523.625,621.59 524.327,622.561 525.028,623.532 525.729,624.495 526.431,625.453 527.132,626.411 527.833,627.369 528.535,628.327 529.236,629.284 529.937,630.242 530.639,631.2 531.34,632.158 532.041,633.115 532.743,634.073 533.444,635.031 534.145,635.989 534.847,636.946 535.548,637.904 536.25,638.862 536.951,639.82 537.652,640.778 538.354,641.735 539.055,642.693 539.756,643.651 540.458,644.609 541.159,645.555 541.86,646.499 542.562,647.444 543.263,648.388 543.964,649.333 544.666,650.278 545.367,651.222 546.069,652.167 546.77,653.111 547.471,654.056 548.173,655.001 548.874,655.945 549.575,656.89 550.277,657.834 550.978,658.779 551.679,659.724 552.381,660.668 553.082,661.613 553.783,662.557 554.485,663.502 555.186,664.447 555.887,665.385 556.589,666.316 557.29,667.248 557.992,668.18 558.693,669.111 559.394,670.043 560.096,670.974 560.797,671.906 561.498,672.838 562.2,673.769 562.901,674.701 563.602,675.632 564.304,676.564 565.005,677.496 565.706,678.427 566.408,679.359 567.109,680.29 567.81,681.222 568.512,682.154 569.213,683.085 569.915,684.017 570.616,684.944 571.317,685.862 572.019,686.781 572.72,687.7 573.421,688.619 574.123,689.537 574.824,690.456 575.525,691.375 576.227,692.294 576.928,693.212 577.629,694.131 578.331,695.05 579.032,695.969 579.733,696.887 580.435,697.806 581.136,698.725 581.838,699.644 582.539,700.562 583.24,701.481 583.942,702.4 584.643,703.319 585.344,704.231 586.046,705.137 586.747,706.043 587.448,706.949 588.15,707.855 588.851,708.761 589.552,709.667 590.254,710.573 590.955,711.479 591.657,712.386 592.358,713.292 593.059,714.198 593.761,715.104 594.462,716.01 595.163,716.916 595.865,717.822 596.566,718.728 597.267,719.634 597.969,720.54 598.67,721.446 599.371,722.352 600.073,723.247 600.774,724.141 601.475,725.034 602.177,725.928 602.878,726.821 603.58,727.715 604.281,728.608 604.982,729.502 605.684,730.395 606.385,731.289 607.086,732.183 607.788,733.076 608.489,733.97 609.19,734.863 609.892,735.757 610.593,736.65 611.294,737.544 611.996,738.438 612.697,739.331 613.398,740.225 614.1,741.111 614.801,741.992 615.503,742.873 616.204,743.755 616.905,744.636 617.607,745.517 618.308,746.398 619.009,747.279 619.711,748.161 620.412,749.042 621.113,749.923 621.815,750.804 622.516,751.685 623.217,752.567 623.919,753.448 624.62,754.329 625.321,755.21 626.023,756.091 626.724,756.973 627.426,757.854 628.127,758.729 628.828,759.598 629.53,760.467 630.231,761.336 630.932,762.205 631.634,763.074 632.335,763.943 633.036,764.812 633.738,765.681 634.439,766.55 635.14,767.419 635.842,768.288 636.543,769.157 637.244,770.026 637.946,770.895 638.647,771.764 639.349,772.633 640.05,773.502 640.751,774.371 641.453,775.24 642.154,776.1 642.855,776.957 643.557,777.814 644.258,778.671 644.959,779.528 645.661,780.385 646.362,781.242 647.063,782.099 647.765,782.956 648.466,783.813 649.168,784.67 649.869,785.527 650.57,786.384 651.272,787.241 651.973,788.098 652.674,788.955 653.376,789.812 654.077,790.669 654.778,791.526 655.48,792.381 656.181,793.226 656.882,794.071 657.584,794.916 658.285,795.761 658.986,796.606 659.688,797.451 660.389,798.296 661.091,799.142 661.792,799.987 662.493,800.832 663.195,801.677 663.896,802.522 664.597,803.367 665.299,804.212 666,805.058 666.701,805.903 667.403,806.748 668.104,807.593 668.805,808.438 669.507,809.272 670.208,810.105 670.909,810.939 671.611,811.772 672.312,812.606 673.014,813.439 673.715,814.273 674.416,815.106 675.118,815.94 675.819,816.773 676.52,817.606 677.222,818.44 677.923,819.273 678.624,820.107 679.326,820.94 680.027,821.774 680.728,822.607 681.43,823.44 682.131,824.274 682.832,825.096 683.534,825.918 684.235,826.74 684.937,827.562 685.638,828.384 686.339,829.206 687.041,830.028 687.742,830.85 688.443,831.671 689.145,832.493 689.846,833.315 690.547,834.137 691.249,834.959 691.95,835.781 692.651,836.603 693.353,837.425 694.054,838.247 694.756,839.068 695.457,839.888 696.158,840.698 696.86,841.509 697.561,842.319 698.262,843.13 698.964,843.94 699.665,844.751 700.366,845.561 701.068,846.372 701.769,847.182 702.47,847.993 703.172,848.803 703.873,849.614 704.574,850.424 705.276,851.235 705.977,852.045 706.679,852.856 707.38,853.666 708.081,854.477 708.783,855.279 709.484,856.079 710.185,856.878 710.887,857.677 711.588,858.476 712.289,859.276 712.991,860.075 713.692,860.874 714.393,861.674 715.095,862.473 715.796,863.272 716.497,864.071 717.199,864.871 717.9,865.67 718.602,866.469 719.303,867.268 720.004,868.068 720.706,868.867 721.407,869.661 722.108,870.449 722.81,871.237 723.511,872.025 724.212,872.814 724.914,873.602 725.615,874.39 726.316,875.178 727.018,875.966 727.719,876.755 728.42,877.543 729.122,878.331 729.823,879.119 730.525,879.907 731.226,880.696 731.927,881.484 732.629,882.272 733.33,883.06 734.031,883.843 734.733,884.62 735.434,885.397 736.135,886.175 736.837,886.952 737.538,887.729 738.239,888.507 738.941,889.284 739.642,890.061 740.344,890.838 741.045,891.616 741.746,892.393 742.448,893.17 743.149,893.947 743.85,894.725 744.552,895.502 745.253,896.279 745.954,897.057 746.656,897.826 747.357,898.592 748.058,899.359 748.76,900.125 749.461,900.892 750.162,901.658 750.864,902.425 751.565,903.191 752.267,903.958 752.968,904.724 753.669,905.491 754.371,906.257 755.072,907.024 755.773,907.79 756.475,908.557 757.176,909.323 757.877,910.09 758.579,910.853 759.28,911.609 759.981,912.365 760.683,913.121 761.384,913.877 762.085,914.632 762.787,915.388 763.488,916.144 764.19,916.9 764.891,917.656 765.592,918.412 766.294,919.168 766.995,919.924 767.696,920.679 768.398,921.435 769.099,922.191 769.8,922.947 770.502,923.703 771.203,924.448 771.904,925.193 772.606,925.939 773.307,926.684 774.008,927.43 774.71,928.175 775.411,928.92 776.113,929.666 776.814,930.411 777.515,931.157 778.217,931.902 778.918,932.647 779.619,933.393 780.321,934.138 781.022,934.884 781.723,935.629 782.425,936.374 783.126,937.109 783.827,937.844 784.529,938.579 785.23,939.314 785.932,940.05 786.633,940.785 787.334,941.52 788.036,942.255 788.737,942.99 789.438,943.725 790.14,944.46 790.841,945.195 791.542,945.93 792.244,946.665 792.945,947.4 793.646,948.135 794.348,948.868 795.049,949.593 795.75,950.318 796.452,951.042 797.153,951.767 797.855,952.492 798.556,953.217 799.257,953.942 799.959,954.667 800.66,955.392 801.361,956.117 802.063,956.841 802.764,957.566 803.465,958.291 804.167,959.016 804.868,959.741 805.569,960.466 806.271,961.184 806.972,961.899 807.673,962.613 808.375,963.328 809.076,964.043 809.778,964.758 810.479,965.473 811.18,966.187 811.882,966.902 812.583,967.617 813.284,968.332 813.986,969.047 814.687,969.762 815.388,970.476 816.09,971.191 816.791,971.906 817.492,972.617 818.194,973.322 818.895,974.027 819.596,974.732 820.298,975.437 820.999,976.142 821.701,976.847 822.402,977.551 823.103,978.256 823.805,978.961 824.506,979.666 825.207,980.371 825.909,981.076 826.61,981.781 827.311,982.486 828.013,983.191 828.714,983.893 829.415,984.588 830.117,985.283 830.818,985.978 831.52,986.673 832.221,987.369 832.922,988.064 833.624,988.759 834.325,989.454 835.026,990.149 835.728,990.844 836.429,991.539 837.13,992.234 837.832,992.93 838.533,993.625 839.234,994.32 839.936,995.011 840.637,995.697 841.338,996.382 842.04,997.068 842.741,997.753 843.443,998.439 844.144,999.124 844.845,999.81 845.547,1000.5 846.248,1001.18 846.949,1001.87 847.651,1002.55 848.352,1003.24 849.053,1003.92 849.755,1004.61 850.456,1005.29 851.157,1005.97 851.859,1006.65 852.56,1007.32 853.261,1008 853.963,1008.68 854.664,1009.35 855.366,1010.03 856.067,1010.7 856.768,1011.38 857.47,1012.06 858.171,1012.73 858.872,1013.41 859.574,1014.08 860.275,1014.76 860.976,1015.44 861.678,1016.11 862.379,1016.78 863.08,1017.44 863.782,1018.11 864.483,1018.77 865.184,1019.44 865.886,1020.11 866.587,1020.77 867.289,1021.44 867.99,1022.11 868.691,1022.77 869.393,1023.44 870.094,1024.11 870.795,1024.77 871.497,1025.44 872.198,1026.11 872.899,1026.76 873.601,1027.42 874.302,1028.08 875.003,1028.74 875.705,1029.39 876.406,1030.05 877.107,1030.71 877.809,1031.37 878.51,1032.02 879.212,1032.68 879.913,1033.34 880.614,1034 881.316,1034.65 882.017,1035.31 882.718,1035.97 883.42,1036.61 884.121,1037.26 884.822,1037.91 885.524,1038.56 886.225,1039.21 886.926,1039.86 887.628,1040.5 888.329,1041.15 889.031,1041.8 889.732,1042.45 890.433,1043.1 891.135,1043.75 891.836,1044.39 892.537,1045.04 893.239,1045.69 893.94,1046.33 894.641,1046.97 895.343,1047.61 896.044,1048.24 896.745,1048.88 897.447,1049.52 898.148,1050.16 898.849,1050.8 899.551,1051.44 900.252,1052.08 900.954,1052.72 901.655,1053.36 902.356,1054 903.058,1054.64 903.759,1055.27 904.46,1055.9 905.162,1056.53 905.863,1057.16 906.564,1057.79 907.266,1058.42 907.967,1059.05 908.668,1059.68 909.37,1060.31 910.071,1060.94 910.772,1061.57 911.474,1062.2 912.175,1062.83 912.877,1063.47 913.578,1064.09 914.279,1064.71 914.981,1065.34 915.682,1065.96 916.383,1066.58 917.085,1067.2 917.786,1067.82 918.487,1068.44 919.189,1069.07 919.89,1069.69 920.591,1070.31 921.293,1070.93 921.994,1071.55 922.695,1072.17 923.397,1072.8 924.098,1073.41 924.8,1074.02 925.501,1074.63 926.202,1075.25 926.904,1075.86 927.605,1076.47 928.306,1077.09 929.008,1077.7 929.709,1078.31 930.41,1078.93 931.112,1079.54 931.813,1080.15 932.514,1080.76 933.216,1081.38 933.917,1081.98 934.619,1082.59 935.32,1083.19 936.021,1083.79 936.723,1084.4 937.424,1085 938.125,1085.61 938.827,1086.21 939.528,1086.82 940.229,1087.42 940.931,1088.03 941.632,1088.63 942.333,1089.24 943.035,1089.84 943.736,1090.43 944.437,1091.03 945.139,1091.63 945.84,1092.22 946.542,1092.82 947.243,1093.41 947.944,1094.01 948.646,1094.61 949.347,1095.2 950.048,1095.8 950.75,1096.39 951.451,1096.99 952.152,1097.59 952.854,1098.18 953.555,1098.77 954.256,1099.35 954.958,1099.94 955.659,1100.53 956.36,1101.12 957.062,1101.7 957.763,1102.29 958.465,1102.88 959.166,1103.47 959.867,1104.06 960.569,1104.64 961.27,1105.23 961.971,1105.82 962.673,1106.4 963.374,1106.98 964.075,1107.56 964.777,1108.14 965.478,1108.72 966.179,1109.3 966.881,1109.88 967.582,1110.46 968.283,1111.04 968.985,1111.61 969.686,1112.19 970.388,1112.77 971.089,1113.35 971.79,1113.93 972.492,1114.5 973.193,1115.07 973.894,1115.64 974.596,1116.21 975.297,1116.78 975.998,1117.36 976.7,1117.93 977.401,1118.5 978.102,1119.07 978.804,1119.64 979.505,1120.21 980.207,1120.79 980.908,1121.35 981.609,1121.91 982.311,1122.48 983.012,1123.04 983.713,1123.6 984.415,1124.17 985.116,1124.73 985.817,1125.3 986.519,1125.86 987.22,1126.42 987.921,1126.99 988.623,1127.55 989.324,1128.11 990.025,1128.67 990.727,1129.23 991.428,1129.78 992.13,1130.34 992.831,1130.89 993.532,1131.45 994.234,1132.01 994.935,1132.56 995.636,1133.12 996.338,1133.67 997.039,1134.23 997.74,1134.78 998.442,1135.34 999.143,1135.89 999.844,1136.43 1000.55,1136.98 1001.25,1137.53 1001.95,1138.08 1002.65,1138.63 1003.35,1139.17 1004.05,1139.72 1004.75,1140.27 1005.46,1140.82 1006.16,1141.37 1006.86,1141.92 1007.56,1142.46 1008.26,1143 1008.96,1143.54 1009.66,1144.08 1010.36,1144.62 1011.07,1145.16 1011.77,1145.7 1012.47,1146.24 1013.17,1146.78 1013.87,1147.32 1014.57,1147.86 1015.27,1148.4 1015.98,1148.94 1016.68,1149.47 1017.38,1150.01 1018.08,1150.54 1018.78,1151.07 1019.48,1151.61 1020.18,1152.14 1020.89,1152.67 1021.59,1153.21 1022.29,1153.74 1022.99,1154.27 1023.69,1154.8 1024.39,1155.34 1025.09,1155.86 1025.79,1156.39 1026.5,1156.91 1027.2,1157.44 1027.9,1157.96 1028.6,1158.49 1029.3,1159.02 1030,1159.54 1030.7,1160.07 1031.41,1160.59 1032.11,1161.12 1032.81,1161.64 1033.51,1162.16 1034.21,1162.68 1034.91,1163.2 1035.61,1163.72 1036.31,1164.23 1037.02,1164.75 1037.72,1165.27 1038.42,1165.79 1039.12,1166.31 1039.82,1166.83 1040.52,1167.34 1041.22,1167.86 1041.93,1168.37 1042.63,1168.88 1043.33,1169.39 1044.03,1169.9 1044.73,1170.41 1045.43,1170.93 1046.13,1171.44 1046.84,1171.95 1047.54,1172.46 1048.24,1172.97 1048.94,1173.48 1049.64,1173.99 1050.34,1174.49 1051.04,1175 1051.74,1175.5 1052.45,1176 1053.15,1176.51 1053.85,1177.01 1054.55,1177.52 1055.25,1178.02 1055.95,1178.52 1056.65,1179.03 1057.36,1179.53 1058.06,1180.03 1058.76,1180.53 1059.46,1181.02 1060.16,1181.52 1060.86,1182.02 1061.56,1182.51 1062.26,1183.01 1062.97,1183.51 1063.67,1184 1064.37,1184.5 1065.07,1185 1065.77,1185.49 1066.47,1185.98 1067.17,1186.47 1067.88,1186.96 1068.58,1187.45 1069.28,1187.94 1069.98,1188.43 1070.68,1188.92 1071.38,1189.41 1072.08,1189.9 1072.79,1190.39 1073.49,1190.88 1074.19,1191.36 1074.89,1191.84 1075.59,1192.33 1076.29,1192.81 1076.99,1193.29 1077.69,1193.78 1078.4,1194.26 1079.1,1194.74 1079.8,1195.23 1080.5,1195.71 1081.2,1196.19 1081.9,1196.67 1082.6,1197.14 1083.31,1197.62 1084.01,1198.1 1084.71,1198.57 1085.41,1199.05 1086.11,1199.53 1086.81,1200 1087.51,1200.48 1088.21,1200.96 1088.92,1201.43 1089.62,1201.9 1090.32,1202.37 1091.02,1202.84 1091.72,1203.31 1092.42,1203.78 1093.12,1204.25 1093.83,1204.72 1094.53,1205.19 1095.23,1205.66 1095.93,1206.13 1096.63,1206.59 1097.33,1207.06 1098.03,1207.52 1098.74,1207.98 1099.44,1208.45 1100.14,1208.91 1100.84,1209.37 1101.54,1209.84 1102.24,1210.3 1102.94,1210.76 1103.64,1211.23 1104.35,1211.68 1105.05,1212.14 1105.75,1212.6 1106.45,1213.05 1107.15,1213.51 1107.85,1213.97 1108.55,1214.43 1109.26,1214.88 1109.96,1215.34 1110.66,1215.8 1111.36,1216.25 1112.06,1216.7 1112.76,1217.15 1113.46,1217.6 1114.17,1218.05 1114.87,1218.5 1115.57,1218.95 1116.27,1219.4 1116.97,1219.85 1117.67,1220.3 1118.37,1220.75 1119.07,1221.2 1119.78,1221.64 1120.48,1222.09 1121.18,1222.53 1121.88,1222.97 1122.58,1223.42 1123.28,1223.86 1123.98,1224.31 1124.69,1224.75 1125.39,1225.19 1126.09,1225.63 1126.79,1226.07 1127.49,1226.51 1128.19,1226.95 1128.89,1227.38 1129.59,1227.82 1130.3,1228.26 1131,1228.7 1131.7,1229.14 1132.4,1229.57 1133.1,1230.01 1133.8,1230.44 1134.5,1230.87 1135.21,1231.3 1135.91,1231.73 1136.61,1232.17 1137.31,1232.6 1138.01,1233.03 1138.71,1233.46 1139.41,1233.89 1140.12,1234.32 1140.82,1234.75 1141.52,1235.17 1142.22,1235.6 1142.92,1236.02 1143.62,1236.45 1144.32,1236.88 1145.02,1237.3 1145.73,1237.73 1146.43,1238.15 1147.13,1238.57 1147.83,1238.99 1148.53,1239.41 1149.23,1239.83 1149.93,1240.25 1150.64,1240.67 1151.34,1241.09 1152.04,1241.51 1152.74,1241.93 1153.44,1242.35 1154.14,1242.76 1154.84,1243.18 1155.54,1243.59 1156.25,1244 1156.95,1244.42 1157.65,1244.83 1158.35,1245.25 1159.05,1245.66 1159.75,1246.07 1160.45,1246.48 1161.16,1246.89 1161.86,1247.3 1162.56,1247.71 1163.26,1248.12 1163.96,1248.52 1164.66,1248.93 1165.36,1249.34 1166.07,1249.75 1166.77,1250.15 1167.47,1250.55 1168.17,1250.96 1168.87,1251.36 1169.57,1251.76 1170.27,1252.17 1170.97,1252.57 1171.68,1252.97 1172.38,1253.37 1173.08,1253.77 1173.78,1254.17 1174.48,1254.57 1175.18,1254.96 1175.88,1255.36 1176.59,1255.76 1177.29,1256.16 1177.99,1256.55 1178.69,1256.95 1179.39,1257.34 1180.09,1257.73 1180.79,1258.13 1181.5,1258.52 1182.2,1258.91 1182.9,1259.3 1183.6,1259.69 1184.3,1260.09 1185,1260.48 1185.7,1260.86 1186.4,1261.25 1187.11,1261.64 1187.81,1262.02 1188.51,1262.41 1189.21,1262.8 1189.91,1263.18 1190.61,1263.57 1191.31,1263.95 1192.02,1264.34 1192.72,1264.72 1193.42,1265.1 1194.12,1265.48 1194.82,1265.86 1195.52,1266.24 1196.22,1266.62 1196.92,1267 1197.63,1267.38 1198.33,1267.76 1199.03,1268.13 1199.73,1268.51 1200.43,1268.88 1201.13,1269.26 1201.83,1269.64 1202.54,1270.01 1203.24,1270.39 1203.94,1270.76 1204.64,1271.13 1205.34,1271.5 1206.04,1271.87 1206.74,1272.24 1207.45,1272.61 1208.15,1272.98 1208.85,1273.35 1209.55,1273.72 1210.25,1274.09 1210.95,1274.45 1211.65,1274.82 1212.35,1275.18 1213.06,1275.55 1213.76,1275.91 1214.46,1276.28 1215.16,1276.64 1215.86,1277 1216.56,1277.36 1217.26,1277.72 1217.97,1278.08 1218.67,1278.44 1219.37,1278.8 1220.07,1279.16 1220.77,1279.52 1221.47,1279.88 1222.17,1280.24 1222.87,1280.59 1223.58,1280.95 1224.28,1281.3 1224.98,1281.66 1225.68,1282.01 1226.38,1282.37 1227.08,1282.72 1227.78,1283.07 1228.49,1283.42 1229.19,1283.77 1229.89,1284.12 1230.59,1284.47 1231.29,1284.82 1231.99,1285.17 1232.69,1285.52 1233.4,1285.87 1234.1,1286.21 1234.8,1286.56 1235.5,1286.9 1236.2,1287.25 1236.9,1287.59 1237.6,1287.94 1238.3,1288.28 1239.01,1288.62 1239.71,1288.96 1240.41,1289.3 1241.11,1289.64 1241.81,1289.98 1242.51,1290.32 1243.21,1290.66 1243.92,1291 1244.62,1291.34 1245.32,1291.67 1246.02,1292.01 1246.72,1292.35 1247.42,1292.68 1248.12,1293.02 1248.83,1293.35 1249.53,1293.68 1250.23,1294.02 1250.93,1294.35 1251.63,1294.68 1252.33,1295.01 1253.03,1295.34 1253.73,1295.67 1254.44,1296 1255.14,1296.33 1255.84,1296.65 1256.54,1296.98 1257.24,1297.31 1257.94,1297.63 1258.64,1297.96 1259.35,1298.29 1260.05,1298.61 1260.75,1298.93 1261.45,1299.25 1262.15,1299.57 1262.85,1299.9 1263.55,1300.22 1264.25,1300.54 1264.96,1300.86 1265.66,1301.18 1266.36,1301.49 1267.06,1301.81 1267.76,1302.13 1268.46,1302.45 1269.16,1302.76 1269.87,1303.08 1270.57,1303.39 1271.27,1303.71 1271.97,1304.02 1272.67,1304.33 1273.37,1304.65 1274.07,1304.96 1274.78,1305.27 1275.48,1305.58 1276.18,1305.89 1276.88,1306.2 1277.58,1306.51 1278.28,1306.81 1278.98,1307.12 1279.68,1307.43 1280.39,1307.74 1281.09,1308.04 1281.79,1308.35 1282.49,1308.65 1283.19,1308.95 1283.89,1309.26 1284.59,1309.56 1285.3,1309.86 1286,1310.16 1286.7,1310.46 1287.4,1310.76 1288.1,1311.06 1288.8,1311.36 1289.5,1311.66 1290.2,1311.96 1290.91,1312.26 1291.61,1312.55 1292.31,1312.85 1293.01,1313.14 1293.71,1313.44 1294.41,1313.73 1295.11,1314.03 1295.82,1314.32 1296.52,1314.61 1297.22,1314.9 1297.92,1315.19 1298.62,1315.48 1299.32,1315.77 1300.02,1316.06 1300.73,1316.35 1301.43,1316.64 1302.13,1316.92 1302.83,1317.21 1303.53,1317.5 1304.23,1317.78 1304.93,1318.07 1305.63,1318.35 1306.34,1318.63 1307.04,1318.92 1307.74,1319.2 1308.44,1319.48 1309.14,1319.76 1309.84,1320.04 1310.54,1320.32 1311.25,1320.6 1311.95,1320.88 1312.65,1321.16 1313.35,1321.44 1314.05,1321.71 1314.75,1321.99 1315.45,1322.27 1316.15,1322.54 1316.86,1322.82 1317.56,1323.09 1318.26,1323.36 1318.96,1323.64 1319.66,1323.91 1320.36,1324.18 1321.06,1324.45 1321.77,1324.72 1322.47,1324.99 1323.17,1325.26 1323.87,1325.53 1324.57,1325.79 1325.27,1326.06 1325.97,1326.33 1326.68,1326.59 1327.38,1326.86 1328.08,1327.12 1328.78,1327.39 1329.48,1327.65 1330.18,1327.92 1330.88,1328.18 1331.58,1328.44 1332.29,1328.7 1332.99,1328.96 1333.69,1329.22 1334.39,1329.48 1335.09,1329.74 1335.79,1329.99 1336.49,1330.25 1337.2,1330.51 1337.9,1330.76 1338.6,1331.02 1339.3,1331.28 1340,1331.53 1340.7,1331.78 1341.4,1332.04 1342.11,1332.29 1342.81,1332.54 1343.51,1332.79 1344.21,1333.04 1344.91,1333.29 1345.61,1333.54 1346.31,1333.79 1347.01,1334.04 1347.72,1334.29 1348.42,1334.53 1349.12,1334.78 1349.82,1335.02 1350.52,1335.27 1351.22,1335.51 1351.92,1335.76 1352.63,1336 1353.33,1336.24 1354.03,1336.49 1354.73,1336.73 1355.43,1336.97 1356.13,1337.21 1356.83,1337.45 1357.53,1337.69 1358.24,1337.93 1358.94,1338.16 1359.64,1338.4 1360.34,1338.64 1361.04,1338.87 1361.74,1339.11 1362.44,1339.34 1363.15,1339.58 1363.85,1339.81 1364.55,1340.04 1365.25,1340.27 1365.95,1340.51 1366.65,1340.74 1367.35,1340.97 1368.06,1341.2 1368.76,1341.43 1369.46,1341.66 1370.16,1341.88 1370.86,1342.11 1371.56,1342.34 1372.26,1342.56 1372.96,1342.79 1373.67,1343.01 1374.37,1343.24 1375.07,1343.46 1375.77,1343.68 1376.47,1343.91 1377.17,1344.13 1377.87,1344.35 1378.58,1344.57 1379.28,1344.79 1379.98,1345.01 1380.68,1345.23 1381.38,1345.45 1382.08,1345.66 1382.78,1345.88 1383.48,1346.1 1384.19,1346.31 1384.89,1346.53 1385.59,1346.74 1386.29,1346.96 1386.99,1347.17 1387.69,1347.38 1388.39,1347.59 1389.1,1347.81 1389.8,1348.02 1390.5,1348.23 1391.2,1348.44 1391.9,1348.65 1392.6,1348.85 1393.3,1349.06 1394.01,1349.27 1394.71,1349.48 1395.41,1349.68 1396.11,1349.89 1396.81,1350.09 1397.51,1350.3 1398.21,1350.5 1398.91,1350.7 1399.62,1350.9 1400.32,1351.1 1401.02,1351.31 1401.72,1351.51 1402.42,1351.71 1403.12,1351.91 1403.82,1352.1 1404.53,1352.3 1405.23,1352.5 1405.93,1352.7 1406.63,1352.89 1407.33,1353.09 1408.03,1353.28 1408.73,1353.48 1409.44,1353.67 1410.14,1353.86 1410.84,1354.06 1411.54,1354.25 1412.24,1354.44 1412.94,1354.63 1413.64,1354.82 1414.34,1355.01 1415.05,1355.2 1415.75,1355.39 1416.45,1355.57 1417.15,1355.76 1417.85,1355.95 1418.55,1356.13 1419.25,1356.32 1419.96,1356.5 1420.66,1356.69 1421.36,1356.87 1422.06,1357.05 1422.76,1357.23 1423.46,1357.42 1424.16,1357.6 1424.86,1357.78 1425.57,1357.96 1426.27,1358.14 1426.97,1358.31 1427.67,1358.49 1428.37,1358.67 1429.07,1358.85 1429.77,1359.02 1430.48,1359.2 1431.18,1359.37 1431.88,1359.55 1432.58,1359.72 1433.28,1359.89 1433.98,1360.06 1434.68,1360.24 1435.39,1360.41 1436.09,1360.58 1436.79,1360.75 1437.49,1360.92 1438.19,1361.08 1438.89,1361.25 1439.59,1361.42 1440.29,1361.59 1441,1361.75 1441.7,1361.92 1442.4,1362.08 1443.1,1362.25 1443.8,1362.41 1444.5,1362.57 1445.2,1362.74 1445.91,1362.9 1446.61,1363.06 1447.31,1363.22 1448.01,1363.38 1448.71,1363.54 1449.41,1363.7 1450.11,1363.86 1450.81,1364.02 1451.52,1364.17 1452.22,1364.33 1452.92,1364.48 1453.62,1364.64 1454.32,1364.79 1455.02,1364.95 1455.72,1365.1 1456.43,1365.25 1457.13,1365.41 1457.83,1365.56 1458.53,1365.71 1459.23,1365.86 1459.93,1366.01 1460.63,1366.16 1461.34,1366.31 1462.04,1366.45 1462.74,1366.6 1463.44,1366.75 1464.14,1366.89 1464.84,1367.04 1465.54,1367.18 1466.24,1367.33 1466.95,1367.47 1467.65,1367.61 1468.35,1367.76 1469.05,1367.9 1469.75,1368.04 1470.45,1368.18 1471.15,1368.32 1471.86,1368.46 1472.56,1368.6 1473.26,1368.73 1473.96,1368.87 1474.66,1369.01 1475.36,1369.15 1476.06,1369.28 1476.77,1369.42 1477.47,1369.55 1478.17,1369.68 1478.87,1369.82 1479.57,1369.95 1480.27,1370.08 1480.97,1370.21 1481.67,1370.34 1482.38,1370.47 1483.08,1370.6 1483.78,1370.73 1484.48,1370.86 1485.18,1370.99 1485.88,1371.12 1486.58,1371.24 1487.29,1371.37 1487.99,1371.49 1488.69,1371.62 1489.39,1371.74 1490.09,1371.86 1490.79,1371.99 1491.49,1372.11 1492.19,1372.23 1492.9,1372.35 1493.6,1372.47 1494.3,1372.59 1495,1372.71 1495.7,1372.83 1496.4,1372.95 1497.1,1373.06 1497.81,1373.18 1498.51,1373.3 1499.21,1373.41 1499.91,1373.53 1500.61,1373.64 1501.31,1373.75 1502.01,1373.87 1502.72,1373.98 1503.42,1374.09 1504.12,1374.2 1504.82,1374.31 1505.52,1374.42 1506.22,1374.53 1506.92,1374.64 1507.62,1374.75 1508.33,1374.86 1509.03,1374.96 1509.73,1375.07 1510.43,1375.17 1511.13,1375.28 1511.83,1375.38 1512.53,1375.49 1513.24,1375.59 1513.94,1375.69 1514.64,1375.8 1515.34,1375.9 1516.04,1376 1516.74,1376.1 1517.44,1376.2 1518.14,1376.3 1518.85,1376.39 1519.55,1376.49 1520.25,1376.59 1520.95,1376.69 1521.65,1376.78 1522.35,1376.88 1523.05,1376.97 1523.76,1377.06 1524.46,1377.16 1525.16,1377.25 1525.86,1377.34 1526.56,1377.43 1527.26,1377.53 1527.96,1377.62 1528.67,1377.71 1529.37,1377.79 1530.07,1377.88 1530.77,1377.97 1531.47,1378.06 1532.17,1378.14 1532.87,1378.23 1533.57,1378.32 1534.28,1378.4 1534.98,1378.49 1535.68,1378.57 1536.38,1378.65 1537.08,1378.73 1537.78,1378.82 1538.48,1378.9 1539.19,1378.98 1539.89,1379.06 1540.59,1379.14 1541.29,1379.22 1541.99,1379.29 1542.69,1379.37 1543.39,1379.45 1544.09,1379.52 1544.8,1379.6 1545.5,1379.67 1546.2,1379.75 1546.9,1379.82 1547.6,1379.9 1548.3,1379.97 1549,1380.04 1549.71,1380.11 1550.41,1380.18 1551.11,1380.25 1551.81,1380.32 1552.51,1380.39 1553.21,1380.46 1553.91,1380.53 1554.62,1380.59 1555.32,1380.66 1556.02,1380.73 1556.72,1380.79 1557.42,1380.86 1558.12,1380.92 1558.82,1380.98 1559.52,1381.05 1560.23,1381.11 1560.93,1381.17 1561.63,1381.23 1562.33,1381.29 1563.03,1381.35 1563.73,1381.41 1564.43,1381.47 1565.14,1381.53 1565.84,1381.58 1566.54,1381.64 1567.24,1381.7 1567.94,1381.75 1568.64,1381.81 1569.34,1381.86 1570.05,1381.91 1570.75,1381.97 1571.45,1382.02 1572.15,1382.07 1572.85,1382.12 1573.55,1382.17 1574.25,1382.22 1574.95,1382.27 1575.66,1382.32 1576.36,1382.37 1577.06,1382.42 1577.76,1382.46 1578.46,1382.51 1579.16,1382.56 1579.86,1382.6 1580.57,1382.65 1581.27,1382.69 1581.97,1382.73 1582.67,1382.78 1583.37,1382.82 1584.07,1382.86 1584.77,1382.9 1585.47,1382.94 1586.18,1382.98 1586.88,1383.02 1587.58,1383.06 1588.28,1383.09 1588.98,1383.13 1589.68,1383.17 1590.38,1383.2 1591.09,1383.24 1591.79,1383.27 1592.49,1383.31 1593.19,1383.34 1593.89,1383.37 1594.59,1383.41 1595.29,1383.44 1596,1383.47 1596.7,1383.5 1597.4,1383.53 1598.1,1383.56 1598.8,1383.59 1599.5,1383.61 1600.2,1383.64 1600.9,1383.67 1601.61,1383.69 1602.31,1383.72 1603.01,1383.74 1603.71,1383.77 1604.41,1383.79 1605.11,1383.82 1605.81,1383.84 1606.52,1383.86 1607.22,1383.88 1607.92,1383.9 1608.62,1383.92 1609.32,1383.94 1610.02,1383.96 1610.72,1383.98 1611.42,1383.99 1612.13,1384.01 1612.83,1384.03 1613.53,1384.04 1614.23,1384.06 1614.93,1384.07 1615.63,1384.09 1616.33,1384.1 1617.04,1384.11 1617.74,1384.13 1618.44,1384.14 1619.14,1384.15 1619.84,1384.16 1620.54,1384.17 1621.24,1384.18 1621.95,1384.18 1622.65,1384.19 1623.35,1384.2 1624.05,1384.21 1624.75,1384.21 1625.45,1384.22 1626.15,1384.22 1626.85,1384.23 1627.56,1384.23 1628.26,1384.23 1628.96,1384.23 1629.66,1384.24 1630.36,1384.24 1631.06,1384.24 1631.76,1384.24 1632.47,1384.24 1633.17,1384.24 1633.87,1384.24 1634.57,1384.24 1635.27,1384.24 1635.97,1384.24 1636.67,1384.24 1637.38,1384.24 1638.08,1384.24 1638.78,1384.24 1639.48,1384.24 1640.18,1384.24 1640.88,1384.24 1641.58,1384.24 1642.28,1384.24 1642.99,1384.24 1643.69,1384.24 1644.39,1384.24 1645.09,1384.24 1645.79,1384.24 1646.49,1384.24 1647.19,1384.24 1647.9,1384.24 1648.6,1384.24 1649.3,1384.24 1650,1384.24 1650.7,1384.24 1651.4,1384.24 1652.1,1384.24 1652.8,1384.24 1653.51,1384.24 1654.21,1384.24 1654.91,1384.24 1655.61,1384.24 1656.31,1384.24 1657.01,1384.24 1657.71,1384.24 1658.42,1384.24 1659.12,1384.24 1659.82,1384.24 1660.52,1384.24 1661.22,1384.24 1661.92,1384.24 1662.62,1384.24 1663.33,1384.24 1664.03,1384.24 1664.73,1384.24 1665.43,1384.24 1666.13,1384.24 1666.83,1384.24 1667.53,1384.24 1668.23,1384.24 1668.94,1384.24 1669.64,1384.24 1670.34,1384.24 1671.04,1384.24 1671.74,1384.24 1672.44,1384.24 1673.14,1384.24 1673.85,1384.24 1674.55,1384.24 1675.25,1384.24 1675.95,1384.24 1676.65,1384.24 1677.35,1384.24 1678.05,1384.24 1678.75,1384.24 1679.46,1384.24 1680.16,1384.24 1680.86,1384.24 1681.56,1384.24 1682.26,1384.24 1682.96,1384.24 1683.66,1384.24 1684.37,1384.24 1685.07,1384.24 1685.77,1384.24 1686.47,1384.24 1687.17,1384.24 1687.87,1384.24 1688.57,1384.24 1689.28,1384.24 1689.98,1384.24 1690.68,1384.24 1691.38,1384.24 1692.08,1384.24 1692.78,1384.24 1693.48,1384.24 1694.18,1384.24 1694.89,1384.24 1695.59,1384.24 1696.29,1384.24 1696.99,1384.24 1697.69,1384.24 1698.39,1384.24 1699.09,1384.24 1699.8,1384.24 1700.5,1384.24 1701.2,1384.24 1701.9,1384.24 1702.6,1384.24 1703.3,1384.24 1704,1384.24 1704.7,1384.24 1705.41,1384.24 1706.11,1384.24 1706.81,1384.24 1707.51,1384.24 1708.21,1384.24 1708.91,1384.24 1709.61,1384.24 1710.32,1384.24 1711.02,1384.24 1711.72,1384.24 1712.42,1384.24 1713.12,1384.24 1713.82,1384.24 1714.52,1384.24 1715.23,1384.24 1715.93,1384.24 1716.63,1384.24 1717.33,1384.24 1718.03,1384.24 1718.73,1384.24 1719.43,1384.24 1720.13,1384.24 1720.84,1384.24 1721.54,1384.24 1722.24,1384.24 1722.94,1384.24 1723.64,1384.24 1724.34,1384.24 1725.04,1384.24 1725.75,1384.24 1726.45,1384.24 1727.15,1384.24 1727.85,1384.24 1728.55,1384.24 1729.25,1384.24 1729.95,1384.24 1730.66,1384.24 1731.36,1384.24 1732.06,1384.24 1732.76,1384.24 1733.46,1384.24 1734.16,1384.24 1734.86,1384.24 1735.56,1384.24 1736.27,1384.24 1736.97,1384.24 1737.67,1384.24 1738.37,1384.24 1739.07,1384.24 1739.77,1384.24 1740.47,1384.24 1741.18,1384.24 1741.88,1384.24 1742.58,1384.24 1743.28,1384.24 1743.98,1384.24 1744.68,1384.24 1745.38,1384.24 1746.08,1384.24 1746.79,1384.24 1747.49,1384.24 1748.19,1384.24 1748.89,1384.24 1749.59,1384.24 1750.29,1384.24 1750.99,1384.24 1751.7,1384.24 1752.4,1384.24 1753.1,1384.24 1753.8,1384.24 1754.5,1384.24 1755.2,1384.24 1755.9,1384.24 1756.61,1384.24 1757.31,1384.24 1758.01,1384.24 1758.71,1384.24 1759.41,1384.24 1760.11,1384.24 1760.81,1384.24 1761.51,1384.24 1762.22,1384.24 1762.92,1384.24 1763.62,1384.24 1764.32,1384.24 1765.02,1384.24 1765.72,1384.24 1766.42,1384.24 1767.13,1384.24 1767.83,1384.24 1768.53,1384.24 1769.23,1384.24 1769.93,1384.24 1770.63,1384.24 1771.33,1384.24 1772.03,1384.24 1772.74,1384.24 1773.44,1384.24 1774.14,1384.24 1774.84,1384.24 1775.54,1384.24 1776.24,1384.24 1776.94,1384.24 1777.65,1384.24 1778.35,1384.24 1779.05,1384.24 1779.75,1384.24 1780.45,1384.24 1781.15,1384.24 1781.85,1384.24 1782.56,1384.24 1783.26,1384.24 1783.96,1384.24 1784.66,1384.24 1785.36,1384.24 1786.06,1384.24 1786.76,1384.24 1787.46,1384.24 1788.17,1384.24 1788.87,1384.24 1789.57,1384.24 1790.27,1384.24 1790.97,1384.24 1791.67,1384.24 1792.37,1384.24 1793.08,1384.24 1793.78,1384.24 1794.48,1384.24 1795.18,1384.24 1795.88,1384.24 1796.58,1384.24 1797.28,1384.24 1797.99,1384.24 1798.69,1384.24 1799.39,1384.24 1800.09,1384.24 1800.79,1384.24 1801.49,1384.24 1802.19,1384.24 1802.89,1384.24 1803.6,1384.24 1804.3,1384.24 1805,1384.24 1805.7,1384.24 1806.4,1384.24 1807.1,1384.24 1807.8,1384.24 1808.51,1384.24 1809.21,1384.24 1809.91,1384.24 1810.61,1384.24 1811.31,1384.24 1812.01,1384.24 1812.71,1384.24 1813.41,1384.24 1814.12,1384.24 1814.82,1384.24 1815.52,1384.24 1816.22,1384.24 1816.92,1384.24 1817.62,1384.24 1818.32,1384.24 1819.03,1384.24 1819.73,1384.24 1820.43,1384.24 1821.13,1384.24 1821.83,1384.24 1822.53,1384.24 1823.23,1384.24 1823.94,1384.24 1824.64,1384.24 1825.34,1384.24 1826.04,1384.24 1826.74,1384.24 1827.44,1384.24 1828.14,1384.24 1828.84,1384.24 1829.55,1384.24 1830.25,1384.24 1830.95,1384.24 1831.65,1384.24 1832.35,1384.24 1833.05,1384.24 1833.75,1384.24 1834.46,1384.24 1835.16,1384.24 1835.86,1384.24 1836.56,1384.24 1837.26,1384.24 1837.96,1384.24 1838.66,1384.24 1839.36,1384.24 1840.07,1384.24 1840.77,1384.24 1841.47,1384.24 1842.17,1384.24 1842.87,1384.24 1843.57,1384.24 1844.27,1384.24 1844.98,1384.24 1845.68,1384.24 1846.38,1384.24 1847.08,1384.24 1847.78,1384.24 1848.48,1384.24 1849.18,1384.24 1849.89,1384.24 1850.59,1384.24 1851.29,1384.24 1851.99,1384.24 1852.69,1384.24 1853.39,1384.24 1854.09,1384.24 1854.79,1384.24 1855.5,1384.24 1856.2,1384.24 1856.9,1384.24 1857.6,1384.24 1858.3,1384.24 1859,1384.24 1859.7,1384.24 1860.41,1384.24 1861.11,1384.24 1861.81,1384.24 1862.51,1384.24 1863.21,1384.24 1863.91,1384.24 1864.61,1384.24 1865.32,1384.24 1866.02,1384.24 1866.72,1384.24 1867.42,1384.24 1868.12,1384.24 1868.82,1384.24 1869.52,1384.24 1870.22,1384.24 1870.93,1384.24 1871.63,1384.24 1872.33,1384.24 1873.03,1384.24 1873.73,1384.24 1874.43,1384.24 1875.13,1384.24 1875.84,1384.24 1876.54,1384.24 1877.24,1384.24 1877.94,1384.24 1878.64,1384.24 1879.34,1384.24 1880.04,1384.24 1880.74,1384.24 1881.45,1384.24 1882.15,1384.24 1882.85,1384.24 1883.55,1384.24 1884.25,1384.24 1884.95,1384.24 1885.65,1384.24 1886.36,1384.24 1887.06,1384.24 1887.76,1384.24 1888.46,1384.24 1889.16,1384.24 1889.86,1384.24 1890.56,1384.24 1891.27,1384.24 1891.97,1384.24 1892.67,1384.24 1893.37,1384.24 1894.07,1384.24 1894.77,1384.24 1895.47,1384.24 1896.17,1384.24 1896.88,1384.24 1897.58,1384.24 1898.28,1384.24 1898.98,1384.24 1899.68,1384.24 1900.38,1384.24 1901.08,1384.24 1901.79,1384.24 1902.49,1384.24 1903.19,1384.24 1903.89,1384.24 1904.59,1384.24 1905.29,1384.24 1905.99,1384.24 1906.69,1384.24 1907.4,1384.24 1908.1,1384.24 1908.8,1384.24 1909.5,1384.24 1910.2,1384.24 1910.9,1384.24 1911.6,1384.24 1912.31,1384.24 1913.01,1384.24 1913.71,1384.24 1914.41,1384.24 1915.11,1384.24 1915.81,1384.24 1916.51,1384.24 1917.22,1384.24 1917.92,1384.24 1918.62,1384.24 1919.32,1384.24 1920.02,1384.24 1920.72,1384.24 1921.42,1384.24 1922.12,1384.24 1922.83,1384.24 1923.53,1384.24 1924.23,1384.24 1924.93,1384.24 1925.63,1384.24 1926.33,1384.24 1927.03,1384.24 1927.74,1384.24 1928.44,1384.24 1929.14,1384.24 1929.84,1384.24 1930.54,1384.24 1931.24,1384.24 1931.94,1384.24 1932.64,1384.24 1933.35,1384.24 1934.05,1384.24 1934.75,1384.24 1935.45,1384.24 1936.15,1384.24 1936.85,1384.24 1937.55,1384.24 1938.26,1384.24 1938.96,1384.24 1939.66,1384.24 1940.36,1384.24 1941.06,1384.24 1941.76,1384.24 1942.46,1384.24 1943.17,1384.24 1943.87,1384.24 1944.57,1384.24 1945.27,1384.24 1945.97,1384.24 1946.67,1384.24 1947.37,1384.24 1948.07,1384.24 1948.78,1384.24 1949.48,1384.24 1950.18,1384.24 1950.88,1384.24 1951.58,1384.24 1952.28,1384.24 1952.98,1384.24 1953.69,1384.24 1954.39,1384.24 1955.09,1384.24 1955.79,1384.24 1956.49,1384.24 1957.19,1384.24 1957.89,1384.24 1958.6,1384.24 1959.3,1384.24 1960,1384.24 1960.7,1384.24 1961.4,1384.24 1962.1,1384.24 1962.8,1384.24 1963.5,1384.24 1964.21,1384.24 1964.91,1384.24 1965.61,1384.24 1966.31,1384.24 1967.01,1384.24 1967.71,1384.24 1968.41,1384.24 1969.12,1384.24 1969.82,1384.24 1970.52,1384.24 1971.22,1384.24 1971.92,1384.24 1972.62,1384.24 1973.32,1384.24 1974.02,1384.24 1974.73,1384.24 1975.43,1384.24 1976.13,1384.24 1976.83,1384.24 1977.53,1384.24 1978.23,1384.24 1978.93,1384.24 1979.64,1384.24 1980.34,1384.24 1981.04,1384.24 1981.74,1384.24 1982.44,1384.24 1983.14,1384.24 1983.84,1384.24 1984.55,1384.24 1985.25,1384.24 1985.95,1384.24 1986.65,1384.24 1987.35,1384.24 1988.05,1384.24 1988.75,1384.24 1989.45,1384.24 1990.16,1384.24 1990.86,1384.24 1991.56,1384.24 1992.26,1384.24 1992.96,1384.24 1993.66,1384.24 1994.36,1384.24 1995.07,1384.24 1995.77,1384.24 1996.47,1384.24 1997.17,1384.24 1997.87,1384.24 1998.57,1384.24 1999.27,1384.24 1999.97,1384.24 2000.68,1384.24 2001.38,1384.24 2002.08,1384.24 2002.78,1384.24 2003.48,1384.24 2004.18,1384.24 2004.88,1384.24 2005.59,1384.24 2006.29,1384.24 2006.99,1384.24 2007.69,1384.24 2008.39,1384.24 2009.09,1384.24 2009.79,1384.24 2010.5,1384.24 2011.2,1384.24 2011.9,1384.24 2012.6,1384.24 2013.3,1384.24 2014,1384.24 2014.7,1384.24 2015.4,1384.24 2016.11,1384.24 2016.81,1384.24 2017.51,1384.24 2018.21,1384.24 2018.91,1384.24 2019.61,1384.24 2020.31,1384.24 2021.02,1384.24 2021.72,1384.24 2022.42,1384.24 2023.12,1384.24 2023.82,1384.24 2024.52,1384.24 2025.22,1384.24 2025.93,1384.24 2026.63,1384.24 2027.33,1384.24 2028.03,1384.24 2028.73,1384.24 2029.43,1384.24 2030.13,1384.24 2030.83,1384.24 2031.54,1384.24 2032.24,1384.24 2032.94,1384.24 2033.64,1384.24 2034.34,1384.24 2035.04,1384.24 2035.74,1384.24 2036.45,1384.24 2037.15,1384.24 2037.85,1384.24 2038.55,1384.24 2039.25,1384.24 2039.95,1384.24 2040.65,1384.24 2041.35,1384.24 2042.06,1384.24 2042.76,1384.24 2043.46,1384.24 2044.16,1384.24 2044.86,1384.24 2045.56,1384.24 2046.26,1384.24 2046.97,1384.24 2047.67,1384.24 2048.37,1384.24 2049.07,1384.24 2049.77,1384.24 2050.47,1384.24 2051.17,1384.24 2051.88,1384.24 2052.58,1384.24 2053.28,1384.24 2053.98,1384.24 2054.68,1384.24 2055.38,1384.24 2056.08,1384.24 2056.78,1384.24 2057.49,1384.24 2058.19,1384.24 2058.89,1384.24 2059.59,1384.24 2060.29,1384.24 2060.99,1384.24 2061.69,1384.24 2062.4,1384.24 2063.1,1384.24 2063.8,1384.24 2064.5,1384.24 2065.2,1384.24 2065.9,1384.24 2066.6,1384.24 2067.3,1384.24 2068.01,1384.24 2068.71,1384.24 2069.41,1384.24 2070.11,1384.24 2070.81,1384.24 2071.51,1384.24 2072.21,1384.24 2072.92,1384.24 2073.62,1384.24 2074.32,1384.24 2075.02,1384.24 2075.72,1384.24 2076.42,1384.24 2077.12,1384.24 2077.83,1384.24 2078.53,1384.24 2079.23,1384.24 2079.93,1384.24 2080.63,1384.24 2081.33,1384.24 2082.03,1384.24 2082.73,1384.24 2083.44,1384.24 2084.14,1384.24 2084.84,1384.24 2085.54,1384.24 2086.24,1384.24 2086.94,1384.24 2087.64,1384.24 2088.35,1384.24 2089.05,1384.24 2089.75,1384.24 2090.45,1384.24 2091.15,1384.24 2091.85,1384.24 2092.55,1384.24 2093.25,1384.24 2093.96,1384.24 2094.66,1384.24 2095.36,1384.24 2096.06,1384.24 2096.76,1384.24 2097.46,1384.24 2098.16,1384.24 2098.87,1384.24 2099.57,1384.24 2100.27,1384.24 2100.97,1384.24 2101.67,1384.24 2102.37,1384.24 2103.07,1384.24 2103.78,1384.24 2104.48,1384.24 2105.18,1384.24 2105.88,1384.24 2106.58,1384.24 2107.28,1384.24 2107.98,1384.24 2108.68,1384.24 2109.39,1384.24 2110.09,1384.24 2110.79,1384.24 2111.49,1384.24 2112.19,1384.24 2112.89,1384.24 2113.59,1384.24 2114.3,1384.24 2115,1384.24 2115.7,1384.24 2116.4,1384.24 2117.1,1384.24 2117.8,1384.24 2118.5,1384.24 2119.21,1384.24 2119.91,1384.24 2120.61,1384.24 2121.31,1384.24 2122.01,1384.24 2122.71,1384.24 2123.41,1384.24 2124.11,1384.24 2124.82,1384.24 2125.52,1384.24 2126.22,1384.24 2126.92,1384.24 2127.62,1384.24 2128.32,1384.24 2129.02,1384.24 2129.73,1384.24 2130.43,1384.24 2131.13,1384.24 2131.83,1384.24 2132.53,1384.24 2133.23,1384.24 2133.93,1384.24 2134.63,1384.24 2135.34,1384.24 2136.04,1384.24 2136.74,1384.24 2137.44,1384.24 2138.14,1384.24 2138.84,1384.24 2139.54,1384.24 2140.25,1384.24 2140.95,1384.24 2141.65,1384.24 2142.35,1384.24 2143.05,1384.24 2143.75,1384.24 2144.45,1384.24 2145.16,1384.24 2145.86,1384.24 2146.56,1384.24 2147.26,1384.24 2147.96,1384.24 2148.66,1384.24 2149.36,1384.24 2150.06,1384.24 2150.77,1384.24 2151.47,1384.24 2152.17,1384.24 2152.87,1384.24 2153.57,1384.24 2154.27,1384.24 2154.97,1384.24 2155.68,1384.24 2156.38,1384.24 2157.08,1384.24 2157.78,1384.24 2158.48,1384.24 2159.18,1384.24 2159.88,1384.24 2160.58,1384.24 2161.29,1384.24 2161.99,1384.24 2162.69,1384.24 2163.39,1384.24 2164.09,1384.24 2164.79,1384.24 2165.49,1384.24 2166.2,1384.24 2166.9,1384.24 2167.6,1384.24 2168.3,1384.24 2169,1384.24 2169.7,1384.24 2170.4,1384.24 2171.11,1384.24 2171.81,1384.24 2172.51,1384.24 2173.21,1384.24 2173.91,1384.24 2174.61,1384.24 2175.31,1384.24 2176.01,1384.24 2176.72,1384.24 2177.42,1384.24 2178.12,1384.24 2178.82,1384.24 2179.52,1384.24 2180.22,1384.24 2180.92,1384.24 2181.63,1384.24 2182.33,1384.24 2183.03,1384.24 2183.73,1384.24 2184.43,1384.24 2185.13,1384.24 2185.83,1384.24 2186.54,1384.24 2187.24,1384.24 2187.94,1384.24 2188.64,1384.24 2189.34,1384.24 2190.04,1384.24 2190.74,1384.24 2191.44,1384.24 2192.15,1384.24 2192.85,1384.24 2193.55,1384.24 2194.25,1384.24 2194.95,1384.24 2195.65,1384.24 2196.35,1384.24 2197.06,1384.24 2197.76,1384.24 2198.46,1384.24 2199.16,1384.24 2199.86,1384.24 2200.56,1384.24 2201.26,1384.24 2201.96,1384.24 2202.67,1384.24 2203.37,1384.24 2204.07,1384.24 2204.77,1384.24 2205.47,1384.24 2206.17,1384.24 2206.87,1384.24 2207.58,1384.24 2208.28,1384.24 2208.98,1384.24 2209.68,1384.24 2210.38,1384.24 2211.08,1384.24 2211.78,1384.24 2212.49,1384.24 2213.19,1384.24 2213.89,1384.24 2214.59,1384.24 2215.29,1384.24 2215.99,1384.24 2216.69,1384.24 2217.39,1384.24 2218.1,1384.24 2218.8,1384.24 2219.5,1384.24 2220.2,1384.24 2220.9,1384.24 2221.6,1384.24 2222.3,1384.24 2223.01,1384.24 2223.71,1384.24 2224.41,1384.24 2225.11,1384.24 2225.81,1384.24 2226.51,1384.24 2227.21,1384.24 2227.91,1384.24 2228.62,1384.24 2229.32,1384.24 2230.02,1384.24 2230.72,1384.24 2231.42,1384.24 2232.12,1384.24 2232.82,1384.24 2233.53,1384.24 2234.23,1384.24 2234.93,1384.24 2235.63,1384.24 2236.33,1384.24 2237.03,1384.24 2237.73,1384.24 2238.44,1384.24 2239.14,1384.24 2239.84,1384.24 2240.54,1384.24 2241.24,1384.24 2241.94,1384.24 2242.64,1384.24 2243.34,1384.24 2244.05,1384.24 2244.75,1384.24 2245.45,1384.24 2246.15,1384.24 2246.85,1384.24 2247.55,1384.24 2248.25,1384.24 2248.96,1384.24 2249.66,1384.24 2250.36,1384.24 2251.06,1384.24 2251.76,1384.24 2252.46,1384.24 2253.16,1384.24 2253.87,1384.24 2254.57,1384.24 2255.27,1384.24 2255.97,1384.24 2256.67,1384.24 2257.37,1384.24 2258.07,1384.24 2258.77,1384.24 2259.48,1384.24 2260.18,1384.24 2260.88,1384.24 2261.58,1384.24 2262.28,1384.24 2262.98,1384.24 2263.68,1384.24 2264.39,1384.24 2265.09,1384.24 2265.79,1384.24 2266.49,1384.24 2267.19,1384.24 2267.89,1384.24 2268.59,1384.24 2269.29,1384.24 2270,1384.24 2270.7,1384.24 2271.4,1384.24 2272.1,1384.24 2272.8,1384.24 2273.5,1384.24 2274.2,1384.24 2274.91,1384.24 2275.61,1384.24 2276.31,1384.24 2277.01,1384.24 2277.71,1384.24 2278.41,1384.24 2279.11,1384.24 2279.82,1384.24 2280.52,1384.24 2281.22,1384.24 2281.92,1384.24 2282.62,1384.24 2283.32,1384.24 2284.02,1384.24 2284.72,1384.24 2285.43,1384.24 2286.13,1384.24 2286.83,1384.24 2287.53,1384.24 2288.23,1384.24 2288.93,1384.24 2289.63,1384.24 2290.34,1384.24 2291.04,1384.24 2291.74,1384.24 2292.44,1384.24 2293.14,1384.24 2293.84,1384.24 2294.54,1384.24 2295.24,1384.24 2295.95,1384.24 2296.65,1384.24 2297.35,1384.24 2298.05,1384.24 2298.75,1384.24 2299.45,1384.24 2300.15,1384.24 2300.86,1384.24 2301.56,1384.24 2302.26,1384.24 2302.96,1384.24 2303.66,1384.24 2304.36,1384.24 2305.06,1384.24 2305.77,1384.24 2306.47,1384.24 2307.17,1384.24 2307.87,1384.24 2308.57,1384.24 2309.27,1384.24 2309.97,1384.24 2310.67,1384.24 2311.38,1384.24 2312.08,1384.24 2312.78,1384.24 2313.48,1384.24 2314.18,1384.24 2314.88,1384.24 2315.58,1384.24 2316.29,1384.24 2316.99,1384.24 2317.69,1384.24 2318.39,1384.24 2319.09,1384.24 2319.79,1384.24 2320.49,1384.24 2321.19,1384.24 2321.9,1384.24 2322.6,1384.24 2323.3,1384.24 2324,1384.24 2324.7,1384.24 2325.4,1384.24 2326.1,1384.24 2326.81,1384.24 2327.51,1384.24 2328.21,1384.24 2328.91,1384.24 2329.61,1384.24 2330.31,1384.24 2331.01,1384.24 2331.72,1384.24 2332.42,1384.24 2333.12,1384.24 2333.82,1384.24 2334.52,1384.24 2335.22,1384.24 2335.92,1384.24 2336.62,1384.24 2337.33,1384.24 2338.03,1384.24 2338.73,1384.24 2339.43,1384.24 2340.13,1384.24 2340.83,1384.24 2341.53,1384.24 2342.24,1384.24 2342.94,1384.24 2343.64,1384.24 2344.34,1384.24 2345.04,1384.24 2345.74,1384.24 2346.44,1384.24 2347.15,1384.24 2347.85,1384.24 2348.55,1384.24 2349.25,1384.24 2349.95,1384.24 2350.65,1384.24 2351.35,1384.24 2352.05,1384.24 2352.76,1384.24 "/>
<path clip-path="url(#clip660)" d="M1937.55 248.629 L2280.54 248.629 L2280.54 93.1086 L1937.55 93.1086  Z" fill="#ffffff" fill-rule="evenodd" fill-opacity="1"/>
<polyline clip-path="url(#clip660)" style="stroke:#000000; stroke-linecap:round; stroke-linejoin:round; stroke-width:4; stroke-opacity:1; fill:none" points="1937.55,248.629 2280.54,248.629 2280.54,93.1086 1937.55,93.1086 1937.55,248.629 "/>
<polyline clip-path="url(#clip660)" style="stroke:#009af9; stroke-linecap:round; stroke-linejoin:round; stroke-width:4; stroke-opacity:1; fill:none" points="1961.62,144.949 2106.05,144.949 "/>
<path clip-path="url(#clip660)" d="M2154.15 148.201 L2154.15 150.284 L2134.57 150.284 Q2134.85 154.682 2137.21 156.997 Q2139.59 159.289 2143.83 159.289 Q2146.28 159.289 2148.57 158.687 Q2150.89 158.085 2153.16 156.881 L2153.16 160.909 Q2150.87 161.881 2148.46 162.391 Q2146.05 162.9 2143.57 162.9 Q2137.37 162.9 2133.74 159.289 Q2130.13 155.678 2130.13 149.52 Q2130.13 143.155 2133.55 139.428 Q2137 135.678 2142.83 135.678 Q2148.07 135.678 2151.1 139.057 Q2154.15 142.414 2154.15 148.201 M2149.89 146.951 Q2149.85 143.456 2147.93 141.372 Q2146.03 139.289 2142.88 139.289 Q2139.32 139.289 2137.16 141.303 Q2135.03 143.317 2134.71 146.974 L2149.89 146.951 Z" fill="#000000" fill-rule="nonzero" fill-opacity="1" /><path clip-path="url(#clip660)" d="M2181.86 136.303 L2172.49 148.919 L2182.35 162.229 L2177.32 162.229 L2169.78 152.043 L2162.23 162.229 L2157.21 162.229 L2167.28 148.664 L2158.07 136.303 L2163.09 136.303 L2169.96 145.539 L2176.84 136.303 L2181.86 136.303 Z" fill="#000000" fill-rule="nonzero" fill-opacity="1" /><path clip-path="url(#clip660)" d="M2200.15 149.196 Q2194.99 149.196 2193 150.377 Q2191.01 151.557 2191.01 154.405 Q2191.01 156.673 2192.49 158.016 Q2193.99 159.335 2196.56 159.335 Q2200.1 159.335 2202.23 156.835 Q2204.38 154.312 2204.38 150.145 L2204.38 149.196 L2200.15 149.196 M2208.64 147.437 L2208.64 162.229 L2204.38 162.229 L2204.38 158.293 Q2202.93 160.655 2200.75 161.789 Q2198.57 162.9 2195.43 162.9 Q2191.45 162.9 2189.08 160.678 Q2186.75 158.432 2186.75 154.682 Q2186.75 150.307 2189.66 148.085 Q2192.6 145.863 2198.41 145.863 L2204.38 145.863 L2204.38 145.446 Q2204.38 142.507 2202.44 140.909 Q2200.52 139.289 2197.02 139.289 Q2194.8 139.289 2192.7 139.821 Q2190.59 140.354 2188.64 141.419 L2188.64 137.483 Q2190.98 136.581 2193.18 136.141 Q2195.38 135.678 2197.46 135.678 Q2203.09 135.678 2205.87 138.594 Q2208.64 141.511 2208.64 147.437 Z" fill="#000000" fill-rule="nonzero" fill-opacity="1" /><path clip-path="url(#clip660)" d="M2236.07 137.298 L2236.07 141.28 Q2234.27 140.284 2232.44 139.798 Q2230.63 139.289 2228.78 139.289 Q2224.64 139.289 2222.35 141.928 Q2220.06 144.544 2220.06 149.289 Q2220.06 154.034 2222.35 156.673 Q2224.64 159.289 2228.78 159.289 Q2230.63 159.289 2232.44 158.803 Q2234.27 158.293 2236.07 157.298 L2236.07 161.233 Q2234.29 162.067 2232.37 162.483 Q2230.47 162.9 2228.32 162.9 Q2222.46 162.9 2219.01 159.219 Q2215.57 155.539 2215.57 149.289 Q2215.57 142.946 2219.04 139.312 Q2222.53 135.678 2228.6 135.678 Q2230.57 135.678 2232.44 136.095 Q2234.32 136.488 2236.07 137.298 Z" fill="#000000" fill-rule="nonzero" fill-opacity="1" /><path clip-path="url(#clip660)" d="M2247.69 128.942 L2247.69 136.303 L2256.47 136.303 L2256.47 139.613 L2247.69 139.613 L2247.69 153.687 Q2247.69 156.858 2248.55 157.761 Q2249.43 158.664 2252.09 158.664 L2256.47 158.664 L2256.47 162.229 L2252.09 162.229 Q2247.16 162.229 2245.29 160.4 Q2243.41 158.548 2243.41 153.687 L2243.41 139.613 L2240.29 139.613 L2240.29 136.303 L2243.41 136.303 L2243.41 128.942 L2247.69 128.942 Z" fill="#000000" fill-rule="nonzero" fill-opacity="1" /><polyline clip-path="url(#clip660)" style="stroke:#e26f46; stroke-linecap:round; stroke-linejoin:round; stroke-width:4; stroke-opacity:1; fill:none" points="1961.62,196.789 2106.05,196.789 "/>
<path clip-path="url(#clip660)" d="M2130.13 203.837 L2130.13 188.143 L2134.39 188.143 L2134.39 203.675 Q2134.39 207.356 2135.82 209.208 Q2137.26 211.036 2140.13 211.036 Q2143.57 211.036 2145.57 208.837 Q2147.58 206.638 2147.58 202.842 L2147.58 188.143 L2151.84 188.143 L2151.84 214.069 L2147.58 214.069 L2147.58 210.087 Q2146.03 212.448 2143.97 213.606 Q2141.93 214.74 2139.22 214.74 Q2134.76 214.74 2132.44 211.962 Q2130.13 209.184 2130.13 203.837 M2140.84 187.518 L2140.84 187.518 Z" fill="#000000" fill-rule="nonzero" fill-opacity="1" /></svg>
